<svg xmlns="http://www.w3.org/2000/svg" width="24" height="23" viewBox="0 0 24 23">
  <g id="view_1" data-name="view 1" transform="translate(-4653 6293)" fill="#fff">
    <path d="M 4675.99951171875 -6270.5 L 4653.99951171875 -6270.5 C 4653.72412109375 -6270.5 4653.5 -6270.72412109375 4653.5 -6271 L 4653.5 -6280.00048828125 C 4653.5 -6280.27587890625 4653.72412109375 -6280.5 4653.99951171875 -6280.5 L 4675.99951171875 -6280.5 C 4676.275390625 -6280.5 4676.49951171875 -6280.27587890625 4676.49951171875 -6280.00048828125 L 4676.49951171875 -6271 C 4676.49951171875 -6270.72412109375 4676.275390625 -6270.5 4675.99951171875 -6270.5 Z M 4675.99951171875 -6282.5 L 4653.99951171875 -6282.5 C 4653.72412109375 -6282.5 4653.5 -6282.72412109375 4653.5 -6282.99951171875 L 4653.5 -6292.00048828125 C 4653.5 -6292.27587890625 4653.72412109375 -6292.5 4653.99951171875 -6292.5 L 4675.99951171875 -6292.5 C 4676.275390625 -6292.5 4676.49951171875 -6292.27587890625 4676.49951171875 -6292.00048828125 L 4676.49951171875 -6282.99951171875 C 4676.49951171875 -6282.72412109375 4676.275390625 -6282.5 4675.99951171875 -6282.5 Z" stroke="none"/>
    <path d="M 4675.99951171875 -6271 L 4675.99951171875 -6280 L 4654 -6280.00048828125 L 4653.99951171875 -6271 L 4675.99951171875 -6271 M 4675.99951171875 -6282.99951171875 L 4675.99951171875 -6292 L 4654 -6292.00048828125 L 4653.99951171875 -6283 L 4675.99951171875 -6282.99951171875 M 4675.99951171875 -6270 L 4653.99951171875 -6270 C 4653.4482421875 -6270 4653 -6270.447265625 4653 -6271 L 4653 -6280.00048828125 C 4653 -6280.5517578125 4653.4482421875 -6281 4653.99951171875 -6281 L 4675.99951171875 -6281 C 4676.55224609375 -6281 4676.99951171875 -6280.5517578125 4676.99951171875 -6280.00048828125 L 4676.99951171875 -6271 C 4676.99951171875 -6270.447265625 4676.55224609375 -6270 4675.99951171875 -6270 Z M 4675.99951171875 -6282 L 4653.99951171875 -6282 C 4653.4482421875 -6282 4653 -6282.4482421875 4653 -6282.99951171875 L 4653 -6292.00048828125 C 4653 -6292.55322265625 4653.4482421875 -6293 4653.99951171875 -6293 L 4675.99951171875 -6293 C 4676.55224609375 -6293 4676.99951171875 -6292.55322265625 4676.99951171875 -6292.00048828125 L 4676.99951171875 -6282.99951171875 C 4676.99951171875 -6282.4482421875 4676.55224609375 -6282 4675.99951171875 -6282 Z" stroke="none" fill="#000"/>
  </g>
</svg>
