<svg id="그룹_8373" data-name="그룹 8373" xmlns="http://www.w3.org/2000/svg" width="20" height="20" viewBox="0 0 20 20">
  <path id="패스_15455" data-name="패스 15455" d="M0,0H20V20H0Z" fill="none"/>
  <g id="그룹_8374" data-name="그룹 8374" transform="translate(-2 -3)">
    <path id="패스_15456" data-name="패스 15456" d="M12,21.5A7.508,7.508,0,0,1,4.5,14h1A6.5,6.5,0,1,0,7.4,9.4,6.507,6.507,0,0,0,5.5,14h-1A7.5,7.5,0,1,1,12,21.5Z" fill="#585958"/>
    <path id="패스_15457" data-name="패스 15457" d="M12.5,11h-1V5h1Z" fill="#585958"/>
    <path id="패스_15458" data-name="패스 15458" d="M12,11.5a4.933,4.933,0,0,1-2.224-.554l-.447-.224.447-.894.447.224a3.741,3.741,0,0,0,3.553,0l.447-.224.447.894-.447.224A4.933,4.933,0,0,1,12,11.5Z" fill="#585958"/>
  </g>
</svg>
