<svg id="그룹_8372" data-name="그룹 8372" xmlns="http://www.w3.org/2000/svg" width="20" height="20" viewBox="0 0 20 20">
  <path id="패스_15452" data-name="패스 15452" d="M0,0H20V20H0Z" fill="none"/>
  <path id="패스_15453" data-name="패스 15453" d="M15,11v.008" transform="translate(-2.5 -1.833)" fill="none" stroke="#585958" stroke-linecap="round" stroke-linejoin="round" stroke-width="1.5"/>
  <path id="패스_15454" data-name="패스 15454" d="M13.833,3V6.169a5.016,5.016,0,0,1,2.215,2.664h1.117A.833.833,0,0,1,18,9.667v1.667a.833.833,0,0,1-.833.833H16.047a5.007,5.007,0,0,1-1.382,2.061v1.689a1.25,1.25,0,1,1-2.5,0v-.486a5.033,5.033,0,0,1-.833.069H8a5.034,5.034,0,0,1-.833-.069v.486a1.25,1.25,0,1,1-2.5,0V14.227A5,5,0,0,1,8,5.5h2.083L13.832,3Z" transform="translate(-0.5 -0.5)" fill="none" stroke="#585958" stroke-linecap="square" stroke-linejoin="round" stroke-width="1"/>
</svg>
