<svg xmlns="http://www.w3.org/2000/svg" xmlns:xlink="http://www.w3.org/1999/xlink" width="40" height="40" viewBox="0 0 40 40">
  <defs>
    <clipPath id="clip-path">
      <rect id="사각형_3641" data-name="사각형 3641" width="40" height="40" fill="#666"/>
    </clipPath>
  </defs>
  <g id="ico" transform="translate(0 -8)">
    <g id="그룹_731" data-name="그룹 731" transform="translate(0 8)" clip-path="url(#clip-path)">
      <path id="패스_135" data-name="패스 135" d="M37.071,2.929a10,10,0,0,0-14.142,0l-20,20A10,10,0,1,0,17.071,37.071l20-20a10,10,0,0,0,0-14.142M20,32.121,7.878,20,20,7.878,32.121,20Zm-3.939,3.939A8.572,8.572,0,0,1,3.939,23.939L6.868,21.01,18.989,33.131Zm20-20-2.929,2.929L21.01,6.868l2.929-2.929A8.572,8.572,0,1,1,36.061,16.061" fill="#666"/>
      <rect id="사각형_3632" data-name="사각형 3632" width="1.429" height="5" transform="translate(19.286 10.714)" fill="#666"/>
      <rect id="사각형_3633" data-name="사각형 3633" width="1.429" height="5" transform="translate(19.286 17.143)" fill="#666"/>
      <rect id="사각형_3634" data-name="사각형 3634" width="1.429" height="5" transform="translate(26.429 17.143)" fill="#666"/>
      <rect id="사각형_3635" data-name="사각형 3635" width="1.429" height="5" transform="translate(12.143 17.143)" fill="#666"/>
      <rect id="사각형_3636" data-name="사각형 3636" width="1.429" height="5" transform="translate(19.286 23.571)" fill="#666"/>
      <rect id="사각형_3637" data-name="사각형 3637" width="1.429" height="5" transform="translate(15.714 14.286)" fill="#666"/>
      <rect id="사각형_3638" data-name="사각형 3638" width="1.429" height="5" transform="translate(15.714 20.714)" fill="#666"/>
      <rect id="사각형_3639" data-name="사각형 3639" width="1.429" height="5" transform="translate(22.857 14.286)" fill="#666"/>
      <rect id="사각형_3640" data-name="사각형 3640" width="1.429" height="5" transform="translate(22.857 20.714)" fill="#666"/>
    </g>
  </g>
</svg>
