<svg width="101" height="36" viewBox="0 0 101 36" fill="none" xmlns="http://www.w3.org/2000/svg">
<g clip-path="url(#clip0_2901_14746)">
<path d="M58.0769 26.8706H56.7245L55.4663 35.685H56.8187L57.4174 31.4831H58.5869L58.7642 30.24H57.5947L58.0769 26.8706Z" fill="white"/>
<path d="M67.5772 26.8706H66.2248L65.3102 33.2663H66.6627L67.0506 30.5438H68.2146L68.392 29.3006H67.228L67.5772 26.8706Z" fill="white"/>
<path d="M53.6316 30.7181C53.5818 30.2456 53.5984 29.7056 53.6815 29.0981L53.7647 28.485H55.4718L55.6492 27.2419H50.755L50.5776 28.485H52.3513C52.3513 28.485 52.2958 29.7056 51.8691 30.8587C51.8247 30.9769 51.7748 31.095 51.7249 31.2075C51.2427 32.2256 50.3171 33.1425 49.2473 33.8231L50.0954 34.8075C50.0954 34.8075 51.6473 33.9187 52.5952 32.2819C52.6062 32.265 52.6118 32.2537 52.6173 32.2425C53.0885 33.2269 54.2691 34.5825 54.2691 34.5825L55.2778 33.6431C55.2778 33.6431 53.7203 32.3831 53.6372 30.7181H53.6316Z" fill="white"/>
<path d="M60.0058 32.175C61.6465 31.1569 62.2783 30.2006 62.4058 29.9419C62.4058 29.9419 62.5943 30.4594 63.082 31.0219C63.3592 31.3425 63.7305 31.7531 64.2239 32.0231L65.1329 31.0275C65.1329 31.0275 64.961 30.9544 64.7282 30.7856C64.4289 30.5719 64.0188 30.1387 63.725 29.5931C63.5754 29.3175 63.459 28.9912 63.398 28.6144C63.3647 28.4006 63.3536 28.1981 63.3481 28.0181C63.337 27.6694 63.4035 27.3375 63.4257 27.1462H61.9957C61.9735 27.4781 61.8571 28.2937 61.5412 28.8675C61.3804 29.1881 61.1698 29.4919 60.9204 29.7731C60.3938 30.3581 59.8284 30.8081 59.2409 31.1119C59.2187 31.1231 59.1966 31.1344 59.1744 31.1456L59.9836 32.1919C59.9836 32.1919 60.0003 32.1806 60.0058 32.1806V32.175Z" fill="white"/>
<path d="M61.591 32.8331H60.2386L59.967 34.7231C59.967 34.7231 59.967 34.7231 59.967 34.7287C59.9615 34.785 59.9448 34.9256 59.9559 35.0156C60.0003 35.3306 60.1998 35.5669 60.5324 35.5669H66.5241L66.7015 34.3237H61.3749L61.591 32.8331Z" fill="white"/>
<path d="M17.7368 35.685H19.0892L20.3474 26.8706H18.995L17.7368 35.685Z" fill="white"/>
<path d="M28.1683 30.0544H27.2925L27.747 26.8706H26.3946L25.5188 32.9906H22.6421L22.9082 31.14H24.8426L25.4024 27.2419H22.1156L21.9382 28.485H23.8726L23.6731 29.8969H21.7387L21.2398 33.39C21.2343 33.4462 21.2176 33.5925 21.2287 33.6825C21.2731 33.9975 21.4782 34.2337 21.8052 34.2337H25.347L25.1419 35.6794H26.4943L27.1207 31.2975H27.9964L27.3701 35.6794H28.7225L29.9807 26.865H28.6283L28.1738 30.0487L28.1683 30.0544Z" fill="white"/>
<path d="M36.2108 26.8706L35.7563 30.0544H35.0524V30.0037C35.0524 30.0037 35.0524 29.9869 35.0524 29.9812V29.97C35.0524 29.2106 34.947 28.575 34.7309 28.0969C34.426 27.4275 33.9715 27.0844 33.3729 27.0844H33.3563H33.3396C32.7355 27.0844 32.1978 27.4331 31.7433 28.1194C31.2833 28.8112 30.984 29.7731 30.8565 30.9712C30.7235 32.1862 30.8121 33.1481 31.117 33.8287C31.4219 34.4981 31.8764 34.8412 32.475 34.8412H32.4916H32.5082C33.1124 34.8412 33.6445 34.4925 34.099 33.8062C34.5092 33.1931 34.7918 32.3606 34.9415 31.3369V31.2975H34.947H35.5734L34.947 35.6794H36.2995L37.5577 26.865H36.2052L36.2108 26.8706ZM33.7332 30.96C33.6556 31.68 33.517 32.2875 33.3175 32.7656C33.1179 33.255 32.8962 33.5025 32.6468 33.5081C32.3974 33.5025 32.22 33.2494 32.1258 32.76C32.0371 32.2819 32.0316 31.6744 32.1092 30.96C32.1868 30.24 32.3253 29.6325 32.5249 29.1544C32.7244 28.665 32.9461 28.4175 33.1955 28.4119C33.445 28.4175 33.6223 28.6706 33.711 29.16C33.7997 29.6381 33.8052 30.2456 33.7276 30.96H33.7332Z" fill="white"/>
<path d="M36.948 35.685H38.3059L39.5641 26.8706H38.2117L36.948 35.685Z" fill="white"/>
<path d="M45.5503 32.8612C45.5337 32.7712 45.5282 32.6644 45.5337 32.5406C45.5392 32.3887 45.5614 32.2594 45.5725 32.2031H44.0039C43.9928 32.2987 43.9762 32.3944 43.954 32.49C43.9263 32.6194 43.882 32.7488 43.821 32.8781C43.4995 33.5588 42.6459 34.4363 40.3845 34.7681L41.094 35.8312C41.1882 35.82 41.7369 35.73 42.4076 35.4825C43.0783 35.2294 44.0094 34.7569 44.6136 33.9356L44.6358 33.9075L44.6524 33.9412C44.6524 33.9412 44.8131 34.2675 45.2288 34.6612C45.6168 35.0212 46.3041 35.5162 47.4016 35.8144L48.2607 34.8356C48.1166 34.7962 47.5679 34.6388 47.0025 34.3575C46.1434 33.93 45.6446 33.4125 45.5559 32.8612H45.5503Z" fill="white"/>
<path d="M45.1956 31.8263H46.548L47.2575 26.8706H45.9051L45.6944 28.3556H44.5027L44.3309 29.5538H45.5226L45.1956 31.8263Z" fill="white"/>
<path d="M47.8949 26.8706L47.1854 31.8263H48.5379L49.2473 26.8706H47.8949Z" fill="white"/>
<path d="M41.5097 31.3819C41.5097 31.3819 41.5207 31.3763 41.5207 31.3706C41.5318 31.3594 41.5374 31.3538 41.5485 31.3481C42.2856 30.7013 42.7956 30.0319 42.7956 30.0319C42.7956 30.0319 43.2113 30.9431 43.8321 31.6631C43.8653 31.7025 43.8875 31.725 43.8875 31.725L44.8741 31.0163C44.5803 30.7238 44.3531 30.3919 44.2145 30.1669C44.1591 30.0825 44.1037 29.9869 44.0538 29.8913C44.0039 29.7956 43.9596 29.6944 43.9208 29.5875C43.9208 29.5763 43.9152 29.565 43.9097 29.5594C43.8764 29.4638 43.8487 29.3625 43.821 29.2669C43.821 29.2613 43.821 29.2556 43.821 29.2444C43.821 29.2388 43.821 29.2275 43.821 29.2219C43.6325 28.3894 43.76 27.4894 43.8099 27.1575H42.402C42.402 27.1575 42.3577 28.3388 42.0251 28.9913C41.7868 29.4356 41.4154 29.9363 40.6117 30.5944C40.4233 30.7575 40.2293 30.9038 40.0353 31.0388L40.8279 31.9331C40.8279 31.9331 41.1161 31.7363 41.5152 31.3931L41.5097 31.3819Z" fill="white"/>
<path d="M11.9114 33.39C11.9058 33.4463 11.8837 33.5925 11.9003 33.6825C11.9446 33.9975 12.1442 34.2338 12.4767 34.2338H16.4841L17.4874 27.2363H12.7982L11.9169 33.3844L11.9114 33.39ZM13.9677 28.485H15.9576L15.3146 32.9906H13.3248L13.9677 28.485Z" fill="white"/>
<path d="M68.8188 32.3381H72.4382L72.2442 33.6994H73.5966L73.7906 32.3381H76.7948L76.9722 31.0894H69.0017L68.8188 32.3381Z" fill="white"/>
<path d="M70.5703 33.1031H69.2179L68.9851 34.7288C68.9795 34.785 68.9629 34.9256 68.974 35.0156C69.0183 35.3306 69.2179 35.5669 69.5504 35.5669H75.98L76.1574 34.3238H70.3985L70.5758 33.1031H70.5703Z" fill="white"/>
<path d="M70.6479 29.9981C71.1634 30.3637 71.9837 30.5606 73.0867 30.5831C73.1421 30.5831 73.2031 30.5831 73.2585 30.5831C74.2839 30.5831 75.1043 30.4144 75.6918 30.0825C76.307 29.7337 76.6618 29.2837 76.7394 28.7437C76.817 28.1981 76.6008 27.7369 76.0964 27.3656C75.5809 26.9944 74.7606 26.7975 73.6521 26.7806C73.5966 26.7806 73.5412 26.7806 73.4858 26.7806C72.4604 26.7806 71.6456 26.9494 71.0525 27.2869C70.4317 27.6412 70.077 28.0969 69.9994 28.6369C69.9218 29.1769 70.138 29.6325 70.6479 29.9981ZM71.3962 28.6537C71.435 28.4006 71.6456 28.1925 72.0336 28.0294C72.3883 27.8831 72.8428 27.8044 73.3971 27.8044C73.4359 27.8044 73.4692 27.8044 73.508 27.8044C74.101 27.8156 74.5722 27.9112 74.8936 28.0856C75.2262 28.2712 75.3814 28.4906 75.3426 28.7494C75.3093 28.9912 75.0987 29.1881 74.7163 29.3456C74.3671 29.4919 73.9126 29.565 73.3694 29.565C73.3306 29.565 73.2973 29.565 73.2585 29.565C72.6544 29.5537 72.1832 29.4637 71.8562 29.2894C71.5181 29.1094 71.3629 28.8956 71.4017 28.6537H71.3962Z" fill="white"/>
<path d="M84.3939 30.8137L84.5214 29.9362C84.6267 29.8969 84.7209 29.8519 84.8152 29.8069C85.4415 29.4919 85.7962 29.0756 85.8794 28.5806C85.9625 28.08 85.7408 27.6525 85.2253 27.3206C84.7043 26.9831 83.8729 26.7975 82.7477 26.7806C82.6923 26.7806 82.6313 26.7806 82.5814 26.7806C81.5449 26.7806 80.7135 26.9381 80.1094 27.2475C79.483 27.5737 79.1228 27.99 79.0396 28.485C78.962 28.98 79.1837 29.3962 79.6992 29.7337C79.8267 29.8125 79.9653 29.8856 80.126 29.9475L80.0041 30.8137H77.8923L77.7204 32.0287H86.1953L86.3671 30.8137H84.3939ZM80.4586 28.4962C80.4974 28.2656 80.7135 28.0744 81.1015 27.9225C81.4618 27.7875 81.9218 27.72 82.4817 27.72C82.5205 27.72 82.5537 27.72 82.5925 27.72C83.1967 27.7312 83.6678 27.8156 84.0004 27.9787C84.3385 28.1475 84.4937 28.35 84.4549 28.5862C84.4216 28.8056 84.2055 28.9912 83.823 29.1319C83.4683 29.2669 83.0082 29.3287 82.4595 29.3287C82.4207 29.3287 82.3874 29.3287 82.3486 29.3287C81.7389 29.3175 81.2623 29.2331 80.9297 29.0756C80.586 28.9125 80.4308 28.7156 80.4641 28.4906L80.4586 28.4962ZM81.4396 30.2231C81.6669 30.2456 81.9108 30.2569 82.1713 30.2625C82.2267 30.2625 82.2877 30.2625 82.3431 30.2625C82.6202 30.2625 82.8807 30.2513 83.1246 30.2287L83.0415 30.8081H81.3565L81.4396 30.2231Z" fill="white"/>
<path d="M84.5048 33.0187C83.9671 32.6756 83.1025 32.49 81.9385 32.4731C81.8775 32.4731 81.8221 32.4731 81.7667 32.4731C80.6914 32.4731 79.8322 32.6306 79.2059 32.9456C78.5519 33.2719 78.1805 33.6937 78.0973 34.2C78.0142 34.7006 78.2415 35.1281 78.7791 35.46C79.3223 35.8031 80.187 35.9831 81.3399 36C81.4008 36 81.4618 36 81.5172 36C82.5981 36 83.4572 35.8425 84.078 35.5387C84.7265 35.2181 85.0978 34.7962 85.181 34.2956C85.2641 33.7894 85.0369 33.3562 84.5048 33.0187ZM83.7066 34.3012C83.6678 34.5262 83.4461 34.7119 83.047 34.8581C82.6812 34.9931 82.2045 35.0606 81.6336 35.0606C81.5948 35.0606 81.556 35.0606 81.5172 35.0606C80.8854 35.0494 80.3865 34.965 80.0429 34.8019C79.6881 34.6331 79.5274 34.4362 79.5606 34.2112C79.5994 33.975 79.8267 33.7837 80.2258 33.6319C80.5971 33.4969 81.0794 33.4237 81.6558 33.4237C81.6946 33.4237 81.7334 33.4237 81.7722 33.4237C82.3985 33.435 82.8863 33.5194 83.2299 33.6881C83.5791 33.8569 83.7399 34.065 83.7011 34.3012H83.7066Z" fill="white"/>
<path d="M101 0C99.3483 6.93 93.4286 10.71 89.9422 12.7294L89.7926 12.5212C91.2226 11.3456 96.1224 7.6725 97.691 1.5975L101 0Z" fill="white"/>
<path d="M14.9654 13.3144C14.8712 13.95 13.6075 22.8994 13.4911 23.7319H16.3179C16.4065 23.1019 17.6758 14.1413 17.7922 13.3144H14.9654Z" fill="white"/>
<path d="M38.112 13.3144C38.0233 13.95 36.7595 22.8994 36.6431 23.7319H43.2723C43.3388 23.2762 43.4995 22.0669 43.5882 21.4819H39.5697L39.8413 19.5581H43.4829C43.5494 19.1081 43.699 18.0281 43.7822 17.4544H40.1351L40.4067 15.5588H44.3143C44.3808 15.1031 44.5526 13.8938 44.6358 13.3144H38.1064H38.112Z" fill="white"/>
<path d="M6.60696 19.2825C6.60696 19.2825 8.97371 13.7869 9.16217 13.3144H12.7206C12.7206 14.0456 12.2495 22.995 12.2495 23.7319H9.68873L10.1155 16.4363C10.1155 16.4363 7.23329 23.2706 7.03929 23.7319H5.01619L4.10718 16.4363C4.04067 16.7681 3.08177 21.6394 2.55521 23.7319H0C0.271595 22.7981 2.22264 13.8488 2.3723 13.3144H5.80326L6.6125 19.2825H6.60696Z" fill="white"/>
<path d="M30.7179 19.4738L32.342 15.6094L32.8685 19.4738H30.7179ZM33.1401 21.6225C33.1401 21.6225 33.323 23.3212 33.3895 23.7319H36.1055C35.9558 22.8713 34.4759 13.9219 34.3651 13.3144H30.9341C30.7346 13.7475 26.8158 22.7081 26.3502 23.7319H29.0994C29.2491 23.3775 29.9475 21.6281 29.9475 21.6281H33.1401V21.6225Z" fill="white"/>
<path d="M21.7331 15.2663H22.365C22.7918 15.2663 23.274 15.3169 23.5789 15.6656C23.7895 15.9131 23.8671 16.2675 23.8006 16.7063C23.8006 16.7063 23.7174 17.505 23.202 17.7581C23.202 17.7581 22.8472 17.9888 22.2541 18.0056H20.9793L23.3904 23.7319H26.1341L24.0611 19.3388C25.3193 19.1025 26.3004 18.7256 26.5498 16.74C26.583 16.4925 26.5997 16.2563 26.5997 16.0369C26.5997 15.3056 26.4112 14.7094 26.0343 14.2706C25.3525 13.4719 24.183 13.3088 23.3239 13.3088H19.4384C19.3497 13.9444 18.086 22.8938 17.9641 23.7263H20.5414C20.6301 23.1413 21.7331 15.2606 21.7331 15.2606" fill="white"/>
<path d="M73.5578 18.2025C73.5301 18.2025 73.4969 18.2137 73.4636 18.2137C73.4913 18.2137 73.5246 18.2025 73.5578 18.2025Z" fill="white"/>
<path d="M77.2604 17.46C77.3103 17.4488 77.3602 17.4375 77.4156 17.4263C77.3657 17.4375 77.3047 17.4488 77.2604 17.46Z" fill="white"/>
<path d="M72.7486 18.3431C72.6932 18.3544 72.6377 18.36 72.5712 18.3712C72.6322 18.36 72.6876 18.3544 72.7486 18.3431Z" fill="white"/>
<path d="M78.3523 17.1956C78.1528 17.2406 77.9588 17.2913 77.7592 17.3363C77.9588 17.2913 78.1583 17.2406 78.3523 17.1956Z" fill="white"/>
<path d="M71.7509 18.495C71.7509 18.495 71.7842 18.4894 71.8063 18.4837C71.7842 18.4837 71.7675 18.495 71.7509 18.495Z" fill="white"/>
<path d="M82.8309 15.9075C82.5482 16.0031 82.26 16.0931 81.9606 16.1888C82.26 16.0931 82.5537 15.9975 82.8309 15.9075Z" fill="white"/>
<path d="M81.7722 16.2506C81.6558 16.2844 81.5339 16.3238 81.4119 16.3631C81.5339 16.3238 81.6613 16.2844 81.7722 16.2506Z" fill="white"/>
<path d="M81.2124 16.4137C80.8078 16.5375 80.3865 16.6612 79.9486 16.785C80.381 16.6612 80.8022 16.5375 81.2124 16.4137Z" fill="white"/>
<path d="M66.5795 19.08C66.5795 19.08 66.5296 19.0856 66.5019 19.0856C66.5241 19.0856 66.5518 19.0856 66.5795 19.08Z" fill="white"/>
<path d="M70.332 17.415L69.5892 17.0325H69.5781L69.5671 17.0269C69.3232 16.8862 68.7634 16.5544 68.7634 15.9975C68.7634 15.7331 68.8742 15.4912 69.0571 15.3337C69.2899 15.1369 69.6502 15.0581 70.0327 15.1312C70.5204 15.2044 71.0802 15.5306 71.6955 16.0594C71.9837 15.4912 72.5435 14.4112 72.7375 14.0231C72.0336 13.4325 71.3518 13.1175 70.3431 12.9375C69.0848 12.7462 67.871 13.0162 67.0229 13.6744C66.3079 14.2312 65.859 15.0469 65.7426 16.0312C65.7204 16.2 65.7093 16.3631 65.7093 16.5206C65.7093 17.0606 65.8257 17.5331 66.0474 17.9269C67.5772 17.8931 69.1902 17.8087 70.8142 17.6794C70.659 17.5894 70.5038 17.5106 70.332 17.4262" fill="white"/>
<path d="M81.7833 13.3144C81.7168 13.7531 81.5228 15.12 81.4286 15.7894C83.4239 15.2213 85.835 14.4056 88.0688 13.3144H81.7833Z" fill="white"/>
<path d="M82.8309 15.9075C82.5482 16.0031 82.2544 16.0931 81.9551 16.1888C81.8941 16.2056 81.8332 16.2225 81.7722 16.2506C81.6558 16.2844 81.5339 16.3238 81.4064 16.3575C81.3399 16.3744 81.2733 16.3913 81.2124 16.4138C80.8078 16.5375 80.3865 16.6613 79.9486 16.785C79.8655 16.8019 79.7879 16.8244 79.7048 16.8469C79.5828 16.8806 79.4609 16.9144 79.3389 16.9425C79.2447 16.9706 79.156 16.9931 79.0673 17.0156C78.9454 17.0438 78.8179 17.0775 78.696 17.1113C78.5796 17.1394 78.4687 17.1619 78.3579 17.1956C78.1639 17.2463 77.9643 17.2913 77.7648 17.3363C77.6484 17.3644 77.5375 17.3981 77.4211 17.4206C77.3712 17.4319 77.3158 17.4431 77.2659 17.4544C76.102 17.7244 74.8715 17.9775 73.5634 18.2025C73.5357 18.2025 73.5024 18.2138 73.4747 18.2138C73.2364 18.2588 72.998 18.2981 72.7541 18.3375C72.6932 18.3431 72.6377 18.3544 72.5768 18.3656C72.3274 18.4106 72.0724 18.4444 71.8119 18.4838C71.7897 18.4838 71.7731 18.495 71.7564 18.495C70.3541 18.7031 68.8742 18.8775 67.3167 19.0238H67.2945C67.0617 19.0406 66.8234 19.0631 66.5795 19.08C66.5573 19.08 66.5296 19.0856 66.5019 19.0856C66.258 19.1025 66.0197 19.125 65.7758 19.1363C65.7536 19.1363 65.7315 19.1363 65.7093 19.1419C65.4599 19.1531 65.2105 19.1756 64.961 19.1869C64.9444 19.1869 64.9222 19.1869 64.9056 19.1869C64.6506 19.1981 64.3957 19.215 64.1352 19.2319H64.1075C62.7994 19.2938 61.4469 19.3331 60.0557 19.3331H59.9393C59.6344 19.3331 59.3241 19.3331 59.0137 19.3219C58.9472 19.3219 58.8806 19.3219 58.8141 19.3219C57.6889 19.3106 56.5361 19.2713 55.3665 19.2038H55.3444C53.5651 19.1081 51.7194 18.9563 49.8182 18.7369L52.0076 16.65C52.0076 16.65 53.2825 17.0381 55.0395 17.3588C54.7069 15.345 54.4132 13.5675 54.3633 13.3144H50.9323C50.7328 13.7475 46.8141 22.7081 46.354 23.7319H49.1088C49.2529 23.3775 50.1841 21.1444 50.1841 21.1444H53.0497C53.0497 21.1444 53.3323 23.3269 53.3933 23.7319H56.1093C56.0483 23.3944 55.7822 21.825 55.4829 19.9969C57.4173 20.1038 59.3518 20.1319 61.1642 20.1038C61.2585 20.2556 61.3028 20.4188 61.3028 20.5988C61.3028 20.6663 61.3028 20.7281 61.2862 20.7956C61.2474 21.0263 61.1255 21.2231 60.937 21.3581C60.5656 21.6225 60.0335 21.5663 59.6622 21.4988C58.7809 21.3413 58.088 20.6663 57.5282 20.115C57.1735 20.6944 56.4363 21.915 56.1979 22.3088C57.2289 23.2594 58.3485 23.85 59.5347 24.0188C60.7319 24.1988 61.9181 23.9288 62.7938 23.2706C63.5587 22.6969 64.0465 21.8531 64.1906 20.8406C64.2405 20.5538 64.2571 20.2781 64.246 20.0138C66.186 19.9294 67.7934 19.8113 68.8243 19.7156C69.1624 19.9688 69.3398 20.2613 69.3398 20.5988C69.3398 20.6663 69.3343 20.7281 69.3232 20.7956C69.2844 21.0263 69.1569 21.2231 68.974 21.3581C68.6026 21.6225 68.065 21.5663 67.6936 21.4988C66.8123 21.3413 66.1195 20.6663 65.5597 20.115C65.2049 20.6944 64.4677 21.915 64.2294 22.3088C65.2659 23.2594 66.3855 23.85 67.5661 24.0188C68.7634 24.1988 69.9495 23.9288 70.8253 23.2706C71.5957 22.6969 72.0835 21.8531 72.2331 20.8406C72.3218 20.2781 72.3052 19.7719 72.1722 19.3219C72.61 19.2544 73.0257 19.1869 73.4359 19.125C73.1311 21.3075 72.8373 23.3606 72.7874 23.7375H79.4221C79.483 23.2819 79.6549 22.0725 79.738 21.4875H75.7195L75.9911 19.5581H79.6327C79.6881 19.1588 79.8211 18.2475 79.9043 17.6569C80.4031 17.4994 80.647 17.4038 80.647 17.4038C80.647 17.4038 81.8775 17.0269 83.4738 16.4306C83.2466 18.0563 82.5426 23.0456 82.4429 23.7375H85.314C85.4027 23.1244 86.4226 15.9075 86.4226 15.9075H88.5011C88.5621 15.4575 88.7616 14.0288 88.8503 13.3763C87.775 13.9894 85.7408 14.9344 82.8309 15.9075Z" fill="white"/>
<path d="M63.1707 17.9381C62.9213 17.7412 62.6331 17.5669 62.3005 17.415C62.2839 17.4094 61.5522 17.0381 61.5522 17.0381H61.5412L61.5301 17.0269C61.2917 16.8863 60.7264 16.5544 60.7264 15.9975C60.7264 15.7275 60.8317 15.4913 61.0201 15.3338C61.2585 15.1369 61.6132 15.0581 62.0012 15.1312C62.4834 15.2044 63.0432 15.5306 63.6585 16.0594C63.9467 15.4969 64.5121 14.4112 64.7061 14.0231C64.0021 13.4381 63.3204 13.1175 62.3061 12.9375C61.0534 12.7462 59.8395 13.0162 58.9915 13.6744C58.2765 14.2312 57.8331 15.0469 57.7111 16.0312C57.6889 16.2 57.6834 16.3575 57.6834 16.5206C57.6834 16.9763 57.761 17.3869 57.9273 17.7413C57.9827 17.7413 58.0381 17.7413 58.1047 17.7413C59.385 17.8425 61.1476 17.9212 63.1707 17.9381Z" fill="white"/>
<path d="M76.5454 15.5588H80.4586C80.5251 15.1031 80.6969 13.8938 80.7745 13.3144H74.2507C74.2119 13.5788 73.9625 15.3563 73.6798 17.37C74.5832 17.2575 75.4756 17.1225 76.3458 16.965L76.5454 15.5588Z" fill="white"/>
</g>
<defs>
<clipPath id="clip0_2901_14746">
<rect width="101" height="36" fill="white"/>
</clipPath>
</defs>
</svg>
