<svg width="48" height="48" viewBox="0 0 48 48" fill="none" xmlns="http://www.w3.org/2000/svg">
<path fill-rule="evenodd" clip-rule="evenodd" d="M14 18C14 17.4477 14.4477 17 15 17H33C33.5523 17 34 17.4477 34 18C34 18.5523 33.5523 19 33 19H15C14.4477 19 14 18.5523 14 18ZM14 24C14 23.4477 14.4477 23 15 23H29C29.5523 23 30 23.4477 30 24C30 24.5523 29.5523 25 29 25H15C14.4477 25 14 24.5523 14 24ZM15 29C14.4477 29 14 29.4477 14 30C14 30.5523 14.4477 31 15 31H21C21.5523 31 22 30.5523 22 30C22 29.4477 21.5523 29 21 29H15Z" fill="#D9D9D9"/>
</svg>
