<svg width="48" height="48" viewBox="0 0 48 48" fill="none" xmlns="http://www.w3.org/2000/svg">
<path fill-rule="evenodd" clip-rule="evenodd" d="M17.5 22C17.5 18.4101 20.4102 15.5 24 15.5C27.5899 15.5 30.5 18.4101 30.5 22V26.8648C30.5 27.4653 30.7162 28.0458 31.109 28.5H16.8911C17.2839 28.0458 17.5 27.4653 17.5 26.8648V22ZM24 14C19.5818 14 16 17.5817 16 22V26.8648C16 27.1052 15.9134 27.3376 15.756 27.5194L15.0407 28.3453C14.4798 28.993 14.9399 30 15.7966 30H16H19.3554C19.8147 32.1432 21.7197 33.75 24 33.75C26.2803 33.75 28.1853 32.1432 28.6446 30H32H32.2034C33.0602 30 33.5202 28.993 32.9594 28.3453L32.2441 27.5195C32.0867 27.3377 32 27.1053 32 26.8648V22C32 17.5817 28.4183 14 24 14ZM27.0933 30H20.9067C21.3285 31.3056 22.554 32.25 24 32.25C25.446 32.25 26.6715 31.3056 27.0933 30Z" fill="white"/>
<circle cx="33" cy="15" r="10" fill="#E37500"/>
<path d="M33.4932 20.1367C31.3809 20.1367 29.8701 18.9883 29.8291 17.3203H31.6201C31.668 18.1133 32.4609 18.6396 33.4932 18.6328C34.5801 18.6396 35.3662 18.0381 35.3662 17.1562C35.3662 16.2676 34.6006 15.6318 33.3154 15.625H32.4268V14.2578H33.3154C34.3682 14.2578 35.0996 13.6699 35.0928 12.8086C35.0996 11.9746 34.4707 11.4141 33.5068 11.4141C32.5771 11.4141 31.7773 11.9336 31.7432 12.7676H30.0342C30.0752 11.1064 31.5859 9.96484 33.5205 9.96484C35.5303 9.96484 36.8291 11.1953 36.8154 12.7129C36.8291 13.8203 36.0908 14.6201 35.0107 14.8457V14.9277C36.4053 15.1123 37.1982 16.0078 37.1846 17.252C37.1982 18.9268 35.6328 20.1367 33.4932 20.1367Z" fill="white"/>
</svg>
