<svg width="48" height="48" viewBox="0 0 48 48" fill="none" xmlns="http://www.w3.org/2000/svg">
<path fill-rule="evenodd" clip-rule="evenodd" d="M23.1403 14C22.6656 14 22.2808 14.3731 22.2808 14.8333V15.8334C20.5655 16.1709 19.0358 17.0037 17.8571 18.171L16.5654 17.4479C16.1542 17.2178 15.6286 17.3544 15.3912 17.753L14.1153 19.8955C13.8779 20.2941 14.0188 20.8037 14.4299 21.0338L15.7197 21.7558C15.5143 22.4698 15.4044 23.2225 15.4044 24C15.4044 24.7776 15.5143 25.5302 15.7197 26.2443L14.43 26.9662C14.0189 27.1963 13.878 27.706 14.1154 28.1045L15.3912 30.247C15.6286 30.6456 16.1543 30.7822 16.5654 30.5521L17.8571 29.829C19.0358 30.9963 20.5656 31.8291 22.2808 32.1666V33.1667C22.2808 33.6269 22.6656 34 23.1403 34H24.8594C25.3342 34 25.719 33.6269 25.719 33.1667V32.1666C27.4343 31.8291 28.9641 30.9963 30.1427 29.829L31.4346 30.5521C31.8457 30.7822 32.3714 30.6456 32.6088 30.247L33.8846 28.1045C34.122 27.706 33.9811 27.1963 33.57 26.9662L32.2801 26.2441C32.4855 25.5302 32.5954 24.7775 32.5954 24C32.5954 23.2225 32.4856 22.4699 32.2801 21.7559L33.5701 21.0338C33.9812 20.8037 34.1221 20.2941 33.8847 19.8955L32.6088 17.753C32.3715 17.3544 31.8458 17.2178 31.4346 17.4479L30.1428 18.1711C28.9641 17.0037 27.4343 16.1709 25.719 15.8334V14.8333C25.719 14.3731 25.3342 14 24.8594 14H23.1403ZM23.9998 29.8333C27.3228 29.8333 30.0166 27.2217 30.0166 24C30.0166 20.7783 27.3228 18.1667 23.9998 18.1667C20.6768 18.1667 17.983 20.7783 17.983 24C17.983 27.2217 20.6768 29.8333 23.9998 29.8333Z" fill="#D9D9D9"/>
</svg>
