<svg width="48" height="49" viewBox="0 0 48 49" fill="none" xmlns="http://www.w3.org/2000/svg">
<mask id="mask0_2909_3211" style="mask-type:alpha" maskUnits="userSpaceOnUse" x="13" y="15" width="22" height="19">
<mask id="path-1-inside-1_2909_3211" fill="white">
<path fill-rule="evenodd" clip-rule="evenodd" d="M32.9095 25.0463C35.0184 22.9375 35.0184 19.5184 32.9095 17.4095C30.8007 15.3007 27.3816 15.3007 25.2728 17.4095L24 18.6823L22.7272 17.4096C20.6184 15.3007 17.1993 15.3007 15.0904 17.4096C12.9816 19.5184 12.9816 22.9375 15.0904 25.0463L22.5858 32.5416C23.3668 33.3227 24.6332 33.3227 25.4142 32.5416L31.6367 26.3191L31.6367 26.3191L32.9095 25.0463Z"/>
</mask>
<path d="M25.2728 17.4095L24.2121 16.3489L24.2121 16.3489L25.2728 17.4095ZM24 18.6823L22.9393 19.743L24 20.8036L25.0606 19.743L24 18.6823ZM22.7272 17.4096L21.6665 18.4702L22.7272 17.4096ZM31.6367 26.3191L32.6974 27.3798L33.7581 26.3191L32.6974 25.2584L31.6367 26.3191ZM31.6367 26.3191L30.5761 25.2584L29.5154 26.3191L30.5761 27.3797L31.6367 26.3191ZM31.8489 18.4702C33.3719 19.9932 33.3719 22.4626 31.8489 23.9856L33.9702 26.1069C36.6648 23.4123 36.6648 19.0435 33.9702 16.3489L31.8489 18.4702ZM26.3334 18.4702C27.8565 16.9471 30.3258 16.9471 31.8489 18.4702L33.9702 16.3489C31.2756 13.6543 26.9067 13.6543 24.2121 16.3489L26.3334 18.4702ZM25.0606 19.743L26.3334 18.4702L24.2121 16.3489L22.9393 17.6217L25.0606 19.743ZM21.6665 18.4702L22.9393 19.743L25.0606 17.6217L23.7879 16.3489L21.6665 18.4702ZM16.1511 18.4702C17.6742 16.9472 20.1435 16.9472 21.6665 18.4702L23.7879 16.3489C21.0932 13.6543 16.7244 13.6543 14.0298 16.3489L16.1511 18.4702ZM16.1511 23.9856C14.6281 22.4626 14.6281 19.9933 16.1511 18.4702L14.0298 16.3489C11.3352 19.0435 11.3352 23.4123 14.0298 26.107L16.1511 23.9856ZM23.6464 31.481L16.1511 23.9856L14.0298 26.107L21.5251 33.6023L23.6464 31.481ZM24.3535 31.481C24.1583 31.6762 23.8417 31.6762 23.6464 31.481L21.5251 33.6023C22.892 34.9691 25.108 34.9691 26.4749 33.6023L24.3535 31.481ZM30.5761 25.2584L24.3535 31.481L26.4749 33.6023L32.6974 27.3798L30.5761 25.2584ZM30.5761 27.3797L30.5761 27.3798L32.6974 25.2584L32.6974 25.2584L30.5761 27.3797ZM31.8489 23.9856L30.5761 25.2584L32.6974 27.3797L33.9702 26.1069L31.8489 23.9856Z" fill="#CCCCCC" mask="url(#path-1-inside-1_2909_3211)"/>
</mask>
<g mask="url(#mask0_2909_3211)">
<rect x="12" y="12.5" width="24" height="24" fill="#999999"/>
</g>
</svg>
