<svg id="close_24" xmlns="http://www.w3.org/2000/svg" width="24" height="24" viewBox="0 0 24 24">
  <rect id="container" width="24" height="24" fill="#fff" opacity="0"/>
  <path id="합치기_1" data-name="합치기 1" d="M14.013,15.032,7.67,8.7,1.328,15.031a.809.809,0,0,1-1.133.085.8.8,0,0,1,.085-1.13L6.622,7.656.28,1.326A.806.806,0,0,1,.194.2.81.81,0,0,1,1.327.281L7.669,6.61,14.014.279A.809.809,0,0,1,15.147.194a.805.805,0,0,1-.086,1.13L8.717,7.656l6.344,6.331a.8.8,0,0,1,.085,1.13.68.68,0,0,1-.488.194A.926.926,0,0,1,14.013,15.032Z" transform="translate(4.328 4.343)" fill="#222"/>
</svg>
