<svg id="close_10" xmlns="http://www.w3.org/2000/svg" width="10" height="10" viewBox="0 0 10 10">
  <rect id="사각형_7" data-name="사각형 7" width="10" height="10" fill="#fff" opacity="0"/>
  <path id="합치기_13" data-name="합치기 13" d="M17231.717,19808.426l-2.83-2.828-2.828,2.828a.5.5,0,0,1-.705,0,.508.508,0,0,1,0-.711l2.826-2.826-2.826-2.826a.508.508,0,0,1,0-.711.5.5,0,0,1,.705,0l2.828,2.828,2.83-2.828a.5.5,0,0,1,.705.711l-2.826,2.826,2.826,2.826a.5.5,0,0,1-.705.711Z" transform="translate(-17223.889 -19799.889)" fill="rgba(0,0,0,0.5)"/>
</svg>
