<svg xmlns="http://www.w3.org/2000/svg" width="40" height="40" viewBox="0 0 40 40">
  <g id="icon-grade03-off" transform="translate(-195 -331)">
    <path id="패스_14772" data-name="패스 14772" d="M20,40A20,20,0,1,1,40,20,20.023,20.023,0,0,1,20,40M20,1.641A18.359,18.359,0,1,0,38.359,20,18.38,18.38,0,0,0,20,1.641" transform="translate(195 331)" fill="#bababa"/>
    <path id="패스_14775" data-name="패스 14775" d="M100.355,285.155H90.594a.657.657,0,0,1,0-1.313h9.761a.657.657,0,0,1,0,1.313" transform="translate(119.526 73.158)" fill="#bababa"/>
    <path id="패스_14773" data-name="패스 14773" d="M100.317,122.977a1.963,1.963,0,1,1-1.963-1.963,1.963,1.963,0,0,1,1.963,1.963" transform="translate(108.198 225.88)" fill="#bababa"/>
    <path id="패스_14774" data-name="패스 14774" d="M270.153,122.977a1.963,1.963,0,1,1-1.963-1.963,1.963,1.963,0,0,1,1.963,1.963" transform="translate(-44.742 225.88)" fill="#bababa"/>
  </g>
</svg>
