<svg xmlns="http://www.w3.org/2000/svg" width="20" height="20" viewBox="0 0 20 20">
  <g id="review_setting" transform="translate(-44 -11.997)">
    <rect id="사각형_2549" data-name="사각형 2549" width="20" height="20" transform="translate(44 11.997)" fill="rgba(255,80,80,0.49)" opacity="0"/>
    <path id="패스_14726" data-name="패스 14726" d="M518.044,866.836H505.472a1.789,1.789,0,0,0-1.714,1.854v8.983a1.789,1.789,0,0,0,1.714,1.854h4.686l1.6,2.308,1.6-2.308h4.686a1.788,1.788,0,0,0,1.714-1.854V868.69A1.788,1.788,0,0,0,518.044,866.836Z" transform="translate(-457.758 -852.339)" fill="none" stroke="#fff" stroke-linejoin="round" stroke-width="1.5"/>
    <path id="패스_14785" data-name="패스 14785" d="M3.877,0H5.11a.139.139,0,0,1,.138.138V1.475a.138.138,0,0,0,.084.125l.636.264a.138.138,0,0,0,.149-.03l.737-.751a.138.138,0,0,1,.192,0l.872.866a.138.138,0,0,1,0,.192l-.751.748a.138.138,0,0,0-.029.149l.26.623a.138.138,0,0,0,.125.084H8.862A.139.139,0,0,1,9,3.883V5.11a.139.139,0,0,1-.138.138H7.534a.139.139,0,0,0-.124.081c-.1.225-.2.433-.277.646-.015.039.024.118.062.155.241.247.485.491.721.723a.139.139,0,0,1,0,.192L7.04,7.92a.139.139,0,0,1-.192,0c-.2-.2-.426-.415-.631-.64a.282.282,0,0,0-.387-.1.233.233,0,0,0-.037.027,2.423,2.423,0,0,1-.449.186.139.139,0,0,0-.089.128V8.871a.139.139,0,0,1-.138.138H3.885a.139.139,0,0,1-.138-.138V7.529A.138.138,0,0,0,3.663,7.4l-.6-.248a.139.139,0,0,0-.148.03l-.762.766a.138.138,0,0,1-.192,0l-.879-.883a.138.138,0,0,1,0-.193l.753-.732A.138.138,0,0,0,1.869,6c-.095-.247-.175-.464-.267-.674-.017-.038-.1-.064-.155-.065-.423-.006-.846,0-1.269,0H.138A.139.139,0,0,1,0,5.12V3.882a.139.139,0,0,1,.138-.138H1.246c.328,0,.327,0,.447-.307.03-.077.062-.152.1-.226.021-.046.044-.091.069-.138a.138.138,0,0,0-.026-.159l-.768-.762a.138.138,0,0,1,0-.192l.874-.871a.138.138,0,0,1,.193,0l.727.753a.137.137,0,0,0,.147.032c.24-.093.45-.172.654-.264a.211.211,0,0,0,.079-.163c.007-.411,0-.822,0-1.234V.138A.138.138,0,0,1,3.877,0M6,4.514A1.5,1.5,0,1,0,4.481,6h.011A1.5,1.5,0,0,0,6,4.513" transform="translate(49.5 16.497)" fill="#fff"/>
  </g>
</svg>
