<svg xmlns="http://www.w3.org/2000/svg" width="56" height="56" viewBox="0 0 56 56">
  <g id="sns_image" transform="translate(-724 -5369)">
    <rect id="사각형_2508" data-name="사각형 2508" width="56" height="56" rx="28" transform="translate(724 5369)" fill="#9e896e"/>
    <g id="icon_url" data-name="icon / url" transform="translate(741.999 5387)">
      <rect id="area" width="20" height="20" fill="none"/>
      <g id="icon">
        <path id="패스_264" data-name="패스 264" d="M-21850-7101.321l2.514-2.551s2.934-2.019,5.049,0a3.707,3.707,0,0,1,.563,5.167c-.748.851-6.262,6.352-6.262,6.352a3.052,3.052,0,0,1-3.689-.3" transform="translate(21861.078 7104.769)" fill="none" stroke="#fff" stroke-linecap="round" stroke-width="2"/>
        <path id="패스_265" data-name="패스 265" d="M-21842.9-7095.318l-2.514,2.549s-2.936,2.019-5.049,0a3.713,3.713,0,0,1-.566-5.166c.752-.851,6.268-6.352,6.268-6.352a3.049,3.049,0,0,1,3.688.3" transform="translate(21851.826 7111.696)" fill="none" stroke="#fff" stroke-linecap="round" stroke-width="2"/>
      </g>
    </g>
  </g>
</svg>
