<svg id="picture" xmlns="http://www.w3.org/2000/svg" width="24" height="24" viewBox="0 0 24 24">
  <rect id="container" width="24" height="24" fill="#fff" opacity="0"/>
  <g id="그룹_36" data-name="그룹 36" transform="translate(2.498 3.746)">
    <path id="패스_61" data-name="패스 61" d="M16.457,37.013,14.462,37l-1.911-2.851a.632.632,0,0,0-.522-.292H6.881a.629.629,0,0,0-.512.282L4.4,37l-1.848.01A2.558,2.558,0,0,0,0,39.56V47.8a2.576,2.576,0,0,0,2.548,2.569H16.457A2.576,2.576,0,0,0,19,47.8V39.56A2.558,2.558,0,0,0,16.457,37.013ZM17.752,47.8a1.319,1.319,0,0,1-1.295,1.316H2.548A1.319,1.319,0,0,1,1.253,47.8V39.56a1.3,1.3,0,0,1,1.295-1.295H4.73a.629.629,0,0,0,.512-.282l1.974-2.861H11.7l1.9,2.84a.644.644,0,0,0,.512.282l2.339.021a1.3,1.3,0,0,1,1.295,1.295V47.8h.01Z" transform="translate(0.002 -33.859)" fill="#222" stroke="#222" stroke-width="0.2"/>
    <g id="타원_1308" data-name="타원 1308" transform="translate(5.002 4.754)" fill="none" stroke="#222" stroke-width="1.5">
      <circle cx="4.5" cy="4.5" r="4.5" stroke="none"/>
      <circle cx="4.5" cy="4.5" r="3.75" fill="none"/>
    </g>
  </g>
</svg>
