<svg id="icon-phone-number-m" xmlns="http://www.w3.org/2000/svg" width="20" height="20" viewBox="0 0 20 20">
  <rect id="area" width="20" height="20" fill="none"/>
  <path id="패스_14732" data-name="패스 14732" d="M642.4,811.6a.491.491,0,0,1-.1.539c-.512.512-1.694,1.693-1.722,1.72a13.428,13.428,0,0,0,5.521,5.52c.026-.029.047-.05.047-.05l1.9-1.9h0l4.332.909,0,0v3.212a2.028,2.028,0,0,1-2.319,2A16.143,16.143,0,0,1,636.405,809.9a2.029,2.029,0,0,1,2-2.326h3.214Z" transform="translate(-634.383 -805.572)" fill="none" stroke="#222" stroke-linejoin="round" stroke-width="1.5"/>
</svg>
