<svg id="turn" xmlns="http://www.w3.org/2000/svg" width="20" height="20" viewBox="0 0 20 20">
  <rect id="container" width="20" height="20" fill="#fff" opacity="0"/>
  <g id="Icon" transform="translate(1.667 3.333)">
    <path id="Path" d="M0,8.914a5.427,5.427,0,0,0,3.7,1.25,6.611,6.611,0,0,0,6.528-5.833h.981a.834.834,0,0,0,.684-1.3L10.142.371a.816.816,0,0,0-1.368,0L7.02,3.035a.834.834,0,0,0,.684,1.3h.862A4.955,4.955,0,0,1,3.7,8.5a4.862,4.862,0,0,1-2.468-.669Z" transform="translate(4.633 3.169)" fill="#222"/>
    <path id="Path-2" data-name="Path" d="M10.8,2.336a4.862,4.862,0,0,0-2.468-.669A4.955,4.955,0,0,0,3.467,5.833H4.33a.834.834,0,0,1,.684,1.3L3.261,9.793a.816.816,0,0,1-1.369,0L.139,7.129a.834.834,0,0,1,.684-1.3h.981A6.611,6.611,0,0,1,8.333,0a5.428,5.428,0,0,1,3.7,1.25Z" fill="#222"/>
  </g>
</svg>
