<svg xmlns="http://www.w3.org/2000/svg" width="32" height="32" viewBox="0 0 32 32">
  <g id="그룹_6000" data-name="그룹 6000" transform="translate(-672 -66.999)">
    <g id="print" transform="translate(642 70.999)">
      <rect id="container" width="32" height="32" transform="translate(30 -4)" opacity="0"/>
      <g id="print-2" data-name="print" transform="translate(-10.5 -3)">
        <g id="그룹_6003" data-name="그룹 6003" transform="translate(1 -3.983)">
          <g id="사각형_2552-2" data-name="사각형 2552-2" transform="translate(48.5 5.983)" fill="#fff" stroke="#222" stroke-linecap="round" stroke-width="1.5">
            <path d="M2,0H12a2,2,0,0,1,2,2V7.7a0,0,0,0,1,0,0H0a0,0,0,0,1,0,0V2A2,2,0,0,1,2,0Z" stroke="none"/>
            <path d="M2,.75H12A1.25,1.25,0,0,1,13.25,2V6.95a0,0,0,0,1,0,0H.75a0,0,0,0,1,0,0V2A1.25,1.25,0,0,1,2,.75Z" fill="none"/>
          </g>
        </g>
        <rect id="사각형_2631" data-name="사각형 2631" width="24" height="12" rx="2" transform="translate(44.5 9)" fill="none" stroke="#222" stroke-linejoin="round" stroke-width="1.5"/>
        <g id="그룹_6002" data-name="그룹 6002" transform="translate(1 12.017)">
          <g id="사각형_2552-2-2" data-name="사각형 2552-2" transform="translate(48.5 3.983)" fill="#fff" stroke="#222" stroke-linecap="round" stroke-linejoin="round" stroke-width="1.5">
            <path d="M0,0H14a0,0,0,0,1,0,0V10a2,2,0,0,1-2,2H2a2,2,0,0,1-2-2V0A0,0,0,0,1,0,0Z" stroke="none"/>
            <path d="M.75.75h12.5a0,0,0,0,1,0,0V10A1.25,1.25,0,0,1,12,11.25H2A1.25,1.25,0,0,1,.75,10V.75A0,0,0,0,1,.75.75Z" fill="none"/>
          </g>
          <line id="선_17" data-name="선 17" x2="5" transform="translate(53 8.45)" fill="none" stroke="#222" stroke-linecap="round" stroke-linejoin="round" stroke-width="1.5"/>
          <line id="선_19" data-name="선 19" x2="2.5" transform="translate(52.999 11.484)" fill="none" stroke="#222" stroke-linecap="round" stroke-linejoin="round" stroke-width="1.5"/>
        </g>
      </g>
    </g>
  </g>
</svg>
