<svg id="icon-star-large-off" xmlns="http://www.w3.org/2000/svg" width="40" height="40" viewBox="0 0 40 40">
  <rect id="container" width="40" height="40" fill="#e6e6e6" opacity="0.003"/>
  <g id="star" transform="translate(0 1.002)" fill="#fff" stroke-linecap="round">
    <path d="M 29.87653923034668 35.10916137695312 C 29.73097038269043 35.10916137695312 29.58609962463379 35.07543182373047 29.44598007202148 35.00889205932617 L 21.28688049316406 31.13440132141113 C 20.88731956481934 30.94466209411621 20.44232940673828 30.8443717956543 20 30.8443717956543 C 19.55768013000488 30.8443717956543 19.11268997192383 30.94466209411621 18.71313095092773 31.13439178466797 L 10.55401992797852 35.00889205932617 C 10.41390991210938 35.07542037963867 10.26902961730957 35.10916137695312 10.12341976165771 35.10916137695312 C 9.840709686279297 35.10916137695312 9.55718994140625 34.97756195068359 9.364999771118164 34.75712203979492 C 9.231430053710938 34.60393142700195 9.083000183105469 34.34289169311523 9.134389877319336 33.96930313110352 L 10.34062957763672 25.19991111755371 C 10.46724033355713 24.27942276000977 10.16878986358643 23.36902236938477 9.52180004119873 22.7021427154541 L 3.336790084838867 16.32699203491211 C 2.95917010307312 15.93776226043701 3.047319889068604 15.49581146240234 3.102740049362183 15.32387161254883 C 3.158169984817505 15.15192222595215 3.344719886779785 14.74169158935547 3.878550052642822 14.64627170562744 L 12.73178958892822 13.06371212005615 C 13.63185977935791 12.90282154083252 14.39927959442139 12.35023212432861 14.83726978302002 11.54763221740723 L 19.1222095489502 3.69595193862915 C 19.37881088256836 3.225761890411377 19.8215503692627 3.175001859664917 20 3.175001859664917 C 20.17844009399414 3.175001859664917 20.62118911743164 3.225761890411377 20.8777904510498 3.69595193862915 L 25.16274070739746 11.54764175415039 C 25.6007194519043 12.35023212432861 26.36813926696777 12.90282154083252 27.26822090148926 13.06371212005615 L 36.12144088745117 14.64627170562744 C 36.65528106689453 14.74169158935547 36.84183120727539 15.15192222595215 36.89725875854492 15.32387161254883 C 36.95267868041992 15.49581146240234 37.04082870483398 15.93776226043701 36.66321182250977 16.32699203491211 L 30.47820091247559 22.7021427154541 C 29.83120918273926 23.36902236938477 29.53276062011719 24.27942276000977 29.65937042236328 25.19990158081055 L 30.86561012268066 33.96930313110352 C 30.9169807434082 34.34281158447266 30.76855087280273 34.60384368896484 30.63497924804688 34.75704193115234 C 30.4427604675293 34.97751998901367 30.15922927856445 35.10915374755859 29.87653923034668 35.10916137695312 Z" stroke="none"/>
    <path d="M 19.99999809265137 4.175006866455078 L 20 4.175003051757812 L 15.71504974365234 12.02669143676758 C 15.13105010986328 13.0968017578125 14.10783004760742 13.83358192443848 12.90774917602539 14.0481014251709 L 4.054534912109375 15.63065910339355 C 4.054534912109375 15.63066291809082 4.054531097412109 15.63066864013672 4.054519653320312 15.63066101074219 L 10.23953056335449 22.00582122802734 C 11.10218048095703 22.89499282836914 11.50012016296387 24.10885238647461 11.33130073547363 25.336181640625 L 10.12505912780762 34.10555267333984 C 10.12505912780762 34.10555648803711 10.12505912780762 34.10556030273438 10.12505912780762 34.10556411743164 C 10.12505912780762 34.10556030273438 10.12505912780762 34.10556030273438 10.12505912780762 34.10556030273438 L 18.2841796875 30.23107147216797 C 18.81691932678223 29.97809219360352 19.41024017333984 29.8443717956543 20 29.8443717956543 C 20.58975982666016 29.8443717956543 21.18308067321777 29.97809219360352 21.71583938598633 30.23107147216797 L 29.87490463256836 34.10554885864258 C 29.87491607666016 34.10554504394531 29.87492561340332 34.10553741455078 29.87493896484375 34.10556030273438 L 28.6686897277832 25.33617210388184 C 28.49987983703613 24.10887145996094 28.8978099822998 22.89501190185547 29.76045989990234 22.00581169128418 L 35.94547271728516 15.63068008422852 C 35.94546890258789 15.63067436218262 35.94546508789062 15.63066673278809 35.94548034667969 15.63066101074219 L 27.09225082397461 14.0481014251709 C 25.89215087890625 13.83358192443848 24.86893081665039 13.09679222106934 24.28495025634766 12.02669143676758 L 20 4.175010681152344 C 20 4.175010681152344 19.99999809265137 4.175006866455078 19.99999809265137 4.175006866455078 M 19.99999618530273 2.174995422363281 C 20.6882495880127 2.174995422363281 21.37650489807129 2.522300720214844 21.75558090209961 3.216911315917969 L 26.04053115844727 11.06860160827637 C 26.33100128173828 11.60087203979492 26.84727096557617 11.97261238098145 27.44417953491211 12.07931137084961 L 36.29740905761719 13.6618709564209 C 37.87467193603516 13.94381141662598 38.49663162231445 15.87332153320312 37.38093948364258 17.02331161499023 L 31.19591903686523 23.39846229553223 C 30.76753997802734 23.84002304077148 30.56620979309082 24.45417213439941 30.65003967285156 25.06364059448242 L 31.85628128051758 33.83302307128906 C 32.07297134399414 35.40837097167969 30.45346260070801 36.59433364868164 29.01702117919922 35.91221237182617 L 20.85791969299316 32.03772354125977 C 20.31503105163574 31.77992248535156 19.68498039245605 31.77992248535156 19.14208030700684 32.03772354125977 L 10.98298072814941 35.91221237182617 C 9.546535491943359 36.59432983398438 7.927028656005859 35.40837478637695 8.143720626831055 33.83302307128906 L 9.349960327148438 25.06364059448242 C 9.43379020690918 24.45417213439941 9.232460021972656 23.84002304077148 8.804069519042969 23.39846229553223 L 2.619060516357422 17.02331161499023 C 1.503368377685547 15.87332153320312 2.125331878662109 13.94381141662598 3.702590942382812 13.6618709564209 L 12.55582046508789 12.07931137084961 C 13.15271949768066 11.97261238098145 13.66898918151855 11.60087203979492 13.95947074890137 11.06860160827637 L 18.24441909790039 3.216911315917969 C 18.62348937988281 2.522300720214844 19.31174278259277 2.174995422363281 19.99999618530273 2.174995422363281 Z" stroke="none" fill="#9e896e"/>
  </g>
</svg>
