<svg xmlns="http://www.w3.org/2000/svg" width="40" height="40" viewBox="0 0 40 40">
  <g id="icon-grade04-off" transform="translate(-241 -331)">
    <path id="패스_14780" data-name="패스 14780" d="M20,40A20,20,0,1,1,40,20,20.023,20.023,0,0,1,20,40M20,1.641A18.359,18.359,0,1,0,38.359,20,18.379,18.379,0,0,0,20,1.641" transform="translate(241 331)" fill="#bababa"/>
    <path id="패스_14781" data-name="패스 14781" d="M93.278,263.461c-6.645,0-12.453-2.272-13.81-5.4-.15-.347.123-.714.61-.821a1.028,1.028,0,0,1,1.154.434c1.106,2.552,6.284,4.477,12.045,4.477s10.939-1.925,12.045-4.477a1.028,1.028,0,0,1,1.154-.434c.487.107.76.474.61.821-1.356,3.131-7.164,5.4-13.809,5.4" transform="translate(167.722 96.793)" fill="#bababa"/>
    <path id="패스_14782" data-name="패스 14782" d="M100.316,111.236a1.963,1.963,0,1,1-1.963-1.963,1.963,1.963,0,0,1,1.963,1.963" transform="translate(154.199 237.738)" fill="#bababa"/>
    <path id="패스_14783" data-name="패스 14783" d="M270.153,111.236a1.963,1.963,0,1,1-1.963-1.963,1.963,1.963,0,0,1,1.963,1.963" transform="translate(1.258 237.738)" fill="#bababa"/>
  </g>
</svg>
