<svg xmlns="http://www.w3.org/2000/svg" width="24" height="24" viewBox="0 0 24 24">
  <g id="icon-login-password-on" transform="translate(-32 -20)">
    <rect id="area" width="24" height="24" transform="translate(32 20)" fill="none"/>
    <g id="icon_lock" transform="translate(35.6 21.2)">
      <g id="패스_14699" data-name="패스 14699" transform="translate(2.4)" fill="none">
        <path d="M6,0a6,6,0,0,1,6,6v6c0,3.314-12,3.314-12,0V6A6,6,0,0,1,6,0Z" stroke="none"/>
        <path d="M 6 1.500004768371582 C 3.51869010925293 1.500004768371582 1.5 3.518694877624512 1.5 6.000004768371582 L 1.5 11.95143508911133 C 1.739852905273438 12.27646446228027 3.278365135192871 12.98527431488037 6 12.98527431488037 C 8.721634864807129 12.98527431488037 10.26014709472656 12.27646446228027 10.5 11.95143508911133 L 10.5 6.000004768371582 C 10.5 3.518694877624512 8.48130989074707 1.500004768371582 6 1.500004768371582 M 6 4.76837158203125e-06 C 9.31371021270752 4.76837158203125e-06 12 2.686294555664062 12 6.000004768371582 L 12 12.00000476837158 C 12 15.31370449066162 0 15.31370449066162 0 12.00000476837158 L 0 6.000004768371582 C 0 2.686294555664062 2.68628978729248 4.76837158203125e-06 6 4.76837158203125e-06 Z" stroke="none" fill="#aa9b90"/>
      </g>
      <g id="사각형_2506" data-name="사각형 2506" transform="translate(0 7.2)" fill="#fff" stroke="#aa9b90" stroke-linecap="round" stroke-linejoin="round" stroke-width="1.5">
        <rect width="16.8" height="14.4" rx="2" stroke="none"/>
        <rect x="0.75" y="0.75" width="15.3" height="12.9" rx="1.25" fill="none"/>
      </g>
      <circle id="타원_1290" data-name="타원 1290" cx="1.75" cy="1.75" r="1.75" transform="translate(6.7 11.8)" fill="#aa9b90"/>
      <line id="선_14" data-name="선 14" y2="4" transform="translate(8.4 12.6)" fill="none" stroke="#aa9b90" stroke-linecap="round" stroke-width="1.5"/>
    </g>
  </g>
</svg>
