<svg xmlns="http://www.w3.org/2000/svg" xmlns:xlink="http://www.w3.org/1999/xlink" width="40" height="40" viewBox="0 0 40 40">
  <defs>
    <radialGradient id="radial-gradient" cx="0.5" cy="0.042" r="0.458" gradientTransform="translate(0.542 -0.458) rotate(90)" gradientUnits="objectBoundingBox">
      <stop offset="0" stop-color="#fff5d9"/>
      <stop offset="1" stop-color="#f7d477"/>
    </radialGradient>
  </defs>
  <g id="icon-grade01-on" transform="translate(-121 -331)">
    <circle id="color" cx="20" cy="20" r="20" transform="translate(121 331)" fill="url(#radial-gradient)"/>
    <path id="패스_14762" data-name="패스 14762" d="M20,40A20,20,0,1,1,40,20,20.022,20.022,0,0,1,20,40M20,1.641A18.358,18.358,0,1,0,38.359,20,18.379,18.379,0,0,0,20,1.641" transform="translate(121 331)" fill="#222"/>
    <path id="패스_14765" data-name="패스 14765" d="M134.83,261.251a.657.657,0,0,1-.62-.441c-.566-1.625-3.382-2.9-6.409-2.9s-5.842,1.273-6.409,2.9a.657.657,0,1,1-1.24-.432c.763-2.19,3.98-3.779,7.649-3.779s6.885,1.59,7.649,3.779a.657.657,0,0,1-.62.873" transform="translate(13.354 98.401)" fill="#222"/>
    <path id="패스_14763" data-name="패스 14763" d="M247.263,155.329h-.016a2.506,2.506,0,0,1-2.445-1.4.656.656,0,0,1,1.2-.543c.07.154.284.624,1.256.629a2.837,2.837,0,0,0,2.026-.993.656.656,0,0,1,.928.928,4.149,4.149,0,0,1-2.945,1.378" transform="translate(-99.042 195.753)" fill="#222"/>
    <path id="패스_14764" data-name="패스 14764" d="M98.658,155.329a4.15,4.15,0,0,1-2.945-1.378.656.656,0,1,1,.928-.928,2.862,2.862,0,0,0,2.017.993h.01c.971,0,1.185-.475,1.255-.629a.656.656,0,1,1,1.2.544,2.507,2.507,0,0,1-2.444,1.4Z" transform="translate(35.121 195.753)" fill="#222"/>
    <path id="패스_14766" data-name="패스 14766" d="M96.769,100.68a.653.653,0,0,1-.326-.087l-4.75-2.723a.657.657,0,1,1,.653-1.139l4.75,2.723a.657.657,0,0,1-.327,1.226" transform="translate(38.892 246.551)" fill="#222"/>
    <path id="패스_14767" data-name="패스 14767" d="M244.307,100.68a.657.657,0,0,1-.327-1.226l4.75-2.723a.657.657,0,1,1,.653,1.139l-4.75,2.723a.653.653,0,0,1-.326.087" transform="translate(-97.968 246.551)" fill="#222"/>
  </g>
</svg>
