<svg xmlns="http://www.w3.org/2000/svg" xmlns:xlink="http://www.w3.org/1999/xlink" width="40" height="40" viewBox="0 0 40 40">
  <defs>
    <radialGradient id="radial-gradient" cx="0.5" cy="0.042" r="0.458" gradientTransform="translate(0.542 -0.458) rotate(90)" gradientUnits="objectBoundingBox">
      <stop offset="0" stop-color="#fff5d9"/>
      <stop offset="1" stop-color="#f7d477"/>
    </radialGradient>
  </defs>
  <g id="icon-grade02-on" transform="translate(-84 -330)">
    <circle id="color" cx="20" cy="20" r="20" transform="translate(84 330)" fill="url(#radial-gradient)"/>
    <path id="패스_14752" data-name="패스 14752" d="M20,40A20,20,0,1,1,40,20,20.022,20.022,0,0,1,20,40M20,1.641A18.358,18.358,0,1,0,38.359,20,18.379,18.379,0,0,0,20,1.641" transform="translate(84 330)" fill="#222"/>
    <path id="패스_14753" data-name="패스 14753" d="M122.109,243.888a.657.657,0,0,1-.627-.464c-.582-1.889-3.334-3.313-6.4-3.313s-5.819,1.424-6.4,3.313a.656.656,0,1,1-1.255-.387c.757-2.457,3.977-4.24,7.656-4.24s6.9,1.783,7.656,4.24a.658.658,0,0,1-.628.85" transform="translate(-11.081 115.202)" fill="#222"/>
    <path id="패스_14754" data-name="패스 14754" d="M100.316,106.512a1.963,1.963,0,1,1-1.963-1.963,1.963,1.963,0,0,1,1.963,1.963" transform="translate(-2.801 240.991)" fill="#222"/>
    <path id="패스_14755" data-name="패스 14755" d="M270.153,106.512a1.963,1.963,0,1,1-1.963-1.963,1.963,1.963,0,0,1,1.963,1.963" transform="translate(-155.742 240.991)" fill="#222"/>
  </g>
</svg>
