<svg id="icon-star-blank" xmlns="http://www.w3.org/2000/svg" xmlns:xlink="http://www.w3.org/1999/xlink" width="16" height="16" viewBox="0 0 16 16">
  <defs>
    <clipPath id="clip-path">
      <rect id="사각형_2341" data-name="사각형 2341" width="16" height="16" transform="translate(0 -0.782)" fill="#fff" opacity="0.34"/>
    </clipPath>
  </defs>
  <g id="Icon_star_13" data-name="Icon/star_13" transform="translate(0 0.782)" clip-path="url(#clip-path)">
    <g id="star" transform="translate(-0.82 -1.203)" fill="#fff" stroke-linecap="round">
      <path d="M 13.02510833740234 14.92937088012695 C 12.95393848419189 14.92938041687012 12.88297843933105 14.91325092315674 12.81418895721436 14.88143062591553 L 9.449638366699219 13.32540035247803 C 9.250858306884766 13.23347091674805 9.039018630981445 13.18685054779053 8.819998741149902 13.18685054779053 C 8.600978851318359 13.18685054779053 8.389139175415039 13.23347091674805 8.190348625183105 13.32541084289551 L 4.825808525085449 14.88143062591553 C 4.757018566131592 14.91324043273926 4.686058521270752 14.92937088012695 4.614868640899658 14.92937088012695 C 4.473318576812744 14.92937088012695 4.331458568572998 14.86336040496826 4.235398769378662 14.75278091430664 C 4.168548583984375 14.67582035064697 4.094408512115479 14.54481029510498 4.120838642120361 14.35769081115723 L 4.607378959655762 10.9128303527832 C 4.672768592834473 10.44987106323242 4.514798641204834 9.975700378417969 4.184808731079102 9.644450187683105 L 1.710358738899231 7.160460472106934 C 1.576258778572083 7.025840759277344 1.53053879737854 6.837360382080078 1.588048696517944 6.65626049041748 C 1.645548701286316 6.475160598754883 1.791648745536804 6.347590446472168 1.978838682174683 6.315000534057617 L 5.570828914642334 5.689660549163818 C 6.017378807067871 5.611920833587646 6.400558948516846 5.340550422668457 6.622118949890137 4.945140838623047 L 8.383818626403809 1.801250576972961 C 8.513078689575195 1.570570588111877 8.731908798217773 1.545670628547668 8.819998741149902 1.545670628547668 C 8.908088684082031 1.545670628547668 9.126918792724609 1.570570588111877 9.256178855895996 1.801240563392639 L 11.01787853240967 4.945150852203369 C 11.23943901062012 5.340550422668457 11.62261867523193 5.611920833587646 12.06916904449463 5.689660549163818 L 15.66115856170654 6.315000534057617 C 15.84835910797119 6.347590446472168 15.9944486618042 6.475160598754883 16.05194854736328 6.65626049041748 C 16.10945892333984 6.837360382080078 16.0637378692627 7.025840759277344 15.92963886260986 7.160460472106934 L 13.4551887512207 9.644450187683105 C 13.12520885467529 9.975690841674805 12.9672384262085 10.44985103607178 13.03261852264404 10.9128303527832 L 13.51915836334229 14.35769081115723 C 13.54558849334717 14.54477024078369 13.47143840789795 14.67578029632568 13.40458869934082 14.75274085998535 C 13.308518409729 14.86334037780762 13.16665840148926 14.92937088012695 13.02510833740234 14.92937088012695 Z" stroke="none"/>
      <path d="M 8.819998741149902 2.045670509338379 L 7.058308601379395 5.189560890197754 C 6.76288890838623 5.716770172119141 6.251978874206543 6.078600883483887 5.65657901763916 6.1822509765625 L 2.06459903717041 6.807580947875977 L 4.53903865814209 9.291570663452148 C 4.979008674621582 9.733230590820312 5.189639091491699 10.36544990539551 5.102458953857422 10.98276042938232 L 4.61591911315918 14.42762088775635 C 4.615917205810547 14.42762470245361 4.615921974182129 14.4276237487793 4.615928649902344 14.42762088775635 L 7.980448722839355 12.87160110473633 C 8.245498657226562 12.74901008605957 8.527958869934082 12.68685054779053 8.819998741149902 12.68685054779053 C 9.112018585205078 12.68685054779053 9.394468307495117 12.74900054931641 9.659519195556641 12.87159061431885 L 13.02407455444336 14.42761421203613 C 13.02407455444336 14.42761325836182 13.02407646179199 14.4276123046875 13.02407836914062 14.42762088775635 L 12.53752899169922 10.98274040222168 C 12.45035934448242 10.36544990539551 12.66098880767822 9.733230590820312 13.10094833374023 9.291570663452148 L 15.57539749145508 6.807591438293457 C 15.57539749145508 6.807590484619141 15.57539749145508 6.807589530944824 15.57540893554688 6.807590484619141 L 11.98340892791748 6.1822509765625 C 11.38801860809326 6.078600883483887 10.87710857391357 5.716770172119141 10.58169937133789 5.189570426940918 L 8.819999694824219 2.045670509338379 C 8.819999694824219 2.045670509338379 8.819998741149902 2.045670509338379 8.819998741149902 2.045670509338379 M 8.819998741149902 1.04566764831543 C 9.160708427429199 1.04566764831543 9.501419067382812 1.216055870056152 9.692368507385254 1.556830406188965 L 11.45406913757324 4.700730323791504 C 11.60112857818604 4.963180541992188 11.85853862762451 5.14547061920166 12.15492820739746 5.197071075439453 L 15.74691867828369 5.822410583496094 C 16.54411888122559 5.961190223693848 16.85495948791504 6.940040588378906 16.28386878967285 7.513330459594727 L 13.80941867828369 9.997320175170898 C 13.58814811706543 10.21944046020508 13.48386859893799 10.532470703125 13.52770805358887 10.84291076660156 L 14.01424884796143 14.28777027130127 C 14.12502861022949 15.07212066650391 13.32328033447266 15.66776084899902 12.60430908203125 15.33525085449219 L 9.239758491516113 13.77922058105469 C 8.973469734191895 13.65606117248535 8.66652774810791 13.65606117248535 8.400238990783691 13.77922058105469 L 5.035688400268555 15.33525085449219 C 4.316725730895996 15.66775989532471 3.514968872070312 15.07212066650391 3.625748634338379 14.28777027130127 L 4.112288475036621 10.84291076660156 C 4.156128883361816 10.532470703125 4.051848411560059 10.21944046020508 3.830578804016113 9.997320175170898 L 1.356128692626953 7.513330459594727 C 0.7850379943847656 6.940051078796387 1.095878601074219 5.961190223693848 1.893078804016113 5.822410583496094 L 5.485068321228027 5.197071075439453 C 5.781458854675293 5.14547061920166 6.03886890411377 4.963180541992188 6.185928344726562 4.700730323791504 L 7.947628974914551 1.556830406188965 C 8.138578414916992 1.216055870056152 8.479289054870605 1.04566764831543 8.819998741149902 1.04566764831543 Z" stroke="none" fill="#9e896e"/>
    </g>
  </g>
</svg>
