<svg id="array_20" xmlns="http://www.w3.org/2000/svg" width="20" height="20" viewBox="0 0 20 20">
  <rect id="사각형_2372" data-name="사각형 2372" width="20" height="20" fill="#fff" opacity="0"/>
  <g id="그룹_5525" data-name="그룹 5525" transform="translate(100.387 108.084) rotate(180)">
    <path id="합치기_16" data-name="합치기 16" d="M11410.729,14107.413v-9.241l-1.973,1.973a.5.5,0,0,1-.708,0,.5.5,0,0,1,0-.708l2.825-2.826a.482.482,0,0,1,.354-.145.488.488,0,0,1,.357.145l2.829,2.826a.5.5,0,0,1-.357.853.489.489,0,0,1-.351-.145l-1.979-1.979v9.248a.5.5,0,0,1-1,0Z" transform="translate(-11324.584 -14004.414)" fill="rgba(0,0,0,0.9)"/>
    <path id="합치기_17" data-name="합치기 17" d="M11419.627,14108.142V14099l-1.973,1.975a.5.5,0,0,1-.708-.708l2.825-2.829a.5.5,0,0,1,.358-.148.484.484,0,0,1,.351.148l2.829,2.829a.5.5,0,0,1,0,.708.5.5,0,0,1-.705,0l-1.976-1.979v9.146a.5.5,0,1,1-1,0Z" transform="translate(11514.273 14201.375) rotate(180)" fill="rgba(0,0,0,0.9)"/>
  </g>
</svg>
