<svg id="share_32" xmlns="http://www.w3.org/2000/svg" width="32" height="32" viewBox="0 0 32 32">
  <rect id="container" width="32" height="32" opacity="0"/>
  <g id="share" transform="translate(5.3 4.234)">
    <path id="패스_13840" data-name="패스 13840" d="M1.25,23.379a3.263,3.263,0,1,1,3.263,3.263A3.263,3.263,0,0,1,1.25,23.379Z" transform="translate(-1.25 -11.614)" fill="none" stroke="#222" stroke-linejoin="round" stroke-width="2"/>
    <path id="패스_13841" data-name="패스 13841" d="M36.012,1.686a3.263,3.263,0,1,1-1.2,4.456A3.261,3.261,0,0,1,36.012,1.686Z" transform="translate(-19.503 -1.25)" fill="none" stroke="#222" stroke-linejoin="round" stroke-width="2"/>
    <line id="선_2" data-name="선 2" x1="10.702" y2="6.167" transform="translate(5.395 4.445)" fill="none" stroke="#222" stroke-linejoin="round" stroke-width="2"/>
    <path id="패스_13842" data-name="패스 13842" d="M36.012,45.071a3.263,3.263,0,1,0-1.2-4.456A3.261,3.261,0,0,0,36.012,45.071Z" transform="translate(-19.503 -21.977)" fill="none" stroke="#222" stroke-linejoin="round" stroke-width="2"/>
    <line id="선_3" data-name="선 3" x1="10.802" y1="5.904" transform="translate(5.345 13.057)" fill="none" stroke="#222" stroke-linejoin="round" stroke-width="2"/>
  </g>
</svg>
