<svg id="그룹_1474" data-name="그룹 1474" xmlns="http://www.w3.org/2000/svg" width="90" height="90" viewBox="0 0 90 90">
  <path id="패스_14826" data-name="패스 14826" d="M0,0H90V90H0Z" fill="none"/>
  <line id="선_5" data-name="선 5" x2="67.5" y2="67.5" transform="translate(11.25 11.25)" fill="none" stroke="#6c6c6c" stroke-linecap="round" stroke-linejoin="round" stroke-width="4"/>
  <path id="패스_14830" data-name="패스 14830" d="M0,0H.037" transform="translate(56.25 30)" fill="none" stroke="#6c6c6c" stroke-linecap="round" stroke-width="6"/>
  <path id="패스_14827" data-name="패스 14827" d="M60.7,60.708A11.25,11.25,0,0,1,52.75,64H15.25A11.25,11.25,0,0,1,4,52.75V15.25A11.228,11.228,0,0,1,7.33,7.259M19,4H52.75A11.25,11.25,0,0,1,64,15.25V49" transform="translate(11 11)" fill="none" stroke="#6c6c6c" stroke-linecap="round" stroke-linejoin="round" stroke-width="4"/>
  <path id="패스_14828" data-name="패스 14828" d="M4,27.842l15-15c3.48-3.349,7.77-3.349,11.25,0L49,31.592" transform="translate(11 28.408)" fill="none" stroke="#6c6c6c" stroke-linecap="round" stroke-linejoin="round" stroke-width="4"/>
  <path id="패스_14829" data-name="패스 14829" d="M16.32,12.366a7.9,7.9,0,0,1,6.3,2.475l7.5,7.5" transform="translate(44.88 33.909)" fill="none" stroke="#6c6c6c" stroke-linecap="round" stroke-linejoin="round" stroke-width="4"/>
</svg>
