<svg xmlns="http://www.w3.org/2000/svg" width="30.002" height="33.514" viewBox="0 0 30.002 33.514">
  <g id="그룹_66" data-name="그룹 66" transform="translate(0 2)">
    <g id="합치기_4" data-name="합치기 4" transform="translate(-18173 -19390)" fill="none">
      <path d="M18186.361,19420.662l-2.562-3.66h-1.8a9,9,0,0,1,0-18h12a9,9,0,1,1,0,18h-1.8l-2.561,3.66a2,2,0,0,1-3.275,0Z" stroke="none"/>
      <path d="M 18188 19419.513671875 L 18191.15625 19415.001953125 L 18193.998046875 19415.001953125 C 18197.859375 19415.001953125 18201.001953125 19411.861328125 18201.001953125 19408 C 18201.001953125 19404.140625 18197.859375 19401.001953125 18193.998046875 19401.001953125 L 18181.998046875 19401.001953125 C 18178.138671875 19401.001953125 18175 19404.140625 18175 19408 C 18175 19411.861328125 18178.138671875 19415.001953125 18181.998046875 19415.001953125 L 18184.83984375 19415.001953125 L 18187.998046875 19419.513671875 C 18187.998046875 19419.513671875 18188 19419.513671875 18188 19419.513671875 M 18188 19421.513671875 C 18187.380859375 19421.513671875 18186.759765625 19421.23046875 18186.361328125 19420.662109375 L 18183.798828125 19417.001953125 L 18181.998046875 19417.001953125 C 18177.02734375 19417.001953125 18173 19412.970703125 18173 19408 C 18173 19403.02734375 18177.02734375 19399.001953125 18181.998046875 19399.001953125 L 18193.998046875 19399.001953125 C 18198.970703125 19399.001953125 18203.001953125 19403.02734375 18203.001953125 19408 C 18203.001953125 19412.970703125 18198.970703125 19417.001953125 18193.998046875 19417.001953125 L 18192.197265625 19417.001953125 L 18189.63671875 19420.662109375 C 18189.240234375 19421.23046875 18188.62109375 19421.513671875 18188 19421.513671875 Z" stroke="none" fill="#fff"/>
    </g>
    <g id="타원_8" data-name="타원 8" transform="translate(11 -2)" fill="none" stroke="#fff" stroke-width="2">
      <circle cx="4" cy="4" r="4" stroke="none"/>
      <circle cx="4" cy="4" r="3" fill="none"/>
    </g>
    <g id="사각형_39" data-name="사각형 39" transform="translate(14 5)" fill="none" stroke="#fff" stroke-width="1">
      <rect width="2" height="4" stroke="none"/>
      <rect x="0.5" y="0.5" width="1" height="3" fill="none"/>
    </g>
    <path id="합치기_5" data-name="합치기 5" d="M18182,19402a2,2,0,1,1,2,2A2,2,0,0,1,18182,19402Zm-8,0a2,2,0,1,1,2,2A2,2,0,0,1,18174,19402Z" transform="translate(-18165 -19384)" fill="#fff"/>
  </g>
</svg>
