<svg xmlns="http://www.w3.org/2000/svg" xmlns:xlink="http://www.w3.org/1999/xlink" width="481" height="480" viewBox="0 0 481 480">
  <defs>
    <clipPath id="clip-path">
      <path id="패스_2031" data-name="패스 2031" d="M0,0H481V480H0Z" transform="translate(0 5758)" fill="#fff" stroke="#ccc" stroke-width="1"/>
    </clipPath>
  </defs>
  <g id="마스크_그룹_23" data-name="마스크 그룹 23" transform="translate(0 -5758)" opacity="0.15" clip-path="url(#clip-path)">
    <g id="그룹_943" data-name="그룹 943" transform="matrix(0.966, 0.259, -0.259, 0.966, 264.188, 5877.119)">
      <path id="패스_3147" data-name="패스 3147" d="M379.529,528.937c17.5,11.291,37.641,18.375,57.717,19.379l-2.065,2.962c-20.194-.836-40.392-7.832-57.9-19.11-20.161-12.982-36.757-31.639-45.7-53.119l2.063-2.958c9.076,21.283,25.737,39.847,45.887,52.845" transform="translate(-331.579 -168.346)" fill="#fff"/>
      <path id="패스_3148" data-name="패스 3148" d="M336.276,493.695c24.545,15.949,53.775,24.332,80.217,19.945l-1.892,2.713c-26.671,4.717-56.022-3.493-80.578-19.426-27.206-17.643-48.533-44.763-53.843-74.289l1.891-2.713c5.568,29.155,27.014,56.1,54.2,73.771" transform="translate(-277.603 -148.485)" fill="#fff"/>
      <path id="패스_3149" data-name="패스 3149" d="M217.825,368.986a63.51,63.51,0,0,1-2.48-24.856l1.606-2.3a62.412,62.412,0,0,0,2.763,24.45c7.924,25.758,30.57,51.15,57.708,69.044s58.768,28.278,84.663,24.041a58.988,58.988,0,0,0,16.236-5.038l-1.606,2.3a60.472,60.472,0,0,1-16.443,5.335,86.235,86.235,0,0,1-29.92-.412l-2.681,3.845c-21.473-3.5-43.9-13.8-63.172-28.044-16.748-12.374-31.118-27.732-40.427-44.189l2.679-3.842a92.287,92.287,0,0,1-8.926-20.336" transform="translate(-197.304 -120.87)" fill="#fff"/>
      <path id="패스_3150" data-name="패스 3150" d="M245.069,394.159a73.72,73.72,0,0,1-1.921-15.119l1.741-2.5a72.329,72.329,0,0,0,2.069,14.905c6.706,27.5,28.776,53.722,55.976,71.529S362.462,490.164,389.7,484a69.153,69.153,0,0,0,6.67-1.858l-1.738,2.493q-3.316,1.15-6.745,1.966c-25.292,6.031-54.768-1.229-80.5-16.251l-2.921,4.191a152.273,152.273,0,0,1-24.239-17.459l2.916-4.182c-18.807-16.488-33.084-37.173-38.076-58.745" transform="translate(-233.539 -133.146)" fill="#fff"/>
      <path id="패스_3151" data-name="패스 3151" d="M132.084,228.233l1.206-1.73c-2.48,3.556,2.824,11.453,12.919,21.6,15.218,15.3,41.322,35.728,68.091,54.152s54.192,34.84,72.056,42.123c10.125,4.13,17.177,5.324,19.3,2.286l-1.206,1.73a4.186,4.186,0,0,1-1.493,1.3q-.529.758-1.052,1.509c-4.114,2.34-12.881.456-24.389-4.316-20.078-8.325-48.491-25.444-75.01-44.218s-51.146-39.219-63.653-54.185c-5.958-7.13-9.166-13.018-8.519-16.9l1.052-1.509a4.217,4.217,0,0,1,.7-1.855" transform="translate(-69.845 -80.092)" fill="#fff"/>
      <path id="패스_3152" data-name="패스 3152" d="M142.029,241.548l1.223-1.754c-3.41,5.568.823,14.854,9.905,25.911,14,17.044,39.527,38.3,66.358,56.636s54.956,33.745,74.158,39.109c10.6,2.966,18.484,2.86,21.924-1.5l-1.223,1.754a9.369,9.369,0,0,1-3.59,2.752l-1.116,1.6c-5.5,2.63-14.354,1.792-25.209-1.565-21.3-6.579-50.285-22.871-76.74-41.738s-50.386-40.306-61.554-57.195c-4.611-6.973-7.049-13.17-6.591-18.088l1.117-1.6a9.3,9.3,0,0,1,1.337-4.322" transform="translate(-85.785 -84.791)" fill="#fff"/>
      <path id="패스_3153" data-name="패스 3153" d="M153.49,256.144l1.262-1.811c-3.833,7.415-.581,17.783,7.332,29.413,12.785,18.786,37.737,40.87,64.632,59.113s55.714,32.658,76.257,36.1c10.728,1.8,19.2.609,23.948-4.593l-1.262,1.811a16.683,16.683,0,0,1-6.953,4.506l-1.931,2.769c-6.313,2.459-14.689,2.418-24.332.437-22.636-4.657-52.263-20.033-78.65-39s-49.543-41.518-59.232-60.526c-3.189-6.257-4.92-12.133-4.829-17.372l1.934-2.774a16.709,16.709,0,0,1,1.823-8.076" transform="translate(-103.706 -89.932)" fill="#fff"/>
      <path id="패스_3154" data-name="패스 3154" d="M165.336,272.775l1.318-1.89c-3.7,8.86-1.279,19.843,5.352,31.612,11.567,20.532,35.943,43.443,62.9,61.6s56.481,31.557,78.358,33.084c10.427.726,19.115-1.246,24.963-6.683l-1.318,1.891a26.3,26.3,0,0,1-11.967,6.283l-2.085,2.99c-5.968,1.655-12.911,1.9-20.492.978-23.85-2.915-54.054-17.464-80.383-36.511s-48.781-42.611-57.13-63.541a46.974,46.974,0,0,1-3.355-13.428l2.082-2.986a26.3,26.3,0,0,1,1.758-13.4" transform="translate(-122.618 -95.785)" fill="#fff"/>
      <path id="패스_3155" data-name="패스 3155" d="M178.423,292.276l1.4-2c-3.061,9.653-1.275,20.627,4,31.976,10.353,22.274,34.151,46.012,61.167,64.083s57.242,30.465,80.46,30.069c9.586-.164,17.987-2.51,24.466-7.543l-1.4,2a38.635,38.635,0,0,1-19.183,7.665l-2.259,3.239a63.691,63.691,0,0,1-12.9.624c-25.067-1.168-55.848-14.89-82.112-34.031s-48.02-43.7-55.031-66.552a57.074,57.074,0,0,1-1.43-5.649l2.256-3.236a38.613,38.613,0,0,1,.562-20.647" transform="translate(-143.424 -102.641)" fill="#fff"/>
      <path id="패스_3156" data-name="패스 3156" d="M196.925,346.084c-3.782-10.386-4.987-20.7-2.825-30.411l1.491-2.14c-2.006,9.483-.669,19.613,3.226,29.837,9.136,24.02,32.358,48.585,59.437,66.563s58,29.378,82.562,27.055a49.2,49.2,0,0,0,21.821-7l-1.492,2.14A50.644,50.644,0,0,1,339,439.59a69.546,69.546,0,0,1-7.584.4l-2.456,3.524c-26.236.5-57.5-12.375-83.632-31.553-23.6-17.317-43.017-39.772-50.79-62.163L197,346.278c-.026-.066-.048-.129-.074-.195" transform="translate(-167.413 -110.865)" fill="#fff"/>
      <path id="패스_3157" data-name="패스 3157" d="M122.614,215.522l1.206-1.73c-1.111,1.593,5.28,7.929,16.182,16.925,16.432,13.556,43.115,33.155,69.823,51.667s53.428,35.937,69.952,45.143c9.368,5.214,15.456,7.793,16.405,6.432l-1.206,1.73a1.1,1.1,0,0,1-.374.33l-1.008,1.445c-2.374,1.488-10.613-1.727-22.29-7.959-18.861-10.071-46.7-28.016-73.277-46.7s-51.91-38.123-65.755-51.17c-7.229-6.811-11.333-11.885-10.847-14.2l1.008-1.445a1.107,1.107,0,0,1,.181-.465" transform="translate(-54.646 -75.597)" fill="#fff"/>
      <path id="패스_3158" data-name="패스 3158" d="M429.2,560.717a120.093,120.093,0,0,0,24.161,17.561l-2.247,3.224a118.008,118.008,0,0,1-24.156-17.569l2.242-3.215" transform="translate(-409.342 -198.269)" fill="#fff"/>
      <path id="패스_3159" data-name="패스 3159" d="M59.974,19.572c20.156,12.978,36.753,31.636,45.692,53.115L103.6,75.646C94.528,54.364,77.866,35.8,57.722,22.8,40.218,11.513,20.08,4.429,0,3.421L2.065.459c20.2.838,40.4,7.834,57.909,19.113" transform="translate(214.333 -0.163)" fill="#fff"/>
      <path id="패스_3160" data-name="패스 3160" d="M86.462,42.471c27.2,17.645,48.533,44.763,53.838,74.286l-1.891,2.713c-5.563-29.153-27.014-56.1-54.2-73.767C59.66,29.75,30.433,21.363,3.988,25.755L5.88,23.042c26.671-4.717,56.022,3.493,80.582,19.43" transform="translate(177.122 -7.68)" fill="#fff"/>
      <path id="패스_3161" data-name="패스 3161" d="M23.347,44.9c25.289-6.027,54.768,1.235,80.5,16.252l2.922-4.19A152.205,152.205,0,0,1,131,74.415L128.087,78.6c18.812,16.491,33.082,37.177,38.076,58.744a73.209,73.209,0,0,1,1.919,15.123l-1.738,2.493a72.142,72.142,0,0,0-2.069-14.905c-6.707-27.5-28.776-53.722-55.971-71.526S48.77,41.337,21.534,47.5a68.991,68.991,0,0,0-6.666,1.86l1.738-2.493A69.2,69.2,0,0,1,23.347,44.9" transform="translate(142.308 -15.126)" fill="#fff"/>
      <path id="패스_3162" data-name="패스 3162" d="M45.437,63.312a86.221,86.221,0,0,1,29.921.412l2.678-3.842c21.476,3.5,43.9,13.8,63.179,28.043,16.745,12.378,31.118,27.731,40.422,44.186l-2.677,3.842a92.232,92.232,0,0,1,8.924,20.335,63.488,63.488,0,0,1,2.481,24.856q-.806,1.157-1.606,2.3A62.391,62.391,0,0,0,185.995,159c-7.924-25.758-30.569-51.15-57.7-69.042S69.52,61.676,43.623,65.913a59.077,59.077,0,0,0-16.231,5.04L29,68.649a60.552,60.552,0,0,1,16.437-5.337" transform="translate(111.595 -21.175)" fill="#fff"/>
      <path id="패스_3163" data-name="패스 3163" d="M87.945,158.5l1.114-1.6c5.5-2.631,14.357-1.8,25.208,1.557,21.3,6.58,50.285,22.871,76.743,41.741s50.383,40.3,61.55,57.192c4.611,6.973,7.053,13.173,6.592,18.095l-1.114,1.6A9.356,9.356,0,0,1,256.7,281.4l-1.224,1.755c3.411-5.568-.822-14.854-9.905-25.911-14-17.044-39.53-38.3-66.354-56.634s-54.96-33.748-74.162-39.112c-10.6-2.959-18.481-2.857-21.925,1.5l1.224-1.754a9.318,9.318,0,0,1,3.593-2.75" transform="translate(7.059 -54.931)" fill="#fff"/>
      <path id="패스_3164" data-name="패스 3164" d="M96.141,174.4l1.052-1.509c4.109-2.343,12.877-.46,24.385,4.312,20.078,8.326,48.491,25.444,75.011,44.226s51.144,39.212,63.652,54.177c5.961,7.132,9.169,13.021,8.522,16.9l-1.052,1.509a4.206,4.206,0,0,1-.709,1.856l-1.2,1.726c2.48-3.556-2.82-11.45-12.919-21.605-15.218-15.3-41.321-35.727-68.087-54.148S130.6,187,112.733,179.717c-10.125-4.13-17.177-5.324-19.3-2.286l1.2-1.726a4.2,4.2,0,0,1,1.5-1.3" transform="translate(-9.244 -60.779)" fill="#fff"/>
      <path id="패스_3165" data-name="패스 3165" d="M73.42,121.834l2.085-2.99c5.968-1.655,12.911-1.9,20.492-.979,23.851,2.915,54.055,17.465,80.387,36.515s48.777,42.608,57.126,63.538a47.054,47.054,0,0,1,3.359,13.431l-2.082,2.986a26.43,26.43,0,0,1-1.758,13.4l-1.318,1.89c3.7-8.863,1.274-19.846-5.357-31.614-11.567-20.532-35.944-43.439-62.894-61.6s-56.483-31.564-78.365-33.083c-10.421-.727-19.109,1.245-24.957,6.682l1.318-1.891a26.288,26.288,0,0,1,11.964-6.286" transform="translate(44.258 -41.489)" fill="#fff"/>
      <path id="패스_3166" data-name="패스 3166" d="M79.41,140.528l1.934-2.774c6.317-2.456,14.689-2.417,24.329-.432,22.639,4.653,52.264,20.033,78.657,39s49.538,41.515,59.229,60.523c3.189,6.257,4.92,12.134,4.829,17.373l-1.937,2.778a16.624,16.624,0,0,1-1.822,8.072l-1.262,1.81c3.833-7.414.581-17.782-7.335-29.409-12.783-18.79-37.734-40.874-64.625-59.115s-55.721-32.656-76.261-36.1c-10.727-1.794-19.2-.606-23.949,4.593l1.262-1.811a16.652,16.652,0,0,1,6.95-4.5" transform="translate(25.587 -48.044)" fill="#fff"/>
      <path id="패스_3167" data-name="패스 3167" d="M63.263,82.164a71.132,71.132,0,0,1,7.583-.4L73.3,78.235c26.24-.5,57.5,12.379,83.635,31.555,23.594,17.315,43.012,39.77,50.785,62.16l-2.457,3.524c.027.066.052.132.074.195,3.783,10.386,4.992,20.707,2.825,30.411l-1.492,2.14c2.01-9.479.669-19.612-3.226-29.837-9.136-24.02-32.357-48.585-59.433-66.56S86.008,82.446,61.45,84.765a49.2,49.2,0,0,0-21.822,7l1.492-2.139a50.638,50.638,0,0,1,22.143-7.463" transform="translate(85.148 -27.66)" fill="#fff"/>
      <path id="패스_3168" data-name="패스 3168" d="M70.353,102.025l2.259-3.239a63.932,63.932,0,0,1,12.9-.625c25.068,1.168,55.849,14.891,82.117,34.034s48.015,43.7,55.028,66.548a58.277,58.277,0,0,1,1.434,5.652l-2.256,3.235a38.661,38.661,0,0,1-.562,20.647l-1.4,2c3.061-9.653,1.275-20.627-4.005-31.979-10.353-22.274-34.151-46.012-61.163-64.08S97.458,103.754,74.24,104.15c-9.589.168-17.982,2.513-24.462,7.545l1.4-2a38.624,38.624,0,0,1,19.179-7.668" transform="translate(63.738 -34.682)" fill="#fff"/>
      <path id="패스_3169" data-name="패스 3169" d="M104.828,189l1.008-1.445c2.374-1.488,10.613,1.727,22.29,7.959,18.861,10.072,46.7,28.016,73.281,46.706s51.906,38.12,65.752,51.167c7.233,6.814,11.335,11.888,10.845,14.2L277,309.033a1.092,1.092,0,0,1-.183.469l-1.2,1.727c1.111-1.594-5.277-7.927-16.183-16.925-16.432-13.556-43.114-33.155-69.819-51.664S136.175,206.7,119.651,197.5c-9.366-5.218-15.454-7.8-16.4-6.436l1.2-1.727a1.116,1.116,0,0,1,.376-.334" transform="translate(-24.783 -66.192)" fill="#fff"/>
      <path id="패스_3170" data-name="패스 3170" d="M113.734,202.45l.977-1.4c.569-.14,7.973,4.6,19.421,12.263,17.646,11.814,44.909,30.582,71.552,49.187s52.669,37.024,67.856,48.149c8.386,6.145,13.461,10.064,13.517,10.558l-.977,1.4-.246.353-.977,1.4c-.569.14-7.975-4.594-19.423-12.259-17.644-11.818-44.906-30.585-71.545-49.187s-52.674-37.028-67.86-48.152c-8.382-6.141-13.457-10.062-13.518-10.558.324-.465.652-.934.977-1.4.081-.116.166-.237.246-.353" transform="translate(-39.784 -71.09)" fill="#fff"/>
      <path id="패스_3171" data-name="패스 3171" d="M53.645,17.567,51.4,20.782A120.026,120.026,0,0,0,27.246,3.224L29.493,0A117.948,117.948,0,0,1,53.645,17.567" transform="translate(248.743 -0.001)" fill="#fff"/>
    </g>
  </g>
</svg>
