<svg xmlns="http://www.w3.org/2000/svg" xmlns:xlink="http://www.w3.org/1999/xlink" width="482" height="480" viewBox="0 0 482 480">
  <defs>
    <clipPath id="clip-path">
      <path id="패스_1743" data-name="패스 1743" d="M0,0H482V480H0Z" transform="translate(-1 5758)" fill="#fff" stroke="#ccc" stroke-width="1"/>
    </clipPath>
  </defs>
  <g id="마스크_그룹_20" data-name="마스크 그룹 20" transform="translate(1 -5758)" clip-path="url(#clip-path)">
    <g id="그룹_942" data-name="그룹 942" transform="translate(210 5940.001)">
      <path id="패스_3172" data-name="패스 3172" d="M123.958,361.1l28.57-9.517L143,342.052l28.571-9.522-9.522-9.521,28.571-9.523-9.523-9.521,28.566-9.527,9.527,9.527-28.571,9.521L200.147,323l-28.575,9.526,9.526,9.522-28.57,9.526,9.522,9.522-28.57,9.521Z" transform="translate(-47.773 -113.475)"/>
      <path id="패스_3173" data-name="패스 3173" d="M61.978,361.1l28.567-9.517-9.517-9.526,28.566-9.522-9.522-9.521,28.57-9.523-9.526-9.521,28.575-9.527,9.522,9.527-28.571,9.521,9.522,9.523-28.57,9.521,9.521,9.522-28.57,9.526,9.526,9.517L71.5,370.627Z" transform="translate(-23.886 -113.475)"/>
      <path id="패스_3174" data-name="패스 3174" d="M57.141,303.963l9.517,9.522-28.567,9.523,9.523,9.522-28.572,9.521,9.526,9.522L0,361.1l9.526,9.531L38.092,361.1l-9.522-9.521,28.572-9.522-9.526-9.521,28.57-9.522-9.526-9.523,28.57-9.522-9.521-9.526Z" transform="translate(0 -113.475)"/>
      <path id="패스_3175" data-name="패스 3175" d="M95.627,251.231,122.56,264.7V251.231L149.5,264.7V251.231L176.434,264.7l0-13.473L203.367,264.7v13.468L176.434,264.7v13.464L149.5,264.7v13.468L122.56,264.7v13.468L95.623,264.7Z" transform="translate(-36.853 -96.824)"/>
      <path id="패스_3176" data-name="패스 3176" d="M51.8,207.411l26.933,13.468,0-13.468,26.933,13.464V207.411l26.938,13.468V207.411l26.936,13.468,0,13.464-26.932-13.464v13.464l-26.937-13.468v13.468L78.735,220.879l0,13.464L51.8,220.879Z" transform="translate(-19.964 -79.936)"/>
      <path id="패스_3177" data-name="패스 3177" d="M7.974,163.582l26.936,13.469V163.582l26.933,13.469,0-13.469L88.78,177.051V163.582l26.937,13.469v13.468L88.78,177.051v13.468L61.844,177.051l0,13.468L34.911,177.051v13.468L7.974,177.051Z" transform="translate(-3.073 -63.044)"/>
      <path id="패스_3178" data-name="패스 3178" d="M176.865,123.957l9.522,28.57L195.91,143l9.522,28.57,9.526-9.527,9.522,28.576L234,181.094l9.526,28.571L234,219.191l-9.521-28.571-9.522,9.526-9.526-28.575-9.522,9.523-9.523-28.567-9.522,9.517-9.526-28.565Z" transform="translate(-64.492 -47.773)"/>
      <path id="패스_3179" data-name="패스 3179" d="M176.865,61.978l9.522,28.567,9.523-9.517,9.522,28.566,9.526-9.522,9.522,28.57L234,119.114l9.526,28.575L234,157.207l-9.521-28.567-9.522,9.517-9.526-28.565-9.522,9.521-9.523-28.57-9.522,9.526L167.339,71.5Z" transform="translate(-64.492 -23.886)"/>
      <path id="패스_3180" data-name="패스 3180" d="M224.481,66.658,234,95.228l9.526-9.522L234,57.136ZM205.432,47.614l9.526,28.57,9.522-9.526-9.522-28.566ZM186.387,28.57l9.523,28.571,9.522-9.526L195.91,19.047ZM176.865,0l-9.526,9.522,9.526,28.571,9.522-9.522Z" transform="translate(-64.492)"/>
      <path id="패스_3181" data-name="패스 3181" d="M317.614,95.626l-13.469,26.933h13.469L304.15,149.5h13.464l-13.469,26.933h13.469L304.15,203.365H290.681l13.464-26.936-13.464,0L304.15,149.5H290.681l13.464-26.936H290.681L304.15,95.622Z" transform="translate(-112.027 -36.853)"/>
      <path id="패스_3182" data-name="패스 3182" d="M361.439,51.8,347.971,78.734l13.468,0-13.468,26.933h13.468l-13.468,26.936h13.468l-13.468,26.938-13.468,0,13.468-26.933H334.5l13.468-26.936H334.5l13.468-26.936-13.468,0L347.971,51.8Z" transform="translate(-128.916 -19.964)"/>
      <path id="패스_3183" data-name="패스 3183" d="M405.268,7.974,391.8,34.91h13.469L391.8,61.843l13.469,0L391.8,88.78h13.469L391.8,115.716H378.33L391.8,88.78H378.33L391.8,61.843l-13.468,0L391.8,34.91H378.33L391.8,7.974Z" transform="translate(-145.807 -3.073)"/>
      <path id="패스_3184" data-name="패스 3184" d="M402.066,176.865l-28.57,9.522,9.521,9.521-28.566,9.523,9.522,9.526-28.57,9.521L344.926,234l-28.567,9.526L306.833,234l28.572-9.522-9.527-9.521,28.575-9.526-9.526-9.523,28.571-9.521-9.522-9.522,28.57-9.526Z" transform="translate(-118.252 -64.492)"/>
      <path id="패스_3185" data-name="패스 3185" d="M464.046,176.865l-28.57,9.522L445,195.908l-28.567,9.523,9.522,9.526-28.57,9.521L406.9,234l-28.57,9.526L368.812,234l28.571-9.522-9.522-9.521,28.57-9.526-9.526-9.523,28.572-9.521-9.523-9.522,28.567-9.526Z" transform="translate(-142.139 -64.492)"/>
      <path id="패스_3186" data-name="패스 3186" d="M487.932,176.864l9.522,9.522-28.57,9.521,9.521,9.523-28.566,9.526,9.523,9.522L430.79,234l9.527,9.526L468.884,234l-9.522-9.521,28.57-9.522-9.526-9.526,28.57-9.523-9.521-9.521,28.57-9.522-9.522-9.526Z" transform="translate(-166.025 -64.492)"/>
      <path id="패스_3187" data-name="패스 3187" d="M422.554,317.618,395.62,304.145v13.468l-26.936-13.464v13.469l-26.937-13.473v13.468l-26.932-13.464V290.681l26.932,13.464V290.681l26.938,13.468V290.681l26.936,13.464V290.681l26.933,13.468Z" transform="translate(-121.328 -112.027)"/>
      <path id="패스_3188" data-name="패스 3188" d="M466.378,361.439l-26.932-13.468,0,13.468-26.933-13.468v13.468l-26.936-13.468v13.468l-26.937-13.468V334.5l26.938,13.468V334.507l26.936,13.464V334.5l26.938,13.468,0-13.464,26.936,13.464Z" transform="translate(-138.216 -128.916)"/>
      <path id="패스_3189" data-name="패스 3189" d="M510.207,405.267,483.27,391.8v13.469L456.334,391.8v13.469L429.4,391.8v13.469L402.464,391.8V378.33L429.4,391.8V378.33L456.334,391.8V378.33L483.27,391.8V378.33L510.207,391.8Z" transform="translate(-155.108 -145.807)"/>
      <path id="패스_3190" data-name="패스 3190" d="M361.1,402.066l-9.522-28.57-9.521,9.521-9.526-28.566-9.522,9.522-9.523-28.57-9.522,9.521-9.526-28.571,9.526-9.522,9.522,28.572,9.523-9.527,9.522,28.575,9.526-9.526,9.521,28.571,9.522-9.522,9.526,28.57Z" transform="translate(-113.475 -118.252)"/>
      <path id="패스_3191" data-name="패스 3191" d="M361.1,464.046l-9.522-28.571L342.057,445l-9.526-28.567-9.522,9.522-9.523-28.57-9.522,9.521-9.526-28.566,9.526-9.526,9.522,28.571,9.523-9.522,9.522,28.57,9.526-9.526,9.521,28.57,9.522-9.522,9.526,28.567Z" transform="translate(-113.475 -142.139)"/>
      <path id="패스_3192" data-name="패스 3192" d="M294.438,440.317l9.526,28.567,9.521-9.523,9.523,28.572,9.521-9.527,9.527,28.57,9.522-9.522,9.521,28.57,9.526-9.522-9.526-28.57-9.521,9.521-9.522-28.57-9.527,9.521-9.521-28.566-9.523,9.521-9.521-28.57Z" transform="translate(-113.475 -166.025)"/>
      <path id="패스_3193" data-name="패스 3193" d="M251.231,422.553,264.7,395.62H251.231L264.7,368.684H251.231L264.7,341.746H251.231L264.7,314.814h13.468L264.7,341.746h13.468L264.7,368.684h13.468L264.7,395.62h13.468L264.7,422.553Z" transform="translate(-96.823 -121.328)"/>
      <path id="패스_3194" data-name="패스 3194" d="M207.412,466.378l13.469-26.936H207.412l13.469-26.933H207.412l13.469-26.936H207.412l13.469-26.937h13.463l-13.463,26.938h13.463l-13.463,26.936h13.463l-13.463,26.933h13.463l-13.463,26.936Z" transform="translate(-79.936 -138.216)"/>
      <path id="패스_3195" data-name="패스 3195" d="M163.582,510.207l13.469-26.937H163.582l13.469-26.937H163.582L177.051,429.4H163.582l13.469-26.936H190.52L177.051,429.4H190.52l-13.468,26.933H190.52l-13.468,26.937H190.52l-13.468,26.937Z" transform="translate(-63.044 -155.108)"/>
    </g>
  </g>
</svg>
