<svg xmlns="http://www.w3.org/2000/svg" xmlns:xlink="http://www.w3.org/1999/xlink" width="481" height="480" viewBox="0 0 481 480">
  <defs>
    <clipPath id="clip-path">
      <path id="패스_1937" data-name="패스 1937" d="M0,0H481V480H0Z" transform="translate(0 5758)" fill="#fff" stroke="#ccc" stroke-width="1"/>
    </clipPath>
    <clipPath id="clip-path-2">
      <rect id="사각형_430" data-name="사각형 430" width="420" height="367.941" fill="none"/>
    </clipPath>
  </defs>
  <g id="마스크_그룹_22" data-name="마스크 그룹 22" transform="translate(0 -5758)" clip-path="url(#clip-path)">
    <g id="그룹_937" data-name="그룹 937" transform="translate(91.623 6170.287) rotate(-45)">
      <g id="그룹_936" data-name="그룹 936" transform="translate(0 0)" clip-path="url(#clip-path-2)">
        <path id="패스_2631" data-name="패스 2631" d="M1,41.695c1.946.474,3.63.911,5.788,1.416C4.6,39.456,2.2,35.713.119,32.008.35,35.277.6,38.5,1,41.695" transform="translate(0.623 167.642)"/>
        <path id="패스_2632" data-name="패스 2632" d="M.3,33.811c.437,3.53.973,7.067,1.622,10.523,3.724.954,7.6,1.853,12.107,2.975-2.445-3.986-4.772-7.915-7.067-11.889C4.5,34.821,2.524,34.347.3,33.811" transform="translate(1.556 177.085)"/>
        <path id="패스_2633" data-name="패스 2633" d="M.588,35.715c.68,3.668,1.559,7.236,2.426,10.841,5.358,1.266,10.953,2.657,17.771,4.341-2.632-4.011-4.946-8.021-7.31-12.014C8.7,37.7,4.536,36.688.588,35.715" transform="translate(3.08 187.058)"/>
        <path id="패스_2634" data-name="패스 2634" d="M1.025,37.652c.948,3.73,1.753,7.5,2.9,11.134,7.03,1.722,14.166,3.474,23.353,5.826-2.695-4.167-5.42-8.383-8.04-12.513-7.03-1.728-12.731-3.131-18.214-4.447" transform="translate(5.369 197.203)"/>
        <path id="패스_2635" data-name="패스 2635" d="M1.543,39.611C2.784,43.584,4.306,47.346,5.8,51.182c8.708,2.158,17.128,4.242,28.393,7.3-2.888-4.335-6.05-8.645-8.845-12.912-9.369-2.389-16.629-4.217-23.8-5.957" transform="translate(8.082 207.463)"/>
        <path id="패스_2636" data-name="패스 2636" d="M2.277,41.619C3.861,45.686,5.539,49.7,7.354,53.6c10.9,2.67,21.75,5.52,32.516,8.651-2.919-4.447-5.919-8.882-8.845-13.255C19.649,45.9,11.134,43.765,2.277,41.619" transform="translate(11.926 217.98)"/>
        <path id="패스_2637" data-name="패스 2637" d="M3.152,43.662c1.946,4.217,3.861,8.4,6.057,12.425,11.914,2.938,23.659,6.375,35.4,9.93-3.119-4.6-5.714-9.188-8.782-13.691-10.816-3.169-21.719-6.032-32.672-8.664" transform="translate(16.509 228.681)"/>
        <path id="패스_2638" data-name="패스 2638" d="M4.176,45.74C6.64,50.225,9.328,54.522,12.129,58.8,24.9,62.1,37.472,66.087,49.922,70.41c-3.362-4.946-6.992-9.893-10.292-14.7-11.758-3.574-23.5-7.03-35.454-9.968" transform="translate(21.872 239.564)"/>
        <path id="패스_2639" data-name="패스 2639" d="M5.483,47.889c3.162,4.847,6.606,9.487,10.136,14.072,12.943,3.605,25.649,7.99,38.205,12.849-3.518-5.177-7.1-10.292-10.541-15.351-12.438-4.36-25.031-8.283-37.8-11.571" transform="translate(28.718 250.82)"/>
        <path id="패스_2640" data-name="패스 2640" d="M7.123,50.166c4.2,5.383,8.689,10.56,13.4,15.544,12.014,3.767,23.59,8.446,35.211,13.267-3.568-5.42-6.942-10.71-10.442-15.956C32.766,58.169,20.072,53.759,7.123,50.166" transform="translate(37.307 262.746)"/>
        <path id="패스_2641" data-name="패스 2641" d="M28.969,71.04c8.04,3.169,15.812,6.662,26.117,11.583-3.674-5.689-7.1-11.2-10.7-16.629-11.589-4.822-23.123-9.525-35.1-13.323A205.891,205.891,0,0,0,28.969,71.04" transform="translate(48.62 275.861)"/>
        <path id="패스_2642" data-name="패스 2642" d="M44.577,76.256c-2-2.62-4.167-5.882-6.287-9.15-10.161-4.884-17.846-8.321-25.755-11.415,10.236,7.76,20.179,15.4,32.042,20.565" transform="translate(65.653 291.683)"/>
        <path id="패스_2643" data-name="패스 2643" d="M1.769,20.627c-.268.842-.474,1.684-.667,2.557,1.485.343,2.651.611,4.235,1.01-.474-1.179-.7-1.778-1.179-2.957-.9-.212-1.547-.381-2.389-.611" transform="translate(5.772 108.033)"/>
        <path id="패스_2644" data-name="패스 2644" d="M1.232,22.4c-.156.8-.4,1.584-.574,2.426,3.836.9,7.947,1.909,12.625,3.056-.561-1.16-.842-1.728-1.416-2.888-3.936-.986-7.3-1.79-10.635-2.595" transform="translate(3.446 117.33)"/>
        <path id="패스_2645" data-name="패스 2645" d="M.731,24.215c-.131.78-.243,1.547-.343,2.327,6.188,1.51,12.662,3.094,20.833,5.077-.511-1.079-.767-1.628-1.279-2.726-7.5-1.815-13.461-3.262-19.212-4.678" transform="translate(2.032 126.826)"/>
        <path id="패스_2646" data-name="패스 2646" d="M.246,26.033c-.075.674-.037,1.428-.1,2.158,8.92,2.158,17.266,4.2,28.842,7-.468-.986-.7-1.472-1.173-2.464-11.04-2.651-19.124-4.641-27.57-6.7" transform="translate(0.765 136.348)"/>
        <path id="패스_2647" data-name="패스 2647" d="M.154,27.891c-.037.667-.062,1.3-.1,1.984Q18,34.225,35.932,38.588c-.437-.892-.642-1.329-1.085-2.221Q17.51,32.167.154,27.891" transform="translate(0.283 146.079)"/>
        <path id="패스_2648" data-name="패스 2648" d="M0,29.746c0,.667.1,1.279.1,1.89,14.4,3.506,28.811,6.98,43.183,10.535-.524-.873-.78-1.316-1.31-2.189Q21,34.808,0,29.746" transform="translate(0 155.795)"/>
        <path id="패스_2649" data-name="패스 2649" d="M.1,31.641c.037.574.075,1.179.1,1.715q25.2,6.166,50.35,12.45c-.437-.8-.661-1.216-1.11-2.008C33.014,39.656,16.559,35.639.1,31.641" transform="translate(0.513 165.72)"/>
        <path id="패스_2650" data-name="패스 2650" d="M51.575,46.387c-16.754-4.373-33.564-8.5-50.387-12.6.437.711.667,1.06,1.11,1.759,16.785,4.079,33.558,8.2,50.287,12.556-.4-.692-.611-1.035-1.01-1.715" transform="translate(6.222 176.96)"/>
        <path id="패스_2651" data-name="패스 2651" d="M52.423,48.862C35.881,44.2,19.215,40.017,2.5,35.975c.393.605.586.923.973,1.547,16.7,4.079,33.321,8.3,49.888,12.887-.374-.624-.555-.936-.936-1.547" transform="translate(13.083 188.419)"/>
        <path id="패스_2652" data-name="패스 2652" d="M53.945,51.684C37.365,46.662,20.636,42.277,3.826,38.148c.306.536.449.8.742,1.354,16.9,4.129,33.67,8.676,50.312,13.754-.374-.624-.555-.948-.936-1.572" transform="translate(20.039 199.801)"/>
        <path id="패스_2653" data-name="패스 2653" d="M55.7,54.954C39.042,49.472,22.219,44.687,5.234,40.371c.318.487.462.73.78,1.216,17.01,4.3,33.857,9.126,50.524,14.646-.343-.511-.511-.767-.842-1.279" transform="translate(27.413 211.444)"/>
        <path id="패스_2654" data-name="패스 2654" d="M56.727,58.061c-16.411-5.932-33.09-10.9-49.95-15.425.268.418.405.611.686,1.023,16.81,4.5,33.4,9.612,49.776,15.55-.206-.468-.306-.7-.511-1.148" transform="translate(35.495 223.307)"/>
        <path id="패스_2655" data-name="패스 2655" d="M57.488,61.518C41.37,55.124,24.972,49.679,8.305,44.926c.218.318.331.462.536.78A510.106,510.106,0,0,1,57.987,62.4c-.193-.343-.3-.524-.5-.88" transform="translate(43.498 235.301)"/>
        <path id="패스_2656" data-name="패스 2656" d="M59.53,65C42.813,59.409,26.671,52.461,9.8,47.246c.162.231.231.343.38.574,16.835,5.24,32.9,12.413,49.645,17.827-.112-.262-.181-.381-.293-.649" transform="translate(51.318 247.452)"/>
        <path id="패스_2657" data-name="패스 2657" d="M59.084,63.68C44.769,67.21,24.827,54.248,11.51,49.7c.087.131.125.181.206.306,13.255,4.528,33.358,17.677,47.611,13.847-.1-.069-.143-.094-.243-.168" transform="translate(60.284 260.279)"/>
        <path id="패스_2658" data-name="패스 2658" d="M14.91,62.951c20.9,9.126,26.984,8.446,41.224-9.587v-.112c-14.24,18-20.316,18.675-41.187,9.568l-.037.131" transform="translate(78.092 278.909)"/>
        <path id="패스_2659" data-name="패스 2659" d="M13.233,52.205l.056.131c12.506,4.959,43,6.262,43,6.262s-30.583-1.435-43.058-6.393" transform="translate(69.309 273.425)"/>
        <path id="패스_2660" data-name="패스 2660" d="M53.079,53.828c.1-.231.218-.524.331-.767C46.742,65.143,35.29,91.5,16.627,80.581c.087.125.137.181.231.306,18.388,10.5,29.616-15.12,36.222-27.059" transform="translate(87.085 277.908)"/>
        <path id="패스_2661" data-name="패스 2661" d="M4.91,14.188c.911.193,1.584.38,2.532.574-.374-1.266-.574-1.89-.948-3.156-.536.867-1.035,1.74-1.584,2.582" transform="translate(25.716 60.785)"/>
        <path id="패스_2662" data-name="패스 2662" d="M8.2,12.533c-1.447,2.426-2.938,4.847-4.279,7.335,3.842.9,7.872,1.815,12.525,2.826-1.073-3.568-1.6-5.352-2.657-8.92-2.058-.437-3.736-.836-5.589-1.241" transform="translate(20.516 65.641)"/>
        <path id="패스_2663" data-name="패스 2663" d="M6.766,14.195C5.487,16.678,4.283,19.241,3.1,21.8c6.911,1.678,13.8,3.3,22.723,5.215-1.441-3.743-2.158-5.62-3.605-9.356-5.851-1.279-10.772-2.389-15.45-3.462" transform="translate(16.226 74.345)"/>
        <path id="패스_2664" data-name="패스 2664" d="M5.569,15.873c-1.123,2.582-2.2,5.177-3.206,7.809q16.121,3.967,32.348,7.441c-1.2-3.169-2.52-6.263-3.63-9.425-10.1-2.158-17.677-3.911-25.512-5.826" transform="translate(12.376 83.134)"/>
        <path id="패스_2665" data-name="패스 2665" d="M4.664,17.572c-1.01,2.695-2.058,5.346-2.938,8.078,13.754,3.375,27.52,6.662,41.374,9.6-1.316-3.206-2.458-6.506-3.63-9.7-11.633-2.532-23.254-5.115-34.806-7.978" transform="translate(9.04 92.033)"/>
        <path id="패스_2666" data-name="패스 2666" d="M46.317,29.388C31.746,26.294,17.262,22.832,2.8,19.289c-.543,1.678-.948,3.362-1.46,5.046.549,1.31,1.048,2.626,1.584,3.911,15.737,3.811,31.493,7.529,47.331,10.934-1.453-3.262-2.595-6.524-3.936-9.793" transform="translate(7.008 101.025)"/>
        <path id="패스_2667" data-name="패스 2667" d="M49.342,32.239Q25.493,26.991,1.781,21.2c1.341,3.368,2.732,6.73,4.2,10.1q24.083,5.829,48.266,11.228c-1.584-3.418-3.437-6.855-4.909-10.292" transform="translate(9.328 111.029)"/>
        <path id="패스_2668" data-name="패스 2668" d="M50.854,34.452Q26.733,29.063,2.681,23.281c1.584,3.53,3.5,7,5.252,10.5Q31.838,39.558,55.8,45.025c-1.684-3.53-3.262-7.067-4.946-10.573" transform="translate(14.042 121.934)"/>
        <path id="패스_2669" data-name="패스 2669" d="M51.5,36.573Q27.591,31.072,3.729,25.4c1.653,3.53,3.605,7.1,5.321,10.635,15.825,3.786,31.687,7.479,47.524,11.246-1.715-3.605-3.287-7.142-5.077-10.71" transform="translate(19.531 133.043)"/>
        <path id="패스_2670" data-name="패스 2670" d="M52.269,38.9Q28.532,33.188,4.77,27.5c1.853,3.593,3.437,7.261,5.383,10.9C26,42.229,41.815,46.065,57.615,50.051c-1.846-3.743-3.493-7.441-5.346-11.147" transform="translate(24.983 144.042)"/>
        <path id="패스_2671" data-name="패스 2671" d="M53.6,41.425Q29.731,35.362,5.807,29.605c1.946,3.705,3.705,7.41,5.751,11.115Q35.716,46.69,59.724,53.108C57.741,49.2,55.558,45.3,53.6,41.425" transform="translate(30.415 155.056)"/>
        <path id="패스_2672" data-name="패스 2672" d="M55.037,44.152C39.05,39.8,23.019,35.719,6.939,31.739,8.96,35.6,11.461,39.411,13.6,43.285c16,4.086,31.911,8.358,47.761,12.949-2.108-4.067-4.3-8.109-6.325-12.082" transform="translate(36.343 166.233)"/>
        <path id="패스_2673" data-name="패스 2673" d="M55.821,46.973C40.009,42.333,24.147,38.029,8.185,33.912c2.27,3.936,4.447,7.847,6.737,11.82,15.85,4.217,31.556,8.658,47.187,13.56-2.221-4.167-4.092-8.215-6.287-12.319" transform="translate(42.869 177.614)"/>
        <path id="패스_2674" data-name="패스 2674" d="M56.441,49.911C40.859,44.927,25.228,40.348,9.428,36.082c2.352,4.036,4.273,8.14,6.7,12.219,15.762,4.485,31.325,9.687,47.112,14.059-2.071-3.948-4.51-8.115-6.8-12.45" transform="translate(49.38 188.98)"/>
        <path id="패스_2675" data-name="패스 2675" d="M57.727,52.386C41.89,48.282,26.4,42.8,10.652,38.289c2.464,4.2,5.021,8.383,7.541,12.662,14.459,4.422,30.383,12.388,45.7,12.519-2-3.362-4.092-7.086-6.163-11.084" transform="translate(55.791 200.539)"/>
        <path id="패스_2676" data-name="패스 2676" d="M57.54,52.653c-15.182.5-31.263-7.672-45.528-12.082,2.67,4.385,5.558,8.889,8.19,13.336,13.093,4.36,28.992,13.461,43.052,7.822a100.77,100.77,0,0,1-5.714-9.076" transform="translate(62.914 212.491)"/>
        <path id="패스_2677" data-name="패스 2677" d="M56.161,50.187c-13.947,6.113-29.653-2.9-42.7-7.273,2.757,4.535,5.42,9.013,8.271,13.691,13.548,4.984,27.364,11.6,39.877.281-1.94-1.634-3.53-4.129-5.445-6.7" transform="translate(70.492 224.763)"/>
        <path id="패스_2678" data-name="패스 2678" d="M54.656,45.217c-12.425,11.67-26.061,5.508-39.789.474,2.925,4.741,5.352,9.456,8.246,14.3C39.8,64.8,50.159,63.088,61.1,48.117a15.633,15.633,0,0,1-6.443-2.9" transform="translate(77.867 236.825)"/>
        <path id="패스_2679" data-name="패스 2679" d="M25.638,73.19C42.716,75.067,52.416,57.2,60.917,45.682a16.865,16.865,0,0,1-6.749.062C41.076,59.6,35.094,63.627,16.269,58.438,19.4,63.553,22.837,68.83,25.638,73.19" transform="translate(85.21 239.26)"/>
        <path id="패스_2680" data-name="패스 2680" d="M26.04,87.17C42.058,79.847,51.39,58.97,60.8,45.21a37.036,37.036,0,0,1-7.76,3.013C44.559,59.793,34.91,77.839,17.819,76.3A97.9,97.9,0,0,0,26.04,87.17" transform="translate(93.328 236.788)"/>
        <path id="패스_2681" data-name="패스 2681" d="M26.437,101.878c.025-.05.025-.037.025-.037,2.52,1.241,4.847,1.865,7.335,1.341,9.768-16.143,17.665-33.371,29.161-48.428a107.865,107.865,0,0,1,7.984-11.034C68.2,45.091,65.59,46.595,63.3,47.861,50.62,64.852,27.615,100.712,27.615,100.712s22.929-35.835,35.592-52.8c-3.449,1.934-6.475,3.593-9.338,5.052-9.45,13.816-18.756,34.6-34.693,42.191,2.582,2.913,4.834,5.445,7.261,6.724" transform="translate(100.435 228.979)"/>
        <path id="패스_2682" data-name="패스 2682" d="M50.331,45.578c-11.3,14.958-19.149,31.98-28.811,47.973,2.339-.424,4.959-2.164,7.491-4.2,6.3-14.964,12.806-29.909,21.32-43.775" transform="translate(112.712 238.716)"/>
        <path id="패스_2683" data-name="패스 2683" d="M9.627,8.776c1.584.231,2.963.474,4.716.7-.511-1.64-.767-2.458-1.279-4.1-1.148,1.148-2.327,2.252-3.437,3.4" transform="translate(50.422 28.161)"/>
        <path id="패스_2684" data-name="패스 2684" d="M11.267,7.033c-1.035,1.185-2.108,2.252-3.156,3.474,5.352.873,10.866,1.753,17.7,2.688-.511-1.665-.767-2.508-1.279-4.179-4.984-.7-9.257-1.335-13.267-1.984" transform="translate(42.482 36.834)"/>
        <path id="패스_2685" data-name="패스 2685" d="M9.388,8.691c-.867,1.135-1.7,2.314-2.595,3.5,9.6,1.909,17.6,3.225,29.36,4.909-.437-1.672-.667-2.5-1.11-4.167-10.2-1.491-17.64-2.67-25.655-4.242" transform="translate(35.579 45.518)"/>
        <path id="패스_2686" data-name="패스 2686" d="M7.828,10.352C7.086,11.437,6.319,12.51,5.614,13.6c13.274,2.957,26.678,5.358,40.151,7.292-.424-1.591-.636-2.4-1.048-4-12.363-1.9-24.657-3.874-36.889-6.531" transform="translate(29.404 54.217)"/>
        <path id="패스_2687" data-name="패스 2687" d="M49.941,20.394Q27.467,17.073,5.317,12.111c.449,1.547.68,2.327,1.141,3.874C21.31,19.3,36.274,22.029,51.319,24.293c-.549-1.559-.817-2.339-1.379-3.9" transform="translate(27.848 63.43)"/>
        <path id="패스_2688" data-name="패스 2688" d="M51.56,22.714c-15.313-2.377-30.483-5.346-45.634-8.552.593,1.46.886,2.208,1.472,3.668,15.12,3.194,30.227,6.113,45.478,8.514-.524-1.447-.792-2.177-1.316-3.63" transform="translate(31.038 74.172)"/>
        <path id="패스_2689" data-name="패스 2689" d="M52.012,24.8C36.855,22.319,21.76,19.512,6.74,16.25c.561,1.391.855,2.083,1.416,3.474,14.983,3.225,30.04,6.025,45.172,8.552-.524-1.391-.792-2.083-1.316-3.474" transform="translate(35.301 85.109)"/>
        <path id="패스_2690" data-name="패스 2690" d="M52.453,26.994q-22.53-3.948-44.9-8.676c.574,1.329.848,1.99,1.422,3.331Q31.3,26.43,53.807,30.394c-.536-1.366-.8-2.033-1.354-3.4" transform="translate(39.538 95.94)"/>
        <path id="패스_2691" data-name="패스 2691" d="M53.252,29.326C38.257,26.5,23.28,23.6,8.36,20.406c.474,1.248.7,1.878,1.179,3.131,14.989,3.206,30.034,6.144,45.1,9.02-.561-1.291-.83-1.94-1.391-3.231" transform="translate(43.786 106.876)"/>
        <path id="패스_2692" data-name="패스 2692" d="M54.951,31.991Q32.056,27.313,9.18,22.479c.574,1.216.855,1.828,1.416,3.056,15.2,3.275,30.446,6.418,45.671,9.587-.524-1.241-.78-1.878-1.316-3.131" transform="translate(48.081 117.733)"/>
        <path id="패스_2693" data-name="패스 2693" d="M55.4,34.718c-15.033-3.506-30.127-6.762-45.21-10.1.524,1.135.792,1.7,1.316,2.826,15.033,3.35,30.115,6.543,45.085,10.186-.474-1.173-.7-1.753-1.191-2.913" transform="translate(53.386 128.942)"/>
        <path id="패스_2694" data-name="패스 2694" d="M55.421,37.44C40.838,33.311,25.974,30.13,11.2,26.768c.474,1.06.711,1.6,1.185,2.657C27.1,32.8,41.923,35.968,56.432,40.2c-.4-1.1-.605-1.64-1.01-2.763" transform="translate(58.645 140.197)"/>
        <path id="패스_2695" data-name="패스 2695" d="M55.3,39.983c-14.253-4.142-28.68-7.591-43.1-11.072.462,1.048.68,1.572,1.141,2.62,14.4,3.493,28.793,6.98,43.07,10.947-.443-.986-.661-1.485-1.11-2.5" transform="translate(63.903 151.421)"/>
        <path id="패스_2696" data-name="패스 2696" d="M55.333,41.653c-14.178-2.726-28.106-6.967-42.091-10.535.561.948.855,1.422,1.416,2.383,13.766,3.574,27.52,7.934,41.567,10.286-.368-.842-.536-1.266-.892-2.133" transform="translate(69.356 162.981)"/>
        <path id="패스_2697" data-name="패스 2697" d="M54.06,41.669c-13.548-.05-26.691-4.741-39.609-8.3.5.892.749,1.329,1.248,2.214,12.743,3.574,25.761,8.358,39.191,7.884-.331-.7-.487-1.073-.83-1.8" transform="translate(75.688 174.791)"/>
        <path id="패스_2698" data-name="패스 2698" d="M52.6,39.976c-13.086,3.044-24.376-.842-36.939-4.31.405.848.6,1.266.986,2.115,12.637,3.424,23.647,7.08,36.7,3.5-.293-.511-.437-.767-.742-1.3" transform="translate(82.041 186.801)"/>
        <path id="패스_2699" data-name="패스 2699" d="M52.016,37.666c-12.375,6.606-22.062,4.6-35.186,1.959.343.8.511,1.2.842,1.99,13.355,2.42,22.867,3.98,35.174-3.119-.331-.318-.5-.487-.83-.83" transform="translate(88.148 197.276)"/>
        <path id="패스_2700" data-name="패스 2700" d="M18.958,50.94C32.65,52.855,41.75,46.031,52.548,39.052c-.281-.187-.43-.281-.717-.487-12.868,7.99-18.607,10.66-33.776,10.791.368.636.549.948.9,1.584" transform="translate(94.559 201.985)"/>
        <path id="패스_2701" data-name="패스 2701" d="M19.955,60.248c13.13-2.2,23.478-12.718,33.284-20.846-.268-.106-.405-.168-.686-.281-9.731,8.04-20.2,18.338-33.365,19.991.318.468.462.7.767,1.135" transform="translate(100.498 204.897)"/>
        <path id="패스_2702" data-name="패스 2702" d="M20.714,68.712c13.024-7.236,23.366-19.567,34.575-29.2-.268-.044-.4-.069-.667-.131-11.065,9.487-21.37,21.757-34.394,28.605.193.293.293.449.487.73" transform="translate(105.94 206.238)"/>
        <path id="패스_2703" data-name="패스 2703" d="M21.6,76.255C34.944,63.9,45.673,50.294,60.344,39.291c-.318.012-.487.025-.792.05C45.161,50.282,34.514,63.892,21.178,75.868c.168.156.256.231.424.387" transform="translate(110.921 205.787)"/>
        <path id="패스_2704" data-name="패스 2704" d="M22.692,79.63C35.728,63.014,47.58,49.6,66.211,39.242c-.268-.012-.405-.025-.661-.031C47.118,49.671,35.335,63.132,22.28,79.568c.168.037.256.037.412.062" transform="translate(116.693 205.368)"/>
        <path id="패스_2705" data-name="패스 2705" d="M23.659,78.538c12.219-17.59,27.458-35.766,50.013-38.985-.225-.05-.331-.075-.549-.131C50.73,42.865,35.622,60.96,23.428,78.463c.1.037.143.05.231.075" transform="translate(122.706 206.473)"/>
        <path id="패스_2706" data-name="패스 2706" d="M24.89,70.969C41.763,49.562,56.09,38.54,84.159,40.717c-.256-.094-.38-.143-.624-.243-27.882-1.815-42.091,9.275-58.826,30.558l.181-.062" transform="translate(129.415 210.973)"/>
        <path id="패스_2707" data-name="패스 2707" d="M50.941,41.462c.1-.05.206-.112.256-.131-8.745,3.25-16.679,9.257-24.963,19.087l.1-.05c8.171-9.674,15.981-15.619,24.607-18.906" transform="translate(137.402 216.472)"/>
        <path id="패스_2708" data-name="패스 2708" d="M14.494,6.6c3.031.131,6.2.243,9.868.38-.412-2.426-.636-3.643-1.048-6.069C20.351,2.8,17.357,4.626,14.494,6.6" transform="translate(75.913 4.754)"/>
        <path id="패스_2709" data-name="패스 2709" d="M21.083,2.518C18.089,4.77,15.014,6.953,12.12,9.354c8.795.973,16.2,1.435,27.027,1.871C38.58,8.088,38.287,6.5,37.713,3.36c-6.468-.231-11.583-.511-16.629-.842" transform="translate(63.479 13.186)"/>
        <path id="패스_2710" data-name="패스 2710" d="M17.756,4.244c-2.52,2.252-5.115,4.51-7.541,6.861,14.047,2.033,28.144,3.144,42.3,3.874-.817-3.281-1.241-4.89-2.071-8.1C39.513,6.427,28.61,5.61,17.756,4.244" transform="translate(53.502 22.226)"/>
        <path id="패스_2711" data-name="패스 2711" d="M52.817,10.239c-14.19-.973-28.337-2.183-42.434-4.2.9,3.293,1.354,4.921,2.258,8.215,14.035,2.033,28.15,2.907,42.222,4.666-.8-3.512-1.216-5.24-2.046-8.676" transform="translate(54.382 31.607)"/>
        <path id="패스_2712" data-name="패스 2712" d="M52.941,13.067c-13.91-2.3-28.032-3.019-41.991-5.046.923,3.362,1.385,5.046,2.327,8.421,13.766,2.021,28.163,2.239,41.661,5.813-.792-3.693-1.179-5.545-2-9.188" transform="translate(57.351 42.009)"/>
        <path id="패스_2713" data-name="패스 2713" d="M52.992,16.264c-13.2-4.229-27.838-4.229-41.492-6.225.948,3.4,1.435,5.09,2.383,8.477,13.317,2.008,28.693,1.634,41.093,7.31-.78-3.836-1.179-5.751-1.984-9.562" transform="translate(60.232 52.578)"/>
        <path id="패스_2714" data-name="패스 2714" d="M53.362,19.938c-12.026-6.593-28.057-5.894-41.311-7.9,1.048,3.5,1.572,5.24,2.62,8.726,13.255,2.058,29.822,1.447,41.212,9.475-.986-4.117-1.5-6.188-2.52-10.3" transform="translate(63.118 63.064)"/>
        <path id="패스_2715" data-name="패스 2715" d="M53.616,24.089c-11.2-8.5-27.645-7.953-40.925-10.024,1.378,3.661,2.065,5.489,3.437,9.157,13.486,2.146,28.861,1.9,39.889,11.209-.817-3.481-1.609-6.843-2.4-10.342" transform="translate(66.47 73.664)"/>
        <path id="패스_2716" data-name="패스 2716" d="M52.949,27.992c-11.059-9.525-25.83-9.662-39.5-11.876,1.073,3.131,2.252,6.263,3.4,9.394,13.885,2.164,27.408,3.225,38.486,12.9-.842-3.449-1.522-6.874-2.389-10.417" transform="translate(70.461 84.407)"/>
        <path id="패스_2717" data-name="패스 2717" d="M52.288,31.494C41.267,21.87,28.118,20.26,14.208,18.177c1.11,3.156,2.127,6.387,3.368,9.55C31.436,29.511,43.936,32.823,54.8,42c-.9-3.462-1.678-6.986-2.514-10.5" transform="translate(74.415 95.201)"/>
        <path id="패스_2718" data-name="패스 2718" d="M51.866,34.837C41.082,25.88,28.744,21.9,14.965,20.254c1.241,3.268,2.389,6.568,3.693,9.868,13.536,1.572,25.374,7.042,36.172,15.157-.979-3.4-2.015-6.874-2.963-10.442" transform="translate(78.38 106.08)"/>
        <path id="패스_2719" data-name="패스 2719" d="M51.546,37.667C40.755,29.883,29.153,24.019,15.78,22.354c1.472,3.437,3.225,6.861,4.6,10.292,12.706,3.718,22.942,7.859,34.182,14.839-1-3.156-2-6.443-3.019-9.818" transform="translate(82.649 117.079)"/>
        <path id="패스_2720" data-name="패스 2720" d="M50.462,39.015A153.114,153.114,0,0,0,16.729,24.506c1.485,3.53,2.994,7.2,4.447,10.8,11.134,3.78,21.588,8.24,32.4,12.806-1.085-2.913-2.033-5.932-3.119-9.1" transform="translate(87.619 128.35)"/>
        <path id="패스_2721" data-name="패스 2721" d="M49.731,39.012c-10.772-4.079-21.208-8.539-32.1-12.307,1.509,3.668,2.663,7.423,4.079,11.065,10.485,3.456,20.9,7.273,31.749,9.487-1.279-2.595-2.539-5.346-3.73-8.246" transform="translate(92.354 139.867)"/>
        <path id="패스_2722" data-name="패스 2722" d="M50.248,37.622c-10.878-1.728-21.382-5.252-31.8-8.7,1.416,3.743,2.757,7.36,4.129,11a110.386,110.386,0,0,0,32.092,4.828,81.647,81.647,0,0,1-4.422-7.13" transform="translate(96.628 151.474)"/>
        <path id="패스_2723" data-name="패스 2723" d="M51.331,34.935a102.437,102.437,0,0,1-32.042-3.849c1.391,3.68,3.013,7.31,4.373,10.735,10.81,1.753,21.856.861,32.591-.942a54.529,54.529,0,0,1-4.921-5.944" transform="translate(101.027 162.813)"/>
        <path id="패스_2724" data-name="패스 2724" d="M52.918,32.83c-10.76,2.033-21.856,3.374-32.785,1.984,1.391,3.387,2.745,6.668,4.167,9.7,11.633-.667,22.829-4.129,34.063-6.917a41.222,41.222,0,0,1-5.445-4.765" transform="translate(105.448 171.947)"/>
        <path id="패스_2725" data-name="패스 2725" d="M55.278,33.723C43.957,36.717,32.636,40.5,20.934,41.645c1.478,3.006,2.6,5.944,4.067,8.514,12.756-3.668,24.651-9.506,37.538-12.831a62.443,62.443,0,0,1-7.261-3.605" transform="translate(109.643 176.624)"/>
        <path id="패스_2726" data-name="패스 2726" d="M26.483,54.84c13.972-7.466,26.84-13.33,42.166-17.577-3.081-.954-6.213-1.8-8.845-2.876-13.012,3.911-25.218,9.425-38.1,13.592a53.843,53.843,0,0,0,4.778,6.861" transform="translate(113.681 180.102)"/>
        <path id="패스_2727" data-name="패스 2727" d="M28,57.644c15.07-10.66,29.273-16.486,47.474-19.592-3.761-1.129-7.03-2.139-10.217-3.131C49.625,39.15,36.663,44.963,22.6,52.866A31.1,31.1,0,0,0,28,57.644" transform="translate(118.39 182.899)"/>
        <path id="패스_2728" data-name="패스 2728" d="M29.528,58.034C46.133,44.7,62.4,40.406,83.4,39.9c-4.341-1.778-7.822-3.194-11.7-4.385-18.494,2.9-32.928,8.577-48.123,19.536a22.923,22.923,0,0,0,5.944,2.988" transform="translate(123.523 185.984)"/>
        <path id="패스_2729" data-name="패스 2729" d="M31.47,55.378c19.2-15.182,39.253-16.8,62.4-11.3a69.8,69.8,0,0,0-14.159-7.753c-21.451.062-38.093,4.061-55.065,17.74a27.591,27.591,0,0,0,6.824,1.316" transform="translate(129.085 190.237)"/>
        <path id="패스_2730" data-name="패스 2730" d="M35.092,50.452C57,36.061,80.009,39.586,101.023,52.959A67.308,67.308,0,0,0,88.685,40.534C65.563,34.458,45.2,35.843,25.848,51.075c2.7.094,6.063-.48,9.244-.624" transform="translate(135.38 194.677)"/>
        <path id="패스_2731" data-name="패스 2731" d="M38.435,46.272C65.126,34.957,87.35,47.819,103.93,68.409A108.4,108.4,0,0,0,93.538,50.57c-20.746-13.985-43.881-18.089-66.081-3.8,3.293-.193,7.017-.5,10.978-.5" transform="translate(143.808 198.307)"/>
        <path id="패스_2732" data-name="패스 2732" d="M42.247,43.833c18.675-2.557,35.816,5.714,46.975,20.54a81.925,81.925,0,0,1,9.612,11.1c-1.354-3.387-2.738-6.662-4.1-9.6C78.369,44.956,56.357,31.47,29.323,42.555a73.653,73.653,0,0,1,12.924,1.279" transform="translate(153.581 202.062)"/>
        <path id="패스_2733" data-name="패스 2733" d="M53.607,46.5c9.076,1.765,16.848,6.381,23.522,12.606-12.07-15.675-26.822-19.38-45.646-19.661a62.752,62.752,0,0,1,16.579,5.42A39.728,39.728,0,0,1,53.607,46.5" transform="translate(164.889 206.583)"/>
        <path id="패스_2734" data-name="패스 2734" d="M38.576,41.643a36.07,36.07,0,0,0-4.335-1.291c.549.281,1.154.611,1.7.911.917.112,1.753.225,2.632.38" transform="translate(179.339 211.344)"/>
        <path id="패스_2735" data-name="패스 2735" d="M19.875.953a118.649,118.649,0,0,1,6.493,12.132c-.125-1.141-.181-1.715-.318-2.876A59.207,59.207,0,0,0,19.875.953" transform="translate(104.097 4.99)"/>
        <path id="패스_2736" data-name="패스 2736" d="M24.149,0c-2.532.6-5.14,2.439-7.809,4.054C32.751,2.988,39.937,20.465,46.3,32.236c-.218-2.2-.331-3.3-.561-5.52C40.1,16.349,35.527,5.277,24.149,0" transform="translate(85.582 -0.002)"/>
        <path id="패스_2737" data-name="패스 2737" d="M49.578,37.285c-.368-2.389-.549-3.58-.9-5.994C41.681,18.535,33.959.215,16.076,1.981c.368,1.921.549,2.888.911,4.809,17.852-1.073,25.586,17.665,32.591,30.5" transform="translate(84.199 9.75)"/>
        <path id="패스_2738" data-name="패스 2738" d="M49.824,41.633c-.331-2.171-.5-3.262-.83-5.47-7.111-13-14.814-31.98-32.541-32.248.524,1.878.792,2.813,1.316,4.691,17.315,1.428,24.894,20.016,32.055,33.028" transform="translate(86.174 20.498)"/>
        <path id="패스_2739" data-name="패스 2739" d="M48.365,40.272C41,27.142,33.55,9.427,17,5.965c.487,1.84.717,2.763,1.179,4.641C34.28,15.041,41.691,32.231,49.182,45.4c-.331-2.033-.487-3.056-.817-5.127" transform="translate(89.018 31.24)"/>
        <path id="패스_2740" data-name="패스 2740" d="M47.971,43.442C40.224,30.312,32.764,14.007,17.513,8.1c.418,1.815.636,2.726,1.048,4.553C33.35,19.2,40.829,35.046,48.7,48.1c-.293-1.84-.437-2.776-.73-4.653" transform="translate(91.725 42.422)"/>
        <path id="패스_2741" data-name="패스 2741" d="M47.874,45.863C39.69,32.977,32.024,17.832,18,10.3c.374,1.828.574,2.738.936,4.578C32.716,22.859,40.551,37.836,48.984,50.7c-.443-1.909-.661-2.876-1.11-4.834" transform="translate(94.287 53.961)"/>
        <path id="패스_2742" data-name="패스 2742" d="M48.661,48.205c-8.882-12.55-17.054-26.959-30.19-35.635.511,1.828.767,2.757,1.266,4.6,12.65,8.976,20.9,22.96,29.947,35.23-.412-1.659-.624-2.5-1.023-4.192" transform="translate(96.743 65.834)"/>
        <path id="패스_2743" data-name="패스 2743" d="M48.851,48.829C39.407,37.3,30.868,24.29,19.079,14.959c.437,1.784.642,2.67,1.079,4.447C31.735,28.887,40.068,41.581,50,52.64c-.468-1.5-.7-2.264-1.148-3.811" transform="translate(99.927 78.347)"/>
        <path id="패스_2744" data-name="패스 2744" d="M49.571,48.555C39.079,38.6,30.59,26.8,19.637,17.33c.38,1.728.561,2.582.929,4.3,10.754,9.344,19.405,20.709,30.09,30.152C50.22,50.5,50,49.871,49.571,48.555" transform="translate(102.85 90.765)"/>
        <path id="패스_2745" data-name="패스 2745" d="M50.769,47.391c-11.246-8.115-20.235-18.588-30.6-27.7.349,1.572.536,2.339.9,3.886,10.342,9.063,19.592,19.237,31.188,26.8-.605-1.173-.9-1.771-1.485-2.988" transform="translate(105.631 103.126)"/>
        <path id="패스_2746" data-name="패스 2746" d="M53.2,45.7C41.014,39.686,31.021,30.672,20.717,22c.412,1.5.624,2.246,1.023,3.718,10.292,8.464,20.528,16.972,32.835,22.418-.561-.954-.842-1.441-1.378-2.426" transform="translate(108.507 115.204)"/>
        <path id="패스_2747" data-name="패스 2747" d="M55.55,42.847c-12.619-3.874-23.684-10.76-34.194-18.582.4,1.379.593,2.052.986,3.387,10.648,7.541,22.05,13.791,34.718,17.191-.605-.78-.911-1.179-1.51-2" transform="translate(111.853 127.088)"/>
        <path id="패스_2748" data-name="패스 2748" d="M58.438,39.468A107.471,107.471,0,0,1,22,26.382c.343,1.135.524,1.7.867,2.813a110.276,110.276,0,0,0,37.07,11.9c-.605-.636-.911-.954-1.5-1.622" transform="translate(115.216 138.176)"/>
        <path id="패스_2749" data-name="패스 2749" d="M62.57,36.213c-13.667-1.46-27.009-2.975-39.933-7.922.349.992.536,1.466.886,2.414,13.292,4.485,27.009,5.633,40.9,6.836-.755-.524-1.123-.792-1.853-1.329" transform="translate(118.563 148.174)"/>
        <path id="패스_2750" data-name="패스 2750" d="M24.437,31.971c15.07,2.008,30.433,1.865,45.6,2.314-.8-.449-1.21-.68-1.99-1.154C53.174,32.57,38.091,32.545,23.377,30c.424.8.636,1.191,1.06,1.971" transform="translate(122.438 157.125)"/>
        <path id="패스_2751" data-name="패스 2751" d="M25.316,33.454c16.947-.755,33.652-1.329,50.63-.961L73.888,31.47c-16.6-.331-33.053.231-49.632.462.412.618.624.923,1.06,1.522" transform="translate(127.042 164.294)"/>
        <path id="패스_2752" data-name="패스 2752" d="M26.3,36.026c18.906-3.181,37.082-3.449,56.188-2.133-.78-.462-1.173-.68-1.977-1.129a262.352,262.352,0,0,0-55.3,2.177c.437.449.649.661,1.085,1.085" transform="translate(132.065 168.752)"/>
        <path id="패스_2753" data-name="패스 2753" d="M27.378,37.322c20.927-5.059,40.831-4.179,61.858-.293-.73-.549-1.1-.817-1.834-1.354-20.827-3.325-40.476-3.992-61.141.842.449.331.667.5,1.117.8" transform="translate(137.544 173.026)"/>
        <path id="패스_2754" data-name="패스 2754" d="M28.913,37.686c20.877-5.14,45.023-4.7,64.365,5.47-.63-.667-.948-1-1.6-1.647-19.536-9.331-43.357-9.525-64.078-4.36.53.218.78.331,1.31.536" transform="translate(144.572 176.804)"/>
        <path id="패스_2755" data-name="패스 2755" d="M30.546,36.768c22.062-4.011,46.464-.536,63.5,15.008-.43-.742-.649-1.1-1.073-1.815C75.613,35.078,51.074,32.115,29.23,36.306c.524.181.792.281,1.316.462" transform="translate(153.094 181.058)"/>
        <path id="패스_2756" data-name="패스 2756" d="M32.446,35.961c26.971.368,43.357,7.529,60.461,28.412-.4-.967-.605-1.441-1.035-2.389C76.733,40.895,55.837,35.362,31.08,35.424c.549.206.817.318,1.366.536" transform="translate(162.783 185.533)"/>
        <path id="패스_2757" data-name="패스 2757" d="M35.052,36.893c28.106,2.545,43.089,23.16,55.14,46.233-.293-1.023-.437-1.522-.742-2.52C76.949,57.589,61.43,37.991,33.174,36.213c.742.268,1.123.4,1.878.68" transform="translate(173.751 189.666)"/>
        <path id="패스_2758" data-name="패스 2758" d="M36.854,38.468c26.9,11.221,37.793,40.519,47.075,65.738-.256-1.148-.405-1.715-.661-2.838-9.412-24.863-20.584-53.418-47.524-63.8.455.356.674.536,1.11.9" transform="translate(187.211 196.742)"/>
        <path id="패스_2759" data-name="패스 2759" d="M72.669,103.736c.218.462.449,1.011.692,1.559C65.615,81.748,57.319,56.455,37.9,39.7c.374.487.574.736.936,1.248,18.176,16.4,26.291,40.251,33.833,62.787" transform="translate(198.509 207.935)"/>
        <path id="패스_2760" data-name="패스 2760" d="M50.52,62.907c.268.437.574.973.879,1.485A129.28,129.28,0,0,0,39.717,42.76c.231.487.349.717.568,1.216A128.682,128.682,0,0,1,50.52,62.907" transform="translate(208.02 223.956)"/>
        <path id="패스_2761" data-name="패스 2761" d="M22.053,4.828C28.534,21.114,35.408,37,43.41,52.6c-.15-.8-.218-1.2-.356-2.021-7.672-14.983-14.29-30.321-21-45.746" transform="translate(115.504 25.285)"/>
        <path id="패스_2762" data-name="패스 2762" d="M50.177,67.139C38.894,46.33,30.754,24.38,20.917,2.9c.331,3.487.505,5.2.842,8.639,9.674,20.846,17.5,42.6,29.778,62.145-.549-2.557-.83-3.874-1.36-6.543" transform="translate(109.554 15.177)"/>
        <path id="패스_2763" data-name="패스 2763" d="M51.612,66.508C38.819,47.452,30.841,25.833,21.142,5.168c.405,3.543.6,5.314,1,8.807,9.625,20.179,17.852,41.3,31.288,59.369-.73-2.67-1.1-4.036-1.815-6.836" transform="translate(110.733 27.066)"/>
        <path id="패스_2764" data-name="패스 2764" d="M53.159,65.107C39.392,47.854,30.934,27.245,21.447,7.541c.561,3.892.83,5.813,1.391,9.625C32.413,36.5,41.707,54.728,55.23,71.638c-.842-2.545-1.254-3.861-2.071-6.531" transform="translate(112.33 39.495)"/>
        <path id="패스_2765" data-name="패스 2765" d="M54.538,62.58C40.734,46.4,31.39,28.86,21.8,9.96c.561,3.817.842,5.682,1.391,9.381,9.718,18.214,19.237,34.612,33.67,49.514-.948-2.439-1.416-3.693-2.327-6.275" transform="translate(114.195 52.164)"/>
        <path id="패스_2766" data-name="패스 2766" d="M58.852,65.805c-.961-1.971-1.7-3.886-2.632-5.969C40.931,47.018,31.612,29.453,22.156,12.287c.6,3.743.9,5.589,1.5,9.225C32.878,37.98,43.2,54.7,58.852,65.805" transform="translate(116.043 64.352)"/>
        <path id="패스_2767" data-name="패스 2767" d="M58.759,57.3C42.654,47.035,31.894,30.736,22.513,14.512c.7,3.8,1.035,5.664,1.734,9.306C33.934,39.412,45.592,54.57,62.3,63.071c-1.179-1.84-2.507-3.817-3.543-5.776" transform="translate(117.913 76.006)"/>
        <path id="패스_2768" data-name="패스 2768" d="M61.748,53.936C44.888,46.345,32.8,31.98,22.969,16.779c.686,3.169,1.4,6.337,2.133,9.381,10.342,14.446,23.416,27.165,40.557,33C64.293,57.5,63,55.726,61.748,53.936" transform="translate(120.302 87.879)"/>
        <path id="패스_2769" data-name="패스 2769" d="M64.992,50.055c-17.278-5.077-30.87-16.972-41.517-31.1.842,3.156,1.559,6.05,2.352,8.938C37.254,41.2,51.918,51.166,69.259,54.759a62.829,62.829,0,0,1-4.266-4.7" transform="translate(122.952 99.276)"/>
        <path id="패스_2770" data-name="패스 2770" d="M68.153,45.963C50.869,42.906,35.8,33.856,24.035,21c.83,2.876,1.572,5.6,2.5,8.333,13.623,12.644,28.961,17.715,46.894,21-1.778-1.4-3.605-2.863-5.271-4.373" transform="translate(125.885 109.987)"/>
        <path id="패스_2771" data-name="패스 2771" d="M73.025,42.334c-18.2-2.788-34.176-7.2-48.416-19.48.979,2.751,1.853,5.408,2.9,7.965C43.322,41.835,60.818,44.648,79.593,46.376c-2.208-1.3-4.572-2.639-6.568-4.042" transform="translate(128.891 119.697)"/>
        <path id="패스_2772" data-name="패스 2772" d="M78.624,38.619c-18.906-1.391-36.939-3.643-53.312-14.01,1.173,2.582,2.52,5.052,3.811,7.4C46.888,40.484,66.05,41.675,85.4,42.492c-2.3-1.279-4.5-2.57-6.774-3.874" transform="translate(132.573 128.889)"/>
        <path id="패스_2773" data-name="패스 2773" d="M83.306,35.6c-19.492-.692-38.96-1.647-57.161-9.419a76.726,76.726,0,0,0,4.323,6.606c19.174,5.7,39.228,6.188,59.063,6.836-2.2-1.366-3.936-2.707-6.225-4.023" transform="translate(136.936 137.144)"/>
        <path id="패스_2774" data-name="패스 2774" d="M86.53,33.8c-19.9-.755-40.045-1.166-59.45-6.238a56.863,56.863,0,0,0,4.741,5.714c20.26,3.35,40.906,3.73,61.359,5.09-2.127-1.628-4.441-3.119-6.649-4.566" transform="translate(141.833 144.366)"/>
        <path id="패스_2775" data-name="패스 2775" d="M34.062,33.856c20.746,1.447,41.8,1.715,62.276,5.664a77.147,77.147,0,0,0-6.431-5.726C69.3,31.847,48.57,31.641,28.08,28.741a64.324,64.324,0,0,0,5.982,5.115" transform="translate(147.071 150.531)"/>
        <path id="패스_2776" data-name="패스 2776" d="M36.84,34.32c20.272.961,41.143,1.316,60.292,8.895a84.227,84.227,0,0,0-5.8-7.323c-20.272-4.628-41.324-4.847-62-6.119,2.352,1.6,4.909,3.063,7.5,4.547" transform="translate(153.649 155.936)"/>
        <path id="패스_2777" data-name="패스 2777" d="M39.31,35.036c19.8,1.435,39.64,2.994,56.456,14.714a101.889,101.889,0,0,0-5.24-9.269c-18.738-8.383-39.534-8.82-59.669-9.793,2.651,1.472,5.42,2.888,8.452,4.348" transform="translate(161.621 160.728)"/>
        <path id="패스_2778" data-name="패스 2778" d="M42.13,36.277c20.054,3.231,37.619,7.909,51.485,23.8-1.7-4.5-3.755-8.782-5.6-12.5C71.759,35.129,52.254,33.2,32.543,31.549c3.206,1.509,6.175,3.056,9.587,4.728" transform="translate(170.446 165.238)"/>
        <path id="패스_2779" data-name="패스 2779" d="M44.794,38.545c21.226,7.248,32.791,16.9,45.36,35.342-1.628-5.689-3.387-11.028-5.14-15.8C71.653,41.576,54.531,36.181,34.4,32.488a107.461,107.461,0,0,1,10.4,6.057" transform="translate(180.151 170.156)"/>
        <path id="패스_2780" data-name="패스 2780" d="M45.838,41.935c19.53,9.65,31.238,28.774,39.633,48.085C83.912,83.127,82.5,76.934,80.85,70.989,68.705,52.108,57.484,41.679,36.357,33.676a71.654,71.654,0,0,1,9.481,8.259" transform="translate(190.422 176.378)"/>
        <path id="패스_2781" data-name="패스 2781" d="M46.342,46.323c18.395,16.118,26.909,39.571,35.23,61.814-1.547-8.2-3.019-15.687-4.591-22.879-9.063-19.623-19.018-39.24-38.848-49.994a87.939,87.939,0,0,1,8.209,11.059" transform="translate(199.724 184.696)"/>
        <path id="패스_2782" data-name="패스 2782" d="M47.137,52.011c16.5,22.817,24.133,50.836,32.4,77.333-1.628-9.731-3.412-19.393-5.04-28.163C66.23,78.4,57.847,54.3,39.621,37.328a123.47,123.47,0,0,1,7.516,14.683" transform="translate(207.517 195.506)"/>
        <path id="패스_2783" data-name="패스 2783" d="M48.5,60.436C60.64,87.894,68.412,116.549,76.652,145.36c.293.455.593.986.886,1.453-1.522-9.519-2.982-18.775-4.472-27.732C64.757,92.1,57.16,63.654,40.992,40.064c2.483,5.913,5.252,13.012,7.5,20.372" transform="translate(214.698 209.836)"/>
        <path id="패스_2784" data-name="패스 2784" d="M60.615,108.181a170.193,170.193,0,0,0,8.165,16.349c-7.741-27.4-15.207-54.6-26.466-80.8,2.3,7.66,4.435,16.093,6.543,25.318C53.1,82.026,57.1,95,60.615,108.181" transform="translate(221.622 229.058)"/>
        <path id="패스_2785" data-name="패스 2785" d="M53.748,82.7C50.63,71.115,47.13,59.675,43.469,48.248c1.4,6.294,2.688,12.849,3.98,19.686,2.171,5.021,4.316,10.267,6.3,14.764" transform="translate(227.672 252.7)"/>
        <path id="패스_2786" data-name="패스 2786" d="M73.929,50.024a42.492,42.492,0,0,1-7.591-1.06c-19.786-4.229-30.807-20.49-40.862-36.477.331,1.8.493,2.682.817,4.435,11.8,17.9,25.93,35.442,49.576,34.955-.78-.717-1.173-1.1-1.94-1.853" transform="translate(133.432 65.394)"/>
        <path id="패스_2787" data-name="패스 2787" d="M77.386,45.546c-25.094-1.6-36.9-11.44-51.56-31.3.5,1.927.748,2.863,1.26,4.716,15.251,19.2,27.433,27.851,52.333,28.412-.8-.717-1.216-1.085-2.033-1.828" transform="translate(135.265 74.612)"/>
        <path id="패스_2788" data-name="패스 2788" d="M79.949,40.355C55.385,41.266,42.5,34.261,26.318,16.1c.524,1.709.792,2.539,1.329,4.192,16.7,17.34,29.971,23.391,54.179,21.7-.742-.649-1.123-.967-1.877-1.634" transform="translate(137.842 84.307)"/>
        <path id="패스_2789" data-name="패스 2789" d="M82.09,35.506c-23.647,2.925-37.669-1.74-55.227-17.69.468,1.46.7,2.2,1.173,3.618C46.006,36.516,60.415,40.539,83.7,37.065c-.636-.624-.954-.923-1.609-1.559" transform="translate(140.697 93.311)"/>
        <path id="패스_2790" data-name="패스 2790" d="M84.111,31.21c-20.9,4.192-40,3.106-56.687-11.808.487,1.285.717,1.927,1.2,3.169C45.943,36.836,65.567,37.229,86.35,32.345c-.886-.455-1.335-.674-2.239-1.135" transform="translate(143.635 101.617)"/>
        <path id="패스_2791" data-name="패스 2791" d="M86.94,26.924c-20.416,5.857-40.582,6.618-58.9-6.057.7,1.291,1.06,1.915,1.778,3.144,17.484,10.8,40.326,12.051,59.157,4.073-.8-.468-1.2-.7-2.033-1.16" transform="translate(146.856 109.29)"/>
        <path id="패스_2792" data-name="패스 2792" d="M87.918,23.064c-19.7,8.882-39.471,6.556-59.026-.767.717,1.123,1.1,1.672,1.828,2.738,19.711,6.412,39.471,8.29,58.9-.667-.667-.524-1.01-.78-1.7-1.3" transform="translate(151.324 116.78)"/>
        <path id="패스_2793" data-name="패스 2793" d="M88.253,23.066c-19.018,8.907-38.548,7.859-58.44,3.169.78.936,1.179,1.4,1.984,2.289,19.848,3.936,39.191,4.7,58-4.079-.611-.561-.923-.842-1.547-1.378" transform="translate(156.147 120.808)"/>
        <path id="패스_2794" data-name="패스 2794" d="M88.1,23.8c-18.557,8.371-37.513,8.153-57.286,5.589.724.773,1.085,1.16,1.828,1.915,19.8,2.071,38.685,2.071,57.248-6.125-.7-.574-1.06-.842-1.79-1.379" transform="translate(161.39 124.647)"/>
        <path id="패스_2795" data-name="패스 2795" d="M87.773,24.625c-18.226,7.236-36.5,7.71-55.82,6.724,1.023.692,1.547,1.035,2.607,1.709,18.906.618,36.739-.087,54.66-6.705-.568-.7-.861-1.06-1.447-1.728" transform="translate(167.356 128.973)"/>
        <path id="패스_2796" data-name="패스 2796" d="M36.143,32.972c17.153-.231,33.4-1.279,50.119-5.177-.462-.867-.692-1.279-1.166-2.108-17.128,4.741-33.945,5.87-51.672,5.851,1.085.58,1.634.873,2.72,1.435" transform="translate(175.055 134.535)"/>
        <path id="패스_2797" data-name="패스 2797" d="M37.21,31.236c15.251-.206,30.383-1.254,45.609-1.728-.437-1.023-.655-1.516-1.117-2.489-15.631,1.428-31.032,2.57-46.757,2.851.911.549,1.372.817,2.264,1.366" transform="translate(183.032 141.512)"/>
        <path id="패스_2798" data-name="패스 2798" d="M38.208,29.742c14.072.437,28.518.156,42.247,3.73-.487-1.2-.73-1.784-1.216-2.913-14.109-2.508-28.68-1.984-42.933-2.221.767.549,1.148.83,1.9,1.4" transform="translate(190.155 148.425)"/>
        <path id="패스_2799" data-name="패스 2799" d="M39.637,30.881c13.535,1.815,26.522,3.506,38.28,11.04-.405-1.416-.611-2.1-1.01-3.462C64.674,31.8,51.257,30.7,37.678,29.3c.792.624,1.179.936,1.959,1.584" transform="translate(197.341 153.443)"/>
        <path id="패스_2800" data-name="패스 2800" d="M40.595,32.247A66.141,66.141,0,0,1,75.232,51.92c-.393-1.534-.586-2.289-.986-3.774C64.6,38.628,52.29,32.914,39.023,30.469c.636.692.948,1.06,1.572,1.778" transform="translate(204.385 159.581)"/>
        <path id="패스_2801" data-name="패스 2801" d="M41.571,33.986c13.473,6.163,23.6,17,31.587,29.217-.337-1.647-.511-2.464-.848-4.073-8.165-11.789-18.644-21.782-32.1-27.2.549.8.83,1.216,1.366,2.058" transform="translate(210.576 167.223)"/>
        <path id="패스_2802" data-name="패스 2802" d="M42.355,36.083c13.5,10.56,22.206,25.643,30.1,40.557-.368-1.865-.561-2.788-.929-4.6C62.733,57.01,54.493,45.121,41.263,33.744c.437.911.661,1.391,1.092,2.339" transform="translate(216.118 176.734)"/>
        <path id="패스_2803" data-name="패스 2803" d="M43.444,39.048C55.714,54.3,63.373,72.513,71.707,90.059c-.337-1.877-.512-2.813-.848-4.666C62.581,68.309,54.884,50.613,42.334,36.123c.455,1.148.674,1.734,1.11,2.925" transform="translate(221.727 189.195)"/>
        <path id="패스_2804" data-name="패스 2804" d="M44.3,42.45c10.772,19.2,17.9,40.083,27.19,59.974-.337-1.865-.512-2.8-.836-4.666C61.562,78.2,54.358,57.738,43.336,39.125c.387,1.316.58,1.971.961,3.325" transform="translate(226.975 204.918)"/>
        <path id="패스_2805" data-name="패스 2805" d="M45.047,46.264C54.2,68.657,61.483,92.048,72.436,113.649c-.418-1.828-.611-2.757-1-4.6-10.6-21.4-17.908-44.355-27.2-66.343.331,1.41.5,2.121.817,3.555" transform="translate(231.657 223.689)"/>
        <path id="패스_2806" data-name="패스 2806" d="M45.1,46.947c.293,1.534.437,2.3.717,3.849,8.165,23.8,14.827,49.595,28.312,71.09.125-.025.243-.087.38-.112-.293-1.154-.437-1.74-.717-2.925C60.23,97.053,53.494,70.993,45.1,46.947" transform="translate(236.204 245.886)"/>
        <path id="패스_2807" data-name="패스 2807" d="M58.777,92.468a12.8,12.8,0,0,0,1.216.8c-5.358-13.5-9.637-27.352-13.972-41.193.281,1.622.412,2.439.7,4.073,3.8,12.182,7.554,24.364,12.051,36.315" transform="translate(241.038 272.77)"/>
        <path id="패스_2808" data-name="패스 2808" d="M84.235,13.917a8.618,8.618,0,0,0-.892-1.085A101.909,101.909,0,0,1,68.217,33.023c-8.87,10.049-21.014,16.8-34.662,17.041,1.354,1.2,2.033,1.778,3.35,2.888C60.988,47.139,71.66,34.688,84.235,13.917" transform="translate(175.746 67.207)"/>
        <path id="패스_2809" data-name="패스 2809" d="M37.524,55.2c22.268-7.335,32.835-19.636,44.842-39.34-.605-.792-1.079-1.79-1.641-2.595C68.394,33.635,57.8,46.023,34.418,52.516c1.085.917,1.984,1.828,3.106,2.682" transform="translate(180.266 69.464)"/>
        <path id="패스_2810" data-name="패스 2810" d="M80.926,16.728c-.655-.855-1.216-1.84-1.8-2.751C67.291,33.2,56.78,45.358,35.217,53.093c1.216.817,2.009,1.715,3.119,2.52C58.864,47.3,69.355,35.285,80.926,16.728" transform="translate(184.451 73.204)"/>
        <path id="패스_2811" data-name="패스 2811" d="M80.236,17.712c-.636-1.191-1.4-2-2.058-3.044-11.527,18.307-22.05,30.308-42.2,38.885,1.266.78,2.233,1.647,3.35,2.451,18.494-6.337,31.425-21.881,40.912-38.292" transform="translate(188.416 76.823)"/>
        <path id="패스_2812" data-name="패스 2812" d="M36.871,53.033c1.179.8,2.632,1.472,3.811,2.252,16.573-6.992,28.543-20.927,37.974-35.766-.68-1.4-1.341-2.738-1.984-4.067-9.456,15.881-22.012,30.907-39.8,37.581" transform="translate(193.114 80.929)"/>
        <path id="패스_2813" data-name="패스 2813" d="M74.741,16.492c-10.947,15-20.8,25.106-36.933,34.5,1.241.767,2.239,1.659,3.412,2.476C55.8,44.817,66.694,35.28,76.705,21.5c-.73-1.647-1.3-3.424-1.965-5.009" transform="translate(198.022 86.376)"/>
        <path id="패스_2814" data-name="패스 2814" d="M42.078,50.9a136.645,136.645,0,0,0,33.44-27.214c-.73-2.146-1.435-4.1-2.177-5.932A118.2,118.2,0,0,1,38.629,48.173c1.21.848,2.221,1.821,3.449,2.726" transform="translate(202.322 92.975)"/>
        <path id="패스_2815" data-name="패스 2815" d="M42.973,48.023A235.594,235.594,0,0,0,74.828,26.547c-.755-2.67-1.628-5.009-2.358-7.373C62.565,29.129,52.2,38.654,39.43,44.829c1.2,1.01,2.289,2.133,3.543,3.194" transform="translate(206.517 100.423)"/>
        <path id="패스_2816" data-name="패스 2816" d="M44.134,43.967c9.893-4.547,19.48-9.855,29.541-14.035-.817-3.194-1.572-6.175-2.364-9A350.789,350.789,0,0,1,40.285,40.194c1.216,1.2,2.595,2.433,3.849,3.774" transform="translate(210.995 109.631)"/>
        <path id="패스_2817" data-name="패스 2817" d="M44.7,39.65c14.1-3.824,18.126-5.982,27.8-5.788-.8-3.8-1.485-7.429-2.314-10.841-9.724,2.47-13.96,6.188-29.055,11.733,1.216,1.509,2.339,3.156,3.568,4.9" transform="translate(215.447 120.572)"/>
        <path id="패스_2818" data-name="패스 2818" d="M45.306,35.486c13.217-1.035,17.041-.9,27,3.069-.923-4.516-1.971-8.67-2.851-12.743-9.712-1.2-13.7.343-27.558,3.474a58.968,58.968,0,0,1,3.412,6.2" transform="translate(219.422 133.051)"/>
        <path id="패스_2819" data-name="패스 2819" d="M46.164,35.411c12.307,2.389,16.08,5,26.5,12.537-1.023-5.227-2.158-10.2-3.094-14.989-10.111-4.953-13.891-5.732-26.946-5.514,1.166,2.433,2.408,5.09,3.543,7.965" transform="translate(223.23 143.574)"/>
        <path id="패스_2820" data-name="패스 2820" d="M47.015,39.167c9.868,5.639,18.076,13.679,25.961,21.744-1.135-5.845-2.2-11.452-3.237-16.9-10.566-8.3-14.278-11.558-26.354-14.852,1.16,3.1,2.451,6.375,3.63,10.005" transform="translate(227.232 152.736)"/>
        <path id="패스_2821" data-name="패스 2821" d="M47.5,43.684c9.469,9.331,17.253,20.1,26.241,29.859-1.329-6.381-2.451-12.55-3.618-18.557-8.259-8.427-16.13-17.078-26-23.665q1.7,5.754,3.375,12.363" transform="translate(231.128 164.044)"/>
        <path id="패스_2822" data-name="패스 2822" d="M48.091,48.76C56.986,61.441,65,74.876,75.78,86.11c-1.559-6.967-3.2-13.91-4.666-20.7C61.858,55.3,54.135,43.969,44.829,33.908c1.141,4.7,2.1,9.55,3.262,14.852" transform="translate(234.795 177.593)"/>
        <path id="패스_2823" data-name="패스 2823" d="M49.4,55.287C57.539,70,65.847,85.807,78.928,96.8c-1.753-7.1-3.643-14.072-5.333-21.158C62.872,63.5,54.42,50.415,45.488,36.942c1.191,5.651,2.657,11.926,3.911,18.345" transform="translate(238.246 193.484)"/>
        <path id="패스_2824" data-name="패스 2824" d="M50.274,61.829c8.6,16.617,17.434,30.283,31.319,42.971C79.746,97.258,78,89.885,76.21,82.587,62.8,71.566,54.3,55.678,46.263,40.621c1.26,6.637,2.632,13.8,4.011,21.208" transform="translate(242.305 212.753)"/>
        <path id="패스_2825" data-name="패스 2825" d="M51.235,68.2C60.31,85.519,71.3,97.458,84.418,111.692c-1.984-8.053-3.836-15.925-5.795-23.734C64.87,74.815,55.744,61.692,47.043,44.769c1.379,7.6,2.72,15.376,4.192,23.428" transform="translate(246.391 234.479)"/>
        <path id="패스_2826" data-name="패스 2826" d="M47.85,49.273c1.485,8.308,2.95,16.785,4.628,25.4A144.417,144.417,0,0,0,73.4,102.1c2.982-1.952,5.882-4.048,8.745-6.132-.243-.973-.511-2.021-.742-2.994C68.415,78.621,57.013,66.557,47.85,49.273" transform="translate(250.617 258.069)"/>
        <path id="패스_2827" data-name="패스 2827" d="M56.368,84.041c3.437-1.216,7.017-3.861,10.517-6.057-5.726-6.356-11.652-11.558-18.133-23.9,1.815,9.1,3.886,18.469,5.9,27.4.642.973,1.079,1.665,1.715,2.557" transform="translate(255.342 283.256)"/>
        <path id="패스_2828" data-name="패스 2828" d="M66.325,4.082c-3.948,8.452-7.99,18.469-12.644,28.9a234.776,234.776,0,0,1-12,26.765c.412.63.605.948,1.01,1.609C51.841,42.7,59.126,23.549,66.325,4.082" transform="translate(218.302 21.378)"/>
        <path id="패스_2829" data-name="패스 2829" d="M68.822,8.077c-.381-1.634-.574-2.439-.948-3.986-8.458,20-15.513,40.619-25.767,59.806.374.717.561,1.1.936,1.853,9.537-18.856,17.091-38.423,25.78-57.673" transform="translate(220.533 21.425)"/>
        <path id="패스_2830" data-name="패스 2830" d="M69.154,10.432c-.387-1.865-.586-2.788-.961-4.566-9.1,17.528-16.511,35.841-25.649,53.344.5.6.736.917,1.223,1.559C52.6,44.19,59.86,26.756,69.154,10.432" transform="translate(222.832 30.722)"/>
        <path id="패스_2831" data-name="패스 2831" d="M43.07,52.84c.462.717.68,1.085,1.135,1.84,8.015-13.96,15.07-28.836,24.763-41.76-.387-2.027-.58-3.025-.961-4.959-9.5,14.19-16.679,29.953-24.938,44.879" transform="translate(225.582 41.694)"/>
        <path id="패스_2832" data-name="패스 2832" d="M68.958,15.7c-.356-2.183-.524-3.25-.879-5.371C58.042,20.807,51.168,34.1,43.571,46.319c.387.954.593,1.428.986,2.426,7.4-11.34,14.228-23.865,24.4-33.04" transform="translate(228.206 54.123)"/>
        <path id="패스_2833" data-name="패스 2833" d="M69.762,18.682c-.462-2.327-.692-3.474-1.16-5.739-10.56,6.811-17.2,17.253-24.557,27.146.38,1.1.561,1.678.923,2.851,7.385-9.175,13.966-18.85,24.794-24.258" transform="translate(230.688 67.788)"/>
        <path id="패스_2834" data-name="패스 2834" d="M45.691,36.636C55.939,26.668,59.663,22.5,70.822,21.953c-.474-2.47-.717-3.7-1.191-6.113-10.978,1.7-14.708,6.786-25.087,17.858.468,1.135.686,1.722,1.148,2.938" transform="translate(233.297 82.961)"/>
        <path id="패스_2835" data-name="패스 2835" d="M46.067,31.273c9.93-6.3,13.829-8.2,25.7-5.47-.474-2.532-.717-3.786-1.179-6.287-11.683-1.8-15.475.73-25.487,8.165.387,1.4.574,2.133.961,3.593" transform="translate(236.245 99.29)"/>
        <path id="패스_2836" data-name="패스 2836" d="M46.6,28.636c9.743-2.52,13.779-2.121,26.46,3.131-.487-2.532-.73-3.8-1.2-6.312-12.45-4.591-16.448-4.46-26.216-.848.374,1.578.58,2.383.961,4.029" transform="translate(239.037 114.957)"/>
        <path id="패스_2837" data-name="패스 2837" d="M47.093,29.182c9.974,1.216,14.933,4.067,28.562,11.134-.58-2.582-.879-3.874-1.447-6.468-13.56-6.7-18.133-8.907-28.044-9.088.374,1.74.555,2.632.929,4.422" transform="translate(241.787 129.68)"/>
        <path id="패스_2838" data-name="패스 2838" d="M47.842,32.446c10.342,5.346,20.2,11.621,30.2,17.553-.6-2.557-.892-3.836-1.485-6.394-9.774-5.614-19.386-11.683-29.791-16.093.437,1.946.649,2.938,1.073,4.934" transform="translate(244.956 144.094)"/>
        <path id="패스_2839" data-name="패스 2839" d="M48.51,35.932C58.559,44.01,69.431,50.759,79.991,58.119c-.536-2.451-.8-3.68-1.341-6.132C68.09,45.1,57.511,38.284,47.437,30.705c.424,2.071.636,3.119,1.073,5.227" transform="translate(248.454 160.817)"/>
        <path id="패스_2840" data-name="패스 2840" d="M49.177,39.635c9.805,9.78,21.844,17.041,32.635,25.655-.536-2.5-.792-3.736-1.335-6.238-10.76-8.283-22.518-15.351-32.348-24.8.412,2.14.624,3.212,1.048,5.383" transform="translate(252.079 179.395)"/>
        <path id="패스_2841" data-name="패스 2841" d="M49.912,43.51C60.685,54,73.266,62.529,84.5,72.553c-.6-2.433-.88-3.655-1.472-6.088C71.9,56.753,59.306,48.544,48.877,38.09c.412,2.171.611,3.25,1.035,5.42" transform="translate(255.996 199.497)"/>
        <path id="패스_2842" data-name="패스 2842" d="M51.057,47.7C63.189,57.734,74.841,68.1,86.181,79.029c-.524-2.339-.792-3.493-1.316-5.82C73.5,62.449,61.755,52.351,49.791,42.277c.5,2.171.755,3.25,1.266,5.42" transform="translate(260.783 221.427)"/>
        <path id="패스_2843" data-name="패스 2843" d="M50.85,46.539c.536,2.021.8,3.031,1.341,5.059C64.311,62.657,75.8,74.084,87.034,86.06c-.487-2.264-.73-3.4-1.223-5.651C74.571,68.639,63.169,57.2,50.85,46.539" transform="translate(266.33 243.749)"/>
        <path id="패스_2844" data-name="패스 2844" d="M73.71,77.395c.667-.561,1.316-1.2,1.984-1.778C68.1,67.078,60.137,58.863,51.928,50.91c.437,1.946.667,2.925,1.11,4.884,8.452,8.383,14.409,14.646,20.671,21.6" transform="translate(271.976 266.642)"/>
        <path id="패스_2845" data-name="패스 2845" d="M56.154,62.49c.649-.462,1.316-.936,1.959-1.435-1.678-1.828-3.2-3.512-5.077-5.558.474,1.946.717,2.925,1.2,4.872.711.767,1.248,1.391,1.915,2.121" transform="translate(277.774 290.672)"/>
        <path id="패스_2846" data-name="패스 2846" d="M46.055,18.972c.38,1.74.78,3.5,1.135,5.458C52.436,12.235,56.347,5.28,60.782.209c-5.2,2.607-9.905,9.238-14.727,18.763" transform="translate(241.216 1.093)"/>
        <path id="패스_2847" data-name="패스 2847" d="M75.381,13.714c-.667-4.167-1.341-8.308-2.008-12.488C72.9.958,72.418.615,71.919.347c-14.091,1.048-20.06,16.779-25.53,27.339.449,2.526,1.141,4.56,1.665,7.08,6.762-10.429,12.438-22.979,27.327-21.052" transform="translate(242.965 1.816)"/>
        <path id="패스_2848" data-name="패스 2848" d="M48.419,30.429c8.259-8.963,14.814-16.617,28.325-12.219-.8-4.678-1.51-9.419-2.289-14-14.4-3.119-20.447,7.822-27.645,17.715.549,2.676,1.048,5.526,1.609,8.5" transform="translate(245.17 19.226)"/>
        <path id="패스_2849" data-name="패스 2849" d="M78.46,23.141c-.911-4.921-1.853-9.768-2.726-14.608a23.841,23.841,0,0,0-28.512,9.356c.586,3.119,1.085,6.593,1.734,9.843,9.924-9.612,16.617-7.354,29.5-4.591" transform="translate(247.328 36.725)"/>
        <path id="패스_2850" data-name="패스 2850" d="M80.755,28.78C79.807,23.6,78.7,18.619,77.761,13.573c-13.037-3.125-20-6.225-30.121,2.158.724,3.462,1.416,7.167,2.133,10.9,9.993-5.09,21.152-1.241,30.982,2.146" transform="translate(249.517 54.097)"/>
        <path id="패스_2851" data-name="패스 2851" d="M50.638,27.379c11.159-.742,21.7,3.861,31.855,7.822-1.048-5.358-2.021-10.747-3.031-16.068-9.905-3.487-20.8-7.76-31.294-4.086.767,4.036,1.64,8.034,2.47,12.332" transform="translate(252.283 71.423)"/>
        <path id="패스_2852" data-name="패스 2852" d="M51.475,30.711c11.284,2.645,21.956,7.273,32.379,12.207-1.141-5.614-2.046-11.3-3.131-16.823-10.217-4.254-20.734-8.77-31.968-9.275.867,4.56,1.759,9.151,2.72,13.891" transform="translate(255.357 88.094)"/>
        <path id="패스_2853" data-name="패스 2853" d="M52.257,35.381C63.84,39.9,74.687,45.492,85.64,51.355c-1.185-6.082-2.595-11.976-3.78-17.933-10.467-5.264-21.22-10.08-32.479-13.367,1.01,5,1.815,10.124,2.875,15.326" transform="translate(258.636 105.037)"/>
        <path id="패스_2854" data-name="패스 2854" d="M53.933,40.322A305.126,305.126,0,0,1,87.591,59.608c-1.279-6.4-2.557-12.718-3.836-19.006-11.1-6.263-22.1-11.864-33.72-17.078,1.16,5.5,2.657,11.109,3.9,16.8" transform="translate(262.061 123.207)"/>
        <path id="패스_2855" data-name="패스 2855" d="M54.96,44.956A329.217,329.217,0,0,1,88.549,67.131c-1.341-6.693-2.526-13.255-3.874-19.748A319.206,319.206,0,0,0,50.893,27.254c1.3,5.863,2.788,11.745,4.067,17.7" transform="translate(266.555 142.743)"/>
        <path id="패스_2856" data-name="패스 2856" d="M55.887,49.83A360.163,360.163,0,0,1,89.339,74.911c-1.447-7-2.632-13.972-4.042-20.84A340.291,340.291,0,0,0,51.783,31.117c1.341,6.15,2.688,12.413,4.1,18.713" transform="translate(271.217 162.975)"/>
        <path id="패스_2857" data-name="패스 2857" d="M56.76,54.617A400.07,400.07,0,0,1,91.167,83.847c-1.622-7.716-3.343-15.22-4.853-22.7A363.84,363.84,0,0,0,52.656,35.1c1.447,6.431,2.62,12.924,4.1,19.517" transform="translate(275.789 183.837)"/>
        <path id="패스_2858" data-name="패스 2858" d="M58.657,60.5C70.721,70.779,81.936,81.757,92.989,93.115Q90.463,81,88.1,69.244A411.95,411.95,0,0,0,53.53,39.229c1.6,6.992,3.506,14.059,5.127,21.27" transform="translate(280.367 205.462)"/>
        <path id="패스_2859" data-name="패스 2859" d="M54.588,43.615c1.715,7.4,3.437,14.97,5.152,22.586,8.433,8.04,16.629,16.349,24.439,25.013,2.083-2.439,4.036-5,6.019-7.541-.462-2.233-.9-4.522-1.341-6.737-11.034-11.564-22.218-22.8-34.269-33.321" transform="translate(285.908 228.434)"/>
        <path id="패스_2860" data-name="패스 2860" d="M67.807,79.408c3.031-3.069,5.857-6.337,8.745-9.625C70.1,62.7,64.164,56.578,55.625,48.17c1.678,7.772,3.362,15.644,5.177,23.7,2.632,2.751,4.79,5.152,7,7.541" transform="translate(291.339 252.291)"/>
        <path id="패스_2861" data-name="패스 2861" d="M60.28,56.848c-1.241-1.354-2.289-2.483-3.63-3.973.437,1.99.911,4.036,1.341,6.057.742-.7,1.547-1.354,2.289-2.083" transform="translate(296.708 276.934)"/>
        <path id="패스_2862" data-name="패스 2862" d="M82.649,14.647C78.607,11,74.472,7.567,70.161,4.28,64.3,3.5,58.846,2.989,51.037,2.49c.511,3.169.767,4.741,1.279,7.9a242.617,242.617,0,0,1,30.333,4.254" transform="translate(267.309 13.04)"/>
        <path id="패스_2863" data-name="패스 2863" d="M85,20.891c-.624-3.487-.923-5.24-1.547-8.72A250.062,250.062,0,0,0,51.609,6c.468,3.131.686,4.691,1.148,7.822A243.474,243.474,0,0,1,85,20.891" transform="translate(270.305 31.434)"/>
        <path id="패스_2864" data-name="패스 2864" d="M86.063,27.106c-.574-3.449-.855-5.177-1.416-8.627A244.992,244.992,0,0,0,52.23,9.6c.6,3.119.892,4.691,1.485,7.809a243.806,243.806,0,0,1,32.348,9.7" transform="translate(273.558 50.263)"/>
        <path id="패스_2865" data-name="패스 2865" d="M54.422,20.96A246.662,246.662,0,0,1,86.67,33.485c-.6-3.437-.892-5.165-1.485-8.614A249.064,249.064,0,0,0,52.95,13.288c.58,3.081.873,4.616,1.472,7.672" transform="translate(277.329 69.595)"/>
        <path id="패스_2866" data-name="패스 2866" d="M54.976,24.66A256.449,256.449,0,0,1,87.055,39.8c-.505-3.362-.767-5.046-1.285-8.421a252.738,252.738,0,0,0-32.1-14.29c.524,3.019.78,4.535,1.3,7.566" transform="translate(281.11 89.529)"/>
        <path id="패스_2867" data-name="패스 2867" d="M55.662,28.445C67.076,34.2,77.874,40.272,88.727,47.027c-.649-3.356-.973-5.034-1.622-8.383C76.345,32.219,65.667,26.449,54.383,21c.511,2.982.767,4.466,1.279,7.441" transform="translate(284.834 110.008)"/>
        <path id="패스_2868" data-name="패스 2868" d="M56.74,32.489A325.217,325.217,0,0,1,89.73,54.128c-.6-3.325-.9-5-1.485-8.321A317.32,317.32,0,0,0,55.193,25.073c.624,2.957.923,4.441,1.547,7.416" transform="translate(289.077 131.32)"/>
        <path id="패스_2869" data-name="패스 2869" d="M57.629,36.618A361.181,361.181,0,0,1,90.463,61.157c-.6-3.206-.892-4.8-1.491-8.009a346.387,346.387,0,0,0-32.916-23.84c.636,2.925.948,4.385,1.572,7.31" transform="translate(293.602 153.501)"/>
        <path id="패스_2870" data-name="패스 2870" d="M58.345,40.82A401.543,401.543,0,0,1,91.4,68.789c-.649-3.287-.961-4.946-1.609-8.246a392.257,392.257,0,0,0-32.859-26.9c.574,2.876.855,4.31,1.416,7.173" transform="translate(298.169 176.226)"/>
        <path id="패스_2871" data-name="패스 2871" d="M57.805,38.139c.624,2.838.923,4.254,1.547,7.092,11.839,10.1,22.854,20.927,33.72,32.049-.618-3.2-.923-4.809-1.547-8.015a438.252,438.252,0,0,0-33.72-31.125" transform="translate(302.757 199.754)"/>
        <path id="패스_2872" data-name="패스 2872" d="M80.1,69.873c.742-1.179,1.447-2.389,2.158-3.605-7.5-8.09-15.351-15.85-23.428-23.353.6,2.813.9,4.217,1.509,7.03C68.38,57.653,74.081,63.4,80.1,69.873" transform="translate(308.126 224.763)"/>
        <path id="패스_2873" data-name="패스 2873" d="M64.765,58.465c.78-1.011,1.547-1.971,2.289-3.031-2.252-2.389-4.5-4.778-7.2-7.566.561,2.713.842,4.079,1.41,6.8,1.316,1.41,2.333,2.483,3.5,3.8" transform="translate(313.5 250.704)"/>
        <path id="패스_2874" data-name="패스 2874" d="M56.32,4.633c.78,4.909,1.647,9.724,2.464,14.7,6.562,1.647,11.44,3,16.286,4.547A210.843,210.843,0,0,0,56.32,4.633" transform="translate(294.979 24.264)"/>
        <path id="패스_2875" data-name="패스 2875" d="M91.426,37.811c-.4-2.632-.8-5.265-1.179-7.884q-4.276-6.961-9.082-13.536a226.052,226.052,0,0,0-24.2-8c.873,5.483,1.946,10.9,2.894,16.424a236.512,236.512,0,0,1,31.568,13" transform="translate(298.347 43.931)"/>
        <path id="패스_2876" data-name="패스 2876" d="M60.542,29.5A258.1,258.1,0,0,1,92.117,45.308c-1.011-6.356-1.884-12.718-2.826-18.981A243.654,243.654,0,0,0,57.654,12.4c.973,5.614,1.915,11.327,2.888,17.091" transform="translate(301.966 64.97)"/>
        <path id="패스_2877" data-name="패스 2877" d="M61.243,34.359c11.109,5.982,21.626,12.282,32.186,19.187C92.343,46.71,91,40.01,89.861,33.286a261.3,261.3,0,0,0-31.506-16.76c.973,5.895,1.853,11.889,2.888,17.833" transform="translate(305.638 86.554)"/>
        <path id="패스_2878" data-name="패스 2878" d="M62.8,40.058A330.427,330.427,0,0,1,95.214,62.339c-1.216-7.161-2.4-14.265-3.605-21.27A309.172,309.172,0,0,0,59.024,20.734C60.24,27.071,61.65,33.565,62.8,40.058" transform="translate(309.142 108.594)"/>
        <path id="패스_2879" data-name="패스 2879" d="M63.656,45.266A373.725,373.725,0,0,1,95.966,70.778c-1.279-7.529-2.414-14.939-3.63-22.268A342.471,342.471,0,0,0,59.888,25.175c1.235,6.631,2.451,13.367,3.768,20.091" transform="translate(313.667 131.854)"/>
        <path id="패스_2880" data-name="패스 2880" d="M64.5,50.939C75.3,59.59,85.73,68.678,95.66,78.34c.206-.817.437-1.622.611-2.464-1.085-6.662-2.083-13.267-3.231-19.8A394.7,394.7,0,0,0,60.73,29.731C62,36.7,63.119,43.8,64.5,50.939" transform="translate(318.077 155.716)"/>
        <path id="패스_2881" data-name="패스 2881" d="M84.819,74.983c1.79-5,3.437-10.005,4.884-15.157C80.54,51.031,71.234,42.635,61.572,34.414c1.341,7.31,2.489,14.646,3.9,22.112,7.872,7.142,13.467,12.45,19.349,18.457" transform="translate(322.487 180.244)"/>
        <path id="패스_2882" data-name="패스 2882" d="M72.248,68.473c2.2-4.547,4.254-9.163,6.107-13.879-4.753-4.772-9.543-9.412-15.9-15.313,1.522,7.909,3.2,15.887,4.716,24,1.884,1.915,3.431,3.506,5.077,5.19" transform="translate(327.112 205.735)"/>
        <path id="패스_2883" data-name="패스 2883" d="M64.906,45.923c-.5-.536-.9-.973-1.447-1.509.206,1.073.412,2.177.605,3.262.306-.574.536-1.179.842-1.753" transform="translate(332.37 232.619)"/>
        <path id="패스_2884" data-name="패스 2884" d="M73.366,27.64c-1.865-4.042-3.68-8.152-5.8-12.051-1.64-.8-3.187-1.584-5.077-2.483.536,3.169.936,6.35,1.485,9.55,3.568,1.828,6.556,3.437,9.394,4.984" transform="translate(327.285 68.642)"/>
        <path id="패스_2885" data-name="패스 2885" d="M82.124,38.525c-.973-3.774-1.89-7.541-3.056-11.221-4.716-3.094-9.494-5.944-15.887-9.625.536,3.169.9,6.375,1.41,9.562,7.067,4.279,12.257,7.616,17.534,11.284" transform="translate(330.909 92.593)"/>
        <path id="패스_2886" data-name="패스 2886" d="M83.863,45.546c-.331-3.362-.961-6.618-1.435-9.918C76.8,31.281,71.451,27.482,63.978,22.461c.574,3.2,1.173,6.331,1.684,9.562,7.373,5.177,12.656,9.126,18.2,13.523" transform="translate(335.089 117.639)"/>
        <path id="패스_2887" data-name="패스 2887" d="M80.47,40.391c0-.156-.037-.331-.037-.462-4.678-3.973-9.381-7.716-15.606-12.525.5,3.131,1.11,6.263,1.647,9.431,5.383,4.3,9.562,7.809,13.6,11.3.106-2.595.4-5.115.4-7.747" transform="translate(339.53 143.528)"/>
        <path id="패스_2888" data-name="패스 2888" d="M73.138,47.107c.38-2.364.78-4.678,1.085-7.042-2.595-2.314-5.352-4.809-8.552-7.579.593,3.668.886,5.508,1.485,9.163,2.214,2.021,4.067,3.705,5.982,5.458" transform="translate(343.961 170.146)"/>
      </g>
    </g>
  </g>
</svg>
