<svg xmlns="http://www.w3.org/2000/svg" width="195.21" height="44" viewBox="0 0 195.21 44">
  <g id="logo-white" transform="translate(-44.001 -29.999)">
    <g id="logo_eng_white" data-name="logo eng white" transform="translate(44.001 29.999)">
      <g id="그룹_13" data-name="그룹 13" transform="translate(0)">
        <path id="패스_33" data-name="패스 33" d="M9647.6,390.589l-12.7,22h25.4Z" transform="translate(-9634.896 -368.589)" fill="#00823d"/>
        <path id="패스_34" data-name="패스 34" d="M9634.9,291.376h25.4l12.7,22Z" transform="translate(-9634.896 -291.376)" fill="#38d430"/>
        <path id="패스_35" data-name="패스 35" d="M9634.9,291.376l38.106,22-12.7,22Z" transform="translate(-9634.896 -291.376)" fill="#00ae42"/>
      </g>
      <g id="그룹_14" data-name="그룹 14" transform="translate(49.114 7.7)">
        <path id="패스_36" data-name="패스 36" d="M10001.108,326.1h-10.222v28.6h10.222c9.381,0,14.212-4.9,14.212-14.527C10015.32,330.652,10010.489,326.1,10001.108,326.1Zm-.177,23.734h-3.64V330.967h3.64c5.566,0,8.157,3.081,8.157,9.207C10009.089,346.474,10006.5,349.835,10000.932,349.835Z" transform="translate(-9961.061 -326.101)" fill="#fff"/>
        <path id="패스_37" data-name="패스 37" d="M9874.411,326.1v16.227l-2.961-5.13h-8.731V326.1h-6.335v28.6h6.335V342.729h11.692V354.7h6.371V326.1Z" transform="translate(-9856.384 -326.101)" fill="#fff"/>
        <path id="패스_38" data-name="패스 38" d="M10141.029,326.236h2.723v4.753h3.971l1.039,2.346v-7.1h2.723v12.289h-2.723v-5.159h-5.01v5.159h-2.723Z" transform="translate(-10077.91 -326.206)" fill="#fff"/>
        <path id="패스_39" data-name="패스 39" d="M10198.023,333.877l-4.694-7.641h3.115l2.992,5.265,2.992-5.265h2.9l-4.588,7.611v4.693h-2.722Z" transform="translate(-10118.612 -326.206)" fill="#fff"/>
        <path id="패스_40" data-name="패스 40" d="M10252.615,333.637v-7.4h2.709v7.175c0,1.925.782,3.144,2.526,3.144,1.671,0,2.514-1.219,2.514-3.144v-7.175h2.722v7.4c0,3.053-1.744,5.145-5.235,5.145C10254.286,338.781,10252.615,336.69,10252.615,333.637Z" transform="translate(-10164.753 -326.206)" fill="#fff"/>
        <path id="패스_41" data-name="패스 41" d="M10309.665,326.236h2.256l5.476,7.431v-7.431h2.707v12.3h-2.24l-5.491-7.521v7.506h-2.707Z" transform="translate(-10209.151 -326.206)" fill="#fff"/>
        <path id="패스_42" data-name="패스 42" d="M10376.918,332.283c0,4.136-1.7,6.242-5.731,6.242h-4.542V326.236h4.542C10375.217,326.236,10376.918,328.192,10376.918,332.283Zm-5.807,4.016c2.392,0,3.128-1.339,3.128-4.016,0-2.6-.736-3.821-3.128-3.821h-1.744V336.3Z" transform="translate(-10253.496 -326.206)" fill="#fff"/>
        <path id="패스_43" data-name="패스 43" d="M10416.26,326.1h2.708l4.888,12.319h-2.843l-.886-2.392h-3.656l-.571-2.121-1.551,4.513h-2.8Zm3.068,7.746-1.774-4.783-1.64,4.783Z" transform="translate(-10288.444 -326.101)" fill="#fff"/>
        <path id="패스_44" data-name="패스 44" d="M10472.67,326.236h2.723v12.289h-2.723Z" transform="translate(-10336.012 -326.206)" fill="#fff"/>
        <path id="패스_45" data-name="패스 45" d="M10141.029,399.49h5.066c3.167,0,4.7,1.794,4.7,4.1a3.678,3.678,0,0,1-2.971,3.739l3.394,4.478-3.017.03-4.3-6.152h1.765c1.688,0,2.443-.814,2.443-2.035,0-1.146-.771-1.885-2.49-1.885h-1.9v10.042h-2.7Z" transform="translate(-10077.91 -383.216)" fill="#fff"/>
        <path id="패스_46" data-name="패스 46" d="M10188.7,405.09c0-3.769,2.413-6.348,6.122-6.348,3.663,0,6.091,2.578,6.091,6.348s-2.428,6.347-6.091,6.347C10191.109,411.437,10188.7,408.859,10188.7,405.09Zm6.122,4.1c1.959,0,3.408-1.447,3.408-4.1,0-2.638-1.449-4.086-3.408-4.086-1.976,0-3.423,1.448-3.423,4.086C10191.4,407.743,10192.843,409.19,10194.818,409.19Z" transform="translate(-10115.007 -382.634)" fill="#fff"/>
        <path id="패스_47" data-name="패스 47" d="M10249.556,399.49h4.659c3.12,0,4.523,1.206,4.523,3.272a2.633,2.633,0,0,1-1.734,2.593,2.86,2.86,0,0,1,2.276,2.91c0,2.307-1.537,3.543-4.749,3.543h-4.976Zm4.509,4.9c1.191,0,1.823-.528,1.823-1.372,0-.829-.632-1.327-1.823-1.327h-1.795v2.7Zm.437,5.2c1.221,0,1.99-.528,1.99-1.568,0-.98-.83-1.463-1.99-1.463h-1.116l-1.115-1.93v4.961Z" transform="translate(-10162.371 -383.216)" fill="#fff"/>
        <path id="패스_48" data-name="패스 48" d="M10296.795,405.09c0-3.769,2.412-6.348,6.122-6.348,3.663,0,6.091,2.578,6.091,6.348s-2.428,6.347-6.091,6.347C10299.207,411.437,10296.795,408.859,10296.795,405.09Zm6.122,4.1c1.96,0,3.406-1.447,3.406-4.1,0-2.638-1.446-4.086-3.406-4.086-1.976,0-3.422,1.448-3.422,4.086C10299.5,407.743,10300.941,409.19,10302.917,409.19Z" transform="translate(-10199.136 -382.634)" fill="#fff"/>
        <path id="패스_49" data-name="패스 49" d="M10351.012,399.49h10.222v2.337h-3.784v9.981h-2.729v-9.981h-3.709Z" transform="translate(-10241.329 -383.216)" fill="#fff"/>
        <path id="패스_50" data-name="패스 50" d="M10403.1,399.49h2.729v12.318h-2.729Z" transform="translate(-10281.866 -383.216)" fill="#fff"/>
        <path id="패스_51" data-name="패스 51" d="M10427.717,411.437c-3.86,0-6.123-2.578-6.123-6.347s2.232-6.348,6.093-6.348a5.994,5.994,0,0,1,4.447,1.643l-1.855,1.674a3.291,3.291,0,0,0-2.592-1.055c-1.977,0-3.393,1.448-3.393,4.086,0,2.654,1.446,4.1,3.423,4.1a3.821,3.821,0,0,0,3-1.342l1.614,1.839A6.237,6.237,0,0,1,10427.717,411.437Z" transform="translate(-10296.26 -382.634)" fill="#fff"/>
        <path id="패스_52" data-name="패스 52" d="M10475.394,409.085c1.373,0,2.142-.573,2.142-1.523,0-.844-.6-1.3-1.81-1.6l-1.3-.317c-2.11-.513-3.634-1.583-3.634-3.589,0-1.975,1.765-3.588,4.749-3.588,2.8,0,4.479,1.372,4.72,3.3l-2.744.6a1.8,1.8,0,0,0-1.976-1.794c-1.13,0-1.93.573-1.93,1.4,0,.844.543,1.191,1.779,1.493l1.313.317c2.351.573,3.648,1.643,3.648,3.694,0,2.186-1.734,3.8-4.961,3.8-2.834,0-4.478-1.342-4.976-3.483l2.819-.648A2.132,2.132,0,0,0,10475.394,409.085Z" transform="translate(-10334.259 -382.423)" fill="#fff"/>
      </g>
    </g>
  </g>
</svg>
