<svg xmlns="http://www.w3.org/2000/svg" width="195.21" height="44" viewBox="0 0 195.21 44">
  <g id="logo" transform="translate(-44 -29.999)">
    <g id="logo_eng" data-name="logo eng" transform="translate(44 29.999)">
      <g id="그룹_34" data-name="그룹 34" transform="translate(0)">
        <path id="패스_97" data-name="패스 97" d="M1985.473,390.589l-12.7,22h25.4Z" transform="translate(-1972.771 -368.589)" fill="#00823d"/>
        <path id="패스_98" data-name="패스 98" d="M1972.771,291.376h25.4l12.7,22Z" transform="translate(-1972.771 -291.376)" fill="#38d430"/>
        <path id="패스_99" data-name="패스 99" d="M1972.771,291.376l38.105,22-12.7,22Z" transform="translate(-1972.771 -291.376)" fill="#00ae42"/>
      </g>
      <g id="그룹_39" data-name="그룹 39" transform="translate(49.114 7.7)">
        <g id="그룹_38" data-name="그룹 38" transform="translate(0 0)">
          <g id="그룹_37" data-name="그룹 37" transform="translate(29.825 0)">
            <g id="그룹_36" data-name="그룹 36">
              <g id="그룹_35" data-name="그룹 35">
                <path id="패스_100" data-name="패스 100" d="M2338.983,326.1h-10.222v28.6h10.222c9.381,0,14.212-4.9,14.212-14.528C2353.2,330.652,2348.364,326.1,2338.983,326.1Zm-.176,23.734h-3.641V330.967h3.641c5.566,0,8.157,3.081,8.157,9.207C2346.964,346.474,2344.374,349.835,2338.808,349.835Z" transform="translate(-2328.761 -326.101)" fill="#002f87"/>
              </g>
            </g>
          </g>
          <path id="패스_101" data-name="패스 101" d="M2212.288,326.1v16.227l-2.962-5.13H2200.6V326.1h-6.336v28.6h6.336V342.729h11.692V354.7h6.371V326.1Z" transform="translate(-2194.26 -326.101)" fill="#002f87"/>
        </g>
        <path id="패스_102" data-name="패스 102" d="M2478.9,326.236h2.723v4.753h3.971l1.038,2.346v-7.1h2.723v12.289h-2.723v-5.159h-5.009v5.159H2478.9Z" transform="translate(-2415.786 -326.206)" fill="#002f87"/>
        <path id="패스_103" data-name="패스 103" d="M2535.9,333.877l-4.693-7.641h3.114l2.993,5.265,2.993-5.265h2.9l-4.587,7.611v4.693H2535.9Z" transform="translate(-2456.488 -326.206)" fill="#002f87"/>
        <path id="패스_104" data-name="패스 104" d="M2590.491,333.637v-7.4h2.708v7.175c0,1.925.782,3.144,2.527,3.144,1.669,0,2.512-1.218,2.512-3.144v-7.175h2.723v7.4c0,3.053-1.745,5.145-5.235,5.145C2592.161,338.781,2590.491,336.69,2590.491,333.637Z" transform="translate(-2502.628 -326.206)" fill="#002f87"/>
        <path id="패스_105" data-name="패스 105" d="M2647.54,326.236h2.256l5.475,7.431v-7.431h2.707v12.3h-2.241l-5.49-7.521v7.506h-2.708Z" transform="translate(-2547.027 -326.206)" fill="#002f87"/>
        <path id="패스_106" data-name="패스 106" d="M2714.794,332.283c0,4.136-1.7,6.242-5.731,6.242h-4.543V326.236h4.543C2713.094,326.236,2714.794,328.192,2714.794,332.283Zm-5.806,4.016c2.391,0,3.128-1.339,3.128-4.016,0-2.6-.738-3.821-3.128-3.821h-1.745V336.3Z" transform="translate(-2591.371 -326.206)" fill="#002f87"/>
        <path id="패스_107" data-name="패스 107" d="M2754.135,326.1h2.708l4.889,12.319h-2.843l-.888-2.391h-3.655l-.571-2.121-1.55,4.513h-2.8Zm3.069,7.746-1.775-4.783-1.64,4.783Z" transform="translate(-2626.321 -326.101)" fill="#002f87"/>
        <path id="패스_108" data-name="패스 108" d="M2810.546,326.236h2.722v12.289h-2.722Z" transform="translate(-2673.887 -326.206)" fill="#002f87"/>
        <path id="패스_109" data-name="패스 109" d="M2478.9,399.49h5.065c3.167,0,4.7,1.794,4.7,4.1a3.677,3.677,0,0,1-2.97,3.739l3.392,4.478-3.016.03-4.3-6.152h1.764c1.689,0,2.442-.814,2.442-2.035,0-1.146-.769-1.885-2.488-1.885h-1.9v10.042h-2.7Z" transform="translate(-2415.786 -383.216)" fill="#002f87"/>
        <path id="패스_110" data-name="패스 110" d="M2526.571,405.09c0-3.769,2.412-6.348,6.122-6.348,3.664,0,6.091,2.578,6.091,6.348s-2.428,6.347-6.091,6.347C2528.983,411.437,2526.571,408.859,2526.571,405.09Zm6.122,4.1c1.96,0,3.407-1.447,3.407-4.1,0-2.638-1.447-4.086-3.407-4.086-1.975,0-3.423,1.448-3.423,4.086C2529.27,407.743,2530.717,409.19,2532.693,409.19Z" transform="translate(-2452.882 -382.634)" fill="#002f87"/>
        <path id="패스_111" data-name="패스 111" d="M2587.431,399.49h4.659c3.121,0,4.523,1.206,4.523,3.272a2.632,2.632,0,0,1-1.734,2.593,2.86,2.86,0,0,1,2.276,2.91c0,2.307-1.538,3.543-4.749,3.543h-4.976Zm4.508,4.9c1.192,0,1.825-.528,1.825-1.372,0-.829-.633-1.327-1.825-1.327h-1.794v2.7Zm.438,5.2c1.221,0,1.99-.528,1.99-1.568,0-.98-.829-1.463-1.99-1.463h-1.116l-1.116-1.93v4.96Z" transform="translate(-2500.247 -383.216)" fill="#002f87"/>
        <path id="패스_112" data-name="패스 112" d="M2634.671,405.09c0-3.769,2.412-6.348,6.122-6.348,3.664,0,6.091,2.578,6.091,6.348s-2.427,6.347-6.091,6.347C2637.083,411.437,2634.671,408.859,2634.671,405.09Zm6.122,4.1c1.96,0,3.407-1.447,3.407-4.1,0-2.638-1.447-4.086-3.407-4.086-1.976,0-3.423,1.448-3.423,4.086C2637.37,407.743,2638.817,409.19,2640.793,409.19Z" transform="translate(-2537.011 -382.634)" fill="#002f87"/>
        <path id="패스_113" data-name="패스 113" d="M2688.887,399.49h10.222v2.337h-3.784v9.981H2692.6v-9.981h-3.709Z" transform="translate(-2579.205 -383.216)" fill="#002f87"/>
        <path id="패스_114" data-name="패스 114" d="M2740.974,399.49h2.729v12.318h-2.729Z" transform="translate(-2619.742 -383.216)" fill="#002f87"/>
        <path id="패스_115" data-name="패스 115" d="M2765.592,411.437c-3.86,0-6.122-2.578-6.122-6.347s2.232-6.348,6.092-6.348a5.994,5.994,0,0,1,4.448,1.643l-1.854,1.674a3.3,3.3,0,0,0-2.593-1.056c-1.975,0-3.393,1.448-3.393,4.086,0,2.654,1.447,4.1,3.423,4.1a3.821,3.821,0,0,0,3-1.342l1.614,1.839A6.234,6.234,0,0,1,2765.592,411.437Z" transform="translate(-2634.137 -382.634)" fill="#002f87"/>
        <path id="패스_116" data-name="패스 116" d="M2813.269,409.085c1.372,0,2.141-.573,2.141-1.523,0-.844-.6-1.3-1.809-1.6l-1.3-.317c-2.111-.513-3.633-1.583-3.633-3.589,0-1.975,1.764-3.588,4.749-3.588,2.8,0,4.479,1.372,4.719,3.3l-2.744.6a1.8,1.8,0,0,0-1.975-1.794c-1.13,0-1.93.573-1.93,1.4,0,.844.542,1.191,1.779,1.493l1.312.317c2.352.573,3.648,1.643,3.648,3.694,0,2.186-1.734,3.8-4.96,3.8-2.834,0-4.478-1.342-4.976-3.483l2.82-.648A2.131,2.131,0,0,0,2813.269,409.085Z" transform="translate(-2672.133 -382.423)" fill="#002f87"/>
      </g>
    </g>
  </g>
</svg>
