<svg width="91" height="62" viewBox="0 0 91 62" fill="none" xmlns="http://www.w3.org/2000/svg">
<g opacity="0.9">
<path d="M16.5503 28.0303C14.8393 28.0703 13.1802 28.3225 11.6177 28.7043L19.5387 29.9934C18.4522 29.4042 17.46 28.7444 16.5503 28.0326V28.0303Z" fill="white"/>
<path d="M38.8887 19.2451L36.73 26.1244L39.346 22.0756L38.8887 19.2451Z" fill="white"/>
<path d="M31.1156 18.274C31.5728 19.4217 31.9452 20.6472 32.2162 21.9599C32.2468 22.0306 32.2775 22.1013 32.3105 22.172L32.3482 6.86035C31.1981 10.0891 30.3756 14.1356 31.1156 18.274Z" fill="white"/>
<path d="M35.7783 0C35.7783 0 33.8293 2.73617 32.3799 6.77325L33.7656 24.7858C33.8081 24.847 33.8505 24.9083 33.8929 24.9696L37.1334 8.38054L35.7783 0Z" fill="white"/>
<path d="M37.2151 8.88818L35.3062 25.6163L38.5985 17.4526L37.2151 8.88818Z" fill="white"/>
<path d="M40.1001 26.7471L39.1621 27.8972L40.1708 27.1831L40.1001 26.7471Z" fill="white"/>
<path d="M39.6399 23.9067L38.0303 26.8951L39.8214 25.0238L39.6399 23.9067Z" fill="white"/>
<path d="M40.4323 28.8042L40.0835 29.0941L40.4511 28.9267L40.4323 28.8042Z" fill="white"/>
<path d="M25.4291 33.9944L6.38675 33.0399L25.4456 32.4837L10.8504 28.9038C4.57678 30.6313 0 34.2937 0 34.2937C0 34.2937 4.06065 39.2287 10.2824 42.1816L11.3123 41.7339C14.5245 38.5711 18.9929 35.8043 24.7598 35.8892L25.7002 35.4791L6.82038 38.1446L25.4291 33.992V33.9944Z" fill="white"/>
<path d="M10.6877 42.3719C10.7537 42.3036 10.8196 42.2353 10.8856 42.1646L10.5156 42.2918C10.5722 42.3177 10.6311 42.3437 10.6877 42.3719Z" fill="white"/>
<path d="M32.0771 44.4645L32.0841 44.0474C31.6482 44.7473 31.1886 45.3954 30.7102 45.9917L26.7202 59.458L29.2254 47.632C28.1413 48.6878 26.9842 49.5409 25.787 50.2244L23.5811 54.4783C24.1891 58.546 25.3722 61.4165 25.3722 61.4165C25.3722 61.4165 28.4218 60.1109 31.8367 57.4548L31.9875 49.2675C31.8508 47.5589 31.8885 45.961 32.0747 44.4645H32.0771Z" fill="white"/>
<path d="M23.27 51.398C23.3148 52.2723 23.3973 53.1137 23.5033 53.9173L24.8514 50.7192C24.3305 50.9738 23.8026 51.2 23.27 51.398Z" fill="white"/>
<path d="M32.5099 52.8564L32.0786 57.2634C33.0331 56.5069 34.0111 55.6467 34.9562 54.6805C34.3293 54.7889 33.6859 54.8832 33.019 54.9609C32.821 54.2421 32.6537 53.5422 32.5099 52.854V52.8564Z" fill="white"/>
<path d="M16.55 28.0302C17.4597 28.7443 18.4519 29.4019 19.5384 29.991L25.746 30.9997L19.6468 28.1952L13.9058 25.5557C14.6953 26.4324 15.572 27.2596 16.5477 28.0255L16.55 28.0302Z" fill="white"/>
<path d="M26.3215 29.6053L10.8189 18.5075L27.1534 28.3421L14.0311 14.5104L25.3764 24.7127L7.03867 2.12109C7.03867 2.12109 5.72597 15.6417 13.2699 24.8164L26.3238 29.6053H26.3215Z" fill="white"/>
<path d="M25.3996 43.283L26.2669 41.9868L24.2755 42.8022L23.7287 43.0261L22.5386 44.0513L13.6395 51.7248L21.0208 44.2634L21.2329 44.049L20.6273 44.2964L5.06104 50.6761C5.06104 50.6761 11.9474 53.5042 19.2933 52.4083L23.5072 46.1087L25.3996 43.2807V43.283Z" fill="white"/>
<path d="M29.2241 47.6322L30.6712 40.8071L25.7856 50.2246C26.9829 49.5435 28.14 48.6904 29.2241 47.6322Z" fill="white"/>
<path d="M32.0834 44.0469L32.1353 41.1787L30.7095 45.9912C31.1879 45.3925 31.6475 44.7468 32.0834 44.0469Z" fill="white"/>
<path d="M29.0078 40.8628L28.626 41.0183L27.5608 42.3664L23.3186 47.735L19.6704 52.3519C20.87 52.1515 22.079 51.8428 23.2691 51.3974C23.8018 51.1994 24.3297 50.9732 24.8505 50.7187L28.6048 41.8173L29.0078 40.8628Z" fill="white"/>
<path d="M45.5241 36.4372L46.3254 35.2494L41.1406 34.9077L45.5241 36.4372Z" fill="white"/>
<path d="M50.3993 25.1131L42.0352 29.7394L40.7603 30.4441L41.6676 30.2272L51.2713 27.9224L53.8307 24.1304C53.8307 24.1304 52.4591 24.4061 50.3993 25.1131Z" fill="white"/>
<path d="M48.8185 31.5535L50.6756 28.8032L41.1709 31.8976L48.8185 31.5535Z" fill="white"/>
<path d="M47.0059 34.2386L48.149 32.5488L41.3003 33.4043L47.0059 34.2386Z" fill="white"/>
<path d="M44.2065 38.3892L44.8452 37.4418L40.6997 36.353L44.2065 38.3892Z" fill="white"/>
<path d="M39.0449 38.8667L41.1236 41.5227L41.642 42.185L42.2713 41.2541L41.1424 40.4198L39.0449 38.8667Z" fill="white"/>
<path d="M32.5103 52.8565C32.6517 53.5423 32.8213 54.2446 33.0193 54.9634L35.4114 51.4213L33.6462 41.2661L32.5103 52.8565Z" fill="white"/>
<path d="M36.0212 50.5141L37.7534 47.9476L35.1421 41.0659L36.0212 50.5141Z" fill="white"/>
<path d="M31.9868 49.2674L32.074 44.4644C31.8878 45.9585 31.8478 47.5587 31.9868 49.2674Z" fill="white"/>
<path d="M39.9932 37.689L41.0348 38.5963L42.9438 40.2602L43.533 39.3858L40.983 38.1627L39.9932 37.689Z" fill="white"/>
<path d="M38.4277 46.9487L39.5118 45.3438L36.5776 40.5879L38.4277 46.9487Z" fill="white"/>
<path d="M40.1923 44.3319L40.9653 43.1889L37.8921 39.8447L40.1923 44.3319Z" fill="white"/>
<path d="M37.4652 6.67191L37.213 8.88724L38.5964 17.4516L42.4355 7.93276L38.8863 19.2451L39.3435 22.0779L45.2683 12.9078C42.7772 5.12589 35.7754 0 35.7754 0L37.1305 8.3829L37.4652 6.67191Z" fill="white"/>
<path d="M40.4489 28.9258L43.4773 27.5518C43.9228 26.7929 44.3046 26.0411 44.6274 25.2964L40.4277 28.8008L40.4466 28.9234L40.4489 28.9258Z" fill="white"/>
<path d="M39.8197 25.0236L46.1333 18.4342C46.1475 16.6124 45.8623 14.8802 45.3768 13.2588L39.6382 23.9042L39.8197 25.0236Z" fill="white"/>
<path d="M40.1679 27.1824L45.2914 23.553C45.751 22.1296 46.0079 20.7438 46.0974 19.4028L40.0972 26.7488L40.1679 27.1824Z" fill="white"/>
<path d="M11.3081 41.7353L24.7556 35.8906C18.9887 35.8057 14.5203 38.5725 11.3081 41.7353Z" fill="white"/>
<path d="M23.7266 43.0273L24.2733 42.8034L26.2648 41.988L28.0794 39.2754L24.3864 42.4593L23.7266 43.0273Z" fill="white"/>
<path d="M29.0054 40.8631L29.3 40.1655L28.626 41.0187L29.0054 40.8631Z" fill="white"/>
<path d="M27.0468 38.1698L26.1607 38.6789L16.623 44.1536L10.5096 47.6628L15.8264 44.0216L26.2408 36.8901L10.8796 42.1645C10.8137 42.2329 10.7477 42.3012 10.6817 42.3719C6.90383 46.3477 5.05615 50.6794 5.05615 50.6794L20.6224 44.2997L21.2281 44.0522L25.6234 39.6098L27.0445 38.1722L27.0468 38.1698Z" fill="white"/>
<path d="M32.2133 21.9603C31.9423 20.6476 31.5699 19.4221 31.1127 18.2744C30.6367 17.0795 30.0687 15.9719 29.4253 14.9443L32.2981 25.4412L32.3052 22.434C32.2769 22.2761 32.2439 22.1182 32.2133 21.9603Z" fill="white"/>
<path d="M28.5083 13.5937C21.2213 3.69304 7.03613 2.12109 7.03613 2.12109L25.3739 24.7127L28.2043 27.258L17.936 11.1922L29.4439 26.3931L22.402 8.67517L30.825 25.7803L28.5083 13.5913V13.5937Z" fill="white"/>
<path d="M41.6406 42.1868L47.0305 49.0755C47.9025 48.2648 48.6755 47.4022 49.3542 46.4996L42.2699 41.2559L41.6406 42.1868Z" fill="white"/>
<path d="M42.9409 40.2611L49.6458 46.1011C50.3246 45.1536 50.9067 44.1685 51.4087 43.1622L43.5301 39.3867L42.9409 40.2611Z" fill="white"/>
<path d="M45.5225 36.4383L53.0027 39.0472C53.328 37.9324 53.5731 36.8248 53.7592 35.743L46.3238 35.2505L45.5225 36.4383Z" fill="white"/>
<path d="M54.2002 27.6572L50.6745 28.805L48.8174 31.5553L54.219 31.3125C54.2756 29.9503 54.2544 28.7107 54.1978 27.6596L54.2002 27.6572Z" fill="white"/>
<path d="M53.8299 24.1313L51.2705 27.9233L54.174 27.2257C54.0515 25.3168 53.8299 24.1313 53.8299 24.1313Z" fill="white"/>
<path d="M47.0044 34.2397L53.8389 35.2389C54.0251 34.0393 54.1359 32.8798 54.1948 31.791L48.1451 32.5475L47.0044 34.2397Z" fill="white"/>
<path d="M44.2046 38.3898L51.6307 42.7026C52.1209 41.6609 52.5239 40.6004 52.8538 39.5422L44.8456 37.4424L44.2046 38.3921V38.3898Z" fill="white"/>
<path d="M37.7523 47.9482L36.0225 50.5123L36.2746 53.2296L36.383 54.3985C37.6085 54.1252 38.7539 53.7905 39.8215 53.4016L38.5442 50.0339L37.7523 47.9458V47.9482Z" fill="white"/>
<path d="M39.5099 45.3446L38.4258 46.9496L39.0527 49.1083L40.2546 53.2397C41.4071 52.7943 42.4676 52.2852 43.4409 51.7196L40.1863 46.4452L39.5075 45.3423L39.5099 45.3446Z" fill="white"/>
<path d="M35.4072 51.4224L33.0151 54.9645C33.6821 54.8868 34.3255 54.7925 34.9524 54.6841C35.287 54.6252 35.617 54.5639 35.9422 54.4979L35.8149 53.7626L35.4072 51.4224Z" fill="white"/>
<path d="M40.9639 43.1904L40.1909 44.3358L40.5868 45.1065L43.8509 51.4791C44.8879 50.8451 45.8259 50.1475 46.6719 49.4028L40.9663 43.1928L40.9639 43.1904Z" fill="white"/>
<path d="M60.7629 17.1479V24.9912H65.0757V26.556H59.0684V17.1479H60.7629Z" fill="white"/>
<path d="M68.3112 22.5142V24.9912H72.5203V26.556H66.6167V17.1479H72.4449V18.7128H68.3112V20.9069H72.1244V22.5119H68.3112V22.5142Z" fill="white"/>
<path d="M78.6054 17.1479L82.1995 26.556H80.3636L79.6966 24.6447H76.5268L76.1686 23.3603L75.0916 26.556H73.3452L76.786 17.1479H78.6078H78.6054ZM77.6792 18.8566L76.2157 23.1812H79.1805L77.6792 18.8566Z" fill="white"/>
<path d="M86.2936 17.1479C87.7312 17.1479 88.7753 17.5297 89.4257 18.291C90.0762 19.0522 90.4014 20.2117 90.4014 21.7695C90.4014 23.3273 90.0762 24.5575 89.4257 25.3565C88.7753 26.1554 87.7312 26.556 86.2936 26.556H83.2134V17.1479H86.2936ZM86.2559 25.0689C87.1798 25.0689 87.8279 24.7979 88.2002 24.2535C88.5726 23.7091 88.7588 22.8819 88.7588 21.7695C88.7588 20.6571 88.5726 19.9006 88.2002 19.3939C87.8279 18.8896 87.1798 18.6374 86.2559 18.6374H84.9079V25.0689H86.2559Z" fill="white"/>
<path d="M64.8706 28.6899V30.2689H60.7629V32.7199H64.5501V34.3366H60.7629V38.1097H59.0684V28.6875H64.8706V28.6899Z" fill="white"/>
<path d="M74.0362 38.0979L72.1108 38.1239L68.9527 33.5542H70.1594C70.8099 33.5542 71.3048 33.3986 71.6418 33.0852C71.9788 32.7741 72.1485 32.3593 72.1485 31.8455C72.1485 31.3318 71.9859 30.9217 71.6606 30.6389C71.3354 30.3561 70.8476 30.2147 70.1971 30.2147H68.7477V38.0956H67.0532V28.6875H70.4422C71.5546 28.6875 72.403 28.968 72.9898 29.5289C73.5767 30.0898 73.8689 30.8321 73.8689 31.756C73.8689 32.5266 73.6709 33.1724 73.2726 33.6932C72.8744 34.2164 72.2993 34.5487 71.5452 34.6948L74.0362 38.0956V38.0979Z" fill="white"/>
<path d="M77.8351 34.0538V36.5307H82.0442V38.0956H76.1406V28.6875H81.9688V30.2524H77.8351V32.4465H81.6483V34.0514H77.8351V34.0538Z" fill="white"/>
<path d="M85.9328 34.0538V36.5307H90.1419V38.0956H84.2383V28.6875H90.0665V30.2524H85.9328V32.4465H89.746V34.0514H85.9328V34.0538Z" fill="white"/>
<path d="M61.2762 43.4385L60.6682 43.4455L59.6689 42.0009H60.0507C60.2558 42.0009 60.4136 41.9514 60.5197 41.8524C60.6258 41.7534 60.68 41.6238 60.68 41.4612C60.68 41.2986 60.6281 41.1689 60.5268 41.0794C60.4231 40.9898 60.2699 40.945 60.0649 40.945H59.6053V43.4361H59.0703V40.4619H60.1426C60.4938 40.4619 60.7624 40.5515 60.9486 40.7282C61.1348 40.905 61.2267 41.1407 61.2267 41.4329C61.2267 41.6756 61.1631 41.8807 61.0382 42.0456C60.9133 42.2106 60.7295 42.3167 60.4914 42.3614L61.2786 43.4361L61.2762 43.4385Z" fill="white"/>
<path d="M62.1098 43.375C61.9495 43.276 61.8223 43.1346 61.7304 42.9531C61.6384 42.7716 61.5913 42.5642 61.5913 42.3286C61.5913 42.0929 61.6384 41.8808 61.7304 41.6993C61.8223 41.5179 61.9495 41.3788 62.1098 41.2798C62.2701 41.1808 62.4539 41.1313 62.6589 41.1313C62.864 41.1313 63.0501 41.1808 63.2127 41.2798C63.3754 41.3788 63.505 41.5179 63.5992 41.6993C63.6935 41.8808 63.7383 42.0905 63.7383 42.3286C63.7383 42.5666 63.6912 42.7716 63.5992 42.9531C63.505 43.1346 63.3777 43.276 63.2127 43.375C63.0501 43.4739 62.864 43.5258 62.6589 43.5258C62.4539 43.5258 62.2701 43.4763 62.1098 43.375ZM63.069 42.8753C63.1727 42.7339 63.2245 42.5525 63.2245 42.3286C63.2245 42.1047 63.1727 41.9161 63.069 41.7771C62.9653 41.6357 62.8286 41.565 62.6613 41.565C62.4939 41.565 62.362 41.6357 62.2583 41.7771C62.1546 41.9185 62.1051 42.1023 62.1051 42.3286C62.1051 42.5548 62.1569 42.7363 62.2583 42.8753C62.362 43.0167 62.4939 43.0874 62.6613 43.0874C62.8286 43.0874 62.9653 43.0167 63.069 42.8753Z" fill="white"/>
<path d="M64.6766 40.4644V41.6451H65.6216L65.9186 42.1518H64.6766V43.4386H64.1416V40.4644H64.6766ZM65.9186 40.4644H66.4465V43.4386H65.9186V40.4644Z" fill="white"/>
<path d="M67.4055 42.5669C67.4385 42.6989 67.4997 42.812 67.5869 42.9039C67.6765 42.9958 67.7896 43.0429 67.9287 43.0429C68.096 43.0429 68.228 43.0052 68.3223 42.9322C68.4165 42.8568 68.4636 42.7554 68.4636 42.6211C68.4636 42.508 68.4259 42.4161 68.3529 42.3477C68.2798 42.2794 68.1667 42.2228 68.0112 42.1827L67.7189 42.105C67.1863 41.9659 66.92 41.6831 66.92 41.2518C66.92 41.0916 66.9624 40.9478 67.0449 40.8205C67.1274 40.6909 67.2476 40.5896 67.4055 40.5165C67.5634 40.4411 67.7496 40.4058 67.964 40.4058C68.2563 40.4058 68.4919 40.4741 68.671 40.6132C68.8502 40.7522 68.9562 40.9313 68.9916 41.1528L68.4684 41.2943C68.4448 41.1646 68.3882 41.0586 68.2987 40.9737C68.2091 40.8889 68.0984 40.8488 67.9664 40.8488C67.8203 40.8488 67.7024 40.8842 67.6105 40.9572C67.521 41.0279 67.4738 41.1222 67.4738 41.24C67.4738 41.3579 67.5092 41.4404 67.5775 41.4993C67.6459 41.5582 67.759 41.6124 67.9169 41.6572L68.2209 41.742C68.4966 41.8198 68.6993 41.9259 68.8266 42.0555C68.9562 42.1875 69.0198 42.3689 69.0198 42.6046C69.0198 42.7743 68.9751 42.9298 68.8855 43.0642C68.796 43.1985 68.6687 43.3093 68.5037 43.3894C68.3387 43.4695 68.1455 43.5096 67.9263 43.5096C67.6388 43.5096 67.4055 43.4342 67.2217 43.2833C67.0378 43.1325 66.9176 42.9393 66.854 42.7059L67.4031 42.5669H67.4055Z" fill="white"/>
<path d="M72.4878 43.099C72.3606 43.2287 72.2168 43.3276 72.0589 43.3936C71.901 43.4596 71.7125 43.4926 71.4933 43.4926C71.2129 43.4926 70.9701 43.429 70.7651 43.3017C70.56 43.1745 70.4045 42.9953 70.2984 42.7644C70.1924 42.5334 70.1382 42.2648 70.1382 41.9584C70.1382 41.652 70.19 41.381 70.2961 41.1477C70.4021 40.9167 70.5553 40.7376 70.758 40.6103C70.9607 40.4831 71.2034 40.4194 71.4839 40.4194C71.8845 40.4194 72.2027 40.542 72.4384 40.7847L72.0966 41.1335C72.0259 41.0534 71.9387 40.9898 71.8303 40.9497C71.7243 40.9073 71.6088 40.8861 71.4839 40.8861C71.3236 40.8861 71.1822 40.9285 71.0597 41.0133C70.9371 41.0982 70.8405 41.2207 70.7745 41.3833C70.7062 41.5436 70.6732 41.7368 70.6732 41.9584C70.6732 42.1799 70.7085 42.3708 70.7792 42.5334C70.8499 42.696 70.9465 42.8162 71.0691 42.9011C71.1916 42.9859 71.333 43.026 71.4933 43.026C71.6347 43.026 71.769 43.0001 71.8963 42.9459C72.0236 42.8916 72.1249 42.8209 72.2003 42.7314L72.4878 43.1014V43.099Z" fill="white"/>
<path d="M73.3119 43.375C73.1517 43.276 73.0244 43.1346 72.9325 42.9531C72.8406 42.7716 72.7935 42.5642 72.7935 42.3286C72.7935 42.0929 72.8406 41.8808 72.9325 41.6993C73.0244 41.5179 73.1517 41.3788 73.3119 41.2798C73.4722 41.1808 73.656 41.1313 73.8611 41.1313C74.0661 41.1313 74.2523 41.1808 74.4149 41.2798C74.5775 41.3788 74.7071 41.5179 74.8014 41.6993C74.8957 41.8808 74.9404 42.0905 74.9404 42.3286C74.9404 42.5666 74.8933 42.7716 74.8014 42.9531C74.7071 43.1346 74.5799 43.276 74.4149 43.375C74.2523 43.4739 74.0661 43.5258 73.8611 43.5258C73.656 43.5258 73.4722 43.4763 73.3119 43.375ZM74.2711 42.8753C74.3748 42.7339 74.4267 42.5525 74.4267 42.3286C74.4267 42.1047 74.3748 41.9161 74.2711 41.7771C74.1674 41.6357 74.0307 41.565 73.8634 41.565C73.6961 41.565 73.5641 41.6357 73.4604 41.7771C73.3567 41.9185 73.3072 42.1023 73.3072 42.3286C73.3072 42.5548 73.3591 42.7363 73.4604 42.8753C73.5641 43.0167 73.6961 43.0874 73.8634 43.0874C74.0307 43.0874 74.1674 43.0167 74.2711 42.8753Z" fill="white"/>
<path d="M78.3575 41.3508C78.4965 41.5016 78.5672 41.7325 78.5672 42.0413L78.5625 43.4412H78.0299L78.037 42.0931C78.037 41.9329 78.0063 41.808 77.9474 41.7137C77.8885 41.6194 77.7966 41.5746 77.6764 41.5746C77.5633 41.5746 77.4666 41.6218 77.3889 41.7137C77.3111 41.8056 77.2569 41.9305 77.2263 42.0861L77.2215 43.4412H76.6889V42.0931C76.6889 41.9329 76.663 41.808 76.6088 41.7137C76.5546 41.6194 76.4674 41.5746 76.3448 41.5746C76.2105 41.5746 76.095 41.6406 76.0031 41.7726C75.9112 41.9046 75.8593 42.0743 75.8499 42.2817V43.4435H75.3149V41.1952H75.8499V41.5369C75.9819 41.2636 76.1893 41.1269 76.4674 41.1269C76.6135 41.1269 76.7408 41.1599 76.8539 41.2211C76.9647 41.2848 77.0519 41.379 77.1178 41.5039C77.2027 41.3767 77.304 41.2824 77.4242 41.2188C77.5444 41.1575 77.6693 41.1245 77.7966 41.1245C78.0323 41.1245 78.2184 41.1999 78.3575 41.3508Z" fill="white"/>
<path d="M79.0786 41.1903H79.6065V41.4872C79.6678 41.3764 79.7644 41.2892 79.8917 41.2256C80.019 41.162 80.1604 41.1313 80.3183 41.1313C80.5044 41.1313 80.6765 41.1832 80.8297 41.2845C80.9829 41.3859 81.1054 41.5249 81.1926 41.7017C81.2798 41.8784 81.3246 42.0788 81.3246 42.3003C81.3246 42.536 81.2822 42.7457 81.1973 42.9272C81.1125 43.111 80.9946 43.2524 80.8462 43.3514C80.6977 43.4504 80.5327 43.5022 80.356 43.5022C80.1957 43.5022 80.0519 43.4692 79.92 43.4009C79.788 43.3325 79.689 43.2359 79.6183 43.1134V44.2658H79.0833V41.1926L79.0786 41.1903ZM80.6364 42.8494C80.7495 42.7174 80.8061 42.536 80.8061 42.3003C80.8061 42.0788 80.7495 41.902 80.6364 41.7677C80.5233 41.6333 80.3772 41.5697 80.2028 41.5697C80.059 41.5697 79.9318 41.6239 79.8186 41.7323C79.7055 41.8407 79.6372 41.9821 79.6136 42.1542V42.4417C79.6207 42.5572 79.656 42.6632 79.7126 42.7551C79.7715 42.847 79.8446 42.9178 79.9317 42.9696C80.0189 43.0214 80.1109 43.0474 80.2051 43.0474C80.3772 43.0474 80.5209 42.9814 80.6364 42.8494Z" fill="white"/>
<path d="M82.2337 43.4389H81.6987V40.3657H82.2337V43.4389Z" fill="white"/>
<path d="M82.7975 40.8205C82.7362 40.7546 82.7056 40.6721 82.7056 40.5707C82.7056 40.4765 82.7362 40.3963 82.7998 40.328C82.8611 40.262 82.9412 40.229 83.0402 40.229C83.1392 40.229 83.217 40.262 83.2783 40.328C83.3395 40.394 83.3702 40.4741 83.3702 40.5707C83.3702 40.6697 83.3395 40.7546 83.2806 40.8205C83.2217 40.8865 83.1416 40.9195 83.0402 40.9195C82.9389 40.9195 82.8588 40.8865 82.7998 40.8205H82.7975ZM83.3065 43.4389H82.7716V41.1906H83.3065V43.4389Z" fill="white"/>
<path d="M85.616 42.1003V43.4389H85.213L85.1046 43.1255C85.0457 43.2292 84.9514 43.3164 84.8195 43.3894C84.6898 43.4625 84.5437 43.5002 84.3858 43.5002C84.1808 43.5002 84.0111 43.4389 83.8791 43.3164C83.7471 43.1938 83.6812 43.0289 83.6812 42.8168C83.6812 42.6046 83.7542 42.4303 83.898 42.2888C84.0417 42.1474 84.2397 42.0485 84.4895 41.9895C84.638 41.9542 84.8383 41.9306 85.0858 41.9212V41.8976C85.0858 41.8034 85.0386 41.7209 84.9467 41.6502C84.8548 41.5795 84.7464 41.5441 84.6215 41.5441C84.5084 41.5441 84.3905 41.563 84.2703 41.6007C84.1501 41.6384 84.0417 41.695 83.9428 41.7704L83.7636 41.3391C84.0535 41.1718 84.3552 41.0869 84.6733 41.0869C85.3002 41.0869 85.616 41.4239 85.616 42.098V42.1003ZM85.0834 42.3313C85.0127 42.3289 84.9208 42.3313 84.8077 42.3454C84.6945 42.3572 84.605 42.3737 84.5437 42.3973C84.4377 42.4303 84.3505 42.4774 84.2798 42.5363C84.2091 42.5976 84.1737 42.6706 84.1737 42.7578C84.1737 42.845 84.2043 42.9181 84.2633 42.9723C84.3222 43.0265 84.4047 43.0524 84.5107 43.0524C84.5885 43.0524 84.671 43.0289 84.7535 42.9864C84.8383 42.9417 84.9114 42.8804 84.9726 42.805C85.0339 42.7296 85.0716 42.6471 85.0811 42.5622V42.3313H85.0834Z" fill="white"/>
<path d="M86.1279 43.439V41.1907H86.6629V41.5843C86.7336 41.4381 86.8302 41.3274 86.9575 41.2543C87.0824 41.1789 87.2238 41.1436 87.377 41.1436C87.5302 41.1436 87.6669 41.1789 87.7894 41.2473C87.912 41.3156 88.011 41.4193 88.0817 41.5583C88.1524 41.6974 88.1901 41.8647 88.1901 42.0627V43.4437H87.6574V42.1169C87.6574 41.9637 87.6197 41.8388 87.542 41.7422C87.4642 41.6455 87.3558 41.5984 87.2144 41.5984C87.1225 41.5984 87.0353 41.629 86.9528 41.6903C86.8703 41.7516 86.802 41.8341 86.7501 41.9425C86.6983 42.0485 86.6676 42.1711 86.6629 42.3101V43.4461H86.1279V43.439Z" fill="white"/>
<path d="M90.2266 43.2734C90.1794 43.3394 90.097 43.3936 89.9744 43.4407C89.8519 43.4878 89.7128 43.509 89.5573 43.509C89.3381 43.509 89.166 43.4383 89.0435 43.2969C88.9209 43.1555 88.8597 42.9529 88.8597 42.6913V41.6284H88.4873V41.1947H88.8597V40.6621H89.3923V41.1947H90.071L90.1559 41.6284H89.3923V42.6913C89.3923 42.8138 89.4182 42.9034 89.4677 42.9646C89.5172 43.0259 89.5832 43.0566 89.6633 43.0566C89.7364 43.0566 89.8071 43.0401 89.8754 43.0071C89.9438 42.9741 90.0003 42.9293 90.0498 42.868L90.2289 43.2734H90.2266Z" fill="white"/>
</g>
</svg>
