<svg width="226" height="36" viewBox="0 0 226 36" fill="none" xmlns="http://www.w3.org/2000/svg">
<g clip-path="url(#clip0_109_4829)">
<path d="M71.6192 6.31445H63.2933V29.7145H71.6192C79.2606 29.7145 83.1942 25.7051 83.1942 17.8294C83.1942 9.95382 79.2588 6.31627 71.6192 6.31627V6.31445ZM71.4765 25.7323H68.511V10.2967H71.4765C76.0097 10.2967 78.1192 12.8167 78.1192 17.8294C78.1192 22.8422 76.0097 25.7341 71.4765 25.7341V25.7323Z" fill="white"/>
<path d="M53.6851 6.31445V19.5911L51.2723 15.3947H44.1618V6.31445H39.002V29.7145H44.1618V19.9195H53.6851V29.7145H58.8739V6.31445H53.6851Z" fill="white"/>
<path d="M90.4094 6.33984H92.6272V10.2296H95.8618L96.7071 12.149V6.33984H98.9249V16.3944H96.7071V12.1726H92.6272V16.3944H90.4094V6.33984Z" fill="white"/>
<path d="M103.678 12.5917L99.8568 6.33984H102.393L104.831 10.6469L107.269 6.33984H109.633L105.896 12.5663V16.4053H103.678V12.5899V12.5917Z" fill="white"/>
<path d="M110.563 12.394V6.33984H112.768V12.2107C112.768 13.7855 113.406 14.7833 114.827 14.7833C116.249 14.7833 116.873 13.7873 116.873 12.2107V6.33984H119.091V12.394C119.091 14.8922 117.67 16.603 114.827 16.603C111.984 16.603 110.563 14.8922 110.563 12.394Z" fill="white"/>
<path d="M120.867 6.33984H122.705L127.164 12.4194V6.33984H129.369V16.4071H127.544L123.072 10.2532V16.3944H120.867V6.33984Z" fill="white"/>
<path d="M139.525 11.2873C139.525 14.6708 138.14 16.3944 134.858 16.3944H131.157V6.33984H134.858C138.141 6.33984 139.525 7.94001 139.525 11.2873ZM134.797 14.5729C136.745 14.5729 137.345 13.4771 137.345 11.2873C137.345 9.09749 136.745 8.16134 134.797 8.16134H133.375V14.5729H134.797Z" fill="white"/>
<path d="M143.103 6.31445H145.308L149.29 16.3944H146.975L146.252 14.4368H143.276L142.81 12.7024L141.548 16.3944H139.268L143.103 6.31445ZM145.602 12.6516L144.157 8.73828L142.823 12.6516H145.604H145.602Z" fill="white"/>
<path d="M150.305 6.33984H152.523V16.3944H150.305V6.33984Z" fill="white"/>
<path d="M90.4146 19.6523H97.292V21.5646H92.6252V23.5747H96.2968L96.9723 25.5232H92.6252V27.8182H97.3895V29.7305H90.4146V19.6523Z" fill="white"/>
<path d="M98.6792 19.6523H100.521L104.991 25.7464V19.6523H107.202V29.7432H105.372L100.89 23.5747V29.7305H98.6792V19.6523Z" fill="white"/>
<path d="M108.86 19.6523H115.737V21.5646H111.07V23.5747H114.742L115.418 25.5232H111.07V27.8182H115.835V29.7305H108.86V19.6523Z" fill="white"/>
<path d="M117.125 19.6522H121.251C123.83 19.6522 125.082 21.1199 125.082 23.0067C125.082 24.5851 124.197 25.6338 122.664 26.0655L125.427 29.7285L122.971 29.7539L119.471 24.7212H120.908C122.284 24.7212 122.897 24.0554 122.897 23.0557C122.897 22.1178 122.27 21.5136 120.87 21.5136H119.322V29.7285H117.125V19.6504V19.6522Z" fill="white"/>
<path d="M130.695 21.3663C129.086 21.3663 127.932 22.551 127.932 24.7099C127.932 26.8689 129.111 28.0645 130.718 28.0645C131.64 28.0645 132.338 27.8177 132.794 27.337L132.806 25.9799H131.197L130.411 24.1911H134.759V28.0028C134.119 29.0768 132.425 29.9023 130.718 29.9023C127.574 29.9023 125.732 27.7923 125.732 24.7099C125.732 21.6275 127.549 19.5176 130.693 19.5176C132.438 19.5176 133.605 20.0854 134.278 20.7875L132.902 22.2934C132.375 21.7019 131.564 21.3681 130.691 21.3681L130.695 21.3663Z" fill="white"/>
<path d="M139.034 25.9187L135.203 19.6523H137.744L140.188 23.9702L142.631 19.6523H145.001L141.255 25.8933V29.7413H139.032V25.9169L139.034 25.9187Z" fill="white"/>
<path d="M150.701 28.1652C151.819 28.1652 152.444 27.6972 152.444 26.9189C152.444 26.2276 151.952 25.8575 150.97 25.6108L149.913 25.3514C148.194 24.9323 146.953 24.056 146.953 22.4159C146.953 20.7758 148.391 19.4805 150.822 19.4805C153.106 19.4805 154.468 20.6035 154.665 22.1819L152.431 22.6753C152.357 21.7374 151.781 21.2076 150.822 21.2076C149.863 21.2076 149.25 21.6757 149.25 22.3542C149.25 23.0328 149.693 23.3285 150.699 23.5752L151.768 23.8346C153.684 24.3027 154.739 25.179 154.739 26.8572C154.739 28.646 153.327 29.965 150.699 29.965C148.391 29.965 147.052 28.8674 146.646 27.1148L148.942 26.585C149.064 27.4359 149.678 28.1634 150.697 28.1634L150.701 28.1652Z" fill="white"/>
<path d="M155.171 24.7236C155.171 21.6394 157.136 19.5312 160.157 19.5312C163.179 19.5312 165.118 21.6412 165.118 24.7236C165.118 27.806 163.141 29.9178 160.157 29.9178C157.174 29.9178 155.171 27.8078 155.171 24.7236ZM160.157 28.0781C161.754 28.0781 162.933 26.8934 162.933 24.7236C162.933 22.5538 161.754 21.38 160.157 21.38C158.561 21.38 157.37 22.5647 157.37 24.7236C157.37 26.8826 158.55 28.0781 160.157 28.0781Z" fill="white"/>
<path d="M166.162 19.666H168.373V27.8446H173.285V29.7441H166.162V19.666Z" fill="white"/>
<path d="M174.158 25.7347V19.666H176.368V25.5496C176.368 27.128 177.008 28.1276 178.431 28.1276C179.854 28.1276 180.481 27.128 180.481 25.5496V19.666H182.704V25.7347C182.704 28.2383 181.279 29.9528 178.431 29.9528C175.583 29.9528 174.158 28.2383 174.158 25.7347Z" fill="white"/>
<path d="M183.712 19.666H192.038V21.5782H188.955V29.7441H186.731V21.5782H183.71V19.666H183.712Z" fill="white"/>
<path d="M193.119 19.666H195.342V29.7441H193.119V19.666Z" fill="white"/>
<path d="M196.459 24.7236C196.459 21.6394 198.424 19.5312 201.445 19.5312C204.467 19.5312 206.406 21.6412 206.406 24.7236C206.406 27.806 204.429 29.9178 201.445 29.9178C198.462 29.9178 196.459 27.8078 196.459 24.7236ZM201.445 28.0781C203.042 28.0781 204.221 26.8934 204.221 24.7236C204.221 22.5538 203.042 21.38 201.445 21.38C199.849 21.38 198.659 22.5647 198.659 24.7236C198.659 26.8826 199.838 28.0781 201.445 28.0781Z" fill="white"/>
<path d="M207.45 19.666H209.292L213.762 25.7601V19.666H215.973V29.7568H214.143L209.661 23.5884V29.7441H207.45V19.666Z" fill="white"/>
<path d="M220.96 28.1652C222.078 28.1652 222.702 27.6972 222.702 26.9189C222.702 26.2276 222.211 25.8575 221.229 25.6108L220.172 25.3514C218.453 24.9323 217.212 24.056 217.212 22.4159C217.212 20.7758 218.65 19.4805 221.081 19.4805C223.365 19.4805 224.727 20.6035 224.924 22.1819L222.69 22.6753C222.616 21.7374 222.04 21.2076 221.081 21.2076C220.122 21.2076 219.509 21.6757 219.509 22.3542C219.509 23.0328 219.952 23.3285 220.958 23.5752L222.027 23.8346C223.943 24.3027 224.998 25.179 224.998 26.8572C224.998 28.646 223.586 29.965 220.958 29.965C218.65 29.965 217.311 28.8674 216.905 27.1148L219.201 26.585C219.323 27.4359 219.937 28.1634 220.956 28.1634L220.96 28.1652Z" fill="white"/>
<path d="M-1 36.0007H18.5216L8.7617 19.0176L-1 36.0007Z" fill="white"/>
<path d="M19.6901 0H-1L30.0352 17.9991L19.6901 0Z" fill="white"/>
<path d="M19.6901 36L29.5295 18.879L0.0114136 1.75977L19.6901 36Z" fill="white"/>
</g>
<defs>
<clipPath id="clip0_109_4829">
<rect width="226" height="36" fill="white"/>
</clipPath>
</defs>
</svg>
