<svg xmlns="http://www.w3.org/2000/svg" width="30" height="40" viewBox="0 0 30 40">
  <g id="ico" transform="translate(-10)">
    <path id="패스_174" data-name="패스 174" d="M0,0H30V40H0Z" transform="translate(10)" fill="none"/>
    <path id="패스_175" data-name="패스 175" d="M9,3,9,4.667A1.667,1.667,0,0,1,10.667,3h6.667A1.667,1.667,0,0,1,19,4.667V6.333A1.667,1.667,0,0,1,17.333,8H10.667A1.667,1.667,0,0,1,9,6.333Z" transform="translate(6 2)" fill="none" stroke="#000" stroke-linecap="round" stroke-linejoin="round" stroke-width="1.5"/>
    <path id="패스_176" data-name="패스 176" d="M12,6V7.633a2.99,2.99,0,0,1-2.5,2.95A2.99,2.99,0,0,0,7,13.533V27.667A3.333,3.333,0,0,0,10.333,31h10a3.333,3.333,0,0,0,3.333-3.333V13.533a2.99,2.99,0,0,0-2.5-2.95,2.992,2.992,0,0,1-2.5-2.95V6" transform="translate(4.667 4)" fill="none" stroke="#000" stroke-linecap="round" stroke-linejoin="round" stroke-width="1.5"/>
    <path id="패스_177" data-name="패스 177" d="M7,12H23.667" transform="translate(4.667 8)" fill="none" stroke="#000" stroke-linecap="round" stroke-linejoin="round" stroke-width="1.5"/>
    <path id="패스_178" data-name="패스 178" d="M7,18H23.667" transform="translate(4.667 12)" fill="none" stroke="#000" stroke-linecap="round" stroke-linejoin="round" stroke-width="1.5"/>
    <path id="패스_179" data-name="패스 179" d="M11,15h3.333" transform="translate(7.333 10)" fill="none" stroke="#000" stroke-linecap="round" stroke-linejoin="round" stroke-width="1.5"/>
  </g>
</svg>
