<svg xmlns="http://www.w3.org/2000/svg" width="20" height="20" viewBox="0 0 20 20">
  <g id="Icon_20x20_Search" data-name="Icon / 20x20 / Search" transform="translate(-400 -1341)">
    <rect id="bg" width="20" height="20" transform="translate(400 1341)" fill="none"/>
    <g id="ico" transform="translate(403 1344)">
      <path id="패스_14806" data-name="패스 14806" d="M6.116,12.715A6.432,6.432,0,0,1-.25,6.232,6.432,6.432,0,0,1,6.116-.25a6.432,6.432,0,0,1,6.365,6.482A6.432,6.432,0,0,1,6.116,12.715Zm0-11.465A4.931,4.931,0,0,0,1.25,6.232a4.931,4.931,0,0,0,4.866,4.982,4.93,4.93,0,0,0,4.865-4.982A4.93,4.93,0,0,0,6.116,1.25Z" transform="translate(-0.5 -0.5)" fill="#999"/>
      <path id="패스_15542" data-name="패스 15542" d="M4.222,5.06a.748.748,0,0,1-.536-.225L-.536.525A.75.75,0,0,1-.525-.536.75.75,0,0,1,.536-.525l4.222,4.31A.75.75,0,0,1,4.222,5.06Z" transform="translate(9.778 9.664)" fill="#999"/>
    </g>
  </g>
</svg>
