<svg xmlns="http://www.w3.org/2000/svg" xmlns:xlink="http://www.w3.org/1999/xlink" width="205.24" height="48" viewBox="0 0 205.24 48">
  <defs>
    <linearGradient id="linear-gradient" x1="0.589" y1="0.5" x2="1" y2="0.5" gradientUnits="objectBoundingBox">
      <stop offset="0" stop-color="#fff"/>
      <stop offset="1" stop-color="#fff" stop-opacity="0"/>
    </linearGradient>
  </defs>
  <g id="스와이프_표시" data-name="스와이프 표시" transform="translate(-85.76 -1146)">
    <g id="ico_swipe" data-name="ico/swipe">
      <rect id="사각형_1515" data-name="사각형 1515" width="48" height="48" transform="translate(243 1146)" fill="#fff" opacity="0"/>
      <g id="그룹_5540" data-name="그룹 5540" transform="translate(250.501 1147.5)">
        <path id="패스_13872" data-name="패스 13872" d="M10.933,34.807a13.3,13.3,0,0,1-2.269-2.832c-2.411-3.918-7.145-9.841-7.145-9.841A3.486,3.486,0,0,1,6.44,17.2l3.121,3.226" transform="translate(0 2.712)" fill="none" stroke="#fff" stroke-linecap="round" stroke-linejoin="round" stroke-width="1.5"/>
        <path id="패스_13873" data-name="패스 13873" d="M8.394,23.095V3.41a2.9,2.9,0,1,1,5.8,0V17.149" transform="translate(1.268)" fill="none" stroke="#fff" stroke-linecap="round" stroke-linejoin="round" stroke-width="1.5"/>
        <path id="패스_13874" data-name="패스 13874" d="M13.287,14.257V12.41a2.8,2.8,0,1,1,5.6,0v3.036" transform="translate(2.172 1.605)" fill="none" stroke="#fff" stroke-linecap="round" stroke-linejoin="round" stroke-width="1.5"/>
        <path id="패스_13875" data-name="패스 13875" d="M18.181,15.257V13.41a2.8,2.8,0,1,1,5.6,0v3.036" transform="translate(2.919 1.784)" fill="none" stroke="#fff" stroke-linecap="round" stroke-linejoin="round" stroke-width="1.5"/>
        <path id="패스_13876" data-name="패스 13876" d="M23.074,16.257V14.41a2.8,2.8,0,1,1,5.6,0V27.688a12.362,12.362,0,0,1-3.042,7.9" transform="translate(3.626 1.855)" fill="none" stroke="#fff" stroke-linecap="round" stroke-linejoin="round" stroke-width="1.5"/>
        <rect id="사각형_1517" data-name="사각형 1517" width="22.002" height="7.029" transform="translate(8.704 37.471)" fill="none" stroke="#fff" stroke-linecap="round" stroke-linejoin="round" stroke-width="1.5"/>
      </g>
    </g>
    <g id="화살표" transform="translate(-1)">
      <rect id="사각형_1518" data-name="사각형 1518" width="136" height="2" rx="1" transform="translate(88 1169)" fill="url(#linear-gradient)"/>
      <path id="패스_13877" data-name="패스 13877" d="M-8917.728-119.18l-4.012,4.011,4.012,4.011" transform="translate(9009.499 1285.168)" fill="none" stroke="#fff" stroke-linecap="round" stroke-linejoin="round" stroke-width="2"/>
    </g>
  </g>
</svg>
