<svg xmlns="http://www.w3.org/2000/svg" width="159.919" height="56" viewBox="0 0 159.919 56">
  <g id="logo_white" data-name="logo white" transform="translate(0 0)">
    <path id="패스_13818" data-name="패스 13818" d="M17.187,26.6,7.822,37.8H7.74V26.6H0V53.737H7.74V41.97h.081l9.995,11.768H27.848L14.935,39.45,26.783,26.6Z" transform="translate(0 -3.832)" fill="#fff"/>
    <path id="패스_13819" data-name="패스 13819" d="M54.715,53.737h8.257L51.75,26.605H43.3L31.843,53.737h8.218l7.387-18.748h.076Z" transform="translate(-4.587 -3.832)" fill="#fff"/>
    <path id="패스_13820" data-name="패스 13820" d="M71.027,53.737H78.77V45.381h8.935c6.758,0,10.548-2.909,10.548-9.531,0-6.445-4.422-9.245-10.824-9.245h-16.4ZM78.77,32.294h5.86c3,0,5.564.039,5.564,3.791,0,3.636-2.764,3.636-5.564,3.636H78.77Z" transform="translate(-10.231 -3.832)" fill="#fff"/>
    <path id="패스_13821" data-name="패스 13821" d="M144.642,1.144l-22.2,22.2a2.943,2.943,0,0,0,0,4.165l21.37,21.378a2.959,2.959,0,0,0,4.18.016L169.38,27.535a2.967,2.967,0,0,0-.016-4.188L153.252,7.216a2.925,2.925,0,0,0-4.151-.01l-18.2,18.2,15.016,15.019,15-15L147.194,11.71l4.02-4.019L167.8,24.278a1.634,1.634,0,0,1,0,2.305L147.057,47.321a1.608,1.608,0,0,1-2.282,0l-20.76-20.771a1.624,1.624,0,0,1,.011-2.3L146.1,2.176a7.182,7.182,0,0,1,10.163.02l18.151,18.139a7.184,7.184,0,0,1,.01,10.164L151.06,53.868a7.271,7.271,0,0,1-10.235.052l-23.4-23.407a7.2,7.2,0,0,1,0-10.179L135.658,2.1a7.207,7.207,0,0,1,8.985-.959" transform="translate(-16.611 0)" fill="#fff"/>
  </g>
</svg>
