<svg width="1920" height="98" viewBox="0 0 1920 98" fill="none" xmlns="http://www.w3.org/2000/svg">
<path d="M-117 96C-97.3865 64.6667 -34.6232 2 59.5217 2C153.667 2 218.068 64.6667 236 96" stroke="white" stroke-width="4"/>
<path d="M246 96C265.614 64.6667 328.377 2 422.522 2C516.667 2 581.068 64.6667 599 96" stroke="white" stroke-width="4"/>
<path d="M609 96C628.614 64.6667 691.377 2 785.522 2C879.667 2 944.068 64.6667 962 96" stroke="white" stroke-width="4"/>
<path d="M972 96C991.614 64.6667 1054.38 2 1148.52 2C1242.67 2 1307.07 64.6667 1325 96" stroke="white" stroke-width="4"/>
<path d="M1335 96C1354.61 64.6667 1417.38 2 1511.52 2C1605.67 2 1670.07 64.6667 1688 96" stroke="white" stroke-width="4"/>
<path d="M1698 96C1717.61 64.6667 1780.38 2 1874.52 2C1968.67 2 2033.07 64.6667 2051 96" stroke="white" stroke-width="4"/>
</svg>
