<svg width="30" height="39" viewBox="0 0 30 39" fill="none" xmlns="http://www.w3.org/2000/svg">
<path d="M20 35C19.4444 36 17.6664 38 14.9994 38C12.3324 38 10.508 36 10 35" stroke="#171717" stroke-width="2"/>
<path d="M6.52101 11.2299C6.63542 10.3364 7.11081 9.51264 7.85597 8.91656C8.60113 8.32049 9.56357 7.99412 10.5586 8.00009L19.4818 8.00009C20.4768 7.99412 21.4392 8.32049 22.1844 8.91656C22.9296 9.51264 23.405 10.3364 23.5194 11.2299L29 31.7218L0.999998 31.7218L6.52101 11.2299Z" stroke="#171717" stroke-width="2" stroke-linecap="round" stroke-linejoin="round"/>
<path d="M18 7C18 5.34315 16.6569 4 15 4C13.3431 4 12 5.34315 12 7" stroke="#171717" stroke-width="2"/>
<circle cx="26.5" cy="3.5" r="3.5" fill="#094CF6"/>
</svg>
