<svg width="140" height="36" viewBox="0 0 140 36" fill="none" xmlns="http://www.w3.org/2000/svg">
<g clip-path="url(#clip0_3277_812)">
<path d="M19.7016 19.7507C15.9706 19.7507 12.7253 21.5013 10.7825 24.3247V36.0043H0V0H10.7825V12.5507C13.5156 10.8 16.3989 9.83027 19.7016 9.83027C23.0044 9.83027 25.8877 10.8 28.6164 12.5507V0H39.3989V36H28.6164V24.3204C26.6736 21.497 23.4327 19.7464 19.7016 19.7464V19.7507Z" fill="white"/>
<path d="M56.2789 7.03696H49.8368V1.80215H46.8123V15.2067H49.8368V9.65436H56.2789V15.2067H59.2991V1.80215H56.2789V7.03696Z" fill="white"/>
<path d="M121.95 2.56592C121.318 3.19238 121.292 4.11491 121.279 4.65126V15.2067H124.299V10.9287H130.714V15.2067H133.748V1.80215H124.321C123.424 1.81074 122.59 1.93517 121.954 2.57021L121.95 2.56592ZM125.071 4.41956H130.714V8.31133H124.299V5.18761C124.308 5.03314 124.277 4.75853 124.414 4.59119C124.555 4.41956 124.784 4.43243 125.071 4.42385V4.41956Z" fill="white"/>
<path d="M100.561 1.80215H91.1123V15.211H94.1369V4.41956H99.8063C100.093 4.42814 100.323 4.41956 100.46 4.5869C100.597 4.75424 100.566 5.02885 100.579 5.18332V15.2067H103.604V4.65555C103.586 4.1192 103.559 3.19667 102.928 2.57021C102.292 1.93946 101.458 1.81503 100.557 1.80215H100.561Z" fill="white"/>
<path d="M85.4164 11.8212C85.4075 11.98 85.434 12.2503 85.3016 12.4176C85.1559 12.5936 84.9263 12.5807 84.6481 12.585H78.9787V1.80215H75.9541V15.211H85.3987C86.2995 15.2024 87.134 15.0694 87.7654 14.4386C88.4012 13.8122 88.4233 12.8939 88.4409 12.3533V1.80215H85.4208V11.8212H85.4164Z" fill="white"/>
<path d="M118.77 4.65555C118.757 4.1192 118.731 3.19667 118.099 2.57021C117.468 1.93946 116.629 1.81503 115.733 1.80215H106.288V15.211H115.733C116.629 15.2024 117.468 15.0694 118.099 14.4386C118.731 13.8122 118.757 12.8939 118.77 12.3533V4.65555ZM115.755 11.8212C115.742 11.98 115.772 12.2503 115.64 12.4176C115.499 12.5936 115.26 12.5807 114.986 12.585H109.304V4.41956H114.986C115.26 4.42814 115.499 4.41956 115.64 4.5869C115.772 4.75424 115.742 5.02885 115.755 5.18332V11.8169V11.8212Z" fill="white"/>
<path d="M67.6311 7.66342L63.9618 1.80215H60.3677L66.015 10.2508V15.2067H69.2427V10.2508L74.8856 1.80215H71.2959L67.6311 7.66342Z" fill="white"/>
<path d="M136.772 1.80215V4.41956V12.585V15.2067H140V12.585V4.41956V1.80215H136.772Z" fill="white"/>
<path d="M107.485 31.5032V20.7933H104.345V34.2022H114.62V31.5032H107.485Z" fill="white"/>
<path d="M79.491 23.5738H87.6992V20.7933H76.3472V34.2022H87.6992V31.4217H79.491V28.7571H86.6219V26.2384H79.491V26.2212V23.5738Z" fill="white"/>
<path d="M93.4878 23.5738H101.7V20.7933H90.3484V34.2022H101.7V31.4217H93.4878V28.7571H100.619V26.2384H93.4878V26.2212V23.5738Z" fill="white"/>
<path d="M56.5173 26.0968H50.5874C50.0752 26.0968 49.8236 25.8436 49.8236 25.3373V24.1702C49.8236 23.7712 50.0752 23.5738 50.5874 23.5738H58.8929V20.7933H49.8412C47.8234 20.7933 46.8167 21.7416 46.8167 23.6382V26.1311C46.8167 27.959 47.7792 28.8772 49.7088 28.8772H55.6078C56.12 28.8772 56.3716 29.1304 56.3716 29.6367V30.8253C56.3716 31.2243 56.1155 31.426 55.6078 31.426H46.9359V34.2022H56.3716C58.3983 34.2022 59.4139 33.2496 59.4139 31.3445V28.8472C59.4139 27.015 58.4513 26.1011 56.5218 26.1011L56.5173 26.0968Z" fill="white"/>
<path d="M61.3833 20.7933V23.5738H66.0504V34.2022H69.1942V23.5738H73.8657V20.7933H61.3833Z" fill="white"/>
</g>
<defs>
<clipPath id="clip0_3277_812">
<rect width="140" height="36" fill="white"/>
</clipPath>
</defs>
</svg>
