<svg xmlns="http://www.w3.org/2000/svg" width="178" height="33.997" viewBox="0 0 178 33.997">
  <g id="logo" transform="translate(0 0.001)">
    <path id="패스_1" data-name="패스 1" d="M502.92,36.216a1.154,1.154,0,0,0-.926-1.346,28.157,28.157,0,0,0-6.728-.84h-.533a32.736,32.736,0,0,0-7.094.841,1.936,1.936,0,0,0-1.492,1.345l-2.656,12.5h4.188l2.415-11.367a19.068,19.068,0,0,1,3.938-.452h.712a16.466,16.466,0,0,1,3.752.454l-2.417,11.365h4.187Z" transform="translate(-344.115 -24.217)" fill="#e82717"/>
    <path id="패스_2" data-name="패스 2" d="M237.548,34.873a28.045,28.045,0,0,0-6.739-.844h-.536a33.776,33.776,0,0,0-8.223,1.087l.64,2.658a36.248,36.248,0,0,1,6.911-.885h.685a16.435,16.435,0,0,1,3.753.456l-.638,3H220.813l-1.487,7.007a1.166,1.166,0,0,0,1,1.348,28.307,28.307,0,0,0,6.661.818h.532a32.662,32.662,0,0,0,6.994-.817,1.973,1.973,0,0,0,1.589-1.356L238.47,36.2a1.152,1.152,0,0,0-.922-1.328m-9.693,11.784H227.5a14.9,14.9,0,0,1-3.734-.5l.627-2.954h8.4l-.627,2.952a17.468,17.468,0,0,1-3.954.5Z" transform="translate(-156.098 -24.216)" fill="#e82717"/>
    <path id="패스_3" data-name="패스 3" d="M304.745,36.216a1.17,1.17,0,0,0-1.01-1.371,28.278,28.278,0,0,0-6.649-.815h-.53a32.827,32.827,0,0,0-7,.817,1.969,1.969,0,0,0-1.581,1.349L285.6,47.359a1.15,1.15,0,0,0,.937,1.32,28,28,0,0,0,6.725.839h.535a33.8,33.8,0,0,0,8.22-1.085l-.636-2.658a36.368,36.368,0,0,1-6.913.884h-.685a16.493,16.493,0,0,1-3.753-.453l.638-3h12.587Zm-12.838,1.175a17.412,17.412,0,0,1,3.956-.5h.711a14.754,14.754,0,0,1,3.732.5l-.627,2.954h-8.4Z" transform="translate(-203.273 -24.216)" fill="#e82717"/>
    <path id="패스_4" data-name="패스 4" d="M173.728,16.374h-4.188l-3.659,17.211a17.456,17.456,0,0,1-3.955.5h-.708a14.789,14.789,0,0,1-3.734-.5l1.864-8.769a17.5,17.5,0,0,1,3.946-.5H164a14.689,14.689,0,0,1,3.452.43l-.77-3.2c-.743-.059-1.473-.093-2.159-.093H164a32.693,32.693,0,0,0-7.092.842,1.928,1.928,0,0,0-1.5,1.344l-2.366,11.132a1.168,1.168,0,0,0,1,1.353,28.308,28.308,0,0,0,6.664.818h.532a32.657,32.657,0,0,0,6.992-.816,1.953,1.953,0,0,0,1.592-1.37Z" transform="translate(-108.919 -11.66)" fill="#e82717"/>
    <path id="패스_5" data-name="패스 5" d="M426.426,41.51v0l.01-.041Z" transform="translate(-303.529 -29.515)" fill="#e82717"/>
    <path id="패스_6" data-name="패스 6" d="M437.309,36.215a1.156,1.156,0,0,0-.928-1.346,28.168,28.168,0,0,0-6.73-.84h-.532a32.706,32.706,0,0,0-7.092.841,1.925,1.925,0,0,0-1.5,1.34l-2.365,11.122a1.168,1.168,0,0,0,1,1.368,28.315,28.315,0,0,0,6.661.818h.534a32.667,32.667,0,0,0,7-.816,1.949,1.949,0,0,0,1.592-1.37Zm-6.3,9.94a17.446,17.446,0,0,1-3.959.5h-.711a14.828,14.828,0,0,1-3.736-.5l1.866-8.769a17.51,17.51,0,0,1,3.948-.5h.712a14.9,14.9,0,0,1,3.743.5Z" transform="translate(-297.623 -24.216)" fill="#e82717"/>
    <path id="패스_7" data-name="패스 7" d="M372.567,16.374H368.38l-3.655,17.211a17.507,17.507,0,0,1-3.956.5h-.711a14.786,14.786,0,0,1-3.732-.5l1.863-8.769a17.483,17.483,0,0,1,3.946-.5h.708a14.7,14.7,0,0,1,3.454.43l-.77-3.2c-.745-.059-1.473-.093-2.159-.093h-.531a32.816,32.816,0,0,0-7.092.84,1.951,1.951,0,0,0-1.493,1.332l-2.366,11.131a1.167,1.167,0,0,0,1,1.368,28.289,28.289,0,0,0,6.661.818h.53a32.671,32.671,0,0,0,6.994-.816,1.949,1.949,0,0,0,1.591-1.37Z" transform="translate(-250.447 -11.66)" fill="#e82717"/>
    <path id="패스_8" data-name="패스 8" d="M558.855,43.2H564.2l-.627,2.954a17.484,17.484,0,0,1-3.945.5h-.72a14.817,14.817,0,0,1-3.733-.5l1.865-8.769a17.485,17.485,0,0,1,3.946-.5h.71a30.773,30.773,0,0,1,6.519.883l1.768-2.658c-.342-.1-.69-.194-1.043-.281a29.239,29.239,0,0,0-6.714-.806h-.538a32.663,32.663,0,0,0-7.088.842,1.925,1.925,0,0,0-1.5,1.34l-2.366,11.122a1.165,1.165,0,0,0,1,1.368,28.3,28.3,0,0,0,6.663.818h.528a32.606,32.606,0,0,0,7-.818h.005a2.222,2.222,0,0,0,1.309-.8,1.536,1.536,0,0,0,.276-.569L569,40.345h-9.538Z" transform="translate(-391.985 -24.216)" fill="#e82717"/>
    <path id="패스_9" data-name="패스 9" d="M33.3,3.313C29.673.322,22.131,0,19.055,0c-.205,0-.345,0-.413,0s-.208,0-.414,0C15.153,0,7.61.322,3.986,3.313A11.141,11.141,0,0,0,0,12.3,24.412,24.412,0,0,0,4.882,26.919,17.174,17.174,0,0,0,18.642,34,17.175,17.175,0,0,0,32.4,26.919,24.408,24.408,0,0,0,37.284,12.3,11.142,11.142,0,0,0,33.3,3.313" transform="translate(0)" fill="#fff"/>
    <path id="패스_10" data-name="패스 10" d="M36.889,9.659C33.158,6.575,23.48,6.792,23.48,6.792S13.8,6.575,10.069,9.659A9.177,9.177,0,0,0,6.794,17.13c0,9.494,6.376,19.745,16.686,19.745S40.166,26.624,40.166,17.13a9.185,9.185,0,0,0-3.277-7.471" transform="translate(-4.838 -4.834)" fill="#1a1818"/>
    <path id="패스_11" data-name="패스 11" d="M43.163,24.958h-5L38.6,23.1l-2.526-4.092L34.661,25H22.367l-.009-.037-1.4-5.95L18.429,23.1l.437,1.858h-5L17.308,28.4h2.371L22.3,39.53l4.084,2.529L22.43,25.265l3.3,3.1h5.562l3.3-3.1L30.64,42.059l4.086-2.529L37.347,28.4h2.375Z" transform="translate(-9.872 -13.535)" fill="#fff"/>
    <path id="패스_12" data-name="패스 12" d="M33.3,3.314C29.673.323,22.131,0,19.055,0c-.205,0-.346,0-.413,0s-.208,0-.414,0C15.153,0,7.61.323,3.987,3.314A11.14,11.14,0,0,0,0,12.3,24.409,24.409,0,0,0,4.882,26.92,17.173,17.173,0,0,0,18.642,34,17.174,17.174,0,0,0,32.4,26.92,24.405,24.405,0,0,0,37.284,12.3,11.141,11.141,0,0,0,33.3,3.314M18.642,33.408C7.49,33.408.586,22.449.586,12.3A10.572,10.572,0,0,1,4.36,3.768c1.585-1.31,4.174-2.233,7.691-2.745A45.266,45.266,0,0,1,18.228.586c.212,0,.355,0,.414,0s.2,0,.413,0a45.239,45.239,0,0,1,6.176.437c3.52.512,6.106,1.436,7.692,2.745A10.568,10.568,0,0,1,36.7,12.3c0,10.152-6.9,21.112-18.055,21.112" transform="translate(0 -0.001)" fill="#1a1818"/>
    <rect id="사각형_1" data-name="사각형 1" width="178" height="33.997" transform="translate(0 -0.001)" fill="none"/>
  </g>
</svg>
