<svg xmlns="http://www.w3.org/2000/svg" width="24" height="24" viewBox="0 0 24 24">
  <g id="view_2" data-name="view 2" transform="translate(-4633 6238)" fill="#fff">
    <path d="M 4656.00048828125 -6214.5 L 4647 -6214.5 C 4646.72412109375 -6214.5 4646.5 -6214.724609375 4646.5 -6215.00048828125 L 4646.5 -6223.9990234375 C 4646.5 -6224.27490234375 4646.72412109375 -6224.49951171875 4647 -6224.49951171875 L 4656.00048828125 -6224.49951171875 C 4656.275390625 -6224.49951171875 4656.4990234375 -6224.27490234375 4656.4990234375 -6223.9990234375 L 4656.4990234375 -6215.00048828125 C 4656.4990234375 -6214.724609375 4656.275390625 -6214.5 4656.00048828125 -6214.5 Z M 4643.00048828125 -6214.5 L 4634 -6214.5 C 4633.72412109375 -6214.5 4633.49951171875 -6214.724609375 4633.49951171875 -6215.00048828125 L 4633.49951171875 -6223.9990234375 C 4633.49951171875 -6224.27490234375 4633.72412109375 -6224.49951171875 4634 -6224.49951171875 L 4643.00048828125 -6224.49951171875 C 4643.2763671875 -6224.49951171875 4643.50048828125 -6224.27490234375 4643.50048828125 -6223.9990234375 L 4643.50048828125 -6215.00048828125 C 4643.50048828125 -6214.724609375 4643.2763671875 -6214.5 4643.00048828125 -6214.5 Z M 4656.00048828125 -6227.50048828125 L 4647 -6227.50048828125 C 4646.72412109375 -6227.50048828125 4646.5 -6227.72509765625 4646.5 -6228.0009765625 L 4646.5 -6236.99951171875 C 4646.5 -6237.275390625 4646.72412109375 -6237.5 4647 -6237.5 L 4656.00048828125 -6237.5 C 4656.275390625 -6237.5 4656.4990234375 -6237.275390625 4656.4990234375 -6236.99951171875 L 4656.4990234375 -6228.0009765625 C 4656.4990234375 -6227.72509765625 4656.275390625 -6227.50048828125 4656.00048828125 -6227.50048828125 Z M 4643.00048828125 -6227.50048828125 L 4634 -6227.50048828125 C 4633.72412109375 -6227.50048828125 4633.49951171875 -6227.72509765625 4633.49951171875 -6228.0009765625 L 4633.49951171875 -6236.99951171875 C 4633.49951171875 -6237.275390625 4633.72412109375 -6237.5 4634 -6237.5 L 4643.00048828125 -6237.5 C 4643.2763671875 -6237.5 4643.50048828125 -6237.275390625 4643.50048828125 -6236.99951171875 L 4643.50048828125 -6228.0009765625 C 4643.50048828125 -6227.72509765625 4643.2763671875 -6227.50048828125 4643.00048828125 -6227.50048828125 Z" stroke="none"/>
    <path d="M 4656.00048828125 -6215 L 4655.9990234375 -6215.00048828125 L 4656.00048828125 -6223.99951171875 L 4647 -6223.9990234375 L 4647 -6215 L 4656.00048828125 -6215 M 4643.00048828125 -6215 L 4643.00048828125 -6223.99951171875 L 4633.99951171875 -6223.9990234375 L 4634 -6215 L 4643.00048828125 -6215 M 4656.00048828125 -6228.00048828125 L 4655.9990234375 -6228.0009765625 L 4656.00048828125 -6237 L 4647 -6236.99951171875 L 4647 -6228.00048828125 L 4656.00048828125 -6228.00048828125 M 4643.00048828125 -6228.00048828125 L 4643.00048828125 -6237 L 4633.99951171875 -6236.99951171875 L 4634 -6228.00048828125 L 4643.00048828125 -6228.00048828125 M 4656.00048828125 -6214 L 4647 -6214 C 4646.44775390625 -6214 4646 -6214.44775390625 4646 -6215.00048828125 L 4646 -6223.9990234375 C 4646 -6224.5517578125 4646.44775390625 -6224.99951171875 4647 -6224.99951171875 L 4656.00048828125 -6224.99951171875 C 4656.55126953125 -6224.99951171875 4656.9990234375 -6224.5517578125 4656.9990234375 -6223.9990234375 L 4656.9990234375 -6215.00048828125 C 4656.9990234375 -6214.44775390625 4656.55126953125 -6214 4656.00048828125 -6214 Z M 4643.00048828125 -6214 L 4634 -6214 C 4633.447265625 -6214 4632.99951171875 -6214.44775390625 4632.99951171875 -6215.00048828125 L 4632.99951171875 -6223.9990234375 C 4632.99951171875 -6224.5517578125 4633.447265625 -6224.99951171875 4634 -6224.99951171875 L 4643.00048828125 -6224.99951171875 C 4643.552734375 -6224.99951171875 4644.00048828125 -6224.5517578125 4644.00048828125 -6223.9990234375 L 4644.00048828125 -6215.00048828125 C 4644.00048828125 -6214.44775390625 4643.552734375 -6214 4643.00048828125 -6214 Z M 4656.00048828125 -6227.00048828125 L 4647 -6227.00048828125 C 4646.44775390625 -6227.00048828125 4646 -6227.4482421875 4646 -6228.0009765625 L 4646 -6236.99951171875 C 4646 -6237.55224609375 4646.44775390625 -6238 4647 -6238 L 4656.00048828125 -6238 C 4656.55126953125 -6238 4656.9990234375 -6237.55224609375 4656.9990234375 -6236.99951171875 L 4656.9990234375 -6228.0009765625 C 4656.9990234375 -6227.4482421875 4656.55126953125 -6227.00048828125 4656.00048828125 -6227.00048828125 Z M 4643.00048828125 -6227.00048828125 L 4634 -6227.00048828125 C 4633.447265625 -6227.00048828125 4632.99951171875 -6227.4482421875 4632.99951171875 -6228.0009765625 L 4632.99951171875 -6236.99951171875 C 4632.99951171875 -6237.55224609375 4633.447265625 -6238 4634 -6238 L 4643.00048828125 -6238 C 4643.552734375 -6238 4644.00048828125 -6237.55224609375 4644.00048828125 -6236.99951171875 L 4644.00048828125 -6228.0009765625 C 4644.00048828125 -6227.4482421875 4643.552734375 -6227.00048828125 4643.00048828125 -6227.00048828125 Z" stroke="none" fill="#000"/>
  </g>
</svg>
