<svg xmlns="http://www.w3.org/2000/svg" width="788.874" height="266.526" viewBox="0 0 788.874 266.526">
  <g id="그룹_41" data-name="그룹 41" transform="translate(-267.202)">
    <path id="대" d="M574.838,20.831v92.005H552.065V20.831H508.059l.079,155.914c-15.439,10.37-55.687,20.757-82.857,22.687V66.645h60.313V29H379.427V244.351c58.74-1.51,105.448-16.74,128.711-27.309l-.079,59.4h44.006V155.23h22.773V277.067h44.314V20.831Z" transform="translate(436.924 -10.541)" fill="#fff"/>
    <path id="현" d="M38.634,266.526V180.217H84.185v48.62H248.031v37.69Zm159.853-71.283V163.1H167.155V124.172h31.332V108.228H167.155V70.585h-25.47a56.94,56.94,0,0,1,12.488,36.11c0,37.986-30.154,62.387-70.163,62.387s-69.864-24.4-69.864-62.387A56.9,56.9,0,0,1,26.7,70.585H0V32.9H59.988L45.689,0h48.3l13.7,32.9h59.944v37.33h30.859V10.285h45.231V195.243ZM56.809,104.652c0,17.082,11.688,29.971,28.1,29.971,16.7,0,28.1-12.889,28.1-29.971,0-17.681-11.4-30.262-28.1-30.262C69.05,74.39,56.809,86.971,56.809,104.652Z" transform="translate(528.03)" fill="#fff"/>
    <path id="D" d="M303.576,233.462H270.962V64.427h32.613c49.867,0,73.073,27.6,73.073,82.48,0,56.449-23.207,86.555-73.073,86.555m1.569-212.627H213.57V277.058h91.575c84.049,0,127.327-43.907,127.327-130.151,0-85.3-43.278-126.072-127.327-126.072" transform="translate(53.632 -10.532)" fill="#fff"/>
  </g>
</svg>
