<svg xmlns="http://www.w3.org/2000/svg" width="1171.676" height="236.38" viewBox="0 0 1171.676 236.38">
  <defs>
    <style>
      .cls-1 {
        fill: none;
        stroke: #fff;
        stroke-width: 1.5px;
      }
    </style>
  </defs>
  <path id="main-con3-txt" class="cls-1" d="M-175.936,1.92a46.732,46.732,0,0,1-18.048-3.392,42.543,42.543,0,0,1-14.144-9.408,42.49,42.49,0,0,1-9.28-14.4,49,49,0,0,1-3.328-18.24A48.5,48.5,0,0,1-217.408-61.7a43.338,43.338,0,0,1,9.28-14.4,42.066,42.066,0,0,1,14.144-9.472,46.732,46.732,0,0,1,18.048-3.392,46.868,46.868,0,0,1,17.984,3.392A41.915,41.915,0,0,1-143.744-76.1a43.338,43.338,0,0,1,9.28,14.4,48.5,48.5,0,0,1,3.328,18.176,49,49,0,0,1-3.328,18.24,42.49,42.49,0,0,1-9.28,14.4,42.388,42.388,0,0,1-14.208,9.408A46.868,46.868,0,0,1-175.936,1.92Zm0-18.432A24.377,24.377,0,0,0-165.7-18.56a21.315,21.315,0,0,0,7.552-5.7,26.14,26.14,0,0,0,4.736-8.576,33.21,33.21,0,0,0,1.664-10.688,33.21,33.21,0,0,0-1.664-10.688,26.14,26.14,0,0,0-4.736-8.576,21.315,21.315,0,0,0-7.552-5.7,24.377,24.377,0,0,0-10.24-2.048,24.377,24.377,0,0,0-10.24,2.048,21.315,21.315,0,0,0-7.552,5.7,26.14,26.14,0,0,0-4.736,8.576,33.21,33.21,0,0,0-1.664,10.688,33.21,33.21,0,0,0,1.664,10.688,26.14,26.14,0,0,0,4.736,8.576,21.315,21.315,0,0,0,7.552,5.7A24.377,24.377,0,0,0-175.936-16.512ZM-78.656,1.92A46.732,46.732,0,0,1-96.7-1.472a42.543,42.543,0,0,1-14.144-9.408,42.49,42.49,0,0,1-9.28-14.4,49,49,0,0,1-3.328-18.24A48.5,48.5,0,0,1-120.128-61.7a43.338,43.338,0,0,1,9.28-14.4A42.066,42.066,0,0,1-96.7-85.568,46.732,46.732,0,0,1-78.656-88.96q13.824,0,23.616,5.568a43.45,43.45,0,0,1,15.68,15.04L-54.08-57.216a33.672,33.672,0,0,0-9.6-9.728q-5.5-3.584-14.592-3.584a24.819,24.819,0,0,0-10.3,2.048,21.787,21.787,0,0,0-7.68,5.7,26.4,26.4,0,0,0-4.864,8.576,32.087,32.087,0,0,0-1.728,10.688,32.087,32.087,0,0,0,1.728,10.688,26.4,26.4,0,0,0,4.864,8.576,21.787,21.787,0,0,0,7.68,5.7,24.819,24.819,0,0,0,10.3,2.048q9.088,0,14.592-3.584a33.672,33.672,0,0,0,9.6-9.728l14.72,11.136A43.45,43.45,0,0,1-55.04-3.648Q-64.832,1.92-78.656,1.92Zm49.664-88.96h62.72v17.28H-9.024v17.152h36.48v17.28H-9.024V-17.28H33.728V0h-62.72Zm99.84,0H94.656L127.808,0H107.2l-6.144-16.64H64.448L58.3,0H37.7Zm0,53.12H94.656l-11.9-32.256ZM135.36-87.04h17.408L196.16-33.024V-87.04h19.968V0h-17.28l-43.52-54.016V0H135.36ZM-562.816,74.24h-25.728V56.96h71.424V74.24h-25.728V144h-19.968Zm86.016,35.968h-10.368V144h-19.968V56.96h40.32a34.9,34.9,0,0,1,11.584,1.856,27.329,27.329,0,0,1,9.216,5.312,23.979,23.979,0,0,1,6.08,8.384,27.131,27.131,0,0,1,2.176,11.072q0,9.344-4.864,15.808a26.053,26.053,0,0,1-12.928,9.152l26.624,35.072V144h-23.68Zm7.808-17.28q5.376,0,8-2.5a9,9,0,0,0,2.624-6.848,9,9,0,0,0-2.624-6.848q-2.624-2.5-8-2.5h-18.176V92.928Zm71.68-35.968H-373.5L-340.352,144H-360.96l-6.144-16.64h-36.608L-409.856,144h-20.608Zm0,53.12H-373.5l-11.9-32.256ZM-332.8,56.96h17.408L-272,110.976V56.96h19.968V144h-17.28l-43.52-54.016V144H-332.8Zm128.512,88.96a50.188,50.188,0,0,1-13.824-1.728,44.3,44.3,0,0,1-10.688-4.544,40.2,40.2,0,0,1-8-6.208,55.121,55.121,0,0,1-5.76-6.848l12.672-12.928a43.263,43.263,0,0,0,4.416,5.44,30.535,30.535,0,0,0,5.7,4.672,28.96,28.96,0,0,0,7.168,3.264,29.6,29.6,0,0,0,8.7,1.216q6.784,0,10.24-2.816a8.6,8.6,0,0,0,3.456-6.912,8.547,8.547,0,0,0-.512-2.944,6.619,6.619,0,0,0-1.856-2.624,12.529,12.529,0,0,0-3.712-2.176,25.887,25.887,0,0,0-6.08-1.472l-6.912-1.024a44.228,44.228,0,0,1-10.944-3.008,29.209,29.209,0,0,1-8.448-5.376,23.072,23.072,0,0,1-5.44-7.552,23.077,23.077,0,0,1-1.92-9.536,27.159,27.159,0,0,1,2.24-11.008,24.926,24.926,0,0,1,6.464-8.832,30.73,30.73,0,0,1,10.24-5.824,40.379,40.379,0,0,1,13.44-2.112,42.912,42.912,0,0,1,18.432,3.84,36.714,36.714,0,0,1,13.184,9.984L-184.32,82.176a31.216,31.216,0,0,0-9.088-6.976,23.437,23.437,0,0,0-10.624-2.5q-5.376,0-8.384,2.432a7.015,7.015,0,0,0-3.008,5.5,7.024,7.024,0,0,0,2.3,5.184q2.3,2.24,7.424,3.008l6.912,1.024q13.952,2.048,21.568,8.9t7.616,18.368a26.367,26.367,0,0,1-2.624,11.84,27.2,27.2,0,0,1-7.232,9.088,33.144,33.144,0,0,1-10.944,5.824A44.947,44.947,0,0,1-204.288,145.92Zm46.72-88.96h61.44V74.24H-137.6V92.032h36.48v17.28H-137.6V144h-19.968Zm111.744,88.96a46.732,46.732,0,0,1-18.048-3.392,42.543,42.543,0,0,1-14.144-9.408,42.49,42.49,0,0,1-9.28-14.4,49,49,0,0,1-3.328-18.24A48.5,48.5,0,0,1-87.3,82.3a43.338,43.338,0,0,1,9.28-14.4,42.066,42.066,0,0,1,14.144-9.472A46.732,46.732,0,0,1-45.824,55.04,46.868,46.868,0,0,1-27.84,58.432,41.915,41.915,0,0,1-13.632,67.9a43.338,43.338,0,0,1,9.28,14.4A48.5,48.5,0,0,1-1.024,100.48a49,49,0,0,1-3.328,18.24,42.49,42.49,0,0,1-9.28,14.4,42.388,42.388,0,0,1-14.208,9.408A46.868,46.868,0,0,1-45.824,145.92Zm0-18.432a24.377,24.377,0,0,0,10.24-2.048,21.315,21.315,0,0,0,7.552-5.7,26.14,26.14,0,0,0,4.736-8.576,33.21,33.21,0,0,0,1.664-10.688A33.21,33.21,0,0,0-23.3,89.792a26.14,26.14,0,0,0-4.736-8.576,21.315,21.315,0,0,0-7.552-5.7,24.377,24.377,0,0,0-10.24-2.048,24.377,24.377,0,0,0-10.24,2.048,21.315,21.315,0,0,0-7.552,5.7,26.14,26.14,0,0,0-4.736,8.576,33.21,33.21,0,0,0-1.664,10.688,33.21,33.21,0,0,0,1.664,10.688,26.14,26.14,0,0,0,4.736,8.576,21.315,21.315,0,0,0,7.552,5.7A24.377,24.377,0,0,0-45.824,127.488ZM41.6,110.208H31.232V144H11.264V56.96h40.32a34.9,34.9,0,0,1,11.584,1.856,27.329,27.329,0,0,1,9.216,5.312,23.979,23.979,0,0,1,6.08,8.384A27.131,27.131,0,0,1,80.64,83.584q0,9.344-4.864,15.808a26.053,26.053,0,0,1-12.928,9.152l26.624,35.072V144H65.792Zm7.808-17.28q5.376,0,8-2.5a9,9,0,0,0,2.624-6.848,9,9,0,0,0-2.624-6.848q-2.624-2.5-8-2.5H31.232V92.928ZM97.28,56.96h26.752L146.56,118.4l22.528-61.44H195.84V144H175.872V87.424L155.52,144H137.6L117.248,87.424V144H97.28Zm139.264,0h23.808L293.5,144H272.9l-6.144-16.64H230.144L224,144H203.392Zm0,53.12h23.808l-11.9-32.256Zm74.5-35.84H285.312V56.96h71.424V74.24H331.008V144H311.04Zm55.68-17.28h19.968V144H366.72Zm77.056,88.96a46.732,46.732,0,0,1-18.048-3.392A41.762,41.762,0,0,1,402.3,118.72a49,49,0,0,1-3.328-18.24A48.5,48.5,0,0,1,402.3,82.3a43.338,43.338,0,0,1,9.28-14.4,42.066,42.066,0,0,1,14.144-9.472,49.54,49.54,0,0,1,36.032,0A41.915,41.915,0,0,1,475.968,67.9a43.338,43.338,0,0,1,9.28,14.4,48.5,48.5,0,0,1,3.328,18.176,49,49,0,0,1-3.328,18.24,41.62,41.62,0,0,1-23.488,23.808A46.868,46.868,0,0,1,443.776,145.92Zm0-18.432a24.377,24.377,0,0,0,10.24-2.048,21.315,21.315,0,0,0,7.552-5.7,26.14,26.14,0,0,0,4.736-8.576,35.157,35.157,0,0,0,0-21.376,26.14,26.14,0,0,0-4.736-8.576,21.315,21.315,0,0,0-7.552-5.7,26.624,26.624,0,0,0-20.48,0,21.315,21.315,0,0,0-7.552,5.7,26.14,26.14,0,0,0-4.736,8.576,35.157,35.157,0,0,0,0,21.376,26.14,26.14,0,0,0,4.736,8.576,21.315,21.315,0,0,0,7.552,5.7A24.378,24.378,0,0,0,443.776,127.488ZM500.864,56.96h17.408l43.392,54.016V56.96h19.968V144h-17.28l-43.52-54.016V144H500.864Z" transform="translate(589.294 89.71)"/>
</svg>
