<svg xmlns="http://www.w3.org/2000/svg" width="186" height="28" viewBox="0 0 186 28">
  <g id="logo-color" transform="translate(0 0.088)">
    <rect id="container" width="186" height="28" transform="translate(0 -0.088)" fill="#e6e6e6" opacity="0"/>
    <g id="그룹_8632" data-name="그룹 8632">
      <path id="패스_15504" data-name="패스 15504" d="M0,113.126H16.065L8.033,99.213Z" transform="translate(0 -85.301)" fill="#00702d"/>
      <path id="패스_15505" data-name="패스 15505" d="M0,0,24.1,13.913,16.065,0Z" fill="#50cc1a"/>
      <path id="패스_15506" data-name="패스 15506" d="M16.065,27.826,24.1,13.913,0,0Z" fill="#00a12f"/>
    </g>
    <path id="패스_15507" data-name="패스 15507" d="M778.361,37.77h-6.241V35.148h9.614v1.19c0,5.2-3.87,8.59-8.945,10.051l-1.216-2.746c4.511-1.014,6.635-3.6,6.789-5.873m-.876,12.385H789v2.667H774.288V46.563h3.2Zm4.161-10.578h3.832V34.729H788.7V47.665h-3.219V42.288h-3.832Z" transform="translate(-663.37 -29.859)" fill="#002575"/>
    <path id="패스_15508" data-name="패스 15508" d="M911.553,36.452l.022-1.727h3.241v1.727c0,2.336,1.927,3.923,4.358,4.826l-1.467,2.446A8.561,8.561,0,0,1,913.2,40.2a8.454,8.454,0,0,1-4.752,4.09l-1.424-2.623c2.431-.793,4.489-2.768,4.533-5.214M910.458,47.6h10.73v-.882h-10.73V44.488h13.928v5.245H913.655v.9h11.409v2.248H910.458Zm7.424-10.308h3.285V34.725h3.219v8.661h-3.219V40h-3.285Z" transform="translate(-779.824 -29.855)" fill="#002575"/>
    <path id="패스_15509" data-name="패스 15509" d="M1058.589,38.1H1052V35.48h9.789v2.005a14.6,14.6,0,0,1-8.584,13.377l-1.708-2.358c5.046-2.575,6.964-5.884,7.1-10.4m6.35-3.218h3.154V52.956h-3.154Z" transform="translate(-904.037 -29.992)" fill="#002575"/>
    <path id="패스_15510" data-name="패스 15510" d="M1193.976,37.968h-5.168V35.345h8.278v2.072c0,.419-.022.815-.044,1.212h1.971v-3.9h3.066V52.733h-3.066V46.761H1196.6V44.028h2.409V41.361h-2.387a14.009,14.009,0,0,1-6.561,8.776l-1.774-2.3a10.829,10.829,0,0,0,5.685-9.875m12.741,14.854h-3.132V34.728h3.132Z" transform="translate(-1021.65 -29.857)" fill="#002575"/>
    <path id="패스_15511" data-name="패스 15511" d="M778.361,37.77h-6.241V35.148h9.614v1.19c0,5.2-3.87,8.59-8.945,10.051l-1.216-2.746c4.511-1.014,6.635-3.6,6.789-5.873m-.876,12.385H789v2.667H774.288V46.563h3.2Zm4.161-10.578h3.832V34.729H788.7V47.665h-3.219V42.288h-3.832Z" transform="translate(-663.37 -29.859)" fill="#002575"/>
    <path id="패스_15512" data-name="패스 15512" d="M911.553,36.452l.022-1.727h3.241v1.727c0,2.336,1.927,3.923,4.358,4.826l-1.467,2.446A8.561,8.561,0,0,1,913.2,40.2a8.454,8.454,0,0,1-4.752,4.09l-1.424-2.623c2.431-.793,4.489-2.768,4.533-5.214M910.458,47.6h10.73v-.882h-10.73V44.488h13.928v5.245H913.655v.9h11.409v2.248H910.458Zm7.424-10.308h3.285V34.725h3.219v8.661h-3.219V40h-3.285Z" transform="translate(-779.824 -29.855)" fill="#002575"/>
    <path id="패스_15513" data-name="패스 15513" d="M1058.589,38.1H1052V35.48h9.789v2.005a14.6,14.6,0,0,1-8.584,13.377l-1.708-2.358c5.046-2.575,6.964-5.884,7.1-10.4m6.35-3.218h3.154V52.956h-3.154Z" transform="translate(-904.037 -29.992)" fill="#002575"/>
    <path id="패스_15514" data-name="패스 15514" d="M1193.976,37.968h-5.168V35.345h8.278v2.072c0,.419-.022.815-.044,1.212h1.971v-3.9h3.066V52.733h-3.066V46.761H1196.6V44.028h2.409V41.361h-2.387a14.009,14.009,0,0,1-6.561,8.776l-1.774-2.3a10.829,10.829,0,0,0,5.685-9.875m12.741,14.854h-3.132V34.728h3.132Z" transform="translate(-1021.65 -29.857)" fill="#002575"/>
    <path id="패스_15515" data-name="패스 15515" d="M510.215,120.252H507v6.093h14.781v-2.66H510.215Z" transform="translate(-435.901 -103.389)" fill="#002575"/>
    <path id="패스_15516" data-name="패스 15516" d="M646.478,34.714v6.495h-1.607V34.714h-3.107l.006,11.006a15.507,15.507,0,0,1-5.849,1.6V37.948h4.258V35.29h-7.494v15.2a24.458,24.458,0,0,0,9.086-1.928l-.006,4.193h3.107V44.2h1.607v8.6h3.128V34.714Z" transform="translate(-543.96 -29.846)" fill="#002575"/>
    <path id="패스_15517" data-name="패스 15517" d="M498.435,37.068a4.022,4.022,0,0,0-.882-2.549h1.8v2.658h2.212V38.3h-2.212V41.05h2.212v2.269h3.193V30.262h-3.193v4.232h-2.179V31.858h-4.231l-.966-2.322h-3.41l1.009,2.322h-4.235v2.66h1.885a4.017,4.017,0,0,0-.886,2.549c0,2.682,2.108,4.4,4.932,4.4s4.953-1.722,4.953-4.4m-6.873-.144a2.008,2.008,0,0,1,1.984-2.136,2.131,2.131,0,1,1-1.984,2.136" transform="translate(-419.179 -25.395)" fill="#002575"/>
    <path id="패스_15518" data-name="패스 15518" d="M510.215,120.252H507v6.093h14.781v-2.66H510.215Z" transform="translate(-435.901 -103.389)" fill="#002575"/>
    <path id="패스_15519" data-name="패스 15519" d="M646.478,34.714v6.495h-1.607V34.714h-3.107l.006,11.006a15.507,15.507,0,0,1-5.849,1.6V37.948h4.258V35.29h-7.494v15.2a24.458,24.458,0,0,0,9.086-1.928l-.006,4.193h3.107V44.2h1.607v8.6h3.128V34.714Z" transform="translate(-543.96 -29.846)" fill="#002575"/>
    <path id="패스_15520" data-name="패스 15520" d="M498.435,37.068a4.022,4.022,0,0,0-.882-2.549h1.8v2.658h2.212V38.3h-2.212V41.05h2.212v2.269h3.193V30.262h-3.193v4.232h-2.179V31.858h-4.231l-.966-2.322h-3.41l1.009,2.322h-4.235v2.66h1.885a4.017,4.017,0,0,0-.886,2.549c0,2.682,2.108,4.4,4.932,4.4s4.953-1.722,4.953-4.4m-6.873-.144a2.008,2.008,0,0,1,1.984-2.136,2.131,2.131,0,1,1-1.984,2.136" transform="translate(-419.179 -25.395)" fill="#002575"/>
    <path id="패스_15521" data-name="패스 15521" d="M362.72,34.721h-6.464V52.808h6.464c5.933,0,8.988-3.1,8.988-9.187,0-6.022-3.055-8.9-8.988-8.9m-.111,15.01h-2.3V37.8h2.3c3.52,0,5.158,1.948,5.158,5.822,0,3.985-1.638,6.11-5.158,6.11" transform="translate(-306.297 -29.852)" fill="#002575"/>
    <path id="패스_15522" data-name="패스 15522" d="M233.155,34.721V44.983l-1.873-3.244h-5.521V34.721h-4.007V52.808h4.007V45.237h7.394v7.571h4.029V34.721Z" transform="translate(-190.656 -29.852)" fill="#002575"/>
    <path id="패스_15523" data-name="패스 15523" d="M362.72,34.721h-6.464V52.808h6.464c5.933,0,8.988-3.1,8.988-9.187,0-6.022-3.055-8.9-8.988-8.9m-.111,15.01h-2.3V37.8h2.3c3.52,0,5.158,1.948,5.158,5.822,0,3.985-1.638,6.11-5.158,6.11" transform="translate(-306.297 -29.852)" fill="#002575"/>
    <path id="패스_15524" data-name="패스 15524" d="M233.155,34.721V44.983l-1.873-3.244h-5.521V34.721h-4.007V52.808h4.007V45.237h7.394v7.571h4.029V34.721Z" transform="translate(-190.656 -29.852)" fill="#002575"/>
    <rect id="사각형_3462" data-name="사각형 3462" width="185.066" height="27.826" fill="none"/>
  </g>
</svg>
