<svg width="52" height="52" viewBox="0 0 52 52" fill="none" xmlns="http://www.w3.org/2000/svg">
<path d="M0.5 4C0.5 2.067 2.067 0.5 4 0.5H48C49.933 0.5 51.5 2.067 51.5 4V48C51.5 49.933 49.933 51.5 48 51.5H4C2.067 51.5 0.5 49.933 0.5 48V4Z" fill="white"/>
<path d="M0.5 4C0.5 2.067 2.067 0.5 4 0.5H48C49.933 0.5 51.5 2.067 51.5 4V48C51.5 49.933 49.933 51.5 48 51.5H4C2.067 51.5 0.5 49.933 0.5 48V4Z" stroke="#D3D8E2"/>
<g clip-path="url(#clip0_507_2458)">
<path d="M33.5495 27.53C33.2295 28.95 32.5195 30.29 31.4095 31.41C28.2895 34.54 23.2195 34.54 20.0995 31.41C16.9695 28.28 16.9695 23.22 20.0995 20.1C23.2195 16.97 28.2795 16.97 31.3995 20.1C32.5095 21.21 33.2195 22.55 33.5395 23.98L34.7595 20.76" stroke="#043B72" stroke-width="1.5" stroke-linecap="round" stroke-linejoin="round"/>
<path d="M30.7598 22.75L33.5498 23.97" stroke="#043B72" stroke-width="1.5" stroke-linecap="round" stroke-linejoin="round"/>
</g>
<defs>
<clipPath id="clip0_507_2458">
<rect width="18.51" height="17.5" fill="white" transform="translate(17 17)"/>
</clipPath>
</defs>
</svg>
