<svg width="83" height="24" viewBox="0 0 83 24" fill="none" xmlns="http://www.w3.org/2000/svg">
<path d="M2 5H22V7H2V5Z" fill="black"/>
<path d="M2 11H22V13H2V11Z" fill="black"/>
<path d="M2 17H22V19H2V17Z" fill="black"/>
<path d="M8 6C8 7.10457 7.10457 8 6 8C4.89543 8 4 7.10457 4 6C4 4.89543 4.89543 4 6 4C7.10457 4 8 4.89543 8 6Z" fill="white"/>
<path fill-rule="evenodd" clip-rule="evenodd" d="M6 7C6.55228 7 7 6.55228 7 6C7 5.44772 6.55228 5 6 5C5.44772 5 5 5.44772 5 6C5 6.55228 5.44772 7 6 7ZM6 8C7.10457 8 8 7.10457 8 6C8 4.89543 7.10457 4 6 4C4.89543 4 4 4.89543 4 6C4 7.10457 4.89543 8 6 8Z" fill="black"/>
<path d="M8 18C8 19.1046 7.10457 20 6 20C4.89543 20 4 19.1046 4 18C4 16.8954 4.89543 16 6 16C7.10457 16 8 16.8954 8 18Z" fill="white"/>
<path fill-rule="evenodd" clip-rule="evenodd" d="M6 19C6.55228 19 7 18.5523 7 18C7 17.4477 6.55228 17 6 17C5.44772 17 5 17.4477 5 18C5 18.5523 5.44772 19 6 19ZM6 20C7.10457 20 8 19.1046 8 18C8 16.8954 7.10457 16 6 16C4.89543 16 4 16.8954 4 18C4 19.1046 4.89543 20 6 20Z" fill="black"/>
<path d="M20 12C20 13.1046 19.1046 14 18 14C16.8954 14 16 13.1046 16 12C16 10.8954 16.8954 10 18 10C19.1046 10 20 10.8954 20 12Z" fill="white"/>
<path fill-rule="evenodd" clip-rule="evenodd" d="M18 13C18.5523 13 19 12.5523 19 12C19 11.4477 18.5523 11 18 11C17.4477 11 17 11.4477 17 12C17 12.5523 17.4477 13 18 13ZM18 14C19.1046 14 20 13.1046 20 12C20 10.8954 19.1046 10 18 10C16.8954 10 16 10.8954 16 12C16 13.1046 16.8954 14 18 14Z" fill="black"/>
<path d="M40.752 6.16V8.128H35.824V11.216H40.032V13.2H35.824V18H33.456V6.16H40.752ZM44.8634 6.16V18H42.4954V6.16H44.8634ZM49.8246 6.16V16.016H54.6246V18H47.4566V6.16H49.8246ZM53.2231 8.128V6.16H62.2791V8.128H58.9191V18H56.5511V8.128H53.2231ZM71.1431 6.16V8.128H66.2471V10.864H70.4071V12.848H66.2471V16.016H71.3191V18H63.8791V6.16H71.1431ZM77.4189 13.52H75.7709V18H73.4029V6.16H77.5309C80.0269 6.16 81.9789 7.008 81.9789 9.744C81.9789 11.552 81.0829 12.624 79.7229 13.152L82.4909 18H79.8509L77.4189 13.52ZM77.3069 11.648C78.8429 11.648 79.6589 11.024 79.6589 9.744C79.6589 8.464 78.8429 8.032 77.3069 8.032H75.7709V11.648H77.3069Z" fill="black"/>
</svg>
