<svg width="817" height="25" viewBox="0 0 817 25" fill="none" xmlns="http://www.w3.org/2000/svg">
<path d="M15.03 20.548H12.78V3.952H15.03V20.548ZM11.592 4.33V19.828H9.378V14.392H7.074V12.484H9.378V10.234H7.38C6.642 12.97 4.986 15.292 1.89 17.11L0.54 15.454C3.798 13.438 5.274 11.08 5.562 7.822H1.476V5.932H7.92C7.92 6.778 7.866 7.57 7.776 8.344H9.378V4.33H11.592ZM30.0586 12.484V20.548H27.6826V3.952H30.0586V10.522H32.2366V12.484H30.0586ZM16.8646 11.512C19.3846 10.792 20.5546 9.028 20.6986 7.21H17.4586V5.284H26.4226V7.21H23.1466C23.2906 8.884 24.4606 10.486 26.9086 11.206L25.7926 13.042C23.9206 12.52 22.6966 11.44 21.9586 10.072C21.2386 11.584 19.9606 12.79 18.0166 13.366L16.8646 11.512ZM23.1286 15.382C24.4246 15.31 25.6486 15.202 26.8186 15.058L27.0166 16.768C23.5246 17.434 19.8526 17.398 17.0626 17.398L16.7926 15.472C17.9626 15.472 19.2946 15.472 20.7346 15.454V12.628H23.1286V15.382ZM33.7652 11.89C37.2752 11.368 39.1472 9.28 39.3812 7.12H34.4132V5.23H46.9052V7.12H41.9372C42.1352 9.28 44.1152 11.278 47.6432 11.8L46.7432 13.672C43.7012 13.15 41.7572 11.764 40.6772 9.82C39.6512 11.854 37.5812 13.24 34.6832 13.762L33.7652 11.89ZM48.1832 18.622H33.1712V16.696H39.4892V13.042H41.8652V16.696H48.1832V18.622ZM63.1938 20.548H60.8178V3.97H63.1938V20.548ZM49.7838 7.66V5.806H53.5818V4.024H55.9578V5.806H59.7378V7.66H49.7838ZM55.9578 15.742C57.3258 15.67 58.6578 15.598 59.9538 15.4L60.1338 17.11C56.5158 17.776 52.6638 17.794 49.7478 17.794L49.4598 15.868C50.7018 15.868 52.0698 15.886 53.5818 15.832V14.428C51.7818 14.086 50.6478 12.97 50.6478 11.44C50.6478 9.568 52.3398 8.308 54.7698 8.308C57.1638 8.308 58.8738 9.568 58.8738 11.44C58.8738 12.97 57.7578 14.086 55.9578 14.428V15.742ZM52.9158 11.44C52.9158 12.286 53.6718 12.754 54.7698 12.754C55.9218 12.754 56.6238 12.286 56.6238 11.44C56.6238 10.576 55.9218 10.108 54.7698 10.108C53.6718 10.108 52.9158 10.576 52.9158 11.44Z" fill="#043B72"/>
<path d="M114.262 11.152C110.716 11.152 108.304 9.82 108.304 7.714C108.304 5.626 110.716 4.276 114.262 4.276C117.862 4.276 120.22 5.626 120.22 7.714C120.22 9.82 117.862 11.152 114.262 11.152ZM114.262 6.166C112.156 6.166 110.878 6.688 110.878 7.714C110.878 8.74 112.156 9.262 114.262 9.262C116.368 9.262 117.664 8.74 117.664 7.714C117.664 6.688 116.368 6.166 114.262 6.166ZM121.786 13.906H115.63V16.75H113.2V13.906H106.774V12.016H121.786V13.906ZM120.148 18.37V20.26H108.52V15.292H110.932V18.37H120.148ZM137.949 13.708H122.973V11.836H126.339V9.838C125.097 9.28 124.467 8.47 124.467 7.408C124.467 5.428 126.807 4.222 130.461 4.222C134.133 4.222 136.473 5.428 136.473 7.408C136.473 8.488 135.771 9.298 134.547 9.856V11.836H137.949V13.708ZM130.461 6.022C128.211 6.022 126.915 6.472 126.915 7.408C126.915 8.326 128.211 8.776 130.461 8.776C132.783 8.776 134.025 8.326 134.025 7.408C134.025 6.472 132.783 6.022 130.461 6.022ZM132.171 11.836V10.468C131.649 10.522 131.091 10.558 130.461 10.558C129.831 10.558 129.255 10.522 128.715 10.45V11.836H132.171ZM130.425 14.536C134.007 14.536 136.185 15.616 136.185 17.542C136.185 19.486 134.007 20.566 130.425 20.566C126.843 20.566 124.683 19.486 124.683 17.542C124.683 15.616 126.843 14.536 130.425 14.536ZM130.425 18.766C132.657 18.766 133.773 18.352 133.773 17.542C133.773 16.696 132.675 16.336 130.425 16.336C128.175 16.336 127.077 16.696 127.077 17.542C127.077 18.352 128.193 18.766 130.425 18.766ZM147.631 8.92V6.994H150.655V3.97H153.031V13.69H150.655V8.92H147.631ZM147.901 13.168C146.155 12.574 144.985 11.476 144.283 9.964C143.545 11.692 142.231 12.988 140.269 13.654L139.027 11.746C141.853 10.828 143.023 8.614 143.023 6.31V4.834H145.435V6.202C145.435 8.434 146.497 10.432 149.143 11.296L147.901 13.168ZM147.433 14.104C150.943 14.104 153.103 15.274 153.103 17.344C153.103 19.36 150.943 20.548 147.433 20.548C143.905 20.548 141.745 19.36 141.745 17.344C141.745 15.274 143.905 14.104 147.433 14.104ZM147.433 18.73C149.629 18.73 150.727 18.262 150.727 17.344C150.727 16.408 149.629 15.94 147.433 15.94C145.219 15.94 144.121 16.408 144.121 17.344C144.121 18.262 145.219 18.73 147.433 18.73ZM168.402 12.61V20.53H166.026V3.952H168.402V10.63H170.634V12.61H168.402ZM161.832 13.114C162.21 10.72 162.264 9.01 162.264 7.498H156.072V5.608H164.604V6.958C164.604 8.56 164.604 10.576 164.154 13.312L161.832 13.114ZM160.536 15.184C162.138 15.13 163.758 15.04 165.27 14.842L165.396 16.552C162.03 17.128 158.34 17.218 155.442 17.218L155.226 15.274C156.144 15.274 157.116 15.274 158.196 15.256V10.36H160.536V15.184Z" fill="#043B72"/>
<path d="M226.652 20.53H224.276V3.97H226.652V20.53ZM218.156 11.71C215.654 11.71 213.8 10.252 213.8 8.182C213.8 6.094 215.654 4.636 218.156 4.636C220.658 4.636 222.494 6.094 222.494 8.182C222.494 10.252 220.658 11.71 218.156 11.71ZM218.156 6.562C216.932 6.562 216.086 7.102 216.086 8.182C216.086 9.19 216.932 9.766 218.156 9.766C219.38 9.766 220.226 9.19 220.226 8.182C220.226 7.102 219.38 6.562 218.156 6.562ZM223.484 13.852C222.116 14.122 220.784 14.284 219.416 14.41V20.044H217.04V14.554C215.6 14.608 214.268 14.626 213.098 14.626L212.828 12.682C215.708 12.682 219.83 12.646 223.34 12.124L223.484 13.852ZM229.009 7.282V5.428H232.663V3.844H235.039V5.428H238.711V7.282H229.009ZM242.833 13.978H240.457V10.738H238.387V8.812H240.457V3.97H242.833V13.978ZM237.847 10.81C237.847 12.592 236.191 13.798 233.869 13.798C231.547 13.798 229.891 12.592 229.891 10.81C229.891 9.028 231.547 7.84 233.869 7.84C236.191 7.84 237.847 9.028 237.847 10.81ZM232.159 10.81C232.159 11.62 232.861 12.052 233.869 12.052C234.877 12.052 235.579 11.62 235.579 10.81C235.579 10.018 234.877 9.586 233.869 9.586C232.861 9.586 232.159 10.018 232.159 10.81ZM242.833 14.68V20.35H231.799V14.68H242.833ZM240.511 18.496V16.552H234.139V18.496H240.511ZM260.381 10.972H258.401V16.372H256.025V3.952H258.401V9.01H260.381V10.972ZM251.705 10.81C251.975 9.226 252.047 8.074 252.065 7.066H245.891V5.176H254.405V6.202C254.405 7.354 254.405 8.974 254.027 11.08L251.705 10.81ZM255.269 13.438C251.867 14.068 247.979 14.158 245.153 14.158L244.937 12.268C245.855 12.268 246.881 12.268 247.961 12.25V9.028H250.283V12.16C251.939 12.088 253.541 11.962 255.125 11.746L255.269 13.438ZM258.923 18.37V20.26H247.349V15.274H249.725V18.37H258.923ZM275.158 20.584H272.782V3.952H275.158V20.584ZM264.682 14.77C267.202 14.77 269.308 14.608 271.63 14.23L271.882 16.156C269.146 16.642 266.77 16.732 263.746 16.732H262.252V9.91H267.634V7.264H262.234V5.374H270.064V11.782H264.682V14.77Z" fill="#043B72"/>
<path d="M334.164 10.288V12.25H331.752V20.548H329.376V3.97H331.752V10.288H334.164ZM324.858 7.516V8.434C324.858 9.058 324.942 9.706 325.11 10.378C325.278 11.038 325.524 11.668 325.848 12.268C326.184 12.868 326.604 13.42 327.108 13.924C327.612 14.428 328.206 14.836 328.89 15.148L327.576 17.02C326.64 16.6 325.854 16 325.218 15.22C324.582 14.428 324.078 13.54 323.706 12.556C323.334 13.648 322.818 14.62 322.158 15.472C321.498 16.324 320.694 16.978 319.746 17.434L318.414 15.544C319.098 15.232 319.692 14.818 320.196 14.302C320.7 13.774 321.12 13.192 321.456 12.556C321.804 11.908 322.062 11.23 322.23 10.522C322.398 9.814 322.482 9.118 322.482 8.434V7.516H319.044V5.554H328.152V7.516H324.858ZM348.023 8.776H350.219V10.738H348.023V16.102H345.647V3.97H348.023V8.776ZM344.891 11.836L343.667 13.69C342.767 13.39 342.005 12.958 341.381 12.394C340.769 11.83 340.283 11.17 339.923 10.414C339.551 11.242 339.035 11.968 338.375 12.592C337.727 13.216 336.929 13.684 335.981 13.996L334.721 12.142C335.417 11.914 336.011 11.614 336.503 11.242C337.007 10.858 337.421 10.432 337.745 9.964C338.069 9.484 338.303 8.974 338.447 8.434C338.603 7.882 338.681 7.324 338.681 6.76V4.978H341.093V6.778C341.093 7.306 341.165 7.828 341.309 8.344C341.453 8.848 341.675 9.328 341.975 9.784C342.287 10.228 342.683 10.63 343.163 10.99C343.643 11.338 344.219 11.62 344.891 11.836ZM339.725 14.95V18.37H348.599V20.26H337.349V14.95H339.725ZM358.659 11.152C357.771 11.152 356.961 11.074 356.229 10.918C355.497 10.75 354.867 10.522 354.339 10.234C353.823 9.934 353.421 9.574 353.133 9.154C352.845 8.722 352.701 8.242 352.701 7.714C352.701 7.186 352.845 6.712 353.133 6.292C353.421 5.872 353.823 5.512 354.339 5.212C354.867 4.912 355.497 4.684 356.229 4.528C356.961 4.36 357.771 4.276 358.659 4.276C359.559 4.276 360.375 4.36 361.107 4.528C361.839 4.684 362.463 4.912 362.979 5.212C363.507 5.512 363.909 5.872 364.185 6.292C364.473 6.712 364.617 7.186 364.617 7.714C364.617 8.242 364.473 8.722 364.185 9.154C363.909 9.574 363.507 9.934 362.979 10.234C362.463 10.522 361.839 10.75 361.107 10.918C360.375 11.074 359.559 11.152 358.659 11.152ZM358.659 6.166C357.603 6.166 356.775 6.298 356.175 6.562C355.575 6.814 355.275 7.198 355.275 7.714C355.275 8.23 355.575 8.62 356.175 8.884C356.775 9.136 357.603 9.262 358.659 9.262C359.715 9.262 360.543 9.136 361.143 8.884C361.755 8.62 362.061 8.23 362.061 7.714C362.061 7.198 361.755 6.814 361.143 6.562C360.543 6.298 359.715 6.166 358.659 6.166ZM351.171 12.016H366.183V13.906H360.027V16.75H357.597V13.906H351.171V12.016ZM355.329 15.292V18.37H364.545V20.26H352.917V15.292H355.329ZM378.944 11.836H382.346V13.708H367.37V11.836H370.736V9.838C369.488 9.274 368.864 8.464 368.864 7.408C368.864 6.916 369.002 6.472 369.278 6.076C369.566 5.68 369.968 5.344 370.484 5.068C371.012 4.792 371.642 4.582 372.374 4.438C373.118 4.294 373.946 4.222 374.858 4.222C375.782 4.222 376.61 4.294 377.342 4.438C378.086 4.582 378.716 4.792 379.232 5.068C379.76 5.344 380.162 5.68 380.438 6.076C380.726 6.472 380.87 6.916 380.87 7.408C380.87 7.948 380.702 8.422 380.366 8.83C380.03 9.238 379.556 9.58 378.944 9.856V11.836ZM374.858 6.022C373.73 6.022 372.854 6.136 372.23 6.364C371.618 6.592 371.312 6.94 371.312 7.408C371.312 7.864 371.618 8.206 372.23 8.434C372.854 8.662 373.73 8.776 374.858 8.776C376.022 8.776 376.904 8.662 377.504 8.434C378.116 8.206 378.422 7.864 378.422 7.408C378.422 6.94 378.116 6.592 377.504 6.364C376.904 6.136 376.022 6.022 374.858 6.022ZM373.112 10.45V11.836H376.568V10.468C376.304 10.492 376.028 10.516 375.74 10.54C375.464 10.552 375.17 10.558 374.858 10.558C374.234 10.558 373.652 10.522 373.112 10.45ZM374.822 14.536C376.61 14.536 378.014 14.8 379.034 15.328C380.066 15.844 380.582 16.582 380.582 17.542C380.582 18.514 380.066 19.258 379.034 19.774C378.014 20.302 376.61 20.566 374.822 20.566C373.034 20.566 371.63 20.302 370.61 19.774C369.59 19.258 369.08 18.514 369.08 17.542C369.08 16.582 369.59 15.844 370.61 15.328C371.63 14.8 373.034 14.536 374.822 14.536ZM374.822 18.766C377.054 18.766 378.17 18.358 378.17 17.542C378.17 17.122 377.894 16.816 377.342 16.624C376.79 16.432 375.95 16.336 374.822 16.336C373.694 16.336 372.854 16.432 372.302 16.624C371.75 16.816 371.474 17.122 371.474 17.542C371.474 18.358 372.59 18.766 374.822 18.766ZM395.574 3.952H397.824V20.548H395.574V3.952ZM392.172 8.344V4.33H394.386V19.828H392.172V14.392H389.868V12.484H392.172V10.234H390.174C389.802 11.602 389.178 12.862 388.302 14.014C387.438 15.166 386.232 16.198 384.684 17.11L383.334 15.454C384.15 14.95 384.858 14.422 385.458 13.87C386.058 13.318 386.556 12.73 386.952 12.106C387.36 11.482 387.678 10.816 387.906 10.108C388.134 9.4 388.284 8.638 388.356 7.822H384.27V5.932H390.714C390.714 6.352 390.702 6.766 390.678 7.174C390.654 7.57 390.618 7.96 390.57 8.344H392.172ZM410.045 5.194V6.886H400.325V5.194H404.015V3.844H406.391V5.194H410.045ZM411.179 3.988H413.573V15.202H411.179V3.988ZM410.207 12.646L410.369 14.23C409.493 14.374 408.605 14.488 407.705 14.572C406.805 14.656 405.917 14.722 405.041 14.77C404.165 14.818 403.313 14.848 402.485 14.86C401.657 14.872 400.883 14.878 400.163 14.878L399.857 13.096C400.505 13.096 401.171 13.096 401.855 13.096C402.539 13.096 403.259 13.084 404.015 13.06V12.178C403.115 12.046 402.401 11.776 401.873 11.368C401.345 10.948 401.081 10.414 401.081 9.766C401.081 9.382 401.177 9.04 401.369 8.74C401.573 8.44 401.855 8.182 402.215 7.966C402.575 7.75 403.007 7.588 403.511 7.48C404.027 7.36 404.591 7.3 405.203 7.3C405.815 7.3 406.367 7.36 406.859 7.48C407.363 7.588 407.795 7.75 408.155 7.966C408.515 8.182 408.791 8.44 408.983 8.74C409.187 9.04 409.289 9.382 409.289 9.766C409.289 10.414 409.031 10.948 408.515 11.368C407.999 11.776 407.291 12.046 406.391 12.178V12.97C407.039 12.934 407.681 12.892 408.317 12.844C408.965 12.784 409.595 12.718 410.207 12.646ZM403.349 9.766C403.349 10.066 403.511 10.3 403.835 10.468C404.171 10.624 404.627 10.702 405.203 10.702C405.779 10.702 406.223 10.624 406.535 10.468C406.859 10.3 407.021 10.066 407.021 9.766C407.021 9.454 406.859 9.226 406.535 9.082C406.223 8.926 405.779 8.848 405.203 8.848C404.627 8.848 404.171 8.926 403.835 9.082C403.511 9.226 403.349 9.454 403.349 9.766ZM402.125 17.686V15.85H413.573V20.566H411.179V17.686H402.125Z" fill="#043B72"/>
<path d="M471.012 20.53H468.762V3.952H471.012V20.53ZM467.538 4.276V19.81H465.324V11.944H462.444V10.018H465.324V4.276H467.538ZM459.6 14.914C461.328 14.86 462.66 14.77 464.118 14.482L464.316 16.426C462.462 16.804 460.824 16.858 458.394 16.858H457.26V5.842H463.578V7.732H459.6V14.914ZM486.707 20.584H484.331V3.952H486.707V20.584ZM477.797 5.122C480.299 5.122 482.153 7.39 482.153 11.026C482.153 14.68 480.299 16.966 477.797 16.966C475.295 16.966 473.441 14.68 473.441 11.026C473.441 7.39 475.295 5.122 477.797 5.122ZM477.797 7.264C476.573 7.264 475.727 8.56 475.727 11.026C475.727 13.492 476.573 14.806 477.797 14.806C479.021 14.806 479.867 13.492 479.867 11.026C479.867 8.56 479.021 7.264 477.797 7.264ZM503.085 20.584H500.709V11.71H497.865V9.802H500.709V3.952H503.085V20.584ZM492.285 14.914C494.517 14.896 496.335 14.824 498.369 14.482L498.585 16.39C496.191 16.768 494.067 16.822 491.277 16.822H489.927V5.356H497.595V7.264H492.285V9.964H497.037V11.818H492.285V14.914ZM517.25 16.372V3.97H519.5V16.372H517.25ZM511.976 9.676V7.75H513.938V4.258H516.152V15.886H513.938V9.676H511.976ZM512.156 13.852C510.86 13.222 509.996 12.214 509.474 10.972C508.88 12.412 507.908 13.546 506.45 14.248L505.154 12.448C507.404 11.35 508.286 9.172 508.286 7.21V5.086H510.59V7.21C510.59 9.172 511.364 11.008 513.452 12.034L512.156 13.852ZM519.914 20.26H508.34V14.932H510.716V18.37H519.914V20.26ZM535.482 20.584H533.106V11.71H530.262V9.802H533.106V3.952H535.482V20.584ZM524.682 14.914C526.914 14.896 528.732 14.824 530.766 14.482L530.982 16.39C528.588 16.768 526.464 16.822 523.674 16.822H522.324V5.356H529.992V7.264H524.682V9.964H529.434V11.818H524.682V14.914Z" fill="#043B72"/>
<path d="M594.002 11.134H591.914V16.624H589.538V3.97H591.914V9.172H594.002V11.134ZM588.818 13.78C585.452 14.41 581.744 14.464 579.008 14.464L578.72 12.574C579.872 12.574 581.168 12.592 582.536 12.538V11.26C580.736 10.882 579.584 9.658 579.584 8.002C579.584 6.04 581.312 4.636 583.706 4.636C586.118 4.636 587.846 6.04 587.846 8.002C587.846 9.658 586.712 10.846 584.912 11.26V12.448C586.208 12.376 587.45 12.304 588.674 12.106L588.818 13.78ZM581.798 8.002C581.798 9.01 582.554 9.586 583.706 9.586C584.858 9.586 585.65 9.01 585.65 8.002C585.65 6.994 584.858 6.418 583.706 6.418C582.554 6.418 581.798 6.994 581.798 8.002ZM592.472 18.37V20.26H580.88V15.544H583.256V18.37H592.472ZM606.457 3.97H608.833V16.066H606.457V10.18H603.865V8.254H606.457V3.97ZM603.811 13.924C601.993 13.33 600.751 12.16 600.049 10.648C599.311 12.304 598.015 13.6 596.071 14.248L594.883 12.358C597.619 11.494 598.789 9.28 598.789 7.21V6.976H595.531V5.086H604.441V6.976H601.219V7.192C601.219 9.154 602.353 11.206 604.963 12.07L603.811 13.924ZM609.211 20.26H597.907V15.058H600.283V18.37H609.211V20.26ZM625.049 20.53H622.673V3.97H625.049V20.53ZM616.553 11.71C614.051 11.71 612.197 10.252 612.197 8.182C612.197 6.094 614.051 4.636 616.553 4.636C619.055 4.636 620.891 6.094 620.891 8.182C620.891 10.252 619.055 11.71 616.553 11.71ZM616.553 6.562C615.329 6.562 614.483 7.102 614.483 8.182C614.483 9.19 615.329 9.766 616.553 9.766C617.777 9.766 618.623 9.19 618.623 8.182C618.623 7.102 617.777 6.562 616.553 6.562ZM621.881 13.852C620.513 14.122 619.181 14.284 617.813 14.41V20.044H615.437V14.554C613.997 14.608 612.665 14.626 611.495 14.626L611.225 12.682C614.105 12.682 618.227 12.646 621.737 12.124L621.881 13.852ZM640.42 9.928V13.978H638.044V3.97H640.42V7.984H642.616V9.928H640.42ZM636.892 12.898C634.678 13.276 632.68 13.366 629.368 13.366H627.982V5.05H635.758V6.922H630.34V8.272H635.416V10.108H630.34V11.476C633.022 11.476 634.732 11.386 636.64 11.044L636.892 12.898ZM640.42 14.698V20.566H638.044V16.57H629.368V14.698H640.42ZM653.442 19.252C649.914 19.252 647.484 16.606 647.484 12.286C647.484 7.948 649.914 5.428 653.442 5.428C656.97 5.428 659.4 7.966 659.4 12.286C659.4 16.606 656.97 19.252 653.442 19.252ZM653.442 16.948C655.422 16.948 656.682 15.112 656.682 12.286C656.682 9.388 655.476 7.714 653.442 7.714C651.408 7.714 650.202 9.388 650.202 12.286C650.202 15.112 651.462 16.948 653.442 16.948ZM667.078 19.252C663.694 19.252 660.976 16.84 660.976 12.394C660.976 8.002 663.802 5.428 667.168 5.428C668.896 5.428 670.21 6.22 671.074 7.138L669.67 8.83C669.004 8.182 668.23 7.714 667.222 7.714C665.206 7.714 663.694 9.442 663.694 12.304C663.694 15.202 665.062 16.948 667.168 16.948C668.32 16.948 669.202 16.408 669.922 15.634L671.326 17.29C670.228 18.604 668.824 19.252 667.078 19.252ZM675.776 5.68V19H673.112V5.68H675.776ZM683.986 19.252C680.458 19.252 678.028 16.606 678.028 12.286C678.028 7.948 680.458 5.428 683.986 5.428C687.514 5.428 689.944 7.966 689.944 12.286C689.944 16.606 687.514 19.252 683.986 19.252ZM683.986 16.948C685.966 16.948 687.226 15.112 687.226 12.286C687.226 9.388 686.02 7.714 683.986 7.714C681.952 7.714 680.746 9.388 680.746 12.286C680.746 15.112 682.006 16.948 683.986 16.948Z" fill="#043B72"/>
<path d="M733.628 12.61V4.618H745.04V6.49H735.986V7.696H744.68V9.496H735.986V10.738H745.202V12.61H733.628ZM740.432 15.724V20.566H738.056V15.724H731.756V13.798H746.768V15.724H740.432ZM760.951 12.25V20.548H758.575V3.97H760.951V10.288H763.363V12.25H760.951ZM754.057 8.434C754.057 10.954 755.371 13.906 758.089 15.148L756.775 17.02C754.903 16.174 753.643 14.518 752.905 12.556C752.167 14.734 750.835 16.516 748.945 17.434L747.613 15.544C750.331 14.302 751.681 11.17 751.681 8.434V7.516H748.243V5.554H757.351V7.516H754.057V8.434ZM765.485 6.13V4.366H777.815V6.13H775.709V8.164H777.689V9.928H765.593V8.164H767.591V6.13H765.485ZM769.949 6.13V8.164H773.351V6.13H769.949ZM772.829 13.708H777.329V17.812H768.257V18.712H777.761V20.422H765.899V16.228H774.989V15.418H765.881V13.708H770.453V12.682H764.171V10.81H779.147V12.682H772.829V13.708ZM797.624 13.492C794.582 12.97 792.584 11.476 791.504 9.37C790.424 11.404 788.318 12.97 785.42 13.492L784.448 11.53C788.192 10.9 790.244 8.38 790.244 6.076V4.888H792.782V6.076C792.782 8.452 794.816 10.918 798.596 11.53L797.624 13.492ZM799.1 18.586H784.088V16.678H790.334V12.97H792.71V16.678H799.1V18.586ZM814.488 20.548H812.22V12.124H810.744V19.846H808.53V4.402H810.744V10.216H812.22V3.97H814.488V20.548ZM807.45 6.022C807.45 10.666 806.082 14.464 801.456 17.164L800.07 15.508C803.382 13.582 804.822 11.134 805.11 7.912H800.916V6.022H807.45Z" fill="#043B72"/>
</svg>
