<svg width="90" height="52" viewBox="0 0 90 52" fill="none" xmlns="http://www.w3.org/2000/svg">
<rect width="90" height="52" rx="4" fill="#F58220"/>
<path d="M29.008 27.408H26.896V23.856H24.72V22.16H26.896V18.656H29.008V27.408ZM24.544 27.008C22.928 26.48 21.824 25.456 21.2 24.112C20.544 25.584 19.408 26.736 17.68 27.296L16.608 25.632C18.992 24.816 20.032 22.976 20.08 21.136H17.184V19.456H25.104V21.136H22.24C22.288 22.816 23.296 24.592 25.568 25.36L24.544 27.008ZM29.008 28.064V33.392H26.896V29.744H18.96V28.064H29.008ZM44.3988 27.296H31.0868V25.632H34.0788V23.856C32.9748 23.36 32.4148 22.64 32.4148 21.696C32.4148 19.936 34.4948 18.864 37.7428 18.864C41.0068 18.864 43.0868 19.936 43.0868 21.696C43.0868 22.656 42.4628 23.376 41.3748 23.872V25.632H44.3988V27.296ZM37.7428 20.464C35.7428 20.464 34.5908 20.864 34.5908 21.696C34.5908 22.512 35.7428 22.912 37.7428 22.912C39.8068 22.912 40.9108 22.512 40.9108 21.696C40.9108 20.864 39.8068 20.464 37.7428 20.464ZM39.2628 25.632V24.416C38.7988 24.464 38.3028 24.496 37.7428 24.496C37.1828 24.496 36.6708 24.464 36.1908 24.4V25.632H39.2628ZM37.7108 28.032C40.8948 28.032 42.8308 28.992 42.8308 30.704C42.8308 32.432 40.8948 33.392 37.7108 33.392C34.5268 33.392 32.6068 32.432 32.6068 30.704C32.6068 28.992 34.5268 28.032 37.7108 28.032ZM37.7108 31.792C39.6948 31.792 40.6868 31.424 40.6868 30.704C40.6868 29.952 39.7108 29.632 37.7108 29.632C35.7108 29.632 34.7348 29.952 34.7348 30.704C34.7348 31.424 35.7268 31.792 37.7108 31.792ZM57.0535 26.144V33.376H54.9415V18.64H57.0535V24.4H59.1655V26.144H57.0535ZM53.9815 20.816V22.496H45.4055V20.816H48.6695V18.896H50.7815V20.816H53.9815ZM49.7415 23.328C51.8695 23.328 53.4535 24.784 53.4535 26.832C53.4535 28.928 51.8695 30.368 49.7415 30.368C47.5975 30.368 45.9975 28.928 45.9975 26.832C45.9975 24.784 47.5975 23.328 49.7415 23.328ZM49.7415 28.64C50.7655 28.64 51.4535 27.984 51.4535 26.832C51.4535 25.728 50.7655 25.04 49.7415 25.04C48.7175 25.04 48.0135 25.696 48.0135 26.848C48.0135 28 48.7175 28.64 49.7415 28.64ZM72.1563 33.36H70.0283V18.624H72.1563V33.36ZM67.7723 20.16C67.7723 24.656 66.2523 28.368 61.0203 30.88L59.9163 29.216C63.6763 27.424 65.3083 25.104 65.6123 21.84H60.7003V20.16H67.7723Z" fill="white"/>
</svg>
