<svg width="1498" height="384" viewBox="0 0 1498 384" fill="none" xmlns="http://www.w3.org/2000/svg">
<mask id="path-1-inside-1_527_7060" fill="white">
<path d="M0 0H1496V120H0V0Z"/>
</mask>
<path d="M0 0H1496V120H0V0Z" fill="#F3F5F7"/>
<path d="M0 1H1496V-1H0V1Z" fill="#043B72" mask="url(#path-1-inside-1_527_7060)"/>
<path d="M36.96 39.36H34.832V24.624H36.96V39.36ZM32.576 26.16C32.576 30.656 31.056 34.368 25.824 36.88L24.72 35.216C28.48 33.424 30.112 31.104 30.416 27.84H25.504V26.16H32.576ZM39.9988 29.632C42.8468 29.328 44.3188 28.096 44.5748 26.944H40.6228V25.264H51.5348V26.944H47.5668C47.8228 28.128 49.2468 29.328 52.1428 29.632L51.3748 31.28C48.5428 30.976 46.8468 29.872 46.0628 28.336C45.3108 29.856 43.5188 30.976 40.7508 31.28L39.9988 29.632ZM52.7508 33.648H47.3108V36.144H45.1988V33.648H39.3908V31.984H52.7508V33.648ZM51.2628 37.44V39.12H40.9428V34.88H43.0548V37.44H51.2628ZM64.2375 32.016V24.64H66.3655V32.016H64.2375ZM62.2055 28.432C62.2055 30.416 60.5255 31.808 58.2855 31.808C56.0455 31.808 54.3335 30.416 54.3335 28.432C54.3335 26.464 56.0455 25.072 58.2855 25.072C60.5255 25.072 62.2055 26.464 62.2055 28.432ZM56.3815 28.432C56.3815 29.52 57.1975 30.096 58.2855 30.096C59.3735 30.096 60.1575 29.52 60.1575 28.432C60.1575 27.392 59.3735 26.768 58.2855 26.768C57.1975 26.768 56.3815 27.392 56.3815 28.432ZM66.7335 39.216H56.5575V35.136H64.2695V34.24H56.5415V32.624H66.3655V36.64H58.6535V37.568H66.7335V39.216ZM71.9003 40.592C70.3803 38.112 69.5163 35.52 69.5163 32.304C69.5163 29.104 70.3803 26.512 71.9003 24.032L73.3723 24.656C72.0283 27.04 71.4203 29.568 71.4203 32.304C71.4203 35.072 72.0283 37.584 73.3723 39.968L71.9003 40.592ZM87.1791 39.408H85.0671V24.624H87.1791V39.408ZM75.2751 31.472C77.4511 30.912 78.5231 29.52 78.6511 28.048H75.7071V26.368H78.6671V24.768H80.7951V26.368H83.7871V28.048H80.8111C80.9391 29.456 82.0271 30.8 84.1871 31.344L83.2591 32.944C81.5311 32.512 80.4111 31.568 79.7551 30.352C79.0991 31.632 77.9471 32.624 76.2191 33.088L75.2751 31.472ZM80.7951 34.8C82.0111 34.72 83.1151 34.624 84.2671 34.448L84.3951 35.984C81.2431 36.624 77.7391 36.656 75.2271 36.656L74.9551 34.944C76.0431 34.944 77.3231 34.944 78.6671 34.896V32.656H80.7951V34.8ZM99.7219 35.392V24.656H101.85V35.392H99.7219ZM97.5619 33.168C95.8979 32.608 94.8099 31.552 94.1699 30.144C93.4819 31.632 92.3619 32.832 90.6339 33.424L89.5619 31.744C92.0099 30.928 93.0659 28.816 93.0659 26.896V25.456H95.2099V26.896C95.2099 28.832 96.2499 30.72 98.6339 31.488L97.5619 33.168ZM102.218 39.12H92.0419V34.368H94.1539V37.44H102.218V39.12ZM116.185 31.04C113.673 30.656 111.961 29.536 111.001 28.048C110.041 29.584 108.297 30.688 105.785 31.088L105.001 29.424C108.249 28.992 109.897 27.136 109.897 25.488V25.024H112.073V25.488C112.073 27.088 113.737 28.96 116.985 29.392L116.185 31.04ZM117.673 33.552H112.233V36.064H110.121V33.552H104.313V31.888H117.673V33.552ZM116.185 37.44V39.12H105.865V34.816H107.977V37.44H116.185ZM119.191 39.968C120.535 37.584 121.143 35.072 121.143 32.304C121.143 29.568 120.535 27.04 119.191 24.656L120.647 24.032C122.183 26.512 123.047 29.104 123.047 32.304C123.047 35.52 122.167 38.112 120.647 40.592L119.191 39.968Z" fill="black"/>
<path d="M193 32L196 35L199 32" stroke="black" stroke-width="2" stroke-linecap="round"/>
<path d="M531.8 32.016V24.64H533.928V32.016H531.8ZM529.768 28.432C529.768 30.416 528.088 31.808 525.848 31.808C523.608 31.808 521.896 30.416 521.896 28.432C521.896 26.464 523.608 25.072 525.848 25.072C528.088 25.072 529.768 26.464 529.768 28.432ZM523.944 28.432C523.944 29.52 524.76 30.096 525.848 30.096C526.936 30.096 527.72 29.52 527.72 28.432C527.72 27.392 526.936 26.768 525.848 26.768C524.76 26.768 523.944 27.392 523.944 28.432ZM534.296 39.216H524.12V35.136H531.832V34.24H524.104V32.624H533.928V36.64H526.216V37.568H534.296V39.216ZM537.031 31.808V25.248H539.127V26.976H541.927V25.248H543.991V26.496H546.615V24.656H548.727V32.208H546.615V30.784H543.991V31.808H537.031ZM543.991 29.184H546.615V28.096H543.991V29.184ZM539.127 28.56V30.16H541.927V28.56H539.127ZM549.143 39.216H539.031V35.184H546.631V34.4H538.999V32.768H548.727V36.704H541.111V37.568H549.143V39.216Z" fill="black"/>
<path d="M1175.96 39.36H1173.83V24.624H1175.96V39.36ZM1171.58 26.16C1171.58 30.656 1170.06 34.368 1164.82 36.88L1163.72 35.216C1167.48 33.424 1169.11 31.104 1169.42 27.84H1164.5V26.16H1171.58ZM1191.96 30.48H1189.99V35.184H1187.88V24.64H1189.99V28.752H1191.96V30.48ZM1186.02 25.744C1186.02 29.76 1183.57 32.496 1179.17 33.776L1178.29 32.096C1181.64 31.2 1183.4 29.488 1183.73 27.424H1178.93V25.744H1186.02ZM1190.5 37.44V39.12H1180.49V34.128H1182.6V37.44H1190.5Z" fill="black"/>
<mask id="path-7-inside-2_527_7060" fill="white">
<path d="M215 64H1496V120H215V64Z"/>
</mask>
<path d="M215 64H1496V120H215V64Z" fill="white"/>
<path d="M215 65H1496V63H215V65ZM1496 119H215V121H1496V119Z" fill="#E5E5E5" mask="url(#path-7-inside-2_527_7060)"/>
<path d="M313.27 91.26C311.128 90.924 309.462 89.86 308.622 88.404C307.782 89.874 306.102 90.924 303.96 91.26L303.4 90.098C305.976 89.72 307.852 88.18 307.852 86.514V85.842H309.378V86.514C309.378 88.166 311.282 89.72 313.83 90.098L313.27 91.26ZM314.32 93.626H309.294V98.092H307.852V93.626H302.896V92.45H314.32V93.626ZM326.191 85.436V92.912H324.749V85.436H326.191ZM319.373 86.164C321.291 86.164 322.719 87.41 322.719 89.202C322.719 90.994 321.291 92.24 319.373 92.24C317.427 92.24 316.013 90.994 316.013 89.202C316.013 87.41 317.427 86.164 319.373 86.164ZM319.373 87.382C318.239 87.382 317.427 88.082 317.427 89.202C317.427 90.322 318.239 91.022 319.373 91.022C320.493 91.022 321.319 90.322 321.319 89.202C321.319 88.082 320.493 87.382 319.373 87.382ZM326.191 93.556V98.092H324.749V94.732H317.665V93.556H326.191ZM337.235 86.724H330.081V85.73H338.663V88.502H331.523V89.384H338.887V90.378H330.109V87.564H337.235V86.724ZM337.137 92.198V93.164H338.705V95.992H331.425V96.958H339.083V97.966H329.997V95.054H337.277V94.158H329.969V93.164H331.607V92.198H328.639V91.134H340.105V92.198H337.137ZM335.695 92.198H333.049V93.164H335.695V92.198Z" fill="#555555"/>
<path d="M494.072 86.696H497.264C499.378 86.696 500.904 87.368 500.904 89.23C500.904 90.224 500.372 91.134 499.434 91.456V91.526C500.61 91.792 501.464 92.576 501.464 93.976C501.464 96.034 499.812 97 497.516 97H494.072V86.696ZM497.082 90.994C498.65 90.994 499.308 90.406 499.308 89.44C499.308 88.362 498.58 87.956 497.124 87.956H495.696V90.994H497.082ZM497.334 95.726C498.972 95.726 499.868 95.18 499.868 93.892C499.868 92.716 498.972 92.226 497.334 92.226H495.696V95.726H497.334ZM503.41 86.696H505.272L507.162 91.904C507.4 92.59 507.61 93.276 507.848 93.99H507.918C508.156 93.276 508.352 92.59 508.59 91.904L510.452 86.696H512.328V97H510.816V91.904C510.816 90.98 510.956 89.65 511.026 88.712H510.97L510.144 91.092L508.352 96.006H507.344L505.538 91.092L504.726 88.712H504.67C504.74 89.65 504.866 90.98 504.866 91.904V97H503.41V86.696ZM524.761 91.26C522.619 90.924 520.953 89.86 520.113 88.404C519.273 89.874 517.593 90.924 515.451 91.26L514.891 90.098C517.467 89.72 519.343 88.18 519.343 86.514V85.842H520.869V86.514C520.869 88.166 522.773 89.72 525.321 90.098L524.761 91.26ZM525.811 93.626H520.785V98.092H519.343V93.626H514.387V92.45H525.811V93.626ZM537.682 85.436V92.912H536.24V85.436H537.682ZM530.864 86.164C532.782 86.164 534.21 87.41 534.21 89.202C534.21 90.994 532.782 92.24 530.864 92.24C528.918 92.24 527.504 90.994 527.504 89.202C527.504 87.41 528.918 86.164 530.864 86.164ZM530.864 87.382C529.73 87.382 528.918 88.082 528.918 89.202C528.918 90.322 529.73 91.022 530.864 91.022C531.984 91.022 532.81 90.322 532.81 89.202C532.81 88.082 531.984 87.382 530.864 87.382ZM537.682 93.556V98.092H536.24V94.732H529.156V93.556H537.682ZM548.727 86.724H541.573V85.73H550.155V88.502H543.015V89.384H550.379V90.378H541.601V87.564H548.727V86.724ZM548.629 92.198V93.164H550.197V95.992H542.917V96.958H550.575V97.966H541.489V95.054H548.769V94.158H541.461V93.164H543.099V92.198H540.131V91.134H551.597V92.198H548.629ZM547.187 92.198H544.541V93.164H547.187V92.198ZM558.744 99.03C557.442 96.902 556.672 94.648 556.672 91.862C556.672 89.104 557.442 86.822 558.744 84.708L559.752 85.142C558.52 87.172 557.988 89.454 557.988 91.862C557.988 94.284 558.52 96.552 559.752 98.582L558.744 99.03ZM569.279 86.528H570.665L564.449 97.168H563.049L569.279 86.528ZM563.315 86.528C565.121 86.528 565.667 88.068 565.667 89.622C565.667 91.148 565.121 92.744 563.315 92.744C561.523 92.744 560.949 91.148 560.949 89.622C560.949 88.068 561.523 86.528 563.315 86.528ZM563.315 91.652C564.323 91.652 564.435 90.378 564.435 89.636C564.435 88.894 564.323 87.62 563.315 87.62C562.293 87.62 562.181 88.894 562.181 89.636C562.181 90.378 562.307 91.652 563.315 91.652ZM570.399 90.924C572.205 90.924 572.751 92.478 572.751 94.018C572.751 95.586 572.219 97.14 570.399 97.14C568.607 97.14 568.033 95.586 568.033 94.018C568.033 92.478 568.621 90.924 570.399 90.924ZM570.399 96.048C571.407 96.048 571.519 94.774 571.519 94.032C571.519 93.29 571.407 92.016 570.399 92.016C569.377 92.016 569.265 93.29 569.265 94.032C569.265 94.774 569.391 96.048 570.399 96.048ZM573.94 98.582C575.172 96.552 575.704 94.284 575.704 91.862C575.704 89.454 575.172 87.172 573.94 85.142L574.948 84.708C576.278 86.822 577.034 89.104 577.034 91.862C577.034 94.648 576.278 96.902 574.948 99.03L573.94 98.582Z" fill="#555555"/>
<path d="M727.5 86.696H730.692C732.806 86.696 734.332 87.368 734.332 89.23C734.332 90.224 733.8 91.134 732.862 91.456V91.526C734.038 91.792 734.892 92.576 734.892 93.976C734.892 96.034 733.24 97 730.944 97H727.5V86.696ZM730.51 90.994C732.078 90.994 732.736 90.406 732.736 89.44C732.736 88.362 732.008 87.956 730.552 87.956H729.124V90.994H730.51ZM730.762 95.726C732.4 95.726 733.296 95.18 733.296 93.892C733.296 92.716 732.4 92.226 730.762 92.226H729.124V95.726H730.762ZM736.837 86.696H738.699L740.589 91.904C740.827 92.59 741.037 93.276 741.275 93.99H741.345C741.583 93.276 741.779 92.59 742.017 91.904L743.879 86.696H745.755V97H744.243V91.904C744.243 90.98 744.383 89.65 744.453 88.712H744.397L743.571 91.092L741.779 96.006H740.771L738.965 91.092L738.153 88.712H738.097C738.167 89.65 738.293 90.98 738.293 91.904V97H736.837V86.696ZM758.595 85.422V98.064H757.223V91.596H755.725V97.448H754.367V85.688H755.725V90.42H757.223V85.422H758.595ZM749.649 93.878C751.105 93.864 752.253 93.794 753.555 93.528L753.681 94.718C752.155 95.012 750.867 95.068 749.075 95.068H748.235V86.934H752.911V88.11H749.649V93.878ZM771.095 85.422V98.106H769.639V85.422H771.095ZM762.793 86.472V89.692H765.999V86.472H767.441V95.096H761.365V86.472H762.793ZM762.793 93.934H765.999V90.84H762.793V93.934Z" fill="#555555"/>
<path d="M929.206 90.7H920.47V86.024H921.912V89.538H929.206V90.7ZM930.48 93.584H925.426V98.092H923.97V93.584H919.014V92.394H930.48V93.584ZM942.379 85.422V92.982H940.937V89.79H938.725V88.6H940.937V85.422H942.379ZM938.711 92.548C937.311 92.058 936.303 91.078 935.757 89.846C935.197 91.204 934.147 92.296 932.635 92.814L931.893 91.68C933.853 91.008 935.001 89.342 935.001 87.634V87.382H932.327V86.22H939.089V87.382H936.457V87.62C936.457 89.188 937.521 90.756 939.425 91.428L938.711 92.548ZM933.853 93.612H942.379V98.078H940.937V94.774H933.853V93.612ZM955.16 91.26C953.018 90.924 951.352 89.86 950.512 88.404C949.672 89.874 947.992 90.924 945.85 91.26L945.29 90.098C947.866 89.72 949.742 88.18 949.742 86.514V85.842H951.268V86.514C951.268 88.166 953.172 89.72 955.72 90.098L955.16 91.26ZM956.21 93.626H951.184V98.092H949.742V93.626H944.786V92.45H956.21V93.626ZM968.081 85.436V92.912H966.639V85.436H968.081ZM961.263 86.164C963.181 86.164 964.609 87.41 964.609 89.202C964.609 90.994 963.181 92.24 961.263 92.24C959.317 92.24 957.903 90.994 957.903 89.202C957.903 87.41 959.317 86.164 961.263 86.164ZM961.263 87.382C960.129 87.382 959.317 88.082 959.317 89.202C959.317 90.322 960.129 91.022 961.263 91.022C962.383 91.022 963.209 90.322 963.209 89.202C963.209 88.082 962.383 87.382 961.263 87.382ZM968.081 93.556V98.092H966.639V94.732H959.555V93.556H968.081ZM979.126 86.724H971.972V85.73H980.554V88.502H973.414V89.384H980.778V90.378H972V87.564H979.126V86.724ZM979.028 92.198V93.164H980.596V95.992H973.316V96.958H980.974V97.966H971.888V95.054H979.168V94.158H971.86V93.164H973.498V92.198H970.53V91.134H981.996V92.198H979.028ZM977.586 92.198H974.94V93.164H977.586V92.198ZM989.144 99.03C987.842 96.902 987.072 94.648 987.072 91.862C987.072 89.104 987.842 86.822 989.144 84.708L990.152 85.142C988.92 87.172 988.388 89.454 988.388 91.862C988.388 94.284 988.92 96.552 990.152 98.582L989.144 99.03ZM999.678 86.528H1001.06L994.848 97.168H993.448L999.678 86.528ZM993.714 86.528C995.52 86.528 996.066 88.068 996.066 89.622C996.066 91.148 995.52 92.744 993.714 92.744C991.922 92.744 991.348 91.148 991.348 89.622C991.348 88.068 991.922 86.528 993.714 86.528ZM993.714 91.652C994.722 91.652 994.834 90.378 994.834 89.636C994.834 88.894 994.722 87.62 993.714 87.62C992.692 87.62 992.58 88.894 992.58 89.636C992.58 90.378 992.706 91.652 993.714 91.652ZM1000.8 90.924C1002.6 90.924 1003.15 92.478 1003.15 94.018C1003.15 95.586 1002.62 97.14 1000.8 97.14C999.006 97.14 998.432 95.586 998.432 94.018C998.432 92.478 999.02 90.924 1000.8 90.924ZM1000.8 96.048C1001.81 96.048 1001.92 94.774 1001.92 94.032C1001.92 93.29 1001.81 92.016 1000.8 92.016C999.776 92.016 999.664 93.29 999.664 94.032C999.664 94.774 999.79 96.048 1000.8 96.048ZM1004.34 98.582C1005.57 96.552 1006.1 94.284 1006.1 91.862C1006.1 89.454 1005.57 87.172 1004.34 85.142L1005.35 84.708C1006.68 86.822 1007.43 89.104 1007.43 91.862C1007.43 94.648 1006.68 96.902 1005.35 99.03L1004.34 98.582Z" fill="#555555"/>
<path d="M1136.07 86.696H1139.26C1141.38 86.696 1142.9 87.368 1142.9 89.23C1142.9 90.224 1142.37 91.134 1141.43 91.456V91.526C1142.61 91.792 1143.46 92.576 1143.46 93.976C1143.46 96.034 1141.81 97 1139.52 97H1136.07V86.696ZM1139.08 90.994C1140.65 90.994 1141.31 90.406 1141.31 89.44C1141.31 88.362 1140.58 87.956 1139.12 87.956H1137.7V90.994H1139.08ZM1139.33 95.726C1140.97 95.726 1141.87 95.18 1141.87 93.892C1141.87 92.716 1140.97 92.226 1139.33 92.226H1137.7V95.726H1139.33ZM1145.41 86.696H1147.27L1149.16 91.904C1149.4 92.59 1149.61 93.276 1149.85 93.99H1149.92C1150.16 93.276 1150.35 92.59 1150.59 91.904L1152.45 86.696H1154.33V97H1152.82V91.904C1152.82 90.98 1152.96 89.65 1153.03 88.712H1152.97L1152.14 91.092L1150.35 96.006H1149.34L1147.54 91.092L1146.73 88.712H1146.67C1146.74 89.65 1146.87 90.98 1146.87 91.904V97H1145.41V86.696ZM1166.76 91.26C1164.62 90.924 1162.95 89.86 1162.11 88.404C1161.27 89.874 1159.59 90.924 1157.45 91.26L1156.89 90.098C1159.47 89.72 1161.34 88.18 1161.34 86.514V85.842H1162.87V86.514C1162.87 88.166 1164.77 89.72 1167.32 90.098L1166.76 91.26ZM1167.81 93.626H1162.78V98.092H1161.34V93.626H1156.39V92.45H1167.81V93.626ZM1179.68 85.436V92.912H1178.24V85.436H1179.68ZM1172.86 86.164C1174.78 86.164 1176.21 87.41 1176.21 89.202C1176.21 90.994 1174.78 92.24 1172.86 92.24C1170.92 92.24 1169.5 90.994 1169.5 89.202C1169.5 87.41 1170.92 86.164 1172.86 86.164ZM1172.86 87.382C1171.73 87.382 1170.92 88.082 1170.92 89.202C1170.92 90.322 1171.73 91.022 1172.86 91.022C1173.98 91.022 1174.81 90.322 1174.81 89.202C1174.81 88.082 1173.98 87.382 1172.86 87.382ZM1179.68 93.556V98.092H1178.24V94.732H1171.16V93.556H1179.68ZM1190.73 86.724H1183.57V85.73H1192.15V88.502H1185.01V89.384H1192.38V90.378H1183.6V87.564H1190.73V86.724ZM1190.63 92.198V93.164H1192.2V95.992H1184.92V96.958H1192.57V97.966H1183.49V95.054H1190.77V94.158H1183.46V93.164H1185.1V92.198H1182.13V91.134H1193.6V92.198H1190.63ZM1189.19 92.198H1186.54V93.164H1189.19V92.198ZM1200.74 99.03C1199.44 96.902 1198.67 94.648 1198.67 91.862C1198.67 89.104 1199.44 86.822 1200.74 84.708L1201.75 85.142C1200.52 87.172 1199.99 89.454 1199.99 91.862C1199.99 94.284 1200.52 96.552 1201.75 98.582L1200.74 99.03ZM1211.28 86.528H1212.66L1206.45 97.168H1205.05L1211.28 86.528ZM1205.31 86.528C1207.12 86.528 1207.67 88.068 1207.67 89.622C1207.67 91.148 1207.12 92.744 1205.31 92.744C1203.52 92.744 1202.95 91.148 1202.95 89.622C1202.95 88.068 1203.52 86.528 1205.31 86.528ZM1205.31 91.652C1206.32 91.652 1206.43 90.378 1206.43 89.636C1206.43 88.894 1206.32 87.62 1205.31 87.62C1204.29 87.62 1204.18 88.894 1204.18 89.636C1204.18 90.378 1204.31 91.652 1205.31 91.652ZM1212.4 90.924C1214.2 90.924 1214.75 92.478 1214.75 94.018C1214.75 95.586 1214.22 97.14 1212.4 97.14C1210.61 97.14 1210.03 95.586 1210.03 94.018C1210.03 92.478 1210.62 90.924 1212.4 90.924ZM1212.4 96.048C1213.41 96.048 1213.52 94.774 1213.52 94.032C1213.52 93.29 1213.41 92.016 1212.4 92.016C1211.38 92.016 1211.26 93.29 1211.26 94.032C1211.26 94.774 1211.39 96.048 1212.4 96.048ZM1215.94 98.582C1217.17 96.552 1217.7 94.284 1217.7 91.862C1217.7 89.454 1217.17 87.172 1215.94 85.142L1216.95 84.708C1218.28 86.822 1219.03 89.104 1219.03 91.862C1219.03 94.648 1218.28 96.902 1216.95 99.03L1215.94 98.582Z" fill="#555555"/>
<path d="M1369.5 86.696H1372.69C1374.81 86.696 1376.33 87.368 1376.33 89.23C1376.33 90.224 1375.8 91.134 1374.86 91.456V91.526C1376.04 91.792 1376.89 92.576 1376.89 93.976C1376.89 96.034 1375.24 97 1372.94 97H1369.5V86.696ZM1372.51 90.994C1374.08 90.994 1374.74 90.406 1374.74 89.44C1374.74 88.362 1374.01 87.956 1372.55 87.956H1371.12V90.994H1372.51ZM1372.76 95.726C1374.4 95.726 1375.3 95.18 1375.3 93.892C1375.3 92.716 1374.4 92.226 1372.76 92.226H1371.12V95.726H1372.76ZM1378.84 86.696H1380.7L1382.59 91.904C1382.83 92.59 1383.04 93.276 1383.28 93.99H1383.35C1383.58 93.276 1383.78 92.59 1384.02 91.904L1385.88 86.696H1387.76V97H1386.24V91.904C1386.24 90.98 1386.38 89.65 1386.45 88.712H1386.4L1385.57 91.092L1383.78 96.006H1382.77L1380.97 91.092L1380.15 88.712H1380.1C1380.17 89.65 1380.29 90.98 1380.29 91.904V97H1378.84V86.696ZM1400.59 85.422V98.064H1399.22V91.596H1397.72V97.448H1396.37V85.688H1397.72V90.42H1399.22V85.422H1400.59ZM1391.65 93.878C1393.1 93.864 1394.25 93.794 1395.55 93.528L1395.68 94.718C1394.15 95.012 1392.87 95.068 1391.07 95.068H1390.23V86.934H1394.91V88.11H1391.65V93.878ZM1413.1 85.422V98.106H1411.64V85.422H1413.1ZM1404.79 86.472V89.692H1408V86.472H1409.44V95.096H1403.37V86.472H1404.79ZM1404.79 93.934H1408V90.84H1404.79V93.934Z" fill="#555555"/>
<rect x="214" y="1" width="1" height="119" fill="#E2E4E6"/>
<rect x="428" y="64" width="1" height="56" fill="#E2E4E6"/>
<rect x="642" y="64" width="1" height="56" fill="#E2E4E6"/>
<rect x="856" y="1" width="1" height="119" fill="#E2E4E6"/>
<rect x="1070" y="64" width="1" height="56" fill="#E2E4E6"/>
<rect x="1284" y="64" width="1" height="56" fill="#E2E4E6"/>
<mask id="path-21-inside-3_527_7060" fill="white">
<path d="M0 120H1498V186H0V120Z"/>
</mask>
<path d="M0 120H1498V186H0V120Z" fill="white"/>
<path d="M1498 185H0V187H1498V185Z" fill="#E5E5E5" mask="url(#path-21-inside-3_527_7060)"/>
<path d="M74.6326 158H67.6326V157.104L71.1186 153.604C71.5946 153.128 72.0426 152.652 72.4066 152.078C73.1066 150.818 73.1906 148.858 71.2026 148.858C70.0966 148.858 69.2706 149.67 69.3546 150.776L67.8146 150.496C68.0806 148.648 69.3686 147.542 71.2866 147.542C73.0226 147.542 74.4506 148.578 74.4506 150.454C74.4506 152.022 73.3726 153.128 72.3366 154.164L69.7046 156.824C70.1386 156.712 70.6006 156.628 71.0486 156.628H74.6326V158ZM83.2525 152.834C83.2525 155.298 82.3565 158.112 79.4725 158.112C76.5885 158.112 75.7065 155.298 75.7065 152.834C75.7065 150.37 76.5885 147.542 79.4725 147.542C82.3985 147.542 83.2525 150.454 83.2525 152.834ZM81.6565 152.834C81.6565 151.392 81.4045 148.844 79.4725 148.844C77.5405 148.844 77.2885 151.392 77.2885 152.834C77.2885 154.276 77.5545 156.824 79.4725 156.824C81.4045 156.824 81.6565 154.276 81.6565 152.834ZM91.3123 158H84.3123V157.104L87.7983 153.604C88.2743 153.128 88.7223 152.652 89.0863 152.078C89.7863 150.818 89.8703 148.858 87.8823 148.858C86.7763 148.858 85.9503 149.67 86.0343 150.776L84.4943 150.496C84.7603 148.648 86.0483 147.542 87.9663 147.542C89.7023 147.542 91.1303 148.578 91.1303 150.454C91.1303 152.022 90.0523 153.128 89.0163 154.164L86.3843 156.824C86.8183 156.712 87.2803 156.628 87.7283 156.628H91.3123V158ZM100.086 155.382H98.6581V158H97.3141V155.382H92.2461V154.262L97.2161 147.64H98.6581V154.178H100.086V155.382ZM97.3141 154.178V150.398C97.3141 150.09 97.3421 149.768 97.3841 149.404L93.9121 154.178H97.3141ZM101.034 152.246H105.794V153.436H101.034V152.246ZM114.438 152.834C114.438 155.298 113.542 158.112 110.658 158.112C107.774 158.112 106.892 155.298 106.892 152.834C106.892 150.37 107.774 147.542 110.658 147.542C113.584 147.542 114.438 150.454 114.438 152.834ZM112.842 152.834C112.842 151.392 112.59 148.844 110.658 148.844C108.726 148.844 108.474 151.392 108.474 152.834C108.474 154.276 108.74 156.824 110.658 156.824C112.59 156.824 112.842 154.276 112.842 152.834ZM122.61 148.746L118.06 158H116.38L120.552 149.81C120.678 149.544 120.846 149.292 121.042 149.068H115.512V147.654H122.61V148.746ZM123.88 152.246H128.64V153.436H123.88V152.246ZM137.284 152.834C137.284 155.298 136.388 158.112 133.504 158.112C130.62 158.112 129.738 155.298 129.738 152.834C129.738 150.37 130.62 147.542 133.504 147.542C136.43 147.542 137.284 150.454 137.284 152.834ZM135.688 152.834C135.688 151.392 135.436 148.844 133.504 148.844C131.572 148.844 131.32 151.392 131.32 152.834C131.32 154.276 131.586 156.824 133.504 156.824C135.436 156.824 135.688 154.276 135.688 152.834ZM145.778 155.382H144.35V158H143.006V155.382H137.938V154.262L142.908 147.64H144.35V154.178H145.778V155.382ZM143.006 154.178V150.398C143.006 150.09 143.034 149.768 143.076 149.404L139.604 154.178H143.006Z" fill="#555555"/>
<path d="M294 158L299.196 149H288.804L294 158Z" fill="#007FFF"/>
<path d="M307.734 155.83C308.322 156.39 309.162 156.796 309.988 156.796C311.346 156.796 312.144 155.816 312.144 154.542C312.144 153.268 311.332 152.596 310.044 152.596C309.498 152.596 308.966 152.708 308.448 152.862L307.496 152.596L308.336 147.654H313.348V149.068H309.414L308.994 151.476C309.442 151.378 309.918 151.322 310.366 151.322C312.256 151.322 313.684 152.414 313.684 154.458C313.684 156.642 312.102 158.112 309.89 158.112C309.092 158.112 308.168 157.874 307.51 157.384C307.286 157.244 307.104 157.104 306.936 156.95L307.734 155.83ZM316.746 158.182H315.094V156.446H316.746V158.182ZM325.841 158H318.841V157.104L322.327 153.604C322.803 153.128 323.251 152.652 323.615 152.078C324.315 150.818 324.399 148.858 322.411 148.858C321.305 148.858 320.479 149.67 320.563 150.776L319.023 150.496C319.289 148.648 320.577 147.542 322.495 147.542C324.231 147.542 325.659 148.578 325.659 150.454C325.659 152.022 324.581 153.128 323.545 154.164L320.913 156.824C321.347 156.712 321.809 156.628 322.257 156.628H325.841V158ZM328.524 154.836C328.65 155.9 329.644 156.81 330.708 156.81C331.758 156.81 332.682 156.11 332.682 155.032C332.682 153.45 331.436 153.268 330.176 153.268V152.148C331.338 152.148 332.5 151.84 332.5 150.468C332.5 149.474 331.87 148.858 330.848 148.858C329.784 148.858 328.916 149.67 329 150.776L327.474 150.51C327.74 148.676 329.014 147.542 330.932 147.542C332.5 147.542 333.998 148.452 333.998 150.202C333.998 151.392 333.48 152.176 332.29 152.554C333.522 152.904 334.222 153.688 334.222 154.99C334.222 156.964 332.64 158.126 330.722 158.126C328.832 158.126 327.726 157.272 327.166 155.396L328.524 154.836Z" fill="#1A1A1A"/>
<path d="M508 158L513.196 149H502.804L508 158Z" fill="#007FFF"/>
<path d="M526.788 147.654L523.288 151.994C523.764 151.728 524.31 151.588 524.856 151.588C526.732 151.588 527.922 152.89 527.922 154.682C527.922 156.698 526.312 158.112 524.31 158.112C522.168 158.112 520.81 156.712 520.81 154.514C520.81 153.408 521.398 152.302 522.042 151.434L524.87 147.654H526.788ZM524.282 156.838C525.444 156.838 526.382 156.012 526.382 154.794C526.382 153.562 525.57 152.764 524.338 152.764C523.162 152.764 522.294 153.618 522.294 154.766C522.294 155.97 522.994 156.838 524.282 156.838ZM530.746 158.182H529.094V156.446H530.746V158.182ZM540.121 152.834C540.121 155.298 539.225 158.112 536.341 158.112C533.457 158.112 532.575 155.298 532.575 152.834C532.575 150.37 533.457 147.542 536.341 147.542C539.267 147.542 540.121 150.454 540.121 152.834ZM538.525 152.834C538.525 151.392 538.273 148.844 536.341 148.844C534.409 148.844 534.157 151.392 534.157 152.834C534.157 154.276 534.423 156.824 536.341 156.824C538.273 156.824 538.525 154.276 538.525 152.834ZM548.614 155.382H547.186V158H545.842V155.382H540.774V154.262L545.744 147.64H547.186V154.178H548.614V155.382ZM545.842 154.178V150.398C545.842 150.09 545.87 149.768 545.912 149.404L542.44 154.178H545.842Z" fill="#1A1A1A"/>
<path d="M717.5 158L722.696 149H712.304L717.5 158Z" fill="#007FFF"/>
<path d="M732.18 151.056L731.326 150.02L734.126 147.626H735.386V156.656H737.332V158H731.69V156.656H733.846V150.342C733.846 150.118 733.846 149.88 733.86 149.642L732.18 151.056ZM745.966 158H738.966V157.104L742.452 153.604C742.928 153.128 743.376 152.652 743.74 152.078C744.44 150.818 744.524 148.858 742.536 148.858C741.43 148.858 740.604 149.67 740.688 150.776L739.148 150.496C739.414 148.648 740.702 147.542 742.62 147.542C744.356 147.542 745.784 148.578 745.784 150.454C745.784 152.022 744.706 153.128 743.67 154.164L741.038 156.824C741.472 156.712 741.934 156.628 742.382 156.628H745.966V158ZM748.915 158.182H747.263V156.446H748.915V158.182ZM758.291 152.834C758.291 155.298 757.395 158.112 754.511 158.112C751.627 158.112 750.745 155.298 750.745 152.834C750.745 150.37 751.627 147.542 754.511 147.542C757.437 147.542 758.291 150.454 758.291 152.834ZM756.695 152.834C756.695 151.392 756.443 148.844 754.511 148.844C752.579 148.844 752.327 151.392 752.327 152.834C752.327 154.276 752.593 156.824 754.511 156.824C756.443 156.824 756.695 154.276 756.695 152.834ZM766.784 155.382H765.356V158H764.012V155.382H758.944V154.262L763.914 147.64H765.356V154.178H766.784V155.382ZM764.012 154.178V150.398C764.012 150.09 764.04 149.768 764.082 149.404L760.61 154.178H764.012Z" fill="#1A1A1A"/>
<path d="M931.5 148L936.696 157H926.304L931.5 148Z" fill="#E80C0C"/>
<path d="M945.97 154.836C946.096 155.9 947.09 156.81 948.154 156.81C949.204 156.81 950.128 156.11 950.128 155.032C950.128 153.45 948.882 153.268 947.622 153.268V152.148C948.784 152.148 949.946 151.84 949.946 150.468C949.946 149.474 949.316 148.858 948.294 148.858C947.23 148.858 946.362 149.67 946.446 150.776L944.92 150.51C945.186 148.676 946.46 147.542 948.378 147.542C949.946 147.542 951.444 148.452 951.444 150.202C951.444 151.392 950.926 152.176 949.736 152.554C950.968 152.904 951.668 153.688 951.668 154.99C951.668 156.964 950.086 158.126 948.168 158.126C946.278 158.126 945.172 157.272 944.612 155.396L945.97 154.836ZM954.52 151.056L953.666 150.02L956.466 147.626H957.726V156.656H959.672V158H954.03V156.656H956.186V150.342C956.186 150.118 956.186 149.88 956.2 149.642L954.52 151.056ZM962.915 158.182H961.263V156.446H962.915V158.182ZM972.011 158H965.011V157.104L968.497 153.604C968.973 153.128 969.421 152.652 969.785 152.078C970.485 150.818 970.569 148.858 968.581 148.858C967.475 148.858 966.649 149.67 966.733 150.776L965.193 150.496C965.459 148.648 966.747 147.542 968.665 147.542C970.401 147.542 971.829 148.578 971.829 150.454C971.829 152.022 970.751 153.128 969.715 154.164L967.083 156.824C967.517 156.712 967.979 156.628 968.427 156.628H972.011V158ZM980.462 148.746L975.912 158H974.232L978.404 149.81C978.53 149.544 978.698 149.292 978.894 149.068H973.364V147.654H980.462V148.746Z" fill="#1A1A1A"/>
<path d="M1150 148L1155.2 157H1144.8L1150 148Z" fill="#E80C0C"/>
<path d="M1164.14 154.836C1164.27 155.9 1165.26 156.81 1166.32 156.81C1167.37 156.81 1168.3 156.11 1168.3 155.032C1168.3 153.45 1167.05 153.268 1165.79 153.268V152.148C1166.95 152.148 1168.12 151.84 1168.12 150.468C1168.12 149.474 1167.49 148.858 1166.46 148.858C1165.4 148.858 1164.53 149.67 1164.62 150.776L1163.09 150.51C1163.36 148.676 1164.63 147.542 1166.55 147.542C1168.12 147.542 1169.61 148.452 1169.61 150.202C1169.61 151.392 1169.1 152.176 1167.91 152.554C1169.14 152.904 1169.84 153.688 1169.84 154.99C1169.84 156.964 1168.26 158.126 1166.34 158.126C1164.45 158.126 1163.34 157.272 1162.78 155.396L1164.14 154.836ZM1172.75 158.182H1171.09V156.446H1172.75V158.182ZM1179.99 152.596C1181.21 152.974 1181.9 153.828 1181.9 155.116C1181.9 157.174 1180.17 158.112 1178.35 158.112C1176.45 158.112 1174.81 157.132 1174.81 155.116C1174.81 153.814 1175.5 152.974 1176.73 152.596C1175.69 152.204 1175.16 151.378 1175.16 150.286C1175.16 148.536 1176.7 147.542 1178.35 147.542C1180.01 147.542 1181.55 148.536 1181.55 150.286C1181.55 151.378 1181.01 152.204 1179.99 152.596ZM1178.35 148.718C1177.36 148.718 1176.66 149.32 1176.66 150.314C1176.66 151.406 1177.3 152.022 1178.35 152.022C1179.39 152.022 1180.05 151.392 1180.05 150.314C1180.05 149.292 1179.31 148.718 1178.35 148.718ZM1178.35 156.894C1179.43 156.894 1180.31 156.278 1180.31 155.088C1180.31 153.87 1179.47 153.254 1178.35 153.254C1177.23 153.254 1176.39 153.856 1176.39 155.088C1176.39 156.222 1177.22 156.894 1178.35 156.894ZM1190.29 148.746L1185.74 158H1184.06L1188.23 149.81C1188.36 149.544 1188.53 149.292 1188.72 149.068H1183.19V147.654H1190.29V148.746Z" fill="#1A1A1A"/>
<path d="M1364 148L1369.2 157H1358.8L1364 148Z" fill="#E80C0C"/>
<path d="M1378.14 154.836C1378.27 155.9 1379.26 156.81 1380.32 156.81C1381.37 156.81 1382.3 156.11 1382.3 155.032C1382.3 153.45 1381.05 153.268 1379.79 153.268V152.148C1380.95 152.148 1382.12 151.84 1382.12 150.468C1382.12 149.474 1381.49 148.858 1380.46 148.858C1379.4 148.858 1378.53 149.67 1378.62 150.776L1377.09 150.51C1377.36 148.676 1378.63 147.542 1380.55 147.542C1382.12 147.542 1383.61 148.452 1383.61 150.202C1383.61 151.392 1383.1 152.176 1381.91 152.554C1383.14 152.904 1383.84 153.688 1383.84 154.99C1383.84 156.964 1382.26 158.126 1380.34 158.126C1378.45 158.126 1377.34 157.272 1376.78 155.396L1378.14 154.836ZM1386.75 158.182H1385.09V156.446H1386.75V158.182ZM1396.12 152.834C1396.12 155.298 1395.22 158.112 1392.34 158.112C1389.46 158.112 1388.57 155.298 1388.57 152.834C1388.57 150.37 1389.46 147.542 1392.34 147.542C1395.27 147.542 1396.12 150.454 1396.12 152.834ZM1394.52 152.834C1394.52 151.392 1394.27 148.844 1392.34 148.844C1390.41 148.844 1390.16 151.392 1390.16 152.834C1390.16 154.276 1390.42 156.824 1392.34 156.824C1394.27 156.824 1394.52 154.276 1394.52 152.834ZM1398.73 151.056L1397.88 150.02L1400.68 147.626H1401.94V156.656H1403.89V158H1398.24V156.656H1400.4V150.342C1400.4 150.118 1400.4 149.88 1400.41 149.642L1398.73 151.056Z" fill="#1A1A1A"/>
<mask id="path-36-inside-4_527_7060" fill="white">
<path d="M0 186H1498V252H0V186Z"/>
</mask>
<path d="M0 186H1498V252H0V186Z" fill="white"/>
<path d="M1498 251H0V253H1498V251Z" fill="#E5E5E5" mask="url(#path-36-inside-4_527_7060)"/>
<path d="M74.6326 224H67.6326V223.104L71.1186 219.604C71.5946 219.128 72.0426 218.652 72.4066 218.078C73.1066 216.818 73.1906 214.858 71.2026 214.858C70.0966 214.858 69.2706 215.67 69.3546 216.776L67.8146 216.496C68.0806 214.648 69.3686 213.542 71.2866 213.542C73.0226 213.542 74.4506 214.578 74.4506 216.454C74.4506 218.022 73.3726 219.128 72.3366 220.164L69.7046 222.824C70.1386 222.712 70.6006 222.628 71.0486 222.628H74.6326V224ZM83.2525 218.834C83.2525 221.298 82.3565 224.112 79.4725 224.112C76.5885 224.112 75.7065 221.298 75.7065 218.834C75.7065 216.37 76.5885 213.542 79.4725 213.542C82.3985 213.542 83.2525 216.454 83.2525 218.834ZM81.6565 218.834C81.6565 217.392 81.4045 214.844 79.4725 214.844C77.5405 214.844 77.2885 217.392 77.2885 218.834C77.2885 220.276 77.5545 222.824 79.4725 222.824C81.4045 222.824 81.6565 220.276 81.6565 218.834ZM91.3123 224H84.3123V223.104L87.7983 219.604C88.2743 219.128 88.7223 218.652 89.0863 218.078C89.7863 216.818 89.8703 214.858 87.8823 214.858C86.7763 214.858 85.9503 215.67 86.0343 216.776L84.4943 216.496C84.7603 214.648 86.0483 213.542 87.9663 213.542C89.7023 213.542 91.1303 214.578 91.1303 216.454C91.1303 218.022 90.0523 219.128 89.0163 220.164L86.3843 222.824C86.8183 222.712 87.2803 222.628 87.7283 222.628H91.3123V224ZM100.086 221.382H98.6581V224H97.3141V221.382H92.2461V220.262L97.2161 213.64H98.6581V220.178H100.086V221.382ZM97.3141 220.178V216.398C97.3141 216.09 97.3421 215.768 97.3841 215.404L93.9121 220.178H97.3141ZM101.034 218.246H105.794V219.436H101.034V218.246ZM114.438 218.834C114.438 221.298 113.542 224.112 110.658 224.112C107.774 224.112 106.892 221.298 106.892 218.834C106.892 216.37 107.774 213.542 110.658 213.542C113.584 213.542 114.438 216.454 114.438 218.834ZM112.842 218.834C112.842 217.392 112.59 214.844 110.658 214.844C108.726 214.844 108.474 217.392 108.474 218.834C108.474 220.276 108.74 222.824 110.658 222.824C112.59 222.824 112.842 220.276 112.842 218.834ZM116.436 221.83C117.024 222.39 117.864 222.796 118.69 222.796C120.048 222.796 120.846 221.816 120.846 220.542C120.846 219.268 120.034 218.596 118.746 218.596C118.2 218.596 117.668 218.708 117.15 218.862L116.198 218.596L117.038 213.654H122.05V215.068H118.116L117.696 217.476C118.144 217.378 118.62 217.322 119.068 217.322C120.958 217.322 122.386 218.414 122.386 220.458C122.386 222.642 120.804 224.112 118.592 224.112C117.794 224.112 116.87 223.874 116.212 223.384C115.988 223.244 115.806 223.104 115.638 222.95L116.436 221.83ZM123.88 218.246H128.64V219.436H123.88V218.246ZM137.284 218.834C137.284 221.298 136.388 224.112 133.504 224.112C130.62 224.112 129.738 221.298 129.738 218.834C129.738 216.37 130.62 213.542 133.504 213.542C136.43 213.542 137.284 216.454 137.284 218.834ZM135.688 218.834C135.688 217.392 135.436 214.844 133.504 214.844C131.572 214.844 131.32 217.392 131.32 218.834C131.32 220.276 131.586 222.824 133.504 222.824C135.436 222.824 135.688 220.276 135.688 218.834ZM145.456 214.746L140.906 224H139.226L143.398 215.81C143.524 215.544 143.692 215.292 143.888 215.068H138.358V213.654H145.456V214.746Z" fill="#555555"/>
<path d="M285.5 214L290.696 223H280.304L285.5 214Z" fill="#E80C0C"/>
<path d="M300.01 217.056L299.156 216.02L301.956 213.626H303.216V222.656H305.162V224H299.52V222.656H301.676V216.342C301.676 216.118 301.676 215.88 301.69 215.642L300.01 217.056ZM314.076 218.834C314.076 221.298 313.18 224.112 310.296 224.112C307.412 224.112 306.53 221.298 306.53 218.834C306.53 216.37 307.412 213.542 310.296 213.542C313.222 213.542 314.076 216.454 314.076 218.834ZM312.48 218.834C312.48 217.392 312.228 214.844 310.296 214.844C308.364 214.844 308.112 217.392 308.112 218.834C308.112 220.276 308.378 222.824 310.296 222.824C312.228 222.824 312.48 220.276 312.48 218.834ZM316.746 224.182H315.094V222.446H316.746V224.182ZM326.121 218.834C326.121 221.298 325.225 224.112 322.341 224.112C319.457 224.112 318.575 221.298 318.575 218.834C318.575 216.37 319.457 213.542 322.341 213.542C325.267 213.542 326.121 216.454 326.121 218.834ZM324.525 218.834C324.525 217.392 324.273 214.844 322.341 214.844C320.409 214.844 320.157 217.392 320.157 218.834C320.157 220.276 320.423 222.824 322.341 222.824C324.273 222.824 324.525 220.276 324.525 218.834ZM334.614 221.382H333.186V224H331.842V221.382H326.774V220.262L331.744 213.64H333.186V220.178H334.614V221.382ZM331.842 220.178V216.398C331.842 216.09 331.87 215.768 331.912 215.404L328.44 220.178H331.842ZM336.864 220.836C336.99 221.9 337.984 222.81 339.048 222.81C340.098 222.81 341.022 222.11 341.022 221.032C341.022 219.45 339.776 219.268 338.516 219.268V218.148C339.678 218.148 340.84 217.84 340.84 216.468C340.84 215.474 340.21 214.858 339.188 214.858C338.124 214.858 337.256 215.67 337.34 216.776L335.814 216.51C336.08 214.676 337.354 213.542 339.272 213.542C340.84 213.542 342.338 214.452 342.338 216.202C342.338 217.392 341.82 218.176 340.63 218.554C341.862 218.904 342.562 219.688 342.562 220.99C342.562 222.964 340.98 224.126 339.062 224.126C337.172 224.126 336.066 223.272 335.506 221.396L336.864 220.836Z" fill="#1A1A1A"/>
<path d="M508 214L513.196 223H502.804L508 214Z" fill="#E80C0C"/>
<path d="M527.796 224H520.796V223.104L524.282 219.604C524.758 219.128 525.206 218.652 525.57 218.078C526.27 216.818 526.354 214.858 524.366 214.858C523.26 214.858 522.434 215.67 522.518 216.776L520.978 216.496C521.244 214.648 522.532 213.542 524.45 213.542C526.186 213.542 527.614 214.578 527.614 216.454C527.614 218.022 526.536 219.128 525.5 220.164L522.868 222.824C523.302 222.712 523.764 222.628 524.212 222.628H527.796V224ZM530.746 224.182H529.094V222.446H530.746V224.182ZM533.779 221.83C534.367 222.39 535.207 222.796 536.033 222.796C537.391 222.796 538.189 221.816 538.189 220.542C538.189 219.268 537.377 218.596 536.089 218.596C535.543 218.596 535.011 218.708 534.493 218.862L533.541 218.596L534.381 213.654H539.393V215.068H535.459L535.039 217.476C535.487 217.378 535.963 217.322 536.411 217.322C538.301 217.322 539.729 218.414 539.729 220.458C539.729 222.642 538.147 224.112 535.935 224.112C535.137 224.112 534.213 223.874 533.555 223.384C533.331 223.244 533.149 223.104 532.981 222.95L533.779 221.83ZM542.118 221.83C542.706 222.39 543.546 222.796 544.372 222.796C545.73 222.796 546.528 221.816 546.528 220.542C546.528 219.268 545.716 218.596 544.428 218.596C543.882 218.596 543.35 218.708 542.832 218.862L541.88 218.596L542.72 213.654H547.732V215.068H543.798L543.378 217.476C543.826 217.378 544.302 217.322 544.75 217.322C546.64 217.322 548.068 218.414 548.068 220.458C548.068 222.642 546.486 224.112 544.274 224.112C543.476 224.112 542.552 223.874 541.894 223.384C541.67 223.244 541.488 223.104 541.32 222.95L542.118 221.83Z" fill="#1A1A1A"/>
<path d="M722 214L727.196 223H716.804L722 214Z" fill="#E80C0C"/>
<path d="M736.14 220.836C736.266 221.9 737.26 222.81 738.324 222.81C739.374 222.81 740.298 222.11 740.298 221.032C740.298 219.45 739.052 219.268 737.792 219.268V218.148C738.954 218.148 740.116 217.84 740.116 216.468C740.116 215.474 739.486 214.858 738.464 214.858C737.4 214.858 736.532 215.67 736.616 216.776L735.09 216.51C735.356 214.676 736.63 213.542 738.548 213.542C740.116 213.542 741.614 214.452 741.614 216.202C741.614 217.392 741.096 218.176 739.906 218.554C741.138 218.904 741.838 219.688 741.838 220.99C741.838 222.964 740.256 224.126 738.338 224.126C736.448 224.126 735.342 223.272 734.782 221.396L736.14 220.836ZM744.746 224.182H743.094V222.446H744.746V224.182ZM753.841 224H746.841V223.104L750.327 219.604C750.803 219.128 751.251 218.652 751.615 218.078C752.315 216.818 752.399 214.858 750.411 214.858C749.305 214.858 748.479 215.67 748.563 216.776L747.023 216.496C747.289 214.648 748.577 213.542 750.495 213.542C752.231 213.542 753.659 214.578 753.659 216.454C753.659 218.022 752.581 219.128 751.545 220.164L748.913 222.824C749.347 222.712 749.809 222.628 750.257 222.628H753.841V224ZM756.524 220.836C756.65 221.9 757.644 222.81 758.708 222.81C759.758 222.81 760.682 222.11 760.682 221.032C760.682 219.45 759.436 219.268 758.176 219.268V218.148C759.338 218.148 760.5 217.84 760.5 216.468C760.5 215.474 759.87 214.858 758.848 214.858C757.784 214.858 756.916 215.67 757 216.776L755.474 216.51C755.74 214.676 757.014 213.542 758.932 213.542C760.5 213.542 761.998 214.452 761.998 216.202C761.998 217.392 761.48 218.176 760.29 218.554C761.522 218.904 762.222 219.688 762.222 220.99C762.222 222.964 760.64 224.126 758.722 224.126C756.832 224.126 755.726 223.272 755.166 221.396L756.524 220.836Z" fill="#1A1A1A"/>
<path d="M931.5 214L936.696 223H926.304L931.5 214Z" fill="#E80C0C"/>
<path d="M951.626 224H944.626V223.104L948.112 219.604C948.588 219.128 949.036 218.652 949.4 218.078C950.1 216.818 950.184 214.858 948.196 214.858C947.09 214.858 946.264 215.67 946.348 216.776L944.808 216.496C945.074 214.648 946.362 213.542 948.28 213.542C950.016 213.542 951.444 214.578 951.444 216.454C951.444 218.022 950.366 219.128 949.33 220.164L946.698 222.824C947.132 222.712 947.594 222.628 948.042 222.628H951.626V224ZM954.31 220.836C954.436 221.9 955.43 222.81 956.494 222.81C957.544 222.81 958.468 222.11 958.468 221.032C958.468 219.45 957.222 219.268 955.962 219.268V218.148C957.124 218.148 958.286 217.84 958.286 216.468C958.286 215.474 957.656 214.858 956.634 214.858C955.57 214.858 954.702 215.67 954.786 216.776L953.26 216.51C953.526 214.676 954.8 213.542 956.718 213.542C958.286 213.542 959.784 214.452 959.784 216.202C959.784 217.392 959.266 218.176 958.076 218.554C959.308 218.904 960.008 219.688 960.008 220.99C960.008 222.964 958.426 224.126 956.508 224.126C954.618 224.126 953.512 223.272 952.952 221.396L954.31 220.836ZM962.915 224.182H961.263V222.446H962.915V224.182ZM972.291 218.834C972.291 221.298 971.395 224.112 968.511 224.112C965.627 224.112 964.745 221.298 964.745 218.834C964.745 216.37 965.627 213.542 968.511 213.542C971.437 213.542 972.291 216.454 972.291 218.834ZM970.695 218.834C970.695 217.392 970.443 214.844 968.511 214.844C966.579 214.844 966.327 217.392 966.327 218.834C966.327 220.276 966.593 222.824 968.511 222.824C970.443 222.824 970.695 220.276 970.695 218.834ZM974.694 220.836C974.82 221.9 975.814 222.81 976.878 222.81C977.928 222.81 978.852 222.11 978.852 221.032C978.852 219.45 977.606 219.268 976.346 219.268V218.148C977.508 218.148 978.67 217.84 978.67 216.468C978.67 215.474 978.04 214.858 977.018 214.858C975.954 214.858 975.086 215.67 975.17 216.776L973.644 216.51C973.91 214.676 975.184 213.542 977.102 213.542C978.67 213.542 980.168 214.452 980.168 216.202C980.168 217.392 979.65 218.176 978.46 218.554C979.692 218.904 980.392 219.688 980.392 220.99C980.392 222.964 978.81 224.126 976.892 224.126C975.002 224.126 973.896 223.272 973.336 221.396L974.694 220.836Z" fill="#1A1A1A"/>
<path d="M1145.5 214L1150.7 223H1140.3L1145.5 214Z" fill="#E80C0C"/>
<path d="M1160.18 217.056L1159.33 216.02L1162.13 213.626H1163.39V222.656H1165.33V224H1159.69V222.656H1161.85V216.342C1161.85 216.118 1161.85 215.88 1161.86 215.642L1160.18 217.056ZM1168.31 220.836C1168.44 221.9 1169.43 222.81 1170.49 222.81C1171.54 222.81 1172.47 222.11 1172.47 221.032C1172.47 219.45 1171.22 219.268 1169.96 219.268V218.148C1171.12 218.148 1172.29 217.84 1172.29 216.468C1172.29 215.474 1171.66 214.858 1170.63 214.858C1169.57 214.858 1168.7 215.67 1168.79 216.776L1167.26 216.51C1167.53 214.676 1168.8 213.542 1170.72 213.542C1172.29 213.542 1173.78 214.452 1173.78 216.202C1173.78 217.392 1173.27 218.176 1172.08 218.554C1173.31 218.904 1174.01 219.688 1174.01 220.99C1174.01 222.964 1172.43 224.126 1170.51 224.126C1168.62 224.126 1167.51 223.272 1166.95 221.396L1168.31 220.836ZM1176.92 224.182H1175.26V222.446H1176.92V224.182ZM1179.95 221.83C1180.54 222.39 1181.38 222.796 1182.2 222.796C1183.56 222.796 1184.36 221.816 1184.36 220.542C1184.36 219.268 1183.55 218.596 1182.26 218.596C1181.71 218.596 1181.18 218.708 1180.66 218.862L1179.71 218.596L1180.55 213.654H1185.56V215.068H1181.63L1181.21 217.476C1181.66 217.378 1182.13 217.322 1182.58 217.322C1184.47 217.322 1185.9 218.414 1185.9 220.458C1185.9 222.642 1184.32 224.112 1182.1 224.112C1181.31 224.112 1180.38 223.874 1179.72 223.384C1179.5 223.244 1179.32 223.104 1179.15 222.95L1179.95 221.83ZM1194.63 218.834C1194.63 221.298 1193.73 224.112 1190.85 224.112C1187.97 224.112 1187.08 221.298 1187.08 218.834C1187.08 216.37 1187.97 213.542 1190.85 213.542C1193.78 213.542 1194.63 216.454 1194.63 218.834ZM1193.03 218.834C1193.03 217.392 1192.78 214.844 1190.85 214.844C1188.92 214.844 1188.67 217.392 1188.67 218.834C1188.67 220.276 1188.93 222.824 1190.85 222.824C1192.78 222.824 1193.03 220.276 1193.03 218.834Z" fill="#1A1A1A"/>
<path d="M1364 214L1369.2 223H1358.8L1364 214Z" fill="#E80C0C"/>
<path d="M1381.95 218.596C1383.17 218.974 1383.85 219.828 1383.85 221.116C1383.85 223.174 1382.13 224.112 1380.31 224.112C1378.41 224.112 1376.77 223.132 1376.77 221.116C1376.77 219.814 1377.45 218.974 1378.69 218.596C1377.65 218.204 1377.12 217.378 1377.12 216.286C1377.12 214.536 1378.66 213.542 1380.31 213.542C1381.96 213.542 1383.5 214.536 1383.5 216.286C1383.5 217.378 1382.97 218.204 1381.95 218.596ZM1380.31 214.718C1379.32 214.718 1378.62 215.32 1378.62 216.314C1378.62 217.406 1379.26 218.022 1380.31 218.022C1381.35 218.022 1382 217.392 1382 216.314C1382 215.292 1381.26 214.718 1380.31 214.718ZM1380.31 222.894C1381.39 222.894 1382.27 222.278 1382.27 221.088C1382.27 219.87 1381.43 219.254 1380.31 219.254C1379.19 219.254 1378.35 219.856 1378.35 221.088C1378.35 222.222 1379.18 222.894 1380.31 222.894ZM1386.75 224.182H1385.09V222.446H1386.75V224.182ZM1389.78 221.83C1390.37 222.39 1391.21 222.796 1392.03 222.796C1393.39 222.796 1394.19 221.816 1394.19 220.542C1394.19 219.268 1393.38 218.596 1392.09 218.596C1391.54 218.596 1391.01 218.708 1390.49 218.862L1389.54 218.596L1390.38 213.654H1395.39V215.068H1391.46L1391.04 217.476C1391.49 217.378 1391.96 217.322 1392.41 217.322C1394.3 217.322 1395.73 218.414 1395.73 220.458C1395.73 222.642 1394.15 224.112 1391.93 224.112C1391.14 224.112 1390.21 223.874 1389.55 223.384C1389.33 223.244 1389.15 223.104 1388.98 222.95L1389.78 221.83ZM1404.46 218.834C1404.46 221.298 1403.56 224.112 1400.68 224.112C1397.8 224.112 1396.91 221.298 1396.91 218.834C1396.91 216.37 1397.8 213.542 1400.68 213.542C1403.61 213.542 1404.46 216.454 1404.46 218.834ZM1402.86 218.834C1402.86 217.392 1402.61 214.844 1400.68 214.844C1398.75 214.844 1398.5 217.392 1398.5 218.834C1398.5 220.276 1398.76 222.824 1400.68 222.824C1402.61 222.824 1402.86 220.276 1402.86 218.834Z" fill="#1A1A1A"/>
<mask id="path-51-inside-5_527_7060" fill="white">
<path d="M0 252H1498V318H0V252Z"/>
</mask>
<path d="M0 252H1498V318H0V252Z" fill="white"/>
<path d="M1498 317H0V319H1498V317Z" fill="#E5E5E5" mask="url(#path-51-inside-5_527_7060)"/>
<path d="M74.6326 290H67.6326V289.104L71.1186 285.604C71.5946 285.128 72.0426 284.652 72.4066 284.078C73.1066 282.818 73.1906 280.858 71.2026 280.858C70.0966 280.858 69.2706 281.67 69.3546 282.776L67.8146 282.496C68.0806 280.648 69.3686 279.542 71.2866 279.542C73.0226 279.542 74.4506 280.578 74.4506 282.454C74.4506 284.022 73.3726 285.128 72.3366 286.164L69.7046 288.824C70.1386 288.712 70.6006 288.628 71.0486 288.628H74.6326V290ZM83.2525 284.834C83.2525 287.298 82.3565 290.112 79.4725 290.112C76.5885 290.112 75.7065 287.298 75.7065 284.834C75.7065 282.37 76.5885 279.542 79.4725 279.542C82.3985 279.542 83.2525 282.454 83.2525 284.834ZM81.6565 284.834C81.6565 283.392 81.4045 280.844 79.4725 280.844C77.5405 280.844 77.2885 283.392 77.2885 284.834C77.2885 286.276 77.5545 288.824 79.4725 288.824C81.4045 288.824 81.6565 286.276 81.6565 284.834ZM91.3123 290H84.3123V289.104L87.7983 285.604C88.2743 285.128 88.7223 284.652 89.0863 284.078C89.7863 282.818 89.8703 280.858 87.8823 280.858C86.7763 280.858 85.9503 281.67 86.0343 282.776L84.4943 282.496C84.7603 280.648 86.0483 279.542 87.9663 279.542C89.7023 279.542 91.1303 280.578 91.1303 282.454C91.1303 284.022 90.0523 285.128 89.0163 286.164L86.3843 288.824C86.8183 288.712 87.2803 288.628 87.7283 288.628H91.3123V290ZM100.086 287.382H98.6581V290H97.3141V287.382H92.2461V286.262L97.2161 279.64H98.6581V286.178H100.086V287.382ZM97.3141 286.178V282.398C97.3141 282.09 97.3421 281.768 97.3841 281.404L93.9121 286.178H97.3141ZM101.034 284.246H105.794V285.436H101.034V284.246ZM114.438 284.834C114.438 287.298 113.542 290.112 110.658 290.112C107.774 290.112 106.892 287.298 106.892 284.834C106.892 282.37 107.774 279.542 110.658 279.542C113.584 279.542 114.438 282.454 114.438 284.834ZM112.842 284.834C112.842 283.392 112.59 280.844 110.658 280.844C108.726 280.844 108.474 283.392 108.474 284.834C108.474 286.276 108.74 288.824 110.658 288.824C112.59 288.824 112.842 286.276 112.842 284.834ZM116.436 287.83C117.024 288.39 117.864 288.796 118.69 288.796C120.048 288.796 120.846 287.816 120.846 286.542C120.846 285.268 120.034 284.596 118.746 284.596C118.2 284.596 117.668 284.708 117.15 284.862L116.198 284.596L117.038 279.654H122.05V281.068H118.116L117.696 283.476C118.144 283.378 118.62 283.322 119.068 283.322C120.958 283.322 122.386 284.414 122.386 286.458C122.386 288.642 120.804 290.112 118.592 290.112C117.794 290.112 116.87 289.874 116.212 289.384C115.988 289.244 115.806 289.104 115.638 288.95L116.436 287.83ZM123.88 284.246H128.64V285.436H123.88V284.246ZM137.284 284.834C137.284 287.298 136.388 290.112 133.504 290.112C130.62 290.112 129.738 287.298 129.738 284.834C129.738 282.37 130.62 279.542 133.504 279.542C136.43 279.542 137.284 282.454 137.284 284.834ZM135.688 284.834C135.688 283.392 135.436 280.844 133.504 280.844C131.572 280.844 131.32 283.392 131.32 284.834C131.32 286.276 131.586 288.824 133.504 288.824C135.436 288.824 135.688 286.276 135.688 284.834ZM145.456 280.746L140.906 290H139.226L143.398 281.81C143.524 281.544 143.692 281.292 143.888 281.068H138.358V279.654H145.456V280.746Z" fill="#555555"/>
<path d="M294 290L299.196 281H288.804L294 290Z" fill="#007FFF"/>
<path d="M313.796 290H306.796V289.104L310.282 285.604C310.758 285.128 311.206 284.652 311.57 284.078C312.27 282.818 312.354 280.858 310.366 280.858C309.26 280.858 308.434 281.67 308.518 282.776L306.978 282.496C307.244 280.648 308.532 279.542 310.45 279.542C312.186 279.542 313.614 280.578 313.614 282.454C313.614 284.022 312.536 285.128 311.5 286.164L308.868 288.824C309.302 288.712 309.764 288.628 310.212 288.628H313.796V290ZM316.746 290.182H315.094V288.446H316.746V290.182ZM325.841 290H318.841V289.104L322.327 285.604C322.803 285.128 323.251 284.652 323.615 284.078C324.315 282.818 324.399 280.858 322.411 280.858C321.305 280.858 320.479 281.67 320.563 282.776L319.023 282.496C319.289 280.648 320.577 279.542 322.495 279.542C324.231 279.542 325.659 280.578 325.659 282.454C325.659 284.022 324.581 285.128 323.545 286.164L320.913 288.824C321.347 288.712 321.809 288.628 322.257 288.628H325.841V290ZM328.118 287.83C328.706 288.39 329.546 288.796 330.372 288.796C331.73 288.796 332.528 287.816 332.528 286.542C332.528 285.268 331.716 284.596 330.428 284.596C329.882 284.596 329.35 284.708 328.832 284.862L327.88 284.596L328.72 279.654H333.732V281.068H329.798L329.378 283.476C329.826 283.378 330.302 283.322 330.75 283.322C332.64 283.322 334.068 284.414 334.068 286.458C334.068 288.642 332.486 290.112 330.274 290.112C329.476 290.112 328.552 289.874 327.894 289.384C327.67 289.244 327.488 289.104 327.32 288.95L328.118 287.83Z" fill="#1A1A1A"/>
<path d="M508 290L513.196 281H502.804L508 290Z" fill="#007FFF"/>
<path d="M522.14 286.836C522.266 287.9 523.26 288.81 524.324 288.81C525.374 288.81 526.298 288.11 526.298 287.032C526.298 285.45 525.052 285.268 523.792 285.268V284.148C524.954 284.148 526.116 283.84 526.116 282.468C526.116 281.474 525.486 280.858 524.464 280.858C523.4 280.858 522.532 281.67 522.616 282.776L521.09 282.51C521.356 280.676 522.63 279.542 524.548 279.542C526.116 279.542 527.614 280.452 527.614 282.202C527.614 283.392 527.096 284.176 525.906 284.554C527.138 284.904 527.838 285.688 527.838 286.99C527.838 288.964 526.256 290.126 524.338 290.126C522.448 290.126 521.342 289.272 520.782 287.396L522.14 286.836ZM530.746 290.182H529.094V288.446H530.746V290.182ZM533.779 287.83C534.367 288.39 535.207 288.796 536.033 288.796C537.391 288.796 538.189 287.816 538.189 286.542C538.189 285.268 537.377 284.596 536.089 284.596C535.543 284.596 535.011 284.708 534.493 284.862L533.541 284.596L534.381 279.654H539.393V281.068H535.459L535.039 283.476C535.487 283.378 535.963 283.322 536.411 283.322C538.301 283.322 539.729 284.414 539.729 286.458C539.729 288.642 538.147 290.112 535.935 290.112C535.137 290.112 534.213 289.874 533.555 289.384C533.331 289.244 533.149 289.104 532.981 288.95L533.779 287.83ZM547.172 279.654L543.672 283.994C544.148 283.728 544.694 283.588 545.24 283.588C547.116 283.588 548.306 284.89 548.306 286.682C548.306 288.698 546.696 290.112 544.694 290.112C542.552 290.112 541.194 288.712 541.194 286.514C541.194 285.408 541.782 284.302 542.426 283.434L545.254 279.654H547.172ZM544.666 288.838C545.828 288.838 546.766 288.012 546.766 286.794C546.766 285.562 545.954 284.764 544.722 284.764C543.546 284.764 542.678 285.618 542.678 286.766C542.678 287.97 543.378 288.838 544.666 288.838Z" fill="#1A1A1A"/>
<path d="M717.5 280L722.696 289H712.304L717.5 280Z" fill="#E80C0C"/>
<path d="M737.626 290H730.626V289.104L734.112 285.604C734.588 285.128 735.036 284.652 735.4 284.078C736.1 282.818 736.184 280.858 734.196 280.858C733.09 280.858 732.264 281.67 732.348 282.776L730.808 282.496C731.074 280.648 732.362 279.542 734.28 279.542C736.016 279.542 737.444 280.578 737.444 282.454C737.444 284.022 736.366 285.128 735.33 286.164L732.698 288.824C733.132 288.712 733.594 288.628 734.042 288.628H737.626V290ZM740.52 283.056L739.666 282.02L742.466 279.626H743.726V288.656H745.672V290H740.03V288.656H742.186V282.342C742.186 282.118 742.186 281.88 742.2 281.642L740.52 283.056ZM748.915 290.182H747.263V288.446H748.915V290.182ZM751.949 287.83C752.537 288.39 753.377 288.796 754.203 288.796C755.561 288.796 756.359 287.816 756.359 286.542C756.359 285.268 755.547 284.596 754.259 284.596C753.713 284.596 753.181 284.708 752.663 284.862L751.711 284.596L752.551 279.654H757.563V281.068H753.629L753.209 283.476C753.657 283.378 754.133 283.322 754.581 283.322C756.471 283.322 757.899 284.414 757.899 286.458C757.899 288.642 756.317 290.112 754.105 290.112C753.307 290.112 752.383 289.874 751.725 289.384C751.501 289.244 751.319 289.104 751.151 288.95L751.949 287.83ZM766.784 287.382H765.356V290H764.012V287.382H758.944V286.262L763.914 279.64H765.356V286.178H766.784V287.382ZM764.012 286.178V282.398C764.012 282.09 764.04 281.768 764.082 281.404L760.61 286.178H764.012Z" fill="#1A1A1A"/>
<path d="M931.5 280L936.696 289H926.304L931.5 280Z" fill="#E80C0C"/>
<path d="M952.06 287.382H950.632V290H949.288V287.382H944.22V286.262L949.19 279.64H950.632V286.178H952.06V287.382ZM949.288 286.178V282.398C949.288 282.09 949.316 281.768 949.358 281.404L945.886 286.178H949.288ZM954.31 286.836C954.436 287.9 955.43 288.81 956.494 288.81C957.544 288.81 958.468 288.11 958.468 287.032C958.468 285.45 957.222 285.268 955.962 285.268V284.148C957.124 284.148 958.286 283.84 958.286 282.468C958.286 281.474 957.656 280.858 956.634 280.858C955.57 280.858 954.702 281.67 954.786 282.776L953.26 282.51C953.526 280.676 954.8 279.542 956.718 279.542C958.286 279.542 959.784 280.452 959.784 282.202C959.784 283.392 959.266 284.176 958.076 284.554C959.308 284.904 960.008 285.688 960.008 286.99C960.008 288.964 958.426 290.126 956.508 290.126C954.618 290.126 953.512 289.272 952.952 287.396L954.31 286.836ZM962.915 290.182H961.263V288.446H962.915V290.182ZM972.291 284.834C972.291 287.298 971.395 290.112 968.511 290.112C965.627 290.112 964.745 287.298 964.745 284.834C964.745 282.37 965.627 279.542 968.511 279.542C971.437 279.542 972.291 282.454 972.291 284.834ZM970.695 284.834C970.695 283.392 970.443 280.844 968.511 280.844C966.579 280.844 966.327 283.392 966.327 284.834C966.327 286.276 966.593 288.824 968.511 288.824C970.443 288.824 970.695 286.276 970.695 284.834ZM974.694 286.836C974.82 287.9 975.814 288.81 976.878 288.81C977.928 288.81 978.852 288.11 978.852 287.032C978.852 285.45 977.606 285.268 976.346 285.268V284.148C977.508 284.148 978.67 283.84 978.67 282.468C978.67 281.474 978.04 280.858 977.018 280.858C975.954 280.858 975.086 281.67 975.17 282.776L973.644 282.51C973.91 280.676 975.184 279.542 977.102 279.542C978.67 279.542 980.168 280.452 980.168 282.202C980.168 283.392 979.65 284.176 978.46 284.554C979.692 284.904 980.392 285.688 980.392 286.99C980.392 288.964 978.81 290.126 976.892 290.126C975.002 290.126 973.896 289.272 973.336 287.396L974.694 286.836Z" fill="#1A1A1A"/>
<path d="M1145.5 280L1150.7 289H1140.3L1145.5 280Z" fill="#E80C0C"/>
<path d="M1165.63 290H1158.63V289.104L1162.11 285.604C1162.59 285.128 1163.04 284.652 1163.4 284.078C1164.1 282.818 1164.18 280.858 1162.2 280.858C1161.09 280.858 1160.26 281.67 1160.35 282.776L1158.81 282.496C1159.07 280.648 1160.36 279.542 1162.28 279.542C1164.02 279.542 1165.44 280.578 1165.44 282.454C1165.44 284.022 1164.37 285.128 1163.33 286.164L1160.7 288.824C1161.13 288.712 1161.59 288.628 1162.04 288.628H1165.63V290ZM1174.4 287.382H1172.97V290H1171.63V287.382H1166.56V286.262L1171.53 279.64H1172.97V286.178H1174.4V287.382ZM1171.63 286.178V282.398C1171.63 282.09 1171.66 281.768 1171.7 281.404L1168.23 286.178H1171.63ZM1176.92 290.182H1175.26V288.446H1176.92V290.182ZM1186.29 284.834C1186.29 287.298 1185.39 290.112 1182.51 290.112C1179.63 290.112 1178.74 287.298 1178.74 284.834C1178.74 282.37 1179.63 279.542 1182.51 279.542C1185.44 279.542 1186.29 282.454 1186.29 284.834ZM1184.69 284.834C1184.69 283.392 1184.44 280.844 1182.51 280.844C1180.58 280.844 1180.33 283.392 1180.33 284.834C1180.33 286.276 1180.59 288.824 1182.51 288.824C1184.44 288.824 1184.69 286.276 1184.69 284.834ZM1194.35 290H1187.35V289.104L1190.84 285.604C1191.31 285.128 1191.76 284.652 1192.12 284.078C1192.82 282.818 1192.91 280.858 1190.92 280.858C1189.81 280.858 1188.99 281.67 1189.07 282.776L1187.53 282.496C1187.8 280.648 1189.09 279.542 1191 279.542C1192.74 279.542 1194.17 280.578 1194.17 282.454C1194.17 284.022 1193.09 285.128 1192.05 286.164L1189.42 288.824C1189.86 288.712 1190.32 288.628 1190.77 288.628H1194.35V290Z" fill="#1A1A1A"/>
<path d="M1359.5 280L1364.7 289H1354.3L1359.5 280Z" fill="#E80C0C"/>
<path d="M1374.18 283.056L1373.33 282.02L1376.13 279.626H1377.39V288.656H1379.33V290H1373.69V288.656H1375.85V282.342C1375.85 282.118 1375.85 281.88 1375.86 281.642L1374.18 283.056ZM1388.4 287.382H1386.97V290H1385.63V287.382H1380.56V286.262L1385.53 279.64H1386.97V286.178H1388.4V287.382ZM1385.63 286.178V282.398C1385.63 282.09 1385.66 281.768 1385.7 281.404L1382.23 286.178H1385.63ZM1390.92 290.182H1389.26V288.446H1390.92V290.182ZM1400.29 284.834C1400.29 287.298 1399.39 290.112 1396.51 290.112C1393.63 290.112 1392.74 287.298 1392.74 284.834C1392.74 282.37 1393.63 279.542 1396.51 279.542C1399.44 279.542 1400.29 282.454 1400.29 284.834ZM1398.69 284.834C1398.69 283.392 1398.44 280.844 1396.51 280.844C1394.58 280.844 1394.33 283.392 1394.33 284.834C1394.33 286.276 1394.59 288.824 1396.51 288.824C1398.44 288.824 1398.69 286.276 1398.69 284.834ZM1402.29 287.83C1402.88 288.39 1403.72 288.796 1404.54 288.796C1405.9 288.796 1406.7 287.816 1406.7 286.542C1406.7 285.268 1405.89 284.596 1404.6 284.596C1404.05 284.596 1403.52 284.708 1403 284.862L1402.05 284.596L1402.89 279.654H1407.9V281.068H1403.97L1403.55 283.476C1404 283.378 1404.47 283.322 1404.92 283.322C1406.81 283.322 1408.24 284.414 1408.24 286.458C1408.24 288.642 1406.66 290.112 1404.44 290.112C1403.65 290.112 1402.72 289.874 1402.06 289.384C1401.84 289.244 1401.66 289.104 1401.49 288.95L1402.29 287.83Z" fill="#1A1A1A"/>
<mask id="path-66-inside-6_527_7060" fill="white">
<path d="M0 318H1498V384H0V318Z"/>
</mask>
<path d="M0 318H1498V384H0V318Z" fill="white"/>
<path d="M1498 383H0V385H1498V383Z" fill="#E5E5E5" mask="url(#path-66-inside-6_527_7060)"/>
<path d="M74.6326 356H67.6326V355.104L71.1186 351.604C71.5946 351.128 72.0426 350.652 72.4066 350.078C73.1066 348.818 73.1906 346.858 71.2026 346.858C70.0966 346.858 69.2706 347.67 69.3546 348.776L67.8146 348.496C68.0806 346.648 69.3686 345.542 71.2866 345.542C73.0226 345.542 74.4506 346.578 74.4506 348.454C74.4506 350.022 73.3726 351.128 72.3366 352.164L69.7046 354.824C70.1386 354.712 70.6006 354.628 71.0486 354.628H74.6326V356ZM83.2525 350.834C83.2525 353.298 82.3565 356.112 79.4725 356.112C76.5885 356.112 75.7065 353.298 75.7065 350.834C75.7065 348.37 76.5885 345.542 79.4725 345.542C82.3985 345.542 83.2525 348.454 83.2525 350.834ZM81.6565 350.834C81.6565 349.392 81.4045 346.844 79.4725 346.844C77.5405 346.844 77.2885 349.392 77.2885 350.834C77.2885 352.276 77.5545 354.824 79.4725 354.824C81.4045 354.824 81.6565 352.276 81.6565 350.834ZM91.3123 356H84.3123V355.104L87.7983 351.604C88.2743 351.128 88.7223 350.652 89.0863 350.078C89.7863 348.818 89.8703 346.858 87.8823 346.858C86.7763 346.858 85.9503 347.67 86.0343 348.776L84.4943 348.496C84.7603 346.648 86.0483 345.542 87.9663 345.542C89.7023 345.542 91.1303 346.578 91.1303 348.454C91.1303 350.022 90.0523 351.128 89.0163 352.164L86.3843 354.824C86.8183 354.712 87.2803 354.628 87.7283 354.628H91.3123V356ZM100.086 353.382H98.6581V356H97.3141V353.382H92.2461V352.262L97.2161 345.64H98.6581V352.178H100.086V353.382ZM97.3141 352.178V348.398C97.3141 348.09 97.3421 347.768 97.3841 347.404L93.9121 352.178H97.3141ZM101.034 350.246H105.794V351.436H101.034V350.246ZM114.438 350.834C114.438 353.298 113.542 356.112 110.658 356.112C107.774 356.112 106.892 353.298 106.892 350.834C106.892 348.37 107.774 345.542 110.658 345.542C113.584 345.542 114.438 348.454 114.438 350.834ZM112.842 350.834C112.842 349.392 112.59 346.844 110.658 346.844C108.726 346.844 108.474 349.392 108.474 350.834C108.474 352.276 108.74 354.824 110.658 354.824C112.59 354.824 112.842 352.276 112.842 350.834ZM116.436 353.83C117.024 354.39 117.864 354.796 118.69 354.796C120.048 354.796 120.846 353.816 120.846 352.542C120.846 351.268 120.034 350.596 118.746 350.596C118.2 350.596 117.668 350.708 117.15 350.862L116.198 350.596L117.038 345.654H122.05V347.068H118.116L117.696 349.476C118.144 349.378 118.62 349.322 119.068 349.322C120.958 349.322 122.386 350.414 122.386 352.458C122.386 354.642 120.804 356.112 118.592 356.112C117.794 356.112 116.87 355.874 116.212 355.384C115.988 355.244 115.806 355.104 115.638 354.95L116.436 353.83ZM123.88 350.246H128.64V351.436H123.88V350.246ZM137.284 350.834C137.284 353.298 136.388 356.112 133.504 356.112C130.62 356.112 129.738 353.298 129.738 350.834C129.738 348.37 130.62 345.542 133.504 345.542C136.43 345.542 137.284 348.454 137.284 350.834ZM135.688 350.834C135.688 349.392 135.436 346.844 133.504 346.844C131.572 346.844 131.32 349.392 131.32 350.834C131.32 352.276 131.586 354.824 133.504 354.824C135.436 354.824 135.688 352.276 135.688 350.834ZM145.456 346.746L140.906 356H139.226L143.398 347.81C143.524 347.544 143.692 347.292 143.888 347.068H138.358V345.654H145.456V346.746Z" fill="#555555"/>
<path d="M294 356L299.196 347H288.804L294 356Z" fill="#007FFF"/>
<path d="M307.734 353.83C308.322 354.39 309.162 354.796 309.988 354.796C311.346 354.796 312.144 353.816 312.144 352.542C312.144 351.268 311.332 350.596 310.044 350.596C309.498 350.596 308.966 350.708 308.448 350.862L307.496 350.596L308.336 345.654H313.348V347.068H309.414L308.994 349.476C309.442 349.378 309.918 349.322 310.366 349.322C312.256 349.322 313.684 350.414 313.684 352.458C313.684 354.642 312.102 356.112 309.89 356.112C309.092 356.112 308.168 355.874 307.51 355.384C307.286 355.244 307.104 355.104 306.936 354.95L307.734 353.83ZM316.746 356.182H315.094V354.446H316.746V356.182ZM325.841 356H318.841V355.104L322.327 351.604C322.803 351.128 323.251 350.652 323.615 350.078C324.315 348.818 324.399 346.858 322.411 346.858C321.305 346.858 320.479 347.67 320.563 348.776L319.023 348.496C319.289 346.648 320.577 345.542 322.495 345.542C324.231 345.542 325.659 346.578 325.659 348.454C325.659 350.022 324.581 351.128 323.545 352.164L320.913 354.824C321.347 354.712 321.809 354.628 322.257 354.628H325.841V356ZM328.524 352.836C328.65 353.9 329.644 354.81 330.708 354.81C331.758 354.81 332.682 354.11 332.682 353.032C332.682 351.45 331.436 351.268 330.176 351.268V350.148C331.338 350.148 332.5 349.84 332.5 348.468C332.5 347.474 331.87 346.858 330.848 346.858C329.784 346.858 328.916 347.67 329 348.776L327.474 348.51C327.74 346.676 329.014 345.542 330.932 345.542C332.5 345.542 333.998 346.452 333.998 348.202C333.998 349.392 333.48 350.176 332.29 350.554C333.522 350.904 334.222 351.688 334.222 352.99C334.222 354.964 332.64 356.126 330.722 356.126C328.832 356.126 327.726 355.272 327.166 353.396L328.524 352.836Z" fill="#1A1A1A"/>
<path d="M508 356L513.196 347H502.804L508 356Z" fill="#007FFF"/>
<path d="M526.788 345.654L523.288 349.994C523.764 349.728 524.31 349.588 524.856 349.588C526.732 349.588 527.922 350.89 527.922 352.682C527.922 354.698 526.312 356.112 524.31 356.112C522.168 356.112 520.81 354.712 520.81 352.514C520.81 351.408 521.398 350.302 522.042 349.434L524.87 345.654H526.788ZM524.282 354.838C525.444 354.838 526.382 354.012 526.382 352.794C526.382 351.562 525.57 350.764 524.338 350.764C523.162 350.764 522.294 351.618 522.294 352.766C522.294 353.97 522.994 354.838 524.282 354.838ZM530.746 356.182H529.094V354.446H530.746V356.182ZM540.121 350.834C540.121 353.298 539.225 356.112 536.341 356.112C533.457 356.112 532.575 353.298 532.575 350.834C532.575 348.37 533.457 345.542 536.341 345.542C539.267 345.542 540.121 348.454 540.121 350.834ZM538.525 350.834C538.525 349.392 538.273 346.844 536.341 346.844C534.409 346.844 534.157 349.392 534.157 350.834C534.157 352.276 534.423 354.824 536.341 354.824C538.273 354.824 538.525 352.276 538.525 350.834ZM548.614 353.382H547.186V356H545.842V353.382H540.774V352.262L545.744 345.64H547.186V352.178H548.614V353.382ZM545.842 352.178V348.398C545.842 348.09 545.87 347.768 545.912 347.404L542.44 352.178H545.842Z" fill="#1A1A1A"/>
<path d="M722 346L727.196 355H716.804L722 346Z" fill="#E80C0C"/>
<path d="M736.14 352.836C736.266 353.9 737.26 354.81 738.324 354.81C739.374 354.81 740.298 354.11 740.298 353.032C740.298 351.45 739.052 351.268 737.792 351.268V350.148C738.954 350.148 740.116 349.84 740.116 348.468C740.116 347.474 739.486 346.858 738.464 346.858C737.4 346.858 736.532 347.67 736.616 348.776L735.09 348.51C735.356 346.676 736.63 345.542 738.548 345.542C740.116 345.542 741.614 346.452 741.614 348.202C741.614 349.392 741.096 350.176 739.906 350.554C741.138 350.904 741.838 351.688 741.838 352.99C741.838 354.964 740.256 356.126 738.338 356.126C736.448 356.126 735.342 355.272 734.782 353.396L736.14 352.836ZM744.746 356.182H743.094V354.446H744.746V356.182ZM747.779 353.83C748.367 354.39 749.207 354.796 750.033 354.796C751.391 354.796 752.189 353.816 752.189 352.542C752.189 351.268 751.377 350.596 750.089 350.596C749.543 350.596 749.011 350.708 748.493 350.862L747.541 350.596L748.381 345.654H753.393V347.068H749.459L749.039 349.476C749.487 349.378 749.963 349.322 750.411 349.322C752.301 349.322 753.729 350.414 753.729 352.458C753.729 354.642 752.147 356.112 749.935 356.112C749.137 356.112 748.213 355.874 747.555 355.384C747.331 355.244 747.149 355.104 746.981 354.95L747.779 353.83ZM756.118 353.83C756.706 354.39 757.546 354.796 758.372 354.796C759.73 354.796 760.528 353.816 760.528 352.542C760.528 351.268 759.716 350.596 758.428 350.596C757.882 350.596 757.35 350.708 756.832 350.862L755.88 350.596L756.72 345.654H761.732V347.068H757.798L757.378 349.476C757.826 349.378 758.302 349.322 758.75 349.322C760.64 349.322 762.068 350.414 762.068 352.458C762.068 354.642 760.486 356.112 758.274 356.112C757.476 356.112 756.552 355.874 755.894 355.384C755.67 355.244 755.488 355.104 755.32 354.95L756.118 353.83Z" fill="#1A1A1A"/>
<path d="M931.5 346L936.696 355H926.304L931.5 346Z" fill="#E80C0C"/>
<path d="M951.626 356H944.626V355.104L948.112 351.604C948.588 351.128 949.036 350.652 949.4 350.078C950.1 348.818 950.184 346.858 948.196 346.858C947.09 346.858 946.264 347.67 946.348 348.776L944.808 348.496C945.074 346.648 946.362 345.542 948.28 345.542C950.016 345.542 951.444 346.578 951.444 348.454C951.444 350.022 950.366 351.128 949.33 352.164L946.698 354.824C947.132 354.712 947.594 354.628 948.042 354.628H951.626V356ZM954.52 349.056L953.666 348.02L956.466 345.626H957.726V354.656H959.672V356H954.03V354.656H956.186V348.342C956.186 348.118 956.186 347.88 956.2 347.642L954.52 349.056ZM962.915 356.182H961.263V354.446H962.915V356.182ZM972.291 350.834C972.291 353.298 971.395 356.112 968.511 356.112C965.627 356.112 964.745 353.298 964.745 350.834C964.745 348.37 965.627 345.542 968.511 345.542C971.437 345.542 972.291 348.454 972.291 350.834ZM970.695 350.834C970.695 349.392 970.443 346.844 968.511 346.844C966.579 346.844 966.327 349.392 966.327 350.834C966.327 352.276 966.593 354.824 968.511 354.824C970.443 354.824 970.695 352.276 970.695 350.834ZM974.904 349.056L974.05 348.02L976.85 345.626H978.11V354.656H980.056V356H974.414V354.656H976.57V348.342C976.57 348.118 976.57 347.88 976.584 347.642L974.904 349.056Z" fill="#1A1A1A"/>
<path d="M1150 346L1155.2 355H1144.8L1150 346Z" fill="#E80C0C"/>
<path d="M1170.08 350.834C1170.08 353.298 1169.18 356.112 1166.3 356.112C1163.41 356.112 1162.53 353.298 1162.53 350.834C1162.53 348.37 1163.41 345.542 1166.3 345.542C1169.22 345.542 1170.08 348.454 1170.08 350.834ZM1168.48 350.834C1168.48 349.392 1168.23 346.844 1166.3 346.844C1164.36 346.844 1164.11 349.392 1164.11 350.834C1164.11 352.276 1164.38 354.824 1166.3 354.824C1168.23 354.824 1168.48 352.276 1168.48 350.834ZM1172.75 356.182H1171.09V354.446H1172.75V356.182ZM1179.99 350.596C1181.21 350.974 1181.9 351.828 1181.9 353.116C1181.9 355.174 1180.17 356.112 1178.35 356.112C1176.45 356.112 1174.81 355.132 1174.81 353.116C1174.81 351.814 1175.5 350.974 1176.73 350.596C1175.69 350.204 1175.16 349.378 1175.16 348.286C1175.16 346.536 1176.7 345.542 1178.35 345.542C1180.01 345.542 1181.55 346.536 1181.55 348.286C1181.55 349.378 1181.01 350.204 1179.99 350.596ZM1178.35 346.718C1177.36 346.718 1176.66 347.32 1176.66 348.314C1176.66 349.406 1177.3 350.022 1178.35 350.022C1179.39 350.022 1180.05 349.392 1180.05 348.314C1180.05 347.292 1179.31 346.718 1178.35 346.718ZM1178.35 354.894C1179.43 354.894 1180.31 354.278 1180.31 353.088C1180.31 351.87 1179.47 351.254 1178.35 351.254C1177.23 351.254 1176.39 351.856 1176.39 353.088C1176.39 354.222 1177.22 354.894 1178.35 354.894ZM1190.29 346.746L1185.74 356H1184.06L1188.23 347.81C1188.36 347.544 1188.53 347.292 1188.72 347.068H1183.19V345.654H1190.29V346.746Z" fill="#1A1A1A"/>
<path d="M1364 346L1369.2 355H1358.8L1364 346Z" fill="#E80C0C"/>
<path d="M1383.8 356H1376.8V355.104L1380.28 351.604C1380.76 351.128 1381.21 350.652 1381.57 350.078C1382.27 348.818 1382.35 346.858 1380.37 346.858C1379.26 346.858 1378.43 347.67 1378.52 348.776L1376.98 348.496C1377.24 346.648 1378.53 345.542 1380.45 345.542C1382.19 345.542 1383.61 346.578 1383.61 348.454C1383.61 350.022 1382.54 351.128 1381.5 352.164L1378.87 354.824C1379.3 354.712 1379.76 354.628 1380.21 354.628H1383.8V356ZM1386.75 356.182H1385.09V354.446H1386.75V356.182ZM1389.78 353.83C1390.37 354.39 1391.21 354.796 1392.03 354.796C1393.39 354.796 1394.19 353.816 1394.19 352.542C1394.19 351.268 1393.38 350.596 1392.09 350.596C1391.54 350.596 1391.01 350.708 1390.49 350.862L1389.54 350.596L1390.38 345.654H1395.39V347.068H1391.46L1391.04 349.476C1391.49 349.378 1391.96 349.322 1392.41 349.322C1394.3 349.322 1395.73 350.414 1395.73 352.458C1395.73 354.642 1394.15 356.112 1391.93 356.112C1391.14 356.112 1390.21 355.874 1389.55 355.384C1389.33 355.244 1389.15 355.104 1388.98 354.95L1389.78 353.83ZM1403.17 345.654L1399.67 349.994C1400.15 349.728 1400.69 349.588 1401.24 349.588C1403.12 349.588 1404.31 350.89 1404.31 352.682C1404.31 354.698 1402.7 356.112 1400.69 356.112C1398.55 356.112 1397.19 354.712 1397.19 352.514C1397.19 351.408 1397.78 350.302 1398.43 349.434L1401.25 345.654H1403.17ZM1400.67 354.838C1401.83 354.838 1402.77 354.012 1402.77 352.794C1402.77 351.562 1401.95 350.764 1400.72 350.764C1399.55 350.764 1398.68 351.618 1398.68 352.766C1398.68 353.97 1399.38 354.838 1400.67 354.838Z" fill="#1A1A1A"/>
</svg>
