<svg id="logo-white" xmlns="http://www.w3.org/2000/svg" xmlns:xlink="http://www.w3.org/1999/xlink" width="120" height="41" viewBox="0 0 120 41">
  <defs>
    <clipPath id="clip-path">
      <rect id="사각형_37" data-name="사각형 37" width="120" height="41" fill="none"/>
    </clipPath>
  </defs>
  <g id="그룹_20" data-name="그룹 20" clip-path="url(#clip-path)">
    <path id="패스_1" data-name="패스 1" d="M73.114,35.063H66.755v.165a6.187,6.187,0,0,1-.53,2.19s-5.654,14.471-5.87,15.03C60.123,51.9,53.7,36.8,53.7,36.8l-.107-.241a3.36,3.36,0,0,1-.389-1.333V35.1l-.125-.034h-6.9v.32l.081.039c1.312.479,1.5,2.23,1.5,3.234l0,15.136c0,1.756-.189,3.716-1.6,4.962l-.042.044v.288h6.125v-.317l-.077-.037c-1.34-.6-1.452-2.117-1.452-3.564v-.444l0-.426s.011-13.751.011-14.906c.446,1.073,6.6,15.717,6.6,15.717a8.937,8.937,0,0,0,3.213,4.419l.133.1S68.1,40.583,68.557,39.4c0,1.242,0,16.739,0,16.739,0,1.119-.169,2.206-1.384,2.592l-.091.025v.329h6.885v-.3l-.055-.039a3.974,3.974,0,0,1-1.785-3.577V37.426c0-.4.077-1.727,1.03-2l.089-.032v-.327Z" transform="translate(-25.338 -19.225)" fill="#fff"/>
    <path id="패스_2" data-name="패스 2" d="M112.192,46.352a11.963,11.963,0,0,1,20.647-8.269,13.47,13.47,0,1,0-6.933,20.137,11.612,11.612,0,0,1-1.731.14,11.993,11.993,0,0,1-11.983-12.008" transform="translate(-59.437 -17.547)" fill="#fff"/>
    <path id="패스_3" data-name="패스 3" d="M133.4,40.39a10.463,10.463,0,0,0-9.933,5.067,9.139,9.139,0,1,1,6.073,15.092,8.945,8.945,0,0,1-2-.422A10.5,10.5,0,1,0,133.4,40.39" transform="translate(-67.837 -22.121)" fill="#fff"/>
    <path id="패스_4" data-name="패스 4" d="M179.679,45.1c2.261-1.08,3.378-2.609,3.378-4.67,0-3.354-2.865-5.361-7.655-5.361h-8.665v.319l.079.039c1.567.578,1.531,2.725,1.509,4.3l0,.531V53.863l0,.5c.018,1.6.042,3.785-1.512,4.376l-.077.03v.325h6.67c2.541.01,5.164.013,7.522-1.133a7.365,7.365,0,0,0,4.393-6.439c0-3.139-2.157-5.563-5.643-6.421m-7.433-7.3c.209-.02,2.3-.243,2.3-.243a4.3,4.3,0,0,1,3.269,1,3.231,3.231,0,0,1,1.053,2.455c0,3.45-4.636,3.623-5.564,3.623h-1.062Zm7.538,17.192a5.838,5.838,0,0,1-4.51,1.246s-2.494-.23-3.028-.276V47.267c.221-.009,2.4-.135,2.4-.135a6.962,6.962,0,0,1,5.121,1.579,4.146,4.146,0,0,1,1.308,3.136,4.046,4.046,0,0,1-1.293,3.142" transform="translate(-91.613 -19.226)" fill="#fff"/>
    <path id="패스_5" data-name="패스 5" d="M216.7,35.063h-6.975v.32l.083.039c1.56.578,1.531,2.741,1.509,4.317l-.005.547V53.906l.005.477c.016,1.6.045,3.791-1.509,4.35l-.083.03v.325h7.1v-.325l-.086-.03c-1.551-.59-1.523-2.761-1.508-4.35l.005-.477V40.286l-.005-.48c-.016-1.6-.043-3.795,1.508-4.391l.086-.033v-.32Z" transform="translate(-115.234 -19.225)" fill="#fff"/>
    <path id="패스_6" data-name="패스 6" d="M227.833,40.2c0,4.2,3.708,5.86,6.984,7.334,2.781,1.242,5.41,2.428,5.41,4.946,0,2.366-2.916,3.631-5.023,3.631a12.3,12.3,0,0,1-7.811-2.969l-.293-.255,1.145,4.959.067.023a18.666,18.666,0,0,0,6.493,1.094c5.4,0,9.783-3.414,9.783-7.605,0-3.675-3.7-5.371-6.969-6.866-2.789-1.276-5.426-2.484-5.426-4.691,0-2.334,2.433-3.16,4.522-3.16a8.1,8.1,0,0,1,5.567,2.235l.212.227V34.612l-.085-.026a18.063,18.063,0,0,0-5.4-.8c-4.236,0-9.174,1.677-9.174,6.418" transform="translate(-124.78 -18.523)" fill="#fff"/>
    <path id="패스_7" data-name="패스 7" d="M7.225,4.123H2.308V0H0V10.56H2.308V6.185H7.225V10.56H9.533V0H7.225Z" transform="translate(0 0)" fill="#fff"/>
    <path id="패스_8" data-name="패스 8" d="M126.689.6a2.382,2.382,0,0,0-.515,1.644V10.56h2.307V7.188h4.9V10.56h2.314V0h-7.2a2.385,2.385,0,0,0-1.807.6m2.378,1.459h4.313V5.129h-4.9V2.666a.871.871,0,0,1,.086-.471c.11-.137.282-.124.5-.132" transform="translate(-69.326 0)" fill="#fff"/>
    <path id="패스_9" data-name="패스 9" d="M82.28,0H75.071V10.56H77.38v-8.5h4.329c.216.008.391-.005.5.132a.811.811,0,0,1,.091.471V10.56H84.6V2.247A2.369,2.369,0,0,0,84.091.6,2.389,2.389,0,0,0,82.28,0" transform="translate(-41.248 0)" fill="#fff"/>
    <path id="패스_10" data-name="패스 10" d="M56.605,7.893a.8.8,0,0,1-.089.467c-.107.14-.285.128-.5.132H51.69V0H49.381V10.561h7.208A2.386,2.386,0,0,0,58.4,9.955a2.384,2.384,0,0,0,.517-1.643V0H56.605Z" transform="translate(-27.132 0)" fill="#fff"/>
    <path id="패스_11" data-name="패스 11" d="M110.3,2.247A2.358,2.358,0,0,0,109.79.6a2.38,2.38,0,0,0-1.805-.6h-7.211V10.561h7.211a2.388,2.388,0,0,0,1.805-.606,2.355,2.355,0,0,0,.512-1.643ZM108,7.893a.861.861,0,0,1-.089.467c-.109.14-.284.128-.5.132h-4.332V2.063h4.332c.217.008.392,0,.5.132a.882.882,0,0,1,.089.471Z" transform="translate(-55.37 0)" fill="#fff"/>
    <path id="패스_12" data-name="패스 12" d="M28.517,4.619,25.718,0h-2.74l4.3,6.659v3.9h2.468v-3.9L34.061,0H31.316Z" transform="translate(-12.625 0)" fill="#fff"/>
    <rect id="사각형_36" data-name="사각형 36" width="2.462" height="10.56" transform="translate(68.68)" fill="#fff"/>
  </g>
</svg>
