<svg width="189" height="40" viewBox="0 0 189 40" fill="none" xmlns="http://www.w3.org/2000/svg">
<path fill-rule="evenodd" clip-rule="evenodd" d="M3.066 5.32515H9.46022V0H12.5666V13.8373H9.46022V8.06841H3.066V13.8373H0V0H3.066V5.32515ZM38.7883 31.8108H50.8707V33.1219C50.8707 34.3523 49.8017 35.3205 48.4905 35.3609H37.3561C36.045 35.3609 34.9759 34.3523 34.9759 33.1219V25.4569C34.9759 24.2265 36.1055 23.1372 37.4166 23.1372H56.4984V18.4979H34.7944C31.8696 18.4979 29.4894 20.8176 29.4894 23.6819V34.8163C29.4894 37.6805 31.5267 39.6371 34.9356 40.0002H51.0724C54.5015 39.6371 56.5186 37.6805 56.5186 34.8163V26.4251H38.7883V31.8108ZM109.186 32.9599C109.186 34.15 108.076 35.1384 106.705 35.1384H95.1466C93.775 35.1384 92.6656 34.1701 92.6656 32.9599V25.779C92.6454 24.3872 93.8154 23.3181 95.2878 23.3383H106.725C108.096 23.3383 109.206 24.3065 109.206 25.5168V32.9599H109.186ZM109.287 18.5174H92.5244C89.0146 18.8805 86.8765 20.8371 86.8765 23.6812V34.7753C87.2194 38.0228 89.0751 39.5962 92.6656 39.9391H109.287C113.079 39.7374 114.934 37.6194 114.934 34.7753V23.6812C114.934 20.8169 112.695 18.8805 109.287 18.5174ZM151.444 18.5587H157.153V39.9803H151.444V18.5587ZM132.262 34.352L122.883 18.78H116.428L129.196 39.9999H135.308L148.096 18.78H141.642L132.262 34.352ZM61.7229 18.7583H67.1691V35.0767H84.7784V39.6152H61.7229V18.7583ZM183.193 26.3848H179.28H169.658C169.658 26.3848 168.065 26.526 168.065 25.4569V24.2668C168.065 23.0767 169.476 23.1977 169.476 23.1977H187.933V18.4979H167.621C164.494 18.4979 162.094 19.7283 162.134 23.7222V26.647C162.033 31.125 165.664 31.6292 166.774 31.7099H181.619C181.619 31.7099 182.608 31.6292 182.608 32.9V34.0498C182.628 35.4012 181.539 35.2802 181.539 35.2802H162.78V40.0002H183.152C186.299 39.8187 188.478 38.7294 188.478 34.7759V31.5687C188.478 27.7362 186.299 26.5663 183.152 26.3646L183.193 26.3848ZM20.9569 5.9908L17.3059 0H13.7356L19.2827 8.47184V13.8373H22.631V8.69372L28.2184 0H24.628L20.9569 5.9908ZM41.734 11.5381V11.6389H41.6937C41.5727 12.5466 41.0079 13.8376 38.8496 13.8376H29.3288V0.0607627H32.1931V11.2153H38.4663C38.4663 11.2153 38.8697 11.1548 38.8697 10.1261V0.0607627H41.734V10.7918C41.734 10.7918 41.7744 11.1145 41.734 11.5381ZM57.1448 2.25964C57.0237 1.35194 56.4589 0.0408216 54.3006 0.0609927H44.7799V13.8378H47.6442V2.68323H53.9174C53.9174 2.68323 54.3208 2.74374 54.3208 3.77246V13.8378H57.1851V3.10682C57.1851 3.10682 57.2254 2.78408 57.1851 2.36049V2.25964H57.1448ZM69.5893 10.1263V3.77246C69.5893 2.74374 69.1859 2.68323 69.1859 2.68323H62.7312V11.2156H69.1859C69.1859 11.2156 69.5893 11.1551 69.5893 10.1263ZM72.4334 11.6392C72.3124 12.5469 71.7476 13.858 69.5893 13.8378H59.887V0.0609927H69.5893C71.7678 0.0408216 72.3124 1.35194 72.4334 2.25964V2.36049C72.4738 2.78408 72.4334 3.10682 72.4334 3.10682V10.792C72.4334 10.792 72.4738 11.1147 72.4334 11.5383V11.6392ZM78.3243 2.68323H84.537V6.8788H77.9209V3.77246C77.9209 2.74374 78.3243 2.68323 78.3243 2.68323ZM75.0365 3.10682V13.8378H77.9007V9.35984H84.5169V13.8378H87.603V0.0609927H77.9007C75.7425 0.0408216 75.1777 1.35194 75.0566 2.25964V2.36049C75.0163 2.78408 75.0566 3.10682 75.0566 3.10682H75.0365ZM90.5277 0.0607627H93.7752V13.8376H90.5277V0.0607627Z" fill="#0B3190"/>
</svg>
